<?xml version="1.0" encoding="UTF-8" standalone="no"?>
<!DOCTYPE svg PUBLIC "-//W3C//DTD SVG 1.1//EN" "http://www.w3.org/Graphics/SVG/1.1/DTD/svg11.dtd">
<!-- Generiert durch Microsoft Visio, SVG Export 16.svg Page-1 -->
<svg xmlns="http://www.w3.org/2000/svg" xmlns:xlink="http://www.w3.org/1999/xlink" xmlns:ev="http://www.w3.org/2001/xml-events"
		xmlns:v="http://schemas.microsoft.com/visio/2003/SVGExtensions/" width="5.20768in" height="2.44414in"
		viewBox="0 0 374.953 175.978" xml:space="preserve" color-interpolation-filters="sRGB" class="st11">
	<v:documentProperties v:langID="1031" v:metric="true" v:viewMarkup="false">
		<v:userDefs>
			<v:ud v:nameU="msvNoAutoConnect" v:val="VT0(0):26"/>
			<v:ud v:nameU="msvConvertTheme"/>
		</v:userDefs>
	</v:documentProperties>

	<style type="text/css">
	<![CDATA[
		.st1 {fill:#000000;stroke:none;stroke-linecap:round;stroke-linejoin:round;stroke-width:0.75}
		.st2 {fill:url(#grad0-6);stroke:#ffffff;stroke-linecap:round;stroke-linejoin:round;stroke-width:0.25}
		.st3 {fill:none;stroke:none;stroke-linecap:round;stroke-linejoin:round;stroke-width:0.25}
		.st4 {fill:url(#grad0-6);stroke:#404040;stroke-linecap:round;stroke-linejoin:round;stroke-width:0.25}
		.st5 {fill:url(#grad0-44);stroke:none;stroke-linecap:round;stroke-linejoin:round;stroke-width:0.25}
		.st6 {fill:url(#grad0-6);stroke:#7f7f7f;stroke-linecap:round;stroke-linejoin:round;stroke-width:0.25}
		.st7 {fill:url(#grad0-139);stroke:#000000;stroke-linecap:round;stroke-linejoin:round;stroke-width:0.25}
		.st8 {fill:url(#grad0-6);stroke:#000000;stroke-linecap:round;stroke-linejoin:round;stroke-width:0.25}
		.st9 {fill:#000000;font-family:Calibri;font-size:0.333344em}
		.st10 {stroke:#c00000;stroke-linecap:round;stroke-linejoin:round;stroke-width:3}
		.st11 {fill:none;fill-rule:evenodd;font-size:12px;overflow:visible;stroke-linecap:square;stroke-miterlimit:3}
	]]>
	</style>

	<defs id="Patterns_And_Gradients">
		<linearGradient id="grad0-6" x1="0" y1="0" x2="1" y2="0" gradientTransform="rotate(270 0.5 0.5)">
			<stop offset="0" stop-color="#f0f0f0" stop-opacity="1"/>
			<stop offset="1" stop-color="#ffffff" stop-opacity="1"/>
		</linearGradient>
		<linearGradient id="grad0-44" x1="0" y1="0" x2="1" y2="0" gradientTransform="rotate(270 0.5 0.5)">
			<stop offset="0" stop-color="#c3d7e8" stop-opacity="1"/>
			<stop offset="1" stop-color="#adc9e0" stop-opacity="1"/>
		</linearGradient>
		<linearGradient id="grad0-139" x1="0" y1="0" x2="1" y2="0" gradientTransform="rotate(270 0.5 0.5)">
			<stop offset="0" stop-color="#c9c9c9" stop-opacity="1"/>
			<stop offset="1" stop-color="#d8d8d8" stop-opacity="1"/>
		</linearGradient>
	</defs>
	<g v:mID="4" v:index="1" v:groupContext="backgroundPage">
		<v:userDefs>
			<v:ud v:nameU="msvThemeColors" v:val="VT0(36):26"/>
			<v:ud v:nameU="msvThemeEffects" v:val="VT0(16):26"/>
			<v:ud v:nameU="msvThemeOrder" v:val="VT0(0):26"/>
			<v:ud v:nameU="msvVisioCreated" v:prompt="" v:val="VT0(0):26"/>
		</v:userDefs>
		<title>VHintergrund-1</title>
		<v:pageProperties width="5.20768" height="2.44414" v:drawingScale="0.0393701" v:pageScale="0.0393701" v:drawingUnits="24"
				v:shadowOffsetX="8.50394" v:shadowOffsetY="-8.50394"/>
		<g id="shape1-1" v:mID="1" v:groupContext="shape">
			<title>Vollton</title>
			<v:userDefs>
				<v:ud v:nameU="Background" v:val="VT0(0):26"/>
				<v:ud v:nameU="visVersion" v:val="VT0(14):26"/>
				<v:ud v:nameU="msvShapeCategories" v:prompt="" v:val="VT4(DoNotContain)"/>
				<v:ud v:nameU="msvThemeColors" v:val="VT0(36):26"/>
				<v:ud v:nameU="msvVisioCreated" v:prompt="" v:val="VT0(0):26"/>
			</v:userDefs>
			<rect x="0" y="0" width="374.953" height="175.978" class="st1"/>
		</g>
		<g id="shape2-3" v:mID="2" v:groupContext="shape" transform="translate(222.201,234.318) rotate(180)">
			<title>Pfeil 60 Grad-Spitze</title>
			<v:userDefs>
				<v:ud v:nameU="visVersion" v:val="VT0(14):26"/>
				<v:ud v:nameU="msvThemeColors" v:val="VT0(36):26"/>
				<v:ud v:nameU="msvThemeEffects" v:val="VT0(16):26"/>
			</v:userDefs>
			<path d="M0 168.89 L4.09 161.8 L4.09 166.48 L69.45 166.48 L69.45 171.3 L4.09 171.3 L4.09 175.98 L0 168.89 Z"
					class="st2"/>
		</g>
	</g>
	<g v:mID="0" v:index="2" v:groupContext="foregroundPage">
		<v:userDefs>
			<v:ud v:nameU="msvThemeColors" v:val="VT0(36):26"/>
			<v:ud v:nameU="msvThemeEffects" v:val="VT0(16):26"/>
			<v:ud v:nameU="msvThemeOrder" v:val="VT0(0):26"/>
		</v:userDefs>
		<title>Zeichenblatt-1</title>
		<v:pageProperties v:drawingScale="0.0393701" v:pageScale="0.0393701" v:drawingUnits="24" v:shadowOffsetX="8.50394"
				v:shadowOffsetY="-8.50394"/>
		<v:layer v:name="Flussdiagramm" v:index="0"/>
		<v:layer v:name="Verbinder" v:index="1"/>
		<g id="shape195-7" v:mID="195" v:groupContext="shape" transform="translate(125.787,-123.895)">
			<title>Rechteck.195</title>
			<v:userDefs>
				<v:ud v:nameU="visVersion" v:val="VT0(15):26"/>
				<v:ud v:nameU="msvThemeColors" v:val="VT0(36):26"/>
				<v:ud v:nameU="msvThemeEffects" v:val="VT0(16):26"/>
			</v:userDefs>
			<rect x="0" y="128.965" width="123.307" height="47.0131" class="st3"/>
		</g>
		<g id="shape192-9" v:mID="192" v:groupContext="shape" transform="translate(1.59872E-014,-2.26772)">
			<title>Rechteck.13.192</title>
			<v:userDefs>
				<v:ud v:nameU="visVersion" v:val="VT0(15):26"/>
				<v:ud v:nameU="msvThemeColors" v:val="VT0(36):26"/>
				<v:ud v:nameU="msvThemeEffects" v:val="VT0(16):26"/>
			</v:userDefs>
			<rect x="0" y="3.63146" width="123.307" height="172.346" class="st3"/>
		</g>
		<g id="shape194-11" v:mID="194" v:groupContext="shape" transform="translate(251.575,-2.26772)">
			<title>Rechteck.194</title>
			<v:userDefs>
				<v:ud v:nameU="visVersion" v:val="VT0(15):26"/>
				<v:ud v:nameU="msvThemeColors" v:val="VT0(36):26"/>
				<v:ud v:nameU="msvThemeEffects" v:val="VT0(16):26"/>
			</v:userDefs>
			<rect x="0" y="3.63146" width="123.307" height="172.346" class="st3"/>
		</g>
		<g id="group561-13" transform="translate(18.8151,-10.4675)" v:mID="561" v:groupContext="group">
			<v:userDefs>
				<v:ud v:nameU="msvThemeColors" v:val="VT0(36):26"/>
				<v:ud v:nameU="msvThemeEffects" v:val="VT0(16):26"/>
			</v:userDefs>
			<title>Tabelle.561</title>
			<g id="shape562-14" v:mID="562" v:groupContext="shape" transform="translate(37.4999,-84.6243) scale(-1,1)">
				<title>Tabelle.562</title>
				<v:userDefs>
					<v:ud v:nameU="msvThemeColors" v:val="VT0(36):26"/>
					<v:ud v:nameU="msvThemeEffects" v:val="VT0(16):26"/>
				</v:userDefs>
				<path d="M0.95 121.64 L0.95 126.75 A3.18192 2.44763 -180 0 0 0 128.49 L0 173.53 A3.18192 2.44763 -180 0 0 6.36 173.53
							 L6.36 128.49 A3.18192 2.44763 -180 0 0 5.41 126.75 L5.41 121.64 L0.95 121.64 Z" class="st4"/>
			</g>
			<g id="shape563-17" v:mID="563" v:groupContext="shape" transform="translate(37.4894,-132.791) scale(-1,1)">
				<title>Tabelle.563</title>
				<v:userDefs>
					<v:ud v:nameU="msvThemeColors" v:val="VT0(36):26"/>
					<v:ud v:nameU="msvThemeEffects" v:val="VT0(16):26"/>
				</v:userDefs>
				<path d="M0 165.3 L0 168.33 L1.47 168.33 L1.47 173.68 L1.49 173.68 L3.18 175.98 L4.88 173.68 L4.9 173.68 L4.9 168.33
							 L6.36 168.33 L6.36 165.3 L0 165.3 Z" class="st4"/>
			</g>
			<g id="shape564-20" v:mID="564" v:groupContext="shape" v:layerMember="0"
					transform="translate(37.4999,-137.493) scale(-1,1)">
				<title>Start/Ende.31</title>
				<v:custProps>
					<v:cp v:nameU="Cost" v:lbl="Kosten" v:prompt="" v:type="7" v:format="@" v:sortKey="" v:invis="false"
							v:ask="false" v:langID="1031" v:cal="0"/>
					<v:cp v:nameU="ProcessNumber" v:lbl="Prozessnummer" v:prompt="" v:type="2" v:format="" v:sortKey=""
							v:invis="false" v:ask="false" v:langID="1031" v:cal="0"/>
					<v:cp v:nameU="Owner" v:lbl="Besitzer" v:prompt="" v:type="0" v:format="" v:sortKey="" v:invis="false"
							v:ask="false" v:langID="1031" v:cal="0"/>
					<v:cp v:nameU="Function" v:lbl="Funktionsname" v:prompt="" v:type="0" v:format="" v:sortKey="" v:invis="false"
							v:ask="false" v:langID="1031" v:cal="0" v:val="VT4()"/>
					<v:cp v:nameU="StartDate" v:lbl="Startdatum" v:prompt="" v:type="5" v:format="" v:sortKey="" v:invis="false"
							v:ask="false" v:langID="1031" v:cal="0"/>
					<v:cp v:nameU="EndDate" v:lbl="Enddatum" v:prompt="" v:type="5" v:format="" v:sortKey="" v:invis="false"
							v:ask="false" v:langID="1031" v:cal="0"/>
					<v:cp v:nameU="Status" v:lbl="Status" v:prompt="" v:type="4"
							v:format=";Nicht begonnen;In Bearbeitung;Abgeschlossen;Zurückgestellt;Auf Eingabe wartend" v:sortKey=""
							v:invis="false" v:ask="false" v:langID="1031" v:cal="0" v:val="VT4()"/>
				</v:custProps>
				<v:userDefs>
					<v:ud v:nameU="visVersion" v:prompt="" v:val="VT0(14):26"/>
					<v:ud v:nameU="DefaultWidth" v:prompt="" v:val="VT0(0.98425196850394):24"/>
					<v:ud v:nameU="DefaultHeight" v:prompt="" v:val="VT0(0.39370078740157):24"/>
					<v:ud v:nameU="ResizeTxtHeight" v:prompt="" v:val="VT0(0.39370078740157):24"/>
					<v:ud v:nameU="msvThemeColors" v:val="VT0(36):26"/>
					<v:ud v:nameU="msvThemeEffects" v:val="VT0(16):26"/>
				</v:userDefs>
				<path d="M0.73 175.98 L5.63 175.98 a0.734289 0.734289 -180 1 0 0 -1.46858 L0.73 174.51 a0.734289 0.734289 -180 1
							 0 -9.99201E-015 1.46858 Z" class="st4"/>
			</g>
			<g id="shape565-23" v:mID="565" v:groupContext="shape" transform="translate(25.6753,-84.6243) scale(-1,1)">
				<title>Tabelle.565</title>
				<v:userDefs>
					<v:ud v:nameU="msvThemeColors" v:val="VT0(36):26"/>
					<v:ud v:nameU="msvThemeEffects" v:val="VT0(16):26"/>
				</v:userDefs>
				<path d="M0.95 121.64 L0.95 126.75 A3.18192 2.44763 -180 0 0 0 128.49 L0 173.53 A3.18192 2.44763 -180 0 0 6.36 173.53
							 L6.36 128.49 A3.18192 2.44763 -180 0 0 5.41 126.75 L5.41 121.64 L0.95 121.64 Z" class="st4"/>
			</g>
			<g id="shape566-26" v:mID="566" v:groupContext="shape" transform="translate(25.6648,-132.791) scale(-1,1)">
				<title>Tabelle.566</title>
				<v:userDefs>
					<v:ud v:nameU="msvThemeColors" v:val="VT0(36):26"/>
					<v:ud v:nameU="msvThemeEffects" v:val="VT0(16):26"/>
				</v:userDefs>
				<path d="M0 165.3 L0 168.33 L1.47 168.33 L1.47 173.68 L1.49 173.68 L3.18 175.98 L4.88 173.68 L4.9 173.68 L4.9 168.33
							 L6.36 168.33 L6.36 165.3 L0 165.3 Z" class="st4"/>
			</g>
			<g id="shape567-29" v:mID="567" v:groupContext="shape" v:layerMember="0"
					transform="translate(25.6753,-137.493) scale(-1,1)">
				<title>Start/Ende.37</title>
				<v:custProps>
					<v:cp v:nameU="Cost" v:lbl="Kosten" v:prompt="" v:type="7" v:format="@" v:sortKey="" v:invis="false"
							v:ask="false" v:langID="1031" v:cal="0"/>
					<v:cp v:nameU="ProcessNumber" v:lbl="Prozessnummer" v:prompt="" v:type="2" v:format="" v:sortKey=""
							v:invis="false" v:ask="false" v:langID="1031" v:cal="0"/>
					<v:cp v:nameU="Owner" v:lbl="Besitzer" v:prompt="" v:type="0" v:format="" v:sortKey="" v:invis="false"
							v:ask="false" v:langID="1031" v:cal="0"/>
					<v:cp v:nameU="Function" v:lbl="Funktionsname" v:prompt="" v:type="0" v:format="" v:sortKey="" v:invis="false"
							v:ask="false" v:langID="1031" v:cal="0" v:val="VT4()"/>
					<v:cp v:nameU="StartDate" v:lbl="Startdatum" v:prompt="" v:type="5" v:format="" v:sortKey="" v:invis="false"
							v:ask="false" v:langID="1031" v:cal="0"/>
					<v:cp v:nameU="EndDate" v:lbl="Enddatum" v:prompt="" v:type="5" v:format="" v:sortKey="" v:invis="false"
							v:ask="false" v:langID="1031" v:cal="0"/>
					<v:cp v:nameU="Status" v:lbl="Status" v:prompt="" v:type="4"
							v:format=";Nicht begonnen;In Bearbeitung;Abgeschlossen;Zurückgestellt;Auf Eingabe wartend" v:sortKey=""
							v:invis="false" v:ask="false" v:langID="1031" v:cal="0" v:val="VT4()"/>
				</v:custProps>
				<v:userDefs>
					<v:ud v:nameU="visVersion" v:prompt="" v:val="VT0(14):26"/>
					<v:ud v:nameU="DefaultWidth" v:prompt="" v:val="VT0(0.98425196850394):24"/>
					<v:ud v:nameU="DefaultHeight" v:prompt="" v:val="VT0(0.39370078740157):24"/>
					<v:ud v:nameU="ResizeTxtHeight" v:prompt="" v:val="VT0(0.39370078740157):24"/>
					<v:ud v:nameU="msvThemeColors" v:val="VT0(36):26"/>
					<v:ud v:nameU="msvThemeEffects" v:val="VT0(16):26"/>
				</v:userDefs>
				<path d="M0.73 175.98 L5.63 175.98 a0.734289 0.734289 -180 1 0 0 -1.46858 L0.73 174.51 a0.734289 0.734289 -180 1
							 0 -9.99201E-015 1.46858 Z" class="st4"/>
			</g>
			<g id="shape568-32" v:mID="568" v:groupContext="shape" transform="translate(13.9583,-84.6243) scale(-1,1)">
				<title>Tabelle.568</title>
				<v:userDefs>
					<v:ud v:nameU="msvThemeColors" v:val="VT0(36):26"/>
					<v:ud v:nameU="msvThemeEffects" v:val="VT0(16):26"/>
				</v:userDefs>
				<path d="M0.95 121.64 L0.95 126.75 A3.18192 2.44763 -180 0 0 0 128.49 L0 173.53 A3.18192 2.44763 -180 0 0 6.36 173.53
							 L6.36 128.49 A3.18192 2.44763 -180 0 0 5.41 126.75 L5.41 121.64 L0.95 121.64 Z" class="st4"/>
			</g>
			<g id="shape569-35" v:mID="569" v:groupContext="shape" transform="translate(13.9477,-132.791) scale(-1,1)">
				<title>Tabelle.569</title>
				<v:userDefs>
					<v:ud v:nameU="msvThemeColors" v:val="VT0(36):26"/>
					<v:ud v:nameU="msvThemeEffects" v:val="VT0(16):26"/>
				</v:userDefs>
				<path d="M0 165.3 L0 168.33 L1.47 168.33 L1.47 173.68 L1.49 173.68 L3.18 175.98 L4.88 173.68 L4.9 173.68 L4.9 168.33
							 L6.36 168.33 L6.36 165.3 L0 165.3 Z" class="st4"/>
			</g>
			<g id="shape570-38" v:mID="570" v:groupContext="shape" v:layerMember="0"
					transform="translate(13.9583,-137.493) scale(-1,1)">
				<title>Start/Ende.40</title>
				<v:custProps>
					<v:cp v:nameU="Cost" v:lbl="Kosten" v:prompt="" v:type="7" v:format="@" v:sortKey="" v:invis="false"
							v:ask="false" v:langID="1031" v:cal="0"/>
					<v:cp v:nameU="ProcessNumber" v:lbl="Prozessnummer" v:prompt="" v:type="2" v:format="" v:sortKey=""
							v:invis="false" v:ask="false" v:langID="1031" v:cal="0"/>
					<v:cp v:nameU="Owner" v:lbl="Besitzer" v:prompt="" v:type="0" v:format="" v:sortKey="" v:invis="false"
							v:ask="false" v:langID="1031" v:cal="0"/>
					<v:cp v:nameU="Function" v:lbl="Funktionsname" v:prompt="" v:type="0" v:format="" v:sortKey="" v:invis="false"
							v:ask="false" v:langID="1031" v:cal="0" v:val="VT4()"/>
					<v:cp v:nameU="StartDate" v:lbl="Startdatum" v:prompt="" v:type="5" v:format="" v:sortKey="" v:invis="false"
							v:ask="false" v:langID="1031" v:cal="0"/>
					<v:cp v:nameU="EndDate" v:lbl="Enddatum" v:prompt="" v:type="5" v:format="" v:sortKey="" v:invis="false"
							v:ask="false" v:langID="1031" v:cal="0"/>
					<v:cp v:nameU="Status" v:lbl="Status" v:prompt="" v:type="4"
							v:format=";Nicht begonnen;In Bearbeitung;Abgeschlossen;Zurückgestellt;Auf Eingabe wartend" v:sortKey=""
							v:invis="false" v:ask="false" v:langID="1031" v:cal="0" v:val="VT4()"/>
				</v:custProps>
				<v:userDefs>
					<v:ud v:nameU="visVersion" v:prompt="" v:val="VT0(14):26"/>
					<v:ud v:nameU="DefaultWidth" v:prompt="" v:val="VT0(0.98425196850394):24"/>
					<v:ud v:nameU="DefaultHeight" v:prompt="" v:val="VT0(0.39370078740157):24"/>
					<v:ud v:nameU="ResizeTxtHeight" v:prompt="" v:val="VT0(0.39370078740157):24"/>
					<v:ud v:nameU="msvThemeColors" v:val="VT0(36):26"/>
					<v:ud v:nameU="msvThemeEffects" v:val="VT0(16):26"/>
				</v:userDefs>
				<path d="M0.73 175.98 L5.63 175.98 a0.734289 0.734289 -180 1 0 0 -1.46858 L0.73 174.51 a0.734289 0.734289 -180 1
							 0 -9.99201E-015 1.46858 Z" class="st4"/>
			</g>
			<g id="shape571-41" v:mID="571" v:groupContext="shape" transform="translate(25.6753,-84.6243) scale(-1,1)">
				<title>Tabelle.571</title>
				<v:userDefs>
					<v:ud v:nameU="msvThemeColors" v:val="VT0(36):26"/>
					<v:ud v:nameU="msvThemeEffects" v:val="VT0(16):26"/>
				</v:userDefs>
				<path d="M0 158.32 L0 173.53 A3.18192 2.44763 -180 0 0 6.36 173.53 L6.36 158.32 L0 158.32 Z" class="st5"/>
			</g>
			<g id="shape572-45" v:mID="572" v:groupContext="shape" transform="translate(13.9583,-84.6243) scale(-1,1)">
				<title>Tabelle.572</title>
				<v:userDefs>
					<v:ud v:nameU="msvThemeColors" v:val="VT0(36):26"/>
					<v:ud v:nameU="msvThemeEffects" v:val="VT0(16):26"/>
				</v:userDefs>
				<path d="M0 158.32 L0 173.53 A3.18192 2.44763 -180 0 0 6.36 173.53 L6.36 158.32 L0 158.32 Z" class="st5"/>
			</g>
			<g id="shape573-48" v:mID="573" v:groupContext="shape" transform="translate(37.4999,-84.6243) scale(-1,1)">
				<title>Tabelle.573</title>
				<v:userDefs>
					<v:ud v:nameU="msvThemeColors" v:val="VT0(36):26"/>
					<v:ud v:nameU="msvThemeEffects" v:val="VT0(16):26"/>
				</v:userDefs>
				<path d="M0 158.32 L0 173.53 A3.18192 2.44763 -180 0 0 6.36 173.53 L6.36 158.32 L0 158.32 Z" class="st5"/>
			</g>
			<g id="shape574-51" v:mID="574" v:groupContext="shape" transform="translate(76.8765,-84.6141) scale(-1,1)">
				<title>Tabelle.574</title>
				<v:userDefs>
					<v:ud v:nameU="msvThemeColors" v:val="VT0(36):26"/>
					<v:ud v:nameU="msvThemeEffects" v:val="VT0(16):26"/>
				</v:userDefs>
				<path d="M0.95 121.64 L0.95 126.75 A3.18192 2.44763 -180 0 0 0 128.49 L0 173.53 A3.18192 2.44763 -180 0 0 6.36 173.53
							 L6.36 128.49 A3.18192 2.44763 -180 0 0 5.41 126.75 L5.41 121.64 L0.95 121.64 Z" class="st4"/>
			</g>
			<g id="shape575-54" v:mID="575" v:groupContext="shape" transform="translate(76.8765,-132.742) scale(-1,1)">
				<title>Tabelle.575</title>
				<v:userDefs>
					<v:ud v:nameU="msvThemeColors" v:val="VT0(36):26"/>
					<v:ud v:nameU="msvThemeEffects" v:val="VT0(16):26"/>
				</v:userDefs>
				<path d="M0 165.3 L0 168.33 L1.47 168.33 L1.47 173.68 L1.49 173.68 L3.18 175.98 L4.88 173.68 L4.9 173.68 L4.9 168.33
							 L6.36 168.33 L6.36 165.3 L0 165.3 Z" class="st4"/>
			</g>
			<g id="shape576-57" v:mID="576" v:groupContext="shape" v:layerMember="0"
					transform="translate(76.8765,-137.483) scale(-1,1)">
				<title>Start/Ende.54</title>
				<v:custProps>
					<v:cp v:nameU="Cost" v:lbl="Kosten" v:prompt="" v:type="7" v:format="@" v:sortKey="" v:invis="false"
							v:ask="false" v:langID="1031" v:cal="0"/>
					<v:cp v:nameU="ProcessNumber" v:lbl="Prozessnummer" v:prompt="" v:type="2" v:format="" v:sortKey=""
							v:invis="false" v:ask="false" v:langID="1031" v:cal="0"/>
					<v:cp v:nameU="Owner" v:lbl="Besitzer" v:prompt="" v:type="0" v:format="" v:sortKey="" v:invis="false"
							v:ask="false" v:langID="1031" v:cal="0"/>
					<v:cp v:nameU="Function" v:lbl="Funktionsname" v:prompt="" v:type="0" v:format="" v:sortKey="" v:invis="false"
							v:ask="false" v:langID="1031" v:cal="0" v:val="VT4()"/>
					<v:cp v:nameU="StartDate" v:lbl="Startdatum" v:prompt="" v:type="5" v:format="" v:sortKey="" v:invis="false"
							v:ask="false" v:langID="1031" v:cal="0"/>
					<v:cp v:nameU="EndDate" v:lbl="Enddatum" v:prompt="" v:type="5" v:format="" v:sortKey="" v:invis="false"
							v:ask="false" v:langID="1031" v:cal="0"/>
					<v:cp v:nameU="Status" v:lbl="Status" v:prompt="" v:type="4"
							v:format=";Nicht begonnen;In Bearbeitung;Abgeschlossen;Zurückgestellt;Auf Eingabe wartend" v:sortKey=""
							v:invis="false" v:ask="false" v:langID="1031" v:cal="0" v:val="VT4()"/>
				</v:custProps>
				<v:userDefs>
					<v:ud v:nameU="visVersion" v:prompt="" v:val="VT0(14):26"/>
					<v:ud v:nameU="DefaultWidth" v:prompt="" v:val="VT0(0.98425196850394):24"/>
					<v:ud v:nameU="DefaultHeight" v:prompt="" v:val="VT0(0.39370078740157):24"/>
					<v:ud v:nameU="ResizeTxtHeight" v:prompt="" v:val="VT0(0.39370078740157):24"/>
					<v:ud v:nameU="msvThemeColors" v:val="VT0(36):26"/>
					<v:ud v:nameU="msvThemeEffects" v:val="VT0(16):26"/>
				</v:userDefs>
				<path d="M0.73 175.98 L5.63 175.98 a0.734289 0.734289 -180 1 0 0 -1.46858 L0.73 174.51 a0.734289 0.734289 -180 1
							 0 -9.99201E-015 1.46858 Z" class="st4"/>
			</g>
			<g id="shape577-60" v:mID="577" v:groupContext="shape" transform="translate(65.0518,-84.6141) scale(-1,1)">
				<title>Tabelle.577</title>
				<v:userDefs>
					<v:ud v:nameU="msvThemeColors" v:val="VT0(36):26"/>
					<v:ud v:nameU="msvThemeEffects" v:val="VT0(16):26"/>
				</v:userDefs>
				<path d="M0.95 121.64 L0.95 126.75 A3.18192 2.44763 -180 0 0 0 128.49 L0 173.53 A3.18192 2.44763 -180 0 0 6.36 173.53
							 L6.36 128.49 A3.18192 2.44763 -180 0 0 5.41 126.75 L5.41 121.64 L0.95 121.64 Z" class="st4"/>
			</g>
			<g id="shape578-63" v:mID="578" v:groupContext="shape" transform="translate(65.0518,-132.742) scale(-1,1)">
				<title>Tabelle.578</title>
				<v:userDefs>
					<v:ud v:nameU="msvThemeColors" v:val="VT0(36):26"/>
					<v:ud v:nameU="msvThemeEffects" v:val="VT0(16):26"/>
				</v:userDefs>
				<path d="M0 165.3 L0 168.33 L1.47 168.33 L1.47 173.68 L1.49 173.68 L3.18 175.98 L4.88 173.68 L4.9 173.68 L4.9 168.33
							 L6.36 168.33 L6.36 165.3 L0 165.3 Z" class="st4"/>
			</g>
			<g id="shape579-66" v:mID="579" v:groupContext="shape" v:layerMember="0"
					transform="translate(65.0518,-137.483) scale(-1,1)">
				<title>Start/Ende.57</title>
				<v:custProps>
					<v:cp v:nameU="Cost" v:lbl="Kosten" v:prompt="" v:type="7" v:format="@" v:sortKey="" v:invis="false"
							v:ask="false" v:langID="1031" v:cal="0"/>
					<v:cp v:nameU="ProcessNumber" v:lbl="Prozessnummer" v:prompt="" v:type="2" v:format="" v:sortKey=""
							v:invis="false" v:ask="false" v:langID="1031" v:cal="0"/>
					<v:cp v:nameU="Owner" v:lbl="Besitzer" v:prompt="" v:type="0" v:format="" v:sortKey="" v:invis="false"
							v:ask="false" v:langID="1031" v:cal="0"/>
					<v:cp v:nameU="Function" v:lbl="Funktionsname" v:prompt="" v:type="0" v:format="" v:sortKey="" v:invis="false"
							v:ask="false" v:langID="1031" v:cal="0" v:val="VT4()"/>
					<v:cp v:nameU="StartDate" v:lbl="Startdatum" v:prompt="" v:type="5" v:format="" v:sortKey="" v:invis="false"
							v:ask="false" v:langID="1031" v:cal="0"/>
					<v:cp v:nameU="EndDate" v:lbl="Enddatum" v:prompt="" v:type="5" v:format="" v:sortKey="" v:invis="false"
							v:ask="false" v:langID="1031" v:cal="0"/>
					<v:cp v:nameU="Status" v:lbl="Status" v:prompt="" v:type="4"
							v:format=";Nicht begonnen;In Bearbeitung;Abgeschlossen;Zurückgestellt;Auf Eingabe wartend" v:sortKey=""
							v:invis="false" v:ask="false" v:langID="1031" v:cal="0" v:val="VT4()"/>
				</v:custProps>
				<v:userDefs>
					<v:ud v:nameU="visVersion" v:prompt="" v:val="VT0(14):26"/>
					<v:ud v:nameU="DefaultWidth" v:prompt="" v:val="VT0(0.98425196850394):24"/>
					<v:ud v:nameU="DefaultHeight" v:prompt="" v:val="VT0(0.39370078740157):24"/>
					<v:ud v:nameU="ResizeTxtHeight" v:prompt="" v:val="VT0(0.39370078740157):24"/>
					<v:ud v:nameU="msvThemeColors" v:val="VT0(36):26"/>
					<v:ud v:nameU="msvThemeEffects" v:val="VT0(16):26"/>
				</v:userDefs>
				<path d="M0.73 175.98 L5.63 175.98 a0.734289 0.734289 -180 1 0 0 -1.46858 L0.73 174.51 a0.734289 0.734289 -180 1
							 0 -9.99201E-015 1.46858 Z" class="st4"/>
			</g>
			<g id="shape580-69" v:mID="580" v:groupContext="shape" transform="translate(53.3348,-84.6141) scale(-1,1)">
				<title>Tabelle.580</title>
				<v:userDefs>
					<v:ud v:nameU="msvThemeColors" v:val="VT0(36):26"/>
					<v:ud v:nameU="msvThemeEffects" v:val="VT0(16):26"/>
				</v:userDefs>
				<path d="M0.95 121.64 L0.95 126.75 A3.18192 2.44763 -180 0 0 0 128.49 L0 173.53 A3.18192 2.44763 -180 0 0 6.36 173.53
							 L6.36 128.49 A3.18192 2.44763 -180 0 0 5.41 126.75 L5.41 121.64 L0.95 121.64 Z" class="st4"/>
			</g>
			<g id="shape581-72" v:mID="581" v:groupContext="shape" transform="translate(53.3348,-132.742) scale(-1,1)">
				<title>Tabelle.581</title>
				<v:userDefs>
					<v:ud v:nameU="msvThemeColors" v:val="VT0(36):26"/>
					<v:ud v:nameU="msvThemeEffects" v:val="VT0(16):26"/>
				</v:userDefs>
				<path d="M0 165.3 L0 168.33 L1.47 168.33 L1.47 173.68 L1.49 173.68 L3.18 175.98 L4.88 173.68 L4.9 173.68 L4.9 168.33
							 L6.36 168.33 L6.36 165.3 L0 165.3 Z" class="st4"/>
			</g>
			<g id="shape582-75" v:mID="582" v:groupContext="shape" v:layerMember="0"
					transform="translate(53.3348,-137.483) scale(-1,1)">
				<title>Start/Ende.60</title>
				<v:custProps>
					<v:cp v:nameU="Cost" v:lbl="Kosten" v:prompt="" v:type="7" v:format="@" v:sortKey="" v:invis="false"
							v:ask="false" v:langID="1031" v:cal="0"/>
					<v:cp v:nameU="ProcessNumber" v:lbl="Prozessnummer" v:prompt="" v:type="2" v:format="" v:sortKey=""
							v:invis="false" v:ask="false" v:langID="1031" v:cal="0"/>
					<v:cp v:nameU="Owner" v:lbl="Besitzer" v:prompt="" v:type="0" v:format="" v:sortKey="" v:invis="false"
							v:ask="false" v:langID="1031" v:cal="0"/>
					<v:cp v:nameU="Function" v:lbl="Funktionsname" v:prompt="" v:type="0" v:format="" v:sortKey="" v:invis="false"
							v:ask="false" v:langID="1031" v:cal="0" v:val="VT4()"/>
					<v:cp v:nameU="StartDate" v:lbl="Startdatum" v:prompt="" v:type="5" v:format="" v:sortKey="" v:invis="false"
							v:ask="false" v:langID="1031" v:cal="0"/>
					<v:cp v:nameU="EndDate" v:lbl="Enddatum" v:prompt="" v:type="5" v:format="" v:sortKey="" v:invis="false"
							v:ask="false" v:langID="1031" v:cal="0"/>
					<v:cp v:nameU="Status" v:lbl="Status" v:prompt="" v:type="4"
							v:format=";Nicht begonnen;In Bearbeitung;Abgeschlossen;Zurückgestellt;Auf Eingabe wartend" v:sortKey=""
							v:invis="false" v:ask="false" v:langID="1031" v:cal="0" v:val="VT4()"/>
				</v:custProps>
				<v:userDefs>
					<v:ud v:nameU="visVersion" v:prompt="" v:val="VT0(14):26"/>
					<v:ud v:nameU="DefaultWidth" v:prompt="" v:val="VT0(0.98425196850394):24"/>
					<v:ud v:nameU="DefaultHeight" v:prompt="" v:val="VT0(0.39370078740157):24"/>
					<v:ud v:nameU="ResizeTxtHeight" v:prompt="" v:val="VT0(0.39370078740157):24"/>
					<v:ud v:nameU="msvThemeColors" v:val="VT0(36):26"/>
					<v:ud v:nameU="msvThemeEffects" v:val="VT0(16):26"/>
				</v:userDefs>
				<path d="M0.73 175.98 L5.63 175.98 a0.734289 0.734289 -180 1 0 0 -1.46858 L0.73 174.51 a0.734289 0.734289 -180 1
							 0 -9.99201E-015 1.46858 Z" class="st4"/>
			</g>
			<g id="shape583-78" v:mID="583" v:groupContext="shape" transform="translate(65.0518,-84.6141) scale(-1,1)">
				<title>Tabelle.583</title>
				<v:userDefs>
					<v:ud v:nameU="msvThemeColors" v:val="VT0(36):26"/>
					<v:ud v:nameU="msvThemeEffects" v:val="VT0(16):26"/>
				</v:userDefs>
				<path d="M0 158.32 L0 173.53 A3.18192 2.44763 -180 0 0 6.36 173.53 L6.36 158.32 L0 158.32 Z" class="st5"/>
			</g>
			<g id="shape584-81" v:mID="584" v:groupContext="shape" transform="translate(53.3348,-84.6141) scale(-1,1)">
				<title>Tabelle.584</title>
				<v:userDefs>
					<v:ud v:nameU="msvThemeColors" v:val="VT0(36):26"/>
					<v:ud v:nameU="msvThemeEffects" v:val="VT0(16):26"/>
				</v:userDefs>
				<path d="M0 158.32 L0 173.53 A3.18192 2.44763 -180 0 0 6.36 173.53 L6.36 158.32 L0 158.32 Z" class="st5"/>
			</g>
			<g id="shape585-84" v:mID="585" v:groupContext="shape" transform="translate(76.8765,-84.6141) scale(-1,1)">
				<title>Tabelle.585</title>
				<v:userDefs>
					<v:ud v:nameU="msvThemeColors" v:val="VT0(36):26"/>
					<v:ud v:nameU="msvThemeEffects" v:val="VT0(16):26"/>
				</v:userDefs>
				<path d="M0 158.32 L0 173.53 A3.18192 2.44763 -180 0 0 6.36 173.53 L6.36 158.32 L0 158.32 Z" class="st5"/>
			</g>
			<g id="shape586-87" v:mID="586" v:groupContext="shape" transform="translate(42.0744,-93.5682)">
				<title>Rechteck.47</title>
				<v:userDefs>
					<v:ud v:nameU="visVersion" v:val="VT0(14):26"/>
					<v:ud v:nameU="msvThemeColors" v:val="VT0(36):26"/>
					<v:ud v:nameU="msvThemeEffects" v:val="VT0(16):26"/>
				</v:userDefs>
				<rect x="0" y="113.599" width="1.24758" height="62.3788" class="st4"/>
			</g>
			<g id="shape587-90" v:mID="587" v:groupContext="shape" transform="translate(0,-78.7203)">
				<title>Rechteck.46</title>
				<v:userDefs>
					<v:ud v:nameU="visVersion" v:val="VT0(14):26"/>
					<v:ud v:nameU="msvThemeColors" v:val="VT0(36):26"/>
					<v:ud v:nameU="msvThemeEffects" v:val="VT0(16):26"/>
				</v:userDefs>
				<rect x="0" y="161.007" width="85.3963" height="14.9709" class="st6"/>
			</g>
			<g id="shape588-93" v:mID="588" v:groupContext="shape" transform="translate(37.7805,-5.90404) scale(-1,1)">
				<title>Tabelle.588</title>
				<v:userDefs>
					<v:ud v:nameU="msvThemeColors" v:val="VT0(36):26"/>
					<v:ud v:nameU="msvThemeEffects" v:val="VT0(16):26"/>
				</v:userDefs>
				<path d="M0.95 121.64 L0.95 126.75 A3.18192 2.44763 -180 0 0 0 128.49 L0 173.53 A3.18192 2.44763 -180 0 0 6.36 173.53
							 L6.36 128.49 A3.18192 2.44763 -180 0 0 5.41 126.75 L5.41 121.64 L0.95 121.64 Z" class="st4"/>
			</g>
			<g id="shape589-96" v:mID="589" v:groupContext="shape" transform="translate(37.77,-54.0708) scale(-1,1)">
				<title>Tabelle.589</title>
				<v:userDefs>
					<v:ud v:nameU="msvThemeColors" v:val="VT0(36):26"/>
					<v:ud v:nameU="msvThemeEffects" v:val="VT0(16):26"/>
				</v:userDefs>
				<path d="M0 165.3 L0 168.33 L1.47 168.33 L1.47 173.68 L1.49 173.68 L3.18 175.98 L4.88 173.68 L4.9 173.68 L4.9 168.33
							 L6.36 168.33 L6.36 165.3 L0 165.3 Z" class="st4"/>
			</g>
			<g id="shape590-99" v:mID="590" v:groupContext="shape" v:layerMember="0"
					transform="translate(37.7805,-58.7728) scale(-1,1)">
				<title>Start/Ende.67</title>
				<v:custProps>
					<v:cp v:nameU="Cost" v:lbl="Kosten" v:prompt="" v:type="7" v:format="@" v:sortKey="" v:invis="false"
							v:ask="false" v:langID="1031" v:cal="0"/>
					<v:cp v:nameU="ProcessNumber" v:lbl="Prozessnummer" v:prompt="" v:type="2" v:format="" v:sortKey=""
							v:invis="false" v:ask="false" v:langID="1031" v:cal="0"/>
					<v:cp v:nameU="Owner" v:lbl="Besitzer" v:prompt="" v:type="0" v:format="" v:sortKey="" v:invis="false"
							v:ask="false" v:langID="1031" v:cal="0"/>
					<v:cp v:nameU="Function" v:lbl="Funktionsname" v:prompt="" v:type="0" v:format="" v:sortKey="" v:invis="false"
							v:ask="false" v:langID="1031" v:cal="0" v:val="VT4()"/>
					<v:cp v:nameU="StartDate" v:lbl="Startdatum" v:prompt="" v:type="5" v:format="" v:sortKey="" v:invis="false"
							v:ask="false" v:langID="1031" v:cal="0"/>
					<v:cp v:nameU="EndDate" v:lbl="Enddatum" v:prompt="" v:type="5" v:format="" v:sortKey="" v:invis="false"
							v:ask="false" v:langID="1031" v:cal="0"/>
					<v:cp v:nameU="Status" v:lbl="Status" v:prompt="" v:type="4"
							v:format=";Nicht begonnen;In Bearbeitung;Abgeschlossen;Zurückgestellt;Auf Eingabe wartend" v:sortKey=""
							v:invis="false" v:ask="false" v:langID="1031" v:cal="0" v:val="VT4()"/>
				</v:custProps>
				<v:userDefs>
					<v:ud v:nameU="visVersion" v:prompt="" v:val="VT0(14):26"/>
					<v:ud v:nameU="DefaultWidth" v:prompt="" v:val="VT0(0.98425196850394):24"/>
					<v:ud v:nameU="DefaultHeight" v:prompt="" v:val="VT0(0.39370078740157):24"/>
					<v:ud v:nameU="ResizeTxtHeight" v:prompt="" v:val="VT0(0.39370078740157):24"/>
					<v:ud v:nameU="msvThemeColors" v:val="VT0(36):26"/>
					<v:ud v:nameU="msvThemeEffects" v:val="VT0(16):26"/>
				</v:userDefs>
				<path d="M0.73 175.98 L5.63 175.98 a0.734289 0.734289 -180 1 0 0 -1.46858 L0.73 174.51 a0.734289 0.734289 -180 1
							 0 -9.99201E-015 1.46858 Z" class="st4"/>
			</g>
			<g id="shape591-102" v:mID="591" v:groupContext="shape" transform="translate(25.9559,-5.90404) scale(-1,1)">
				<title>Tabelle.591</title>
				<v:userDefs>
					<v:ud v:nameU="msvThemeColors" v:val="VT0(36):26"/>
					<v:ud v:nameU="msvThemeEffects" v:val="VT0(16):26"/>
				</v:userDefs>
				<path d="M0.95 121.64 L0.95 126.75 A3.18192 2.44763 -180 0 0 0 128.49 L0 173.53 A3.18192 2.44763 -180 0 0 6.36 173.53
							 L6.36 128.49 A3.18192 2.44763 -180 0 0 5.41 126.75 L5.41 121.64 L0.95 121.64 Z" class="st4"/>
			</g>
			<g id="shape592-105" v:mID="592" v:groupContext="shape" transform="translate(25.9454,-54.0708) scale(-1,1)">
				<title>Tabelle.592</title>
				<v:userDefs>
					<v:ud v:nameU="msvThemeColors" v:val="VT0(36):26"/>
					<v:ud v:nameU="msvThemeEffects" v:val="VT0(16):26"/>
				</v:userDefs>
				<path d="M0 165.3 L0 168.33 L1.47 168.33 L1.47 173.68 L1.49 173.68 L3.18 175.98 L4.88 173.68 L4.9 173.68 L4.9 168.33
							 L6.36 168.33 L6.36 165.3 L0 165.3 Z" class="st4"/>
			</g>
			<g id="shape593-108" v:mID="593" v:groupContext="shape" v:layerMember="0"
					transform="translate(25.9559,-58.7728) scale(-1,1)">
				<title>Start/Ende.70</title>
				<v:custProps>
					<v:cp v:nameU="Cost" v:lbl="Kosten" v:prompt="" v:type="7" v:format="@" v:sortKey="" v:invis="false"
							v:ask="false" v:langID="1031" v:cal="0"/>
					<v:cp v:nameU="ProcessNumber" v:lbl="Prozessnummer" v:prompt="" v:type="2" v:format="" v:sortKey=""
							v:invis="false" v:ask="false" v:langID="1031" v:cal="0"/>
					<v:cp v:nameU="Owner" v:lbl="Besitzer" v:prompt="" v:type="0" v:format="" v:sortKey="" v:invis="false"
							v:ask="false" v:langID="1031" v:cal="0"/>
					<v:cp v:nameU="Function" v:lbl="Funktionsname" v:prompt="" v:type="0" v:format="" v:sortKey="" v:invis="false"
							v:ask="false" v:langID="1031" v:cal="0" v:val="VT4()"/>
					<v:cp v:nameU="StartDate" v:lbl="Startdatum" v:prompt="" v:type="5" v:format="" v:sortKey="" v:invis="false"
							v:ask="false" v:langID="1031" v:cal="0"/>
					<v:cp v:nameU="EndDate" v:lbl="Enddatum" v:prompt="" v:type="5" v:format="" v:sortKey="" v:invis="false"
							v:ask="false" v:langID="1031" v:cal="0"/>
					<v:cp v:nameU="Status" v:lbl="Status" v:prompt="" v:type="4"
							v:format=";Nicht begonnen;In Bearbeitung;Abgeschlossen;Zurückgestellt;Auf Eingabe wartend" v:sortKey=""
							v:invis="false" v:ask="false" v:langID="1031" v:cal="0" v:val="VT4()"/>
				</v:custProps>
				<v:userDefs>
					<v:ud v:nameU="visVersion" v:prompt="" v:val="VT0(14):26"/>
					<v:ud v:nameU="DefaultWidth" v:prompt="" v:val="VT0(0.98425196850394):24"/>
					<v:ud v:nameU="DefaultHeight" v:prompt="" v:val="VT0(0.39370078740157):24"/>
					<v:ud v:nameU="ResizeTxtHeight" v:prompt="" v:val="VT0(0.39370078740157):24"/>
					<v:ud v:nameU="msvThemeColors" v:val="VT0(36):26"/>
					<v:ud v:nameU="msvThemeEffects" v:val="VT0(16):26"/>
				</v:userDefs>
				<path d="M0.73 175.98 L5.63 175.98 a0.734289 0.734289 -180 1 0 0 -1.46858 L0.73 174.51 a0.734289 0.734289 -180 1
							 0 -9.99201E-015 1.46858 Z" class="st4"/>
			</g>
			<g id="shape594-111" v:mID="594" v:groupContext="shape" transform="translate(14.2388,-5.90404) scale(-1,1)">
				<title>Tabelle.594</title>
				<v:userDefs>
					<v:ud v:nameU="msvThemeColors" v:val="VT0(36):26"/>
					<v:ud v:nameU="msvThemeEffects" v:val="VT0(16):26"/>
				</v:userDefs>
				<path d="M0.95 121.64 L0.95 126.75 A3.18192 2.44763 -180 0 0 0 128.49 L0 173.53 A3.18192 2.44763 -180 0 0 6.36 173.53
							 L6.36 128.49 A3.18192 2.44763 -180 0 0 5.41 126.75 L5.41 121.64 L0.95 121.64 Z" class="st4"/>
			</g>
			<g id="shape595-114" v:mID="595" v:groupContext="shape" transform="translate(14.2283,-54.0708) scale(-1,1)">
				<title>Tabelle.595</title>
				<v:userDefs>
					<v:ud v:nameU="msvThemeColors" v:val="VT0(36):26"/>
					<v:ud v:nameU="msvThemeEffects" v:val="VT0(16):26"/>
				</v:userDefs>
				<path d="M0 165.3 L0 168.33 L1.47 168.33 L1.47 173.68 L1.49 173.68 L3.18 175.98 L4.88 173.68 L4.9 173.68 L4.9 168.33
							 L6.36 168.33 L6.36 165.3 L0 165.3 Z" class="st4"/>
			</g>
			<g id="shape596-117" v:mID="596" v:groupContext="shape" v:layerMember="0"
					transform="translate(14.2388,-58.7728) scale(-1,1)">
				<title>Start/Ende.73</title>
				<v:custProps>
					<v:cp v:nameU="Cost" v:lbl="Kosten" v:prompt="" v:type="7" v:format="@" v:sortKey="" v:invis="false"
							v:ask="false" v:langID="1031" v:cal="0"/>
					<v:cp v:nameU="ProcessNumber" v:lbl="Prozessnummer" v:prompt="" v:type="2" v:format="" v:sortKey=""
							v:invis="false" v:ask="false" v:langID="1031" v:cal="0"/>
					<v:cp v:nameU="Owner" v:lbl="Besitzer" v:prompt="" v:type="0" v:format="" v:sortKey="" v:invis="false"
							v:ask="false" v:langID="1031" v:cal="0"/>
					<v:cp v:nameU="Function" v:lbl="Funktionsname" v:prompt="" v:type="0" v:format="" v:sortKey="" v:invis="false"
							v:ask="false" v:langID="1031" v:cal="0" v:val="VT4()"/>
					<v:cp v:nameU="StartDate" v:lbl="Startdatum" v:prompt="" v:type="5" v:format="" v:sortKey="" v:invis="false"
							v:ask="false" v:langID="1031" v:cal="0"/>
					<v:cp v:nameU="EndDate" v:lbl="Enddatum" v:prompt="" v:type="5" v:format="" v:sortKey="" v:invis="false"
							v:ask="false" v:langID="1031" v:cal="0"/>
					<v:cp v:nameU="Status" v:lbl="Status" v:prompt="" v:type="4"
							v:format=";Nicht begonnen;In Bearbeitung;Abgeschlossen;Zurückgestellt;Auf Eingabe wartend" v:sortKey=""
							v:invis="false" v:ask="false" v:langID="1031" v:cal="0" v:val="VT4()"/>
				</v:custProps>
				<v:userDefs>
					<v:ud v:nameU="visVersion" v:prompt="" v:val="VT0(14):26"/>
					<v:ud v:nameU="DefaultWidth" v:prompt="" v:val="VT0(0.98425196850394):24"/>
					<v:ud v:nameU="DefaultHeight" v:prompt="" v:val="VT0(0.39370078740157):24"/>
					<v:ud v:nameU="ResizeTxtHeight" v:prompt="" v:val="VT0(0.39370078740157):24"/>
					<v:ud v:nameU="msvThemeColors" v:val="VT0(36):26"/>
					<v:ud v:nameU="msvThemeEffects" v:val="VT0(16):26"/>
				</v:userDefs>
				<path d="M0.73 175.98 L5.63 175.98 a0.734289 0.734289 -180 1 0 0 -1.46858 L0.73 174.51 a0.734289 0.734289 -180 1
							 0 -9.99201E-015 1.46858 Z" class="st4"/>
			</g>
			<g id="shape597-120" v:mID="597" v:groupContext="shape" transform="translate(25.9559,-5.90404) scale(-1,1)">
				<title>Tabelle.597</title>
				<v:userDefs>
					<v:ud v:nameU="msvThemeColors" v:val="VT0(36):26"/>
					<v:ud v:nameU="msvThemeEffects" v:val="VT0(16):26"/>
				</v:userDefs>
				<path d="M0 158.32 L0 173.53 A3.18192 2.44763 -180 0 0 6.36 173.53 L6.36 158.32 L0 158.32 Z" class="st5"/>
			</g>
			<g id="shape598-123" v:mID="598" v:groupContext="shape" transform="translate(14.2388,-5.90404) scale(-1,1)">
				<title>Tabelle.598</title>
				<v:userDefs>
					<v:ud v:nameU="msvThemeColors" v:val="VT0(36):26"/>
					<v:ud v:nameU="msvThemeEffects" v:val="VT0(16):26"/>
				</v:userDefs>
				<path d="M0 158.32 L0 173.53 A3.18192 2.44763 -180 0 0 6.36 173.53 L6.36 158.32 L0 158.32 Z" class="st5"/>
			</g>
			<g id="shape599-126" v:mID="599" v:groupContext="shape" transform="translate(37.7805,-5.90404) scale(-1,1)">
				<title>Tabelle.599</title>
				<v:userDefs>
					<v:ud v:nameU="msvThemeColors" v:val="VT0(36):26"/>
					<v:ud v:nameU="msvThemeEffects" v:val="VT0(16):26"/>
				</v:userDefs>
				<path d="M0 158.32 L0 173.53 A3.18192 2.44763 -180 0 0 6.36 173.53 L6.36 158.32 L0 158.32 Z" class="st5"/>
			</g>
			<g id="shape600-129" v:mID="600" v:groupContext="shape" transform="translate(42.3549,-14.8479)">
				<title>Rechteck.89</title>
				<v:userDefs>
					<v:ud v:nameU="visVersion" v:val="VT0(14):26"/>
					<v:ud v:nameU="msvThemeColors" v:val="VT0(36):26"/>
					<v:ud v:nameU="msvThemeEffects" v:val="VT0(16):26"/>
				</v:userDefs>
				<rect x="0" y="113.599" width="1.24758" height="62.3788" class="st4"/>
			</g>
			<g id="shape601-132" v:mID="601" v:groupContext="shape" transform="translate(0.28058,0)">
				<title>Rechteck.90</title>
				<v:userDefs>
					<v:ud v:nameU="visVersion" v:val="VT0(14):26"/>
					<v:ud v:nameU="msvThemeColors" v:val="VT0(36):26"/>
					<v:ud v:nameU="msvThemeEffects" v:val="VT0(16):26"/>
				</v:userDefs>
				<rect x="0" y="161.007" width="85.3963" height="14.9709" class="st6"/>
			</g>
		</g>
		<g id="group602-135" transform="translate(265.388,-64.147)" v:mID="602" v:groupContext="group">
			<v:userDefs>
				<v:ud v:nameU="msvThemeColors" v:val="VT0(36):26"/>
				<v:ud v:nameU="msvThemeEffects" v:val="VT0(16):26"/>
			</v:userDefs>
			<title>Tabelle.602</title>
			<g id="shape603-136" v:mID="603" v:groupContext="shape">
				<title>Rechteck.157</title>
				<v:userDefs>
					<v:ud v:nameU="visVersion" v:val="VT0(14):26"/>
					<v:ud v:nameU="msvThemeColors" v:val="VT0(36):26"/>
					<v:ud v:nameU="msvThemeEffects" v:val="VT0(16):26"/>
				</v:userDefs>
				<rect x="0" y="127.39" width="95.6806" height="48.5878" class="st7"/>
			</g>
			<g id="shape604-140" v:mID="604" v:groupContext="shape" transform="translate(3.56186,-7.47505)">
				<title>Rechteck.158</title>
				<v:userDefs>
					<v:ud v:nameU="visVersion" v:val="VT0(14):26"/>
					<v:ud v:nameU="msvThemeColors" v:val="VT0(36):26"/>
					<v:ud v:nameU="msvThemeEffects" v:val="VT0(16):26"/>
				</v:userDefs>
				<rect x="0" y="161.424" width="29.3284" height="14.5539" class="st8"/>
			</g>
			<g id="shape605-143" v:mID="605" v:groupContext="shape" transform="translate(25.4152,-15.3239)">
				<title>Kreis</title>
				<v:userDefs>
					<v:ud v:nameU="visVersion" v:val="VT0(14):26"/>
					<v:ud v:nameU="msvThemeColors" v:val="VT0(36):26"/>
					<v:ud v:nameU="msvThemeEffects" v:val="VT0(16):26"/>
				</v:userDefs>
				<path d="M0 173.36 A2.61627 2.61627 0 0 1 5.23 173.36 A2.61627 2.61627 0 1 1 -0 173.36 Z" class="st8"/>
			</g>
			<g id="shape606-146" v:mID="606" v:groupContext="shape" transform="translate(4.48503,-8.97006)">
				<title>Kreis.164</title>
				<v:userDefs>
					<v:ud v:nameU="visVersion" v:val="VT0(14):26"/>
					<v:ud v:nameU="msvThemeColors" v:val="VT0(36):26"/>
					<v:ud v:nameU="msvThemeEffects" v:val="VT0(16):26"/>
				</v:userDefs>
				<path d="M0 174.86 A1.12126 1.12126 0 0 1 2.24 174.86 A1.12126 1.12126 0 1 1 0 174.86 Z" class="st8"/>
			</g>
			<g id="shape607-149" v:mID="607" v:groupContext="shape" transform="translate(6.72754,-13.0813)">
				<title>Rechteck.166</title>
				<desc>100</desc>
				<v:userDefs>
					<v:ud v:nameU="visVersion" v:val="VT0(14):26"/>
					<v:ud v:nameU="msvThemeColors" v:val="VT0(36):26"/>
					<v:ud v:nameU="msvThemeEffects" v:val="VT0(16):26"/>
				</v:userDefs>
				<v:textBlock v:margins="rect(4,4,4,4)" v:tabSpace="42.5197"/>
				<v:textRect cx="7.26615" cy="172.24" width="14.54" height="7.47505"/>
				<rect x="0" y="168.503" width="14.5323" height="7.47505" class="st8"/>
				<text x="4.22" y="173.44" class="st9" v:langID="1031"><v:paragraph v:horizAlign="1"/><v:tabList/>100</text>			</g>
			<g id="shape608-153" v:mID="608" v:groupContext="shape" transform="translate(222.472,154.168) rotate(94.5739)">
				<title>Tabelle.608</title>
				<v:userDefs>
					<v:ud v:nameU="msvThemeColors" v:val="VT0(36):26"/>
					<v:ud v:nameU="msvThemeEffects" v:val="VT0(16):26"/>
				</v:userDefs>
				<path d="M0 173.34 C2.08 175.02 5.22 176.76 7.78 175.61 C9.89 174.66 11.62 171.72 13.75 171.15 C16.57 170.4 20.12
							 173.77 22.61 173.34" class="st10"/>
			</g>
			<g id="shape609-157" v:mID="609" v:groupContext="shape" transform="translate(229.684,154.168) rotate(94.5739)">
				<title>Tabelle.609</title>
				<v:userDefs>
					<v:ud v:nameU="msvThemeColors" v:val="VT0(36):26"/>
					<v:ud v:nameU="msvThemeEffects" v:val="VT0(16):26"/>
				</v:userDefs>
				<path d="M0 173.34 C2.08 175.02 5.22 176.76 7.78 175.61 C9.89 174.66 11.62 171.72 13.75 171.15 C16.57 170.4 20.12
							 173.77 22.61 173.34" class="st10"/>
			</g>
			<g id="shape610-161" v:mID="610" v:groupContext="shape" transform="translate(236.895,154.168) rotate(94.5739)">
				<title>Tabelle.610</title>
				<v:userDefs>
					<v:ud v:nameU="msvThemeColors" v:val="VT0(36):26"/>
					<v:ud v:nameU="msvThemeEffects" v:val="VT0(16):26"/>
				</v:userDefs>
				<path d="M0 173.34 C2.08 175.02 5.22 176.76 7.78 175.61 C9.89 174.66 11.62 171.72 13.75 171.15 C16.57 170.4 20.12
							 173.77 22.61 173.34" class="st10"/>
			</g>
		</g>
	</g>
</svg>
