<?xml version="1.0" encoding="UTF-8" standalone="no"?>
<!DOCTYPE svg PUBLIC "-//W3C//DTD SVG 1.1//EN" "http://www.w3.org/Graphics/SVG/1.1/DTD/svg11.dtd">
<!-- Generiert durch Microsoft Visio, SVG Export 14.svg Page-1 -->
<svg xmlns="http://www.w3.org/2000/svg" xmlns:xlink="http://www.w3.org/1999/xlink" xmlns:ev="http://www.w3.org/2001/xml-events"
		xmlns:v="http://schemas.microsoft.com/visio/2003/SVGExtensions/" width="5.20768in" height="2.44414in"
		viewBox="0 0 374.953 175.978" xml:space="preserve" color-interpolation-filters="sRGB" class="st8">
	<v:documentProperties v:langID="1031" v:metric="true" v:viewMarkup="false">
		<v:userDefs>
			<v:ud v:nameU="msvNoAutoConnect" v:val="VT0(0):26"/>
			<v:ud v:nameU="msvConvertTheme"/>
		</v:userDefs>
	</v:documentProperties>

	<style type="text/css">
	<![CDATA[
		.st1 {fill:#000000;stroke:none;stroke-linecap:round;stroke-linejoin:round;stroke-width:0.75}
		.st2 {fill:url(#grad0-6);stroke:#ffffff;stroke-linecap:round;stroke-linejoin:round;stroke-width:0.25}
		.st3 {fill:none;stroke:none;stroke-linecap:round;stroke-linejoin:round;stroke-width:0.25}
		.st4 {fill:url(#grad0-6);stroke:#404040;stroke-linecap:round;stroke-linejoin:round;stroke-width:0.25}
		.st5 {fill:url(#grad0-98);stroke:none;stroke-linecap:round;stroke-linejoin:round;stroke-width:0.25}
		.st6 {fill:url(#grad0-130);stroke:#c00000;stroke-linecap:round;stroke-linejoin:round;stroke-width:0.25}
		.st7 {fill:#ffffff;stroke:#1f477d;stroke-linecap:round;stroke-linejoin:round;stroke-width:0.25}
		.st8 {fill:none;fill-rule:evenodd;font-size:12px;overflow:visible;stroke-linecap:square;stroke-miterlimit:3}
	]]>
	</style>

	<defs id="Patterns_And_Gradients">
		<linearGradient id="grad0-6" x1="0" y1="0" x2="1" y2="0" gradientTransform="rotate(270 0.5 0.5)">
			<stop offset="0" stop-color="#f0f0f0" stop-opacity="1"/>
			<stop offset="1" stop-color="#ffffff" stop-opacity="1"/>
		</linearGradient>
		<linearGradient id="grad0-98" x1="0" y1="0" x2="1" y2="0" gradientTransform="rotate(270 0.5 0.5)">
			<stop offset="0" stop-color="#c3d7e8" stop-opacity="1"/>
			<stop offset="1" stop-color="#adc9e0" stop-opacity="1"/>
		</linearGradient>
		<linearGradient id="grad0-130" x1="0" y1="0" x2="1" y2="0" gradientTransform="rotate(270 0.5 0.5)">
			<stop offset="0" stop-color="#a60000" stop-opacity="1"/>
			<stop offset="1" stop-color="#c00000" stop-opacity="1"/>
		</linearGradient>
	</defs>
	<g v:mID="4" v:index="1" v:groupContext="backgroundPage">
		<v:userDefs>
			<v:ud v:nameU="msvThemeColors" v:val="VT0(36):26"/>
			<v:ud v:nameU="msvThemeEffects" v:val="VT0(16):26"/>
			<v:ud v:nameU="msvThemeOrder" v:val="VT0(0):26"/>
			<v:ud v:nameU="msvVisioCreated" v:prompt="" v:val="VT0(0):26"/>
		</v:userDefs>
		<title>VHintergrund-1</title>
		<v:pageProperties width="5.20768" height="2.44414" v:drawingScale="0.0393701" v:pageScale="0.0393701" v:drawingUnits="24"
				v:shadowOffsetX="8.50394" v:shadowOffsetY="-8.50394"/>
		<g id="shape1-1" v:mID="1" v:groupContext="shape">
			<title>Vollton</title>
			<v:userDefs>
				<v:ud v:nameU="Background" v:val="VT0(0):26"/>
				<v:ud v:nameU="visVersion" v:val="VT0(14):26"/>
				<v:ud v:nameU="msvShapeCategories" v:prompt="" v:val="VT4(DoNotContain)"/>
				<v:ud v:nameU="msvThemeColors" v:val="VT0(36):26"/>
				<v:ud v:nameU="msvVisioCreated" v:prompt="" v:val="VT0(0):26"/>
			</v:userDefs>
			<rect x="0" y="0" width="374.953" height="175.978" class="st1"/>
		</g>
		<g id="shape2-3" v:mID="2" v:groupContext="shape" transform="translate(222.201,234.318) rotate(180)">
			<title>Pfeil 60 Grad-Spitze</title>
			<v:userDefs>
				<v:ud v:nameU="visVersion" v:val="VT0(14):26"/>
				<v:ud v:nameU="msvThemeColors" v:val="VT0(36):26"/>
				<v:ud v:nameU="msvThemeEffects" v:val="VT0(16):26"/>
			</v:userDefs>
			<path d="M0 168.89 L4.09 161.8 L4.09 166.48 L69.45 166.48 L69.45 171.3 L4.09 171.3 L4.09 175.98 L0 168.89 Z"
					class="st2"/>
		</g>
	</g>
	<g v:mID="0" v:index="2" v:groupContext="foregroundPage">
		<v:userDefs>
			<v:ud v:nameU="msvThemeColors" v:val="VT0(36):26"/>
			<v:ud v:nameU="msvThemeEffects" v:val="VT0(16):26"/>
			<v:ud v:nameU="msvThemeOrder" v:val="VT0(0):26"/>
		</v:userDefs>
		<title>Zeichenblatt-1</title>
		<v:pageProperties v:drawingScale="0.0393701" v:pageScale="0.0393701" v:drawingUnits="24" v:shadowOffsetX="8.50394"
				v:shadowOffsetY="-8.50394"/>
		<v:layer v:name="Flussdiagramm" v:index="0"/>
		<v:layer v:name="Verbinder" v:index="1"/>
		<g id="shape195-7" v:mID="195" v:groupContext="shape" transform="translate(125.787,-123.895)">
			<title>Rechteck.195</title>
			<v:userDefs>
				<v:ud v:nameU="visVersion" v:val="VT0(15):26"/>
				<v:ud v:nameU="msvThemeColors" v:val="VT0(36):26"/>
				<v:ud v:nameU="msvThemeEffects" v:val="VT0(16):26"/>
			</v:userDefs>
			<rect x="0" y="128.965" width="123.307" height="47.0131" class="st3"/>
		</g>
		<g id="shape192-9" v:mID="192" v:groupContext="shape" transform="translate(1.59872E-014,-2.26772)">
			<title>Rechteck.13.192</title>
			<v:userDefs>
				<v:ud v:nameU="visVersion" v:val="VT0(15):26"/>
				<v:ud v:nameU="msvThemeColors" v:val="VT0(36):26"/>
				<v:ud v:nameU="msvThemeEffects" v:val="VT0(16):26"/>
			</v:userDefs>
			<rect x="0" y="3.63146" width="123.307" height="172.346" class="st3"/>
		</g>
		<g id="shape194-11" v:mID="194" v:groupContext="shape" transform="translate(251.575,-2.26772)">
			<title>Rechteck.194</title>
			<v:userDefs>
				<v:ud v:nameU="visVersion" v:val="VT0(15):26"/>
				<v:ud v:nameU="msvThemeColors" v:val="VT0(36):26"/>
				<v:ud v:nameU="msvThemeEffects" v:val="VT0(16):26"/>
			</v:userDefs>
			<rect x="0" y="3.63146" width="123.307" height="172.346" class="st3"/>
		</g>
		<g id="group476-13" transform="translate(11.811,-10.1089)" v:mID="476" v:groupContext="group">
			<v:userDefs>
				<v:ud v:nameU="msvThemeColors" v:val="VT0(36):26"/>
				<v:ud v:nameU="msvThemeEffects" v:val="VT0(16):26"/>
			</v:userDefs>
			<title>Tabelle.476</title>
			<g id="shape477-14" v:mID="477" v:groupContext="shape" transform="translate(93.7795,-81.4462) scale(-1,1)">
				<title>Tabelle.477</title>
				<v:userDefs>
					<v:ud v:nameU="msvThemeColors" v:val="VT0(36):26"/>
					<v:ud v:nameU="msvThemeEffects" v:val="VT0(16):26"/>
				</v:userDefs>
				<path d="M1.08 114.25 L1.08 120.05 A3.61485 2.78066 -180 0 0 0 122.03 L0 173.2 A3.61485 2.78066 -180 0 0 7.23 173.2
							 L7.23 122.03 A3.61485 2.78066 -180 0 0 6.15 120.05 L6.15 114.25 L1.08 114.25 Z" class="st4"/>
			</g>
			<g id="shape478-17" v:mID="478" v:groupContext="shape" transform="translate(-0.727491,-122.58) rotate(-30) scale(-1,1)">
				<title>Tabelle.478</title>
				<v:userDefs>
					<v:ud v:nameU="msvThemeColors" v:val="VT0(36):26"/>
					<v:ud v:nameU="msvThemeEffects" v:val="VT0(16):26"/>
				</v:userDefs>
				<path d="M0 163.84 L0 167.29 L1.67 167.29 L1.67 173.37 L1.69 173.37 L3.61 175.98 L5.54 173.37 L5.56 173.37 L5.56
							 167.29 L7.23 167.29 L7.23 163.84 L0 163.84 Z" class="st4"/>
			</g>
			<g id="shape479-20" v:mID="479" v:groupContext="shape" v:layerMember="0"
					transform="translate(93.7795,-141.508) scale(-1,1)">
				<title>Start/Ende</title>
				<v:custProps>
					<v:cp v:nameU="Cost" v:lbl="Kosten" v:prompt="" v:type="7" v:format="@" v:sortKey="" v:invis="false"
							v:ask="false" v:langID="1031" v:cal="0"/>
					<v:cp v:nameU="ProcessNumber" v:lbl="Prozessnummer" v:prompt="" v:type="2" v:format="" v:sortKey=""
							v:invis="false" v:ask="false" v:langID="1031" v:cal="0"/>
					<v:cp v:nameU="Owner" v:lbl="Besitzer" v:prompt="" v:type="0" v:format="" v:sortKey="" v:invis="false"
							v:ask="false" v:langID="1031" v:cal="0"/>
					<v:cp v:nameU="Function" v:lbl="Funktionsname" v:prompt="" v:type="0" v:format="" v:sortKey="" v:invis="false"
							v:ask="false" v:langID="1031" v:cal="0" v:val="VT4()"/>
					<v:cp v:nameU="StartDate" v:lbl="Startdatum" v:prompt="" v:type="5" v:format="" v:sortKey="" v:invis="false"
							v:ask="false" v:langID="1031" v:cal="0"/>
					<v:cp v:nameU="EndDate" v:lbl="Enddatum" v:prompt="" v:type="5" v:format="" v:sortKey="" v:invis="false"
							v:ask="false" v:langID="1031" v:cal="0"/>
					<v:cp v:nameU="Status" v:lbl="Status" v:prompt="" v:type="4"
							v:format=";Nicht begonnen;In Bearbeitung;Abgeschlossen;Zurückgestellt;Auf Eingabe wartend" v:sortKey=""
							v:invis="false" v:ask="false" v:langID="1031" v:cal="0" v:val="VT4()"/>
				</v:custProps>
				<v:userDefs>
					<v:ud v:nameU="visVersion" v:prompt="" v:val="VT0(14):26"/>
					<v:ud v:nameU="DefaultWidth" v:prompt="" v:val="VT0(0.98425196850394):24"/>
					<v:ud v:nameU="DefaultHeight" v:prompt="" v:val="VT0(0.39370078740157):24"/>
					<v:ud v:nameU="ResizeTxtHeight" v:prompt="" v:val="VT0(0.39370078740157):24"/>
					<v:ud v:nameU="msvThemeColors" v:val="VT0(36):26"/>
					<v:ud v:nameU="msvThemeEffects" v:val="VT0(16):26"/>
				</v:userDefs>
				<path d="M0.83 175.98 L6.4 175.98 a0.834197 0.834197 -180 0 0 0 -1.66839 L0.83 174.31 a0.834197 0.834197 -180 1 0
							 -1.15463E-014 1.66839 Z" class="st4"/>
			</g>
			<g id="shape480-23" v:mID="480" v:groupContext="shape" transform="translate(80.346,-81.4462) scale(-1,1)">
				<title>Tabelle.480</title>
				<v:userDefs>
					<v:ud v:nameU="msvThemeColors" v:val="VT0(36):26"/>
					<v:ud v:nameU="msvThemeEffects" v:val="VT0(16):26"/>
				</v:userDefs>
				<path d="M1.08 114.25 L1.08 120.05 A3.61485 2.78066 -180 0 0 0 122.03 L0 173.2 A3.61485 2.78066 -180 0 0 7.23 173.2
							 L7.23 122.03 A3.61485 2.78066 -180 0 0 6.15 120.05 L6.15 114.25 L1.08 114.25 Z" class="st4"/>
			</g>
			<g id="shape481-26" v:mID="481" v:groupContext="shape" transform="translate(-14.161,-122.58) rotate(-30) scale(-1,1)">
				<title>Tabelle.481</title>
				<v:userDefs>
					<v:ud v:nameU="msvThemeColors" v:val="VT0(36):26"/>
					<v:ud v:nameU="msvThemeEffects" v:val="VT0(16):26"/>
				</v:userDefs>
				<path d="M0 163.84 L0 167.29 L1.67 167.29 L1.67 173.37 L1.69 173.37 L3.61 175.98 L5.54 173.37 L5.56 173.37 L5.56
							 167.29 L7.23 167.29 L7.23 163.84 L0 163.84 Z" class="st4"/>
			</g>
			<g id="shape482-29" v:mID="482" v:groupContext="shape" v:layerMember="0"
					transform="translate(80.346,-141.508) scale(-1,1)">
				<title>Start/Ende.6</title>
				<v:custProps>
					<v:cp v:nameU="Cost" v:lbl="Kosten" v:prompt="" v:type="7" v:format="@" v:sortKey="" v:invis="false"
							v:ask="false" v:langID="1031" v:cal="0"/>
					<v:cp v:nameU="ProcessNumber" v:lbl="Prozessnummer" v:prompt="" v:type="2" v:format="" v:sortKey=""
							v:invis="false" v:ask="false" v:langID="1031" v:cal="0"/>
					<v:cp v:nameU="Owner" v:lbl="Besitzer" v:prompt="" v:type="0" v:format="" v:sortKey="" v:invis="false"
							v:ask="false" v:langID="1031" v:cal="0"/>
					<v:cp v:nameU="Function" v:lbl="Funktionsname" v:prompt="" v:type="0" v:format="" v:sortKey="" v:invis="false"
							v:ask="false" v:langID="1031" v:cal="0" v:val="VT4()"/>
					<v:cp v:nameU="StartDate" v:lbl="Startdatum" v:prompt="" v:type="5" v:format="" v:sortKey="" v:invis="false"
							v:ask="false" v:langID="1031" v:cal="0"/>
					<v:cp v:nameU="EndDate" v:lbl="Enddatum" v:prompt="" v:type="5" v:format="" v:sortKey="" v:invis="false"
							v:ask="false" v:langID="1031" v:cal="0"/>
					<v:cp v:nameU="Status" v:lbl="Status" v:prompt="" v:type="4"
							v:format=";Nicht begonnen;In Bearbeitung;Abgeschlossen;Zurückgestellt;Auf Eingabe wartend" v:sortKey=""
							v:invis="false" v:ask="false" v:langID="1031" v:cal="0" v:val="VT4()"/>
				</v:custProps>
				<v:userDefs>
					<v:ud v:nameU="visVersion" v:prompt="" v:val="VT0(14):26"/>
					<v:ud v:nameU="DefaultWidth" v:prompt="" v:val="VT0(0.98425196850394):24"/>
					<v:ud v:nameU="DefaultHeight" v:prompt="" v:val="VT0(0.39370078740157):24"/>
					<v:ud v:nameU="ResizeTxtHeight" v:prompt="" v:val="VT0(0.39370078740157):24"/>
					<v:ud v:nameU="msvThemeColors" v:val="VT0(36):26"/>
					<v:ud v:nameU="msvThemeEffects" v:val="VT0(16):26"/>
				</v:userDefs>
				<path d="M0.83 175.98 L6.4 175.98 a0.834197 0.834197 -180 0 0 0 -1.66839 L0.83 174.31 a0.834197 0.834197 -180 1 0
							 -1.15463E-014 1.66839 Z" class="st4"/>
			</g>
			<g id="shape483-32" v:mID="483" v:groupContext="shape" transform="translate(67.0347,-81.4462) scale(-1,1)">
				<title>Tabelle.483</title>
				<v:userDefs>
					<v:ud v:nameU="msvThemeColors" v:val="VT0(36):26"/>
					<v:ud v:nameU="msvThemeEffects" v:val="VT0(16):26"/>
				</v:userDefs>
				<path d="M1.08 114.25 L1.08 120.05 A3.61485 2.78066 -180 0 0 0 122.03 L0 173.2 A3.61485 2.78066 -180 0 0 7.23 173.2
							 L7.23 122.03 A3.61485 2.78066 -180 0 0 6.15 120.05 L6.15 114.25 L1.08 114.25 Z" class="st4"/>
			</g>
			<g id="shape484-35" v:mID="484" v:groupContext="shape" transform="translate(-27.4723,-122.58) rotate(-30) scale(-1,1)">
				<title>Tabelle.484</title>
				<v:userDefs>
					<v:ud v:nameU="msvThemeColors" v:val="VT0(36):26"/>
					<v:ud v:nameU="msvThemeEffects" v:val="VT0(16):26"/>
				</v:userDefs>
				<path d="M0 163.84 L0 167.29 L1.67 167.29 L1.67 173.37 L1.69 173.37 L3.61 175.98 L5.54 173.37 L5.56 173.37 L5.56
							 167.29 L7.23 167.29 L7.23 163.84 L0 163.84 Z" class="st4"/>
			</g>
			<g id="shape485-38" v:mID="485" v:groupContext="shape" v:layerMember="0"
					transform="translate(67.0347,-141.508) scale(-1,1)">
				<title>Start/Ende.10</title>
				<v:custProps>
					<v:cp v:nameU="Cost" v:lbl="Kosten" v:prompt="" v:type="7" v:format="@" v:sortKey="" v:invis="false"
							v:ask="false" v:langID="1031" v:cal="0"/>
					<v:cp v:nameU="ProcessNumber" v:lbl="Prozessnummer" v:prompt="" v:type="2" v:format="" v:sortKey=""
							v:invis="false" v:ask="false" v:langID="1031" v:cal="0"/>
					<v:cp v:nameU="Owner" v:lbl="Besitzer" v:prompt="" v:type="0" v:format="" v:sortKey="" v:invis="false"
							v:ask="false" v:langID="1031" v:cal="0"/>
					<v:cp v:nameU="Function" v:lbl="Funktionsname" v:prompt="" v:type="0" v:format="" v:sortKey="" v:invis="false"
							v:ask="false" v:langID="1031" v:cal="0" v:val="VT4()"/>
					<v:cp v:nameU="StartDate" v:lbl="Startdatum" v:prompt="" v:type="5" v:format="" v:sortKey="" v:invis="false"
							v:ask="false" v:langID="1031" v:cal="0"/>
					<v:cp v:nameU="EndDate" v:lbl="Enddatum" v:prompt="" v:type="5" v:format="" v:sortKey="" v:invis="false"
							v:ask="false" v:langID="1031" v:cal="0"/>
					<v:cp v:nameU="Status" v:lbl="Status" v:prompt="" v:type="4"
							v:format=";Nicht begonnen;In Bearbeitung;Abgeschlossen;Zurückgestellt;Auf Eingabe wartend" v:sortKey=""
							v:invis="false" v:ask="false" v:langID="1031" v:cal="0" v:val="VT4()"/>
				</v:custProps>
				<v:userDefs>
					<v:ud v:nameU="visVersion" v:prompt="" v:val="VT0(14):26"/>
					<v:ud v:nameU="DefaultWidth" v:prompt="" v:val="VT0(0.98425196850394):24"/>
					<v:ud v:nameU="DefaultHeight" v:prompt="" v:val="VT0(0.39370078740157):24"/>
					<v:ud v:nameU="ResizeTxtHeight" v:prompt="" v:val="VT0(0.39370078740157):24"/>
					<v:ud v:nameU="msvThemeColors" v:val="VT0(36):26"/>
					<v:ud v:nameU="msvThemeEffects" v:val="VT0(16):26"/>
				</v:userDefs>
				<path d="M0.83 175.98 L6.4 175.98 a0.834197 0.834197 -180 0 0 0 -1.66839 L0.83 174.31 a0.834197 0.834197 -180 1 0
							 -1.15463E-014 1.66839 Z" class="st4"/>
			</g>
			<g id="shape486-41" v:mID="486" v:groupContext="shape" transform="translate(45.5906,-38.168) scale(-1,1)">
				<title>Tabelle.486</title>
				<v:userDefs>
					<v:ud v:nameU="msvThemeColors" v:val="VT0(36):26"/>
					<v:ud v:nameU="msvThemeEffects" v:val="VT0(16):26"/>
				</v:userDefs>
				<path d="M1.08 114.25 L1.08 120.05 A3.61485 2.78066 -180 0 0 0 122.03 L0 173.2 A3.61485 2.78066 -180 0 0 7.23 173.2
							 L7.23 122.03 A3.61485 2.78066 -180 0 0 6.15 120.05 L6.15 114.25 L1.08 114.25 Z" class="st4"/>
			</g>
			<g id="shape487-44" v:mID="487" v:groupContext="shape" transform="translate(-48.9165,-79.3016) rotate(-30) scale(-1,1)">
				<title>Tabelle.487</title>
				<v:userDefs>
					<v:ud v:nameU="msvThemeColors" v:val="VT0(36):26"/>
					<v:ud v:nameU="msvThemeEffects" v:val="VT0(16):26"/>
				</v:userDefs>
				<path d="M0 163.84 L0 167.29 L1.67 167.29 L1.67 173.37 L1.69 173.37 L3.61 175.98 L5.54 173.37 L5.56 173.37 L5.56
							 167.29 L7.23 167.29 L7.23 163.84 L0 163.84 Z" class="st4"/>
			</g>
			<g id="shape488-47" v:mID="488" v:groupContext="shape" v:layerMember="0"
					transform="translate(45.5906,-98.2302) scale(-1,1)">
				<title>Start/Ende.11</title>
				<v:custProps>
					<v:cp v:nameU="Cost" v:lbl="Kosten" v:prompt="" v:type="7" v:format="@" v:sortKey="" v:invis="false"
							v:ask="false" v:langID="1031" v:cal="0"/>
					<v:cp v:nameU="ProcessNumber" v:lbl="Prozessnummer" v:prompt="" v:type="2" v:format="" v:sortKey=""
							v:invis="false" v:ask="false" v:langID="1031" v:cal="0"/>
					<v:cp v:nameU="Owner" v:lbl="Besitzer" v:prompt="" v:type="0" v:format="" v:sortKey="" v:invis="false"
							v:ask="false" v:langID="1031" v:cal="0"/>
					<v:cp v:nameU="Function" v:lbl="Funktionsname" v:prompt="" v:type="0" v:format="" v:sortKey="" v:invis="false"
							v:ask="false" v:langID="1031" v:cal="0" v:val="VT4()"/>
					<v:cp v:nameU="StartDate" v:lbl="Startdatum" v:prompt="" v:type="5" v:format="" v:sortKey="" v:invis="false"
							v:ask="false" v:langID="1031" v:cal="0"/>
					<v:cp v:nameU="EndDate" v:lbl="Enddatum" v:prompt="" v:type="5" v:format="" v:sortKey="" v:invis="false"
							v:ask="false" v:langID="1031" v:cal="0"/>
					<v:cp v:nameU="Status" v:lbl="Status" v:prompt="" v:type="4"
							v:format=";Nicht begonnen;In Bearbeitung;Abgeschlossen;Zurückgestellt;Auf Eingabe wartend" v:sortKey=""
							v:invis="false" v:ask="false" v:langID="1031" v:cal="0" v:val="VT4()"/>
				</v:custProps>
				<v:userDefs>
					<v:ud v:nameU="visVersion" v:prompt="" v:val="VT0(14):26"/>
					<v:ud v:nameU="DefaultWidth" v:prompt="" v:val="VT0(0.98425196850394):24"/>
					<v:ud v:nameU="DefaultHeight" v:prompt="" v:val="VT0(0.39370078740157):24"/>
					<v:ud v:nameU="ResizeTxtHeight" v:prompt="" v:val="VT0(0.39370078740157):24"/>
					<v:ud v:nameU="msvThemeColors" v:val="VT0(36):26"/>
					<v:ud v:nameU="msvThemeEffects" v:val="VT0(16):26"/>
				</v:userDefs>
				<path d="M0.83 175.98 L6.4 175.98 a0.834197 0.834197 -180 0 0 0 -1.66839 L0.83 174.31 a0.834197 0.834197 -180 1 0
							 -1.15463E-014 1.66839 Z" class="st4"/>
			</g>
			<g id="shape489-50" v:mID="489" v:groupContext="shape" transform="translate(32.157,-38.168) scale(-1,1)">
				<title>Tabelle.489</title>
				<v:userDefs>
					<v:ud v:nameU="msvThemeColors" v:val="VT0(36):26"/>
					<v:ud v:nameU="msvThemeEffects" v:val="VT0(16):26"/>
				</v:userDefs>
				<path d="M1.08 114.25 L1.08 120.05 A3.61485 2.78066 -180 0 0 0 122.03 L0 173.2 A3.61485 2.78066 -180 0 0 7.23 173.2
							 L7.23 122.03 A3.61485 2.78066 -180 0 0 6.15 120.05 L6.15 114.25 L1.08 114.25 Z" class="st4"/>
			</g>
			<g id="shape490-53" v:mID="490" v:groupContext="shape" transform="translate(-62.35,-79.3016) rotate(-30) scale(-1,1)">
				<title>Tabelle.490</title>
				<v:userDefs>
					<v:ud v:nameU="msvThemeColors" v:val="VT0(36):26"/>
					<v:ud v:nameU="msvThemeEffects" v:val="VT0(16):26"/>
				</v:userDefs>
				<path d="M0 163.84 L0 167.29 L1.67 167.29 L1.67 173.37 L1.69 173.37 L3.61 175.98 L5.54 173.37 L5.56 173.37 L5.56
							 167.29 L7.23 167.29 L7.23 163.84 L0 163.84 Z" class="st4"/>
			</g>
			<g id="shape491-56" v:mID="491" v:groupContext="shape" v:layerMember="0"
					transform="translate(32.157,-98.2302) scale(-1,1)">
				<title>Start/Ende.21</title>
				<v:custProps>
					<v:cp v:nameU="Cost" v:lbl="Kosten" v:prompt="" v:type="7" v:format="@" v:sortKey="" v:invis="false"
							v:ask="false" v:langID="1031" v:cal="0"/>
					<v:cp v:nameU="ProcessNumber" v:lbl="Prozessnummer" v:prompt="" v:type="2" v:format="" v:sortKey=""
							v:invis="false" v:ask="false" v:langID="1031" v:cal="0"/>
					<v:cp v:nameU="Owner" v:lbl="Besitzer" v:prompt="" v:type="0" v:format="" v:sortKey="" v:invis="false"
							v:ask="false" v:langID="1031" v:cal="0"/>
					<v:cp v:nameU="Function" v:lbl="Funktionsname" v:prompt="" v:type="0" v:format="" v:sortKey="" v:invis="false"
							v:ask="false" v:langID="1031" v:cal="0" v:val="VT4()"/>
					<v:cp v:nameU="StartDate" v:lbl="Startdatum" v:prompt="" v:type="5" v:format="" v:sortKey="" v:invis="false"
							v:ask="false" v:langID="1031" v:cal="0"/>
					<v:cp v:nameU="EndDate" v:lbl="Enddatum" v:prompt="" v:type="5" v:format="" v:sortKey="" v:invis="false"
							v:ask="false" v:langID="1031" v:cal="0"/>
					<v:cp v:nameU="Status" v:lbl="Status" v:prompt="" v:type="4"
							v:format=";Nicht begonnen;In Bearbeitung;Abgeschlossen;Zurückgestellt;Auf Eingabe wartend" v:sortKey=""
							v:invis="false" v:ask="false" v:langID="1031" v:cal="0" v:val="VT4()"/>
				</v:custProps>
				<v:userDefs>
					<v:ud v:nameU="visVersion" v:prompt="" v:val="VT0(14):26"/>
					<v:ud v:nameU="DefaultWidth" v:prompt="" v:val="VT0(0.98425196850394):24"/>
					<v:ud v:nameU="DefaultHeight" v:prompt="" v:val="VT0(0.39370078740157):24"/>
					<v:ud v:nameU="ResizeTxtHeight" v:prompt="" v:val="VT0(0.39370078740157):24"/>
					<v:ud v:nameU="msvThemeColors" v:val="VT0(36):26"/>
					<v:ud v:nameU="msvThemeEffects" v:val="VT0(16):26"/>
				</v:userDefs>
				<path d="M0.83 175.98 L6.4 175.98 a0.834197 0.834197 -180 0 0 0 -1.66839 L0.83 174.31 a0.834197 0.834197 -180 1 0
							 -1.15463E-014 1.66839 Z" class="st4"/>
			</g>
			<g id="shape492-59" v:mID="492" v:groupContext="shape" transform="translate(18.8458,-38.168) scale(-1,1)">
				<title>Tabelle.492</title>
				<v:userDefs>
					<v:ud v:nameU="msvThemeColors" v:val="VT0(36):26"/>
					<v:ud v:nameU="msvThemeEffects" v:val="VT0(16):26"/>
				</v:userDefs>
				<path d="M1.08 114.25 L1.08 120.05 A3.61485 2.78066 -180 0 0 0 122.03 L0 173.2 A3.61485 2.78066 -180 0 0 7.23 173.2
							 L7.23 122.03 A3.61485 2.78066 -180 0 0 6.15 120.05 L6.15 114.25 L1.08 114.25 Z" class="st4"/>
			</g>
			<g id="shape493-62" v:mID="493" v:groupContext="shape" transform="translate(-75.6612,-79.3016) rotate(-30) scale(-1,1)">
				<title>Tabelle.493</title>
				<v:userDefs>
					<v:ud v:nameU="msvThemeColors" v:val="VT0(36):26"/>
					<v:ud v:nameU="msvThemeEffects" v:val="VT0(16):26"/>
				</v:userDefs>
				<path d="M0 163.84 L0 167.29 L1.67 167.29 L1.67 173.37 L1.69 173.37 L3.61 175.98 L5.54 173.37 L5.56 173.37 L5.56
							 167.29 L7.23 167.29 L7.23 163.84 L0 163.84 Z" class="st4"/>
			</g>
			<g id="shape494-65" v:mID="494" v:groupContext="shape" v:layerMember="0"
					transform="translate(18.8458,-98.2302) scale(-1,1)">
				<title>Start/Ende.24</title>
				<v:custProps>
					<v:cp v:nameU="Cost" v:lbl="Kosten" v:prompt="" v:type="7" v:format="@" v:sortKey="" v:invis="false"
							v:ask="false" v:langID="1031" v:cal="0"/>
					<v:cp v:nameU="ProcessNumber" v:lbl="Prozessnummer" v:prompt="" v:type="2" v:format="" v:sortKey=""
							v:invis="false" v:ask="false" v:langID="1031" v:cal="0"/>
					<v:cp v:nameU="Owner" v:lbl="Besitzer" v:prompt="" v:type="0" v:format="" v:sortKey="" v:invis="false"
							v:ask="false" v:langID="1031" v:cal="0"/>
					<v:cp v:nameU="Function" v:lbl="Funktionsname" v:prompt="" v:type="0" v:format="" v:sortKey="" v:invis="false"
							v:ask="false" v:langID="1031" v:cal="0" v:val="VT4()"/>
					<v:cp v:nameU="StartDate" v:lbl="Startdatum" v:prompt="" v:type="5" v:format="" v:sortKey="" v:invis="false"
							v:ask="false" v:langID="1031" v:cal="0"/>
					<v:cp v:nameU="EndDate" v:lbl="Enddatum" v:prompt="" v:type="5" v:format="" v:sortKey="" v:invis="false"
							v:ask="false" v:langID="1031" v:cal="0"/>
					<v:cp v:nameU="Status" v:lbl="Status" v:prompt="" v:type="4"
							v:format=";Nicht begonnen;In Bearbeitung;Abgeschlossen;Zurückgestellt;Auf Eingabe wartend" v:sortKey=""
							v:invis="false" v:ask="false" v:langID="1031" v:cal="0" v:val="VT4()"/>
				</v:custProps>
				<v:userDefs>
					<v:ud v:nameU="visVersion" v:prompt="" v:val="VT0(14):26"/>
					<v:ud v:nameU="DefaultWidth" v:prompt="" v:val="VT0(0.98425196850394):24"/>
					<v:ud v:nameU="DefaultHeight" v:prompt="" v:val="VT0(0.39370078740157):24"/>
					<v:ud v:nameU="ResizeTxtHeight" v:prompt="" v:val="VT0(0.39370078740157):24"/>
					<v:ud v:nameU="msvThemeColors" v:val="VT0(36):26"/>
					<v:ud v:nameU="msvThemeEffects" v:val="VT0(16):26"/>
				</v:userDefs>
				<path d="M0.83 175.98 L6.4 175.98 a0.834197 0.834197 -180 0 0 0 -1.66839 L0.83 174.31 a0.834197 0.834197 -180 1 0
							 -1.15463E-014 1.66839 Z" class="st4"/>
			</g>
			<g id="shape495-68" v:mID="495" v:groupContext="shape" transform="translate(99.685,-2.84217E-014) scale(-1,1)">
				<title>Tabelle.495</title>
				<v:userDefs>
					<v:ud v:nameU="msvThemeColors" v:val="VT0(36):26"/>
					<v:ud v:nameU="msvThemeEffects" v:val="VT0(16):26"/>
				</v:userDefs>
				<path d="M1.08 114.25 L1.08 120.05 A3.61485 2.78066 -180 0 0 0 122.03 L0 173.2 A3.61485 2.78066 -180 0 0 7.23 173.2
							 L7.23 122.03 A3.61485 2.78066 -180 0 0 6.15 120.05 L6.15 114.25 L1.08 114.25 Z" class="st4"/>
			</g>
			<g id="shape496-71" v:mID="496" v:groupContext="shape" transform="translate(5.17802,-41.1336) rotate(-30) scale(-1,1)">
				<title>Tabelle.496</title>
				<v:userDefs>
					<v:ud v:nameU="msvThemeColors" v:val="VT0(36):26"/>
					<v:ud v:nameU="msvThemeEffects" v:val="VT0(16):26"/>
				</v:userDefs>
				<path d="M0 163.84 L0 167.29 L1.67 167.29 L1.67 173.37 L1.69 173.37 L3.61 175.98 L5.54 173.37 L5.56 173.37 L5.56
							 167.29 L7.23 167.29 L7.23 163.84 L0 163.84 Z" class="st4"/>
			</g>
			<g id="shape497-74" v:mID="497" v:groupContext="shape" v:layerMember="0"
					transform="translate(99.685,-60.0622) scale(-1,1)">
				<title>Start/Ende.43</title>
				<v:custProps>
					<v:cp v:nameU="Cost" v:lbl="Kosten" v:prompt="" v:type="7" v:format="@" v:sortKey="" v:invis="false"
							v:ask="false" v:langID="1031" v:cal="0"/>
					<v:cp v:nameU="ProcessNumber" v:lbl="Prozessnummer" v:prompt="" v:type="2" v:format="" v:sortKey=""
							v:invis="false" v:ask="false" v:langID="1031" v:cal="0"/>
					<v:cp v:nameU="Owner" v:lbl="Besitzer" v:prompt="" v:type="0" v:format="" v:sortKey="" v:invis="false"
							v:ask="false" v:langID="1031" v:cal="0"/>
					<v:cp v:nameU="Function" v:lbl="Funktionsname" v:prompt="" v:type="0" v:format="" v:sortKey="" v:invis="false"
							v:ask="false" v:langID="1031" v:cal="0" v:val="VT4()"/>
					<v:cp v:nameU="StartDate" v:lbl="Startdatum" v:prompt="" v:type="5" v:format="" v:sortKey="" v:invis="false"
							v:ask="false" v:langID="1031" v:cal="0"/>
					<v:cp v:nameU="EndDate" v:lbl="Enddatum" v:prompt="" v:type="5" v:format="" v:sortKey="" v:invis="false"
							v:ask="false" v:langID="1031" v:cal="0"/>
					<v:cp v:nameU="Status" v:lbl="Status" v:prompt="" v:type="4"
							v:format=";Nicht begonnen;In Bearbeitung;Abgeschlossen;Zurückgestellt;Auf Eingabe wartend" v:sortKey=""
							v:invis="false" v:ask="false" v:langID="1031" v:cal="0" v:val="VT4()"/>
				</v:custProps>
				<v:userDefs>
					<v:ud v:nameU="visVersion" v:prompt="" v:val="VT0(14):26"/>
					<v:ud v:nameU="DefaultWidth" v:prompt="" v:val="VT0(0.98425196850394):24"/>
					<v:ud v:nameU="DefaultHeight" v:prompt="" v:val="VT0(0.39370078740157):24"/>
					<v:ud v:nameU="ResizeTxtHeight" v:prompt="" v:val="VT0(0.39370078740157):24"/>
					<v:ud v:nameU="msvThemeColors" v:val="VT0(36):26"/>
					<v:ud v:nameU="msvThemeEffects" v:val="VT0(16):26"/>
				</v:userDefs>
				<path d="M0.83 175.98 L6.4 175.98 a0.834197 0.834197 -180 0 0 0 -1.66839 L0.83 174.31 a0.834197 0.834197 -180 1 0
							 -1.15463E-014 1.66839 Z" class="st4"/>
			</g>
			<g id="shape498-77" v:mID="498" v:groupContext="shape" transform="translate(86.2515,-2.84217E-014) scale(-1,1)">
				<title>Tabelle.498</title>
				<v:userDefs>
					<v:ud v:nameU="msvThemeColors" v:val="VT0(36):26"/>
					<v:ud v:nameU="msvThemeEffects" v:val="VT0(16):26"/>
				</v:userDefs>
				<path d="M1.08 114.25 L1.08 120.05 A3.61485 2.78066 -180 0 0 0 122.03 L0 173.2 A3.61485 2.78066 -180 0 0 7.23 173.2
							 L7.23 122.03 A3.61485 2.78066 -180 0 0 6.15 120.05 L6.15 114.25 L1.08 114.25 Z" class="st4"/>
			</g>
			<g id="shape499-80" v:mID="499" v:groupContext="shape" transform="translate(-8.25548,-41.1336) rotate(-30) scale(-1,1)">
				<title>Tabelle.499</title>
				<v:userDefs>
					<v:ud v:nameU="msvThemeColors" v:val="VT0(36):26"/>
					<v:ud v:nameU="msvThemeEffects" v:val="VT0(16):26"/>
				</v:userDefs>
				<path d="M0 163.84 L0 167.29 L1.67 167.29 L1.67 173.37 L1.69 173.37 L3.61 175.98 L5.54 173.37 L5.56 173.37 L5.56
							 167.29 L7.23 167.29 L7.23 163.84 L0 163.84 Z" class="st4"/>
			</g>
			<g id="shape500-83" v:mID="500" v:groupContext="shape" v:layerMember="0"
					transform="translate(86.2515,-60.0622) scale(-1,1)">
				<title>Start/Ende.50</title>
				<v:custProps>
					<v:cp v:nameU="Cost" v:lbl="Kosten" v:prompt="" v:type="7" v:format="@" v:sortKey="" v:invis="false"
							v:ask="false" v:langID="1031" v:cal="0"/>
					<v:cp v:nameU="ProcessNumber" v:lbl="Prozessnummer" v:prompt="" v:type="2" v:format="" v:sortKey=""
							v:invis="false" v:ask="false" v:langID="1031" v:cal="0"/>
					<v:cp v:nameU="Owner" v:lbl="Besitzer" v:prompt="" v:type="0" v:format="" v:sortKey="" v:invis="false"
							v:ask="false" v:langID="1031" v:cal="0"/>
					<v:cp v:nameU="Function" v:lbl="Funktionsname" v:prompt="" v:type="0" v:format="" v:sortKey="" v:invis="false"
							v:ask="false" v:langID="1031" v:cal="0" v:val="VT4()"/>
					<v:cp v:nameU="StartDate" v:lbl="Startdatum" v:prompt="" v:type="5" v:format="" v:sortKey="" v:invis="false"
							v:ask="false" v:langID="1031" v:cal="0"/>
					<v:cp v:nameU="EndDate" v:lbl="Enddatum" v:prompt="" v:type="5" v:format="" v:sortKey="" v:invis="false"
							v:ask="false" v:langID="1031" v:cal="0"/>
					<v:cp v:nameU="Status" v:lbl="Status" v:prompt="" v:type="4"
							v:format=";Nicht begonnen;In Bearbeitung;Abgeschlossen;Zurückgestellt;Auf Eingabe wartend" v:sortKey=""
							v:invis="false" v:ask="false" v:langID="1031" v:cal="0" v:val="VT4()"/>
				</v:custProps>
				<v:userDefs>
					<v:ud v:nameU="visVersion" v:prompt="" v:val="VT0(14):26"/>
					<v:ud v:nameU="DefaultWidth" v:prompt="" v:val="VT0(0.98425196850394):24"/>
					<v:ud v:nameU="DefaultHeight" v:prompt="" v:val="VT0(0.39370078740157):24"/>
					<v:ud v:nameU="ResizeTxtHeight" v:prompt="" v:val="VT0(0.39370078740157):24"/>
					<v:ud v:nameU="msvThemeColors" v:val="VT0(36):26"/>
					<v:ud v:nameU="msvThemeEffects" v:val="VT0(16):26"/>
				</v:userDefs>
				<path d="M0.83 175.98 L6.4 175.98 a0.834197 0.834197 -180 0 0 0 -1.66839 L0.83 174.31 a0.834197 0.834197 -180 1 0
							 -1.15463E-014 1.66839 Z" class="st4"/>
			</g>
			<g id="shape501-86" v:mID="501" v:groupContext="shape" transform="translate(72.9403,-2.84217E-014) scale(-1,1)">
				<title>Tabelle.501</title>
				<v:userDefs>
					<v:ud v:nameU="msvThemeColors" v:val="VT0(36):26"/>
					<v:ud v:nameU="msvThemeEffects" v:val="VT0(16):26"/>
				</v:userDefs>
				<path d="M1.08 114.25 L1.08 120.05 A3.61485 2.78066 -180 0 0 0 122.03 L0 173.2 A3.61485 2.78066 -180 0 0 7.23 173.2
							 L7.23 122.03 A3.61485 2.78066 -180 0 0 6.15 120.05 L6.15 114.25 L1.08 114.25 Z" class="st4"/>
			</g>
			<g id="shape502-89" v:mID="502" v:groupContext="shape" transform="translate(-21.5668,-41.1336) rotate(-30) scale(-1,1)">
				<title>Tabelle.502</title>
				<v:userDefs>
					<v:ud v:nameU="msvThemeColors" v:val="VT0(36):26"/>
					<v:ud v:nameU="msvThemeEffects" v:val="VT0(16):26"/>
				</v:userDefs>
				<path d="M0 163.84 L0 167.29 L1.67 167.29 L1.67 173.37 L1.69 173.37 L3.61 175.98 L5.54 173.37 L5.56 173.37 L5.56
							 167.29 L7.23 167.29 L7.23 163.84 L0 163.84 Z" class="st4"/>
			</g>
			<g id="shape503-92" v:mID="503" v:groupContext="shape" v:layerMember="0"
					transform="translate(72.9403,-60.0622) scale(-1,1)">
				<title>Start/Ende.53</title>
				<v:custProps>
					<v:cp v:nameU="Cost" v:lbl="Kosten" v:prompt="" v:type="7" v:format="@" v:sortKey="" v:invis="false"
							v:ask="false" v:langID="1031" v:cal="0"/>
					<v:cp v:nameU="ProcessNumber" v:lbl="Prozessnummer" v:prompt="" v:type="2" v:format="" v:sortKey=""
							v:invis="false" v:ask="false" v:langID="1031" v:cal="0"/>
					<v:cp v:nameU="Owner" v:lbl="Besitzer" v:prompt="" v:type="0" v:format="" v:sortKey="" v:invis="false"
							v:ask="false" v:langID="1031" v:cal="0"/>
					<v:cp v:nameU="Function" v:lbl="Funktionsname" v:prompt="" v:type="0" v:format="" v:sortKey="" v:invis="false"
							v:ask="false" v:langID="1031" v:cal="0" v:val="VT4()"/>
					<v:cp v:nameU="StartDate" v:lbl="Startdatum" v:prompt="" v:type="5" v:format="" v:sortKey="" v:invis="false"
							v:ask="false" v:langID="1031" v:cal="0"/>
					<v:cp v:nameU="EndDate" v:lbl="Enddatum" v:prompt="" v:type="5" v:format="" v:sortKey="" v:invis="false"
							v:ask="false" v:langID="1031" v:cal="0"/>
					<v:cp v:nameU="Status" v:lbl="Status" v:prompt="" v:type="4"
							v:format=";Nicht begonnen;In Bearbeitung;Abgeschlossen;Zurückgestellt;Auf Eingabe wartend" v:sortKey=""
							v:invis="false" v:ask="false" v:langID="1031" v:cal="0" v:val="VT4()"/>
				</v:custProps>
				<v:userDefs>
					<v:ud v:nameU="visVersion" v:prompt="" v:val="VT0(14):26"/>
					<v:ud v:nameU="DefaultWidth" v:prompt="" v:val="VT0(0.98425196850394):24"/>
					<v:ud v:nameU="DefaultHeight" v:prompt="" v:val="VT0(0.39370078740157):24"/>
					<v:ud v:nameU="ResizeTxtHeight" v:prompt="" v:val="VT0(0.39370078740157):24"/>
					<v:ud v:nameU="msvThemeColors" v:val="VT0(36):26"/>
					<v:ud v:nameU="msvThemeEffects" v:val="VT0(16):26"/>
				</v:userDefs>
				<path d="M0.83 175.98 L6.4 175.98 a0.834197 0.834197 -180 0 0 0 -1.66839 L0.83 174.31 a0.834197 0.834197 -180 1 0
							 -1.15463E-014 1.66839 Z" class="st4"/>
			</g>
			<g id="shape504-95" v:mID="504" v:groupContext="shape" transform="translate(86.2515,-2.84217E-014) scale(-1,1)">
				<title>Tabelle.504</title>
				<v:userDefs>
					<v:ud v:nameU="msvThemeColors" v:val="VT0(36):26"/>
					<v:ud v:nameU="msvThemeEffects" v:val="VT0(16):26"/>
				</v:userDefs>
				<path d="M0 155.92 L0 173.2 A3.61485 2.78066 -180 0 0 7.23 173.2 L7.23 155.92 L0 155.92 Z" class="st5"/>
			</g>
			<g id="shape505-99" v:mID="505" v:groupContext="shape" transform="translate(72.9403,0) scale(-1,1)">
				<title>Tabelle.505</title>
				<v:userDefs>
					<v:ud v:nameU="msvThemeColors" v:val="VT0(36):26"/>
					<v:ud v:nameU="msvThemeEffects" v:val="VT0(16):26"/>
				</v:userDefs>
				<path d="M0 155.92 L0 173.2 A3.61485 2.78066 -180 0 0 7.23 173.2 L7.23 155.92 L0 155.92 Z" class="st5"/>
			</g>
			<g id="shape506-102" v:mID="506" v:groupContext="shape" transform="translate(99.685,-2.84217E-014) scale(-1,1)">
				<title>Tabelle.506</title>
				<v:userDefs>
					<v:ud v:nameU="msvThemeColors" v:val="VT0(36):26"/>
					<v:ud v:nameU="msvThemeEffects" v:val="VT0(16):26"/>
				</v:userDefs>
				<path d="M0 155.92 L0 173.2 A3.61485 2.78066 -180 0 0 7.23 173.2 L7.23 155.92 L0 155.92 Z" class="st5"/>
			</g>
			<g id="shape507-105" v:mID="507" v:groupContext="shape" transform="translate(32.1158,-38.2677) scale(-1,1)">
				<title>Tabelle.507</title>
				<v:userDefs>
					<v:ud v:nameU="msvThemeColors" v:val="VT0(36):26"/>
					<v:ud v:nameU="msvThemeEffects" v:val="VT0(16):26"/>
				</v:userDefs>
				<path d="M0 155.92 L0 173.2 A3.61485 2.78066 -180 0 0 7.23 173.2 L7.23 155.92 L0 155.92 Z" class="st5"/>
			</g>
			<g id="shape508-108" v:mID="508" v:groupContext="shape" transform="translate(18.8045,-38.2677) scale(-1,1)">
				<title>Tabelle.508</title>
				<v:userDefs>
					<v:ud v:nameU="msvThemeColors" v:val="VT0(36):26"/>
					<v:ud v:nameU="msvThemeEffects" v:val="VT0(16):26"/>
				</v:userDefs>
				<path d="M0 155.92 L0 173.2 A3.61485 2.78066 -180 0 0 7.23 173.2 L7.23 155.92 L0 155.92 Z" class="st5"/>
			</g>
			<g id="shape509-111" v:mID="509" v:groupContext="shape" transform="translate(45.5493,-38.2677) scale(-1,1)">
				<title>Tabelle.509</title>
				<v:userDefs>
					<v:ud v:nameU="msvThemeColors" v:val="VT0(36):26"/>
					<v:ud v:nameU="msvThemeEffects" v:val="VT0(16):26"/>
				</v:userDefs>
				<path d="M0 155.92 L0 173.2 A3.61485 2.78066 -180 0 0 7.23 173.2 L7.23 155.92 L0 155.92 Z" class="st5"/>
			</g>
			<g id="shape510-114" v:mID="510" v:groupContext="shape" transform="translate(80.346,-81.4252) scale(-1,1)">
				<title>Tabelle.510</title>
				<v:userDefs>
					<v:ud v:nameU="msvThemeColors" v:val="VT0(36):26"/>
					<v:ud v:nameU="msvThemeEffects" v:val="VT0(16):26"/>
				</v:userDefs>
				<path d="M0 155.92 L0 173.2 A3.61485 2.78066 -180 0 0 7.23 173.2 L7.23 155.92 L0 155.92 Z" class="st5"/>
			</g>
			<g id="shape511-117" v:mID="511" v:groupContext="shape" transform="translate(67.0347,-81.4252) scale(-1,1)">
				<title>Tabelle.511</title>
				<v:userDefs>
					<v:ud v:nameU="msvThemeColors" v:val="VT0(36):26"/>
					<v:ud v:nameU="msvThemeEffects" v:val="VT0(16):26"/>
				</v:userDefs>
				<path d="M0 155.92 L0 173.2 A3.61485 2.78066 -180 0 0 7.23 173.2 L7.23 155.92 L0 155.92 Z" class="st5"/>
			</g>
			<g id="shape512-120" v:mID="512" v:groupContext="shape" transform="translate(93.7795,-81.4252) scale(-1,1)">
				<title>Tabelle.512</title>
				<v:userDefs>
					<v:ud v:nameU="msvThemeColors" v:val="VT0(36):26"/>
					<v:ud v:nameU="msvThemeEffects" v:val="VT0(16):26"/>
				</v:userDefs>
				<path d="M0 155.92 L0 173.2 A3.61485 2.78066 -180 0 0 7.23 173.2 L7.23 155.92 L0 155.92 Z" class="st5"/>
			</g>
		</g>
		<g id="group513-123" transform="translate(280.382,-50.4081)" v:mID="513" v:groupContext="group">
			<v:userDefs>
				<v:ud v:nameU="msvThemeColors" v:val="VT0(36):26"/>
				<v:ud v:nameU="msvThemeEffects" v:val="VT0(16):26"/>
			</v:userDefs>
			<title>Tabelle.513</title>
			<g id="shape514-124" v:mID="514" v:groupContext="shape" transform="translate(-7.99361E-015,-6.61679)">
				<title>Tabelle.514</title>
				<v:userDefs>
					<v:ud v:nameU="msvThemeColors" v:val="VT0(36):26"/>
					<v:ud v:nameU="msvThemeEffects" v:val="VT0(16):26"/>
				</v:userDefs>
				<path d="M0 166.02 L0 175.98 L65.69 175.98 L65.69 128.6 L21.6 128.6 L0 166.02 Z" class="st4"/>
			</g>
			<g id="shape515-127" v:mID="515" v:groupContext="shape" transform="translate(21.1415,-15.185)">
				<title>Tabelle.515</title>
				<v:userDefs>
					<v:ud v:nameU="msvThemeColors" v:val="VT0(36):26"/>
					<v:ud v:nameU="msvThemeEffects" v:val="VT0(16):26"/>
				</v:userDefs>
				<path d="M26.21 160.38 L30.44 163.54 L34.66 160.38 L32.13 160.38 A15.3179 10.2119 -180 0 0 18.58 152.8 L18.58 155.74
							 A11.291 7.29047 0 0 1 27.87 160.38 L26.21 160.38 ZM20.51 167.53 L17.36 171.75 L20.51 175.98 L20.51 172.97
							 A15.3179 10.2119 -180 0 0 32.52 164.25 L28.44 164.25 A11.291 7.29047 0 0 1 20.51 169.97 L20.51 167.53
							 ZM14.2 158.61 L17.35 154.38 L14.2 150.16 L14.2 152.98 A15.3179 10.2119 -180 0 0 2.11 161.72 L6.19 161.72
							 A11.291 7.29047 0 0 1 14.2 155.98 L14.2 158.61 ZM6.87 165.75 L8.45 165.75 L4.22 162.6 L0 165.75 L2.57
							 165.75 A15.3179 10.2119 -180 0 0 16.05 173.16 L16.05 170.23 A11.291 7.29047 0 0 1 6.87 165.75 Z"
						class="st6"/>
			</g>
			<g id="shape516-131" v:mID="516" v:groupContext="shape" transform="translate(2.83465,0)">
				<title>Rechteck.6</title>
				<v:userDefs>
					<v:ud v:nameU="visVersion" v:val="VT0(14):26"/>
					<v:ud v:nameU="msvThemeColors" v:val="VT0(36):26"/>
					<v:ud v:nameU="msvThemeEffects" v:val="VT0(16):26"/>
				</v:userDefs>
				<rect x="0" y="170.309" width="8.50394" height="5.66929" class="st4"/>
			</g>
			<g id="shape517-134" v:mID="517" v:groupContext="shape" transform="translate(55.2756,0)">
				<title>Rechteck.7</title>
				<v:userDefs>
					<v:ud v:nameU="visVersion" v:val="VT0(14):26"/>
					<v:ud v:nameU="msvThemeColors" v:val="VT0(36):26"/>
					<v:ud v:nameU="msvThemeEffects" v:val="VT0(16):26"/>
				</v:userDefs>
				<rect x="0" y="170.309" width="8.50394" height="5.66929" class="st4"/>
			</g>
			<g id="shape518-137" v:mID="518" v:groupContext="shape" transform="translate(35.9857,-54.9392)">
				<title>Tabelle.518</title>
				<rect x="0" y="169.025" width="12.0016" height="6.95321" class="st7"/>
			</g>
			<g id="shape519-139" v:mID="519" v:groupContext="shape" transform="translate(21.1008,-59.0577)">
				<title>Tabelle.519</title>
				<path d="M0 175.98 L41.77 175.98 A26.9291 56.6929 -180 0 0 30.7 158.97 L11.07 158.97 A26.9291 56.6929 -180 0 0 0
							 175.98 Z" class="st7"/>
			</g>
		</g>
	</g>
</svg>
