<?xml version="1.0" encoding="UTF-8" standalone="no"?>
<!DOCTYPE svg PUBLIC "-//W3C//DTD SVG 1.1//EN" "http://www.w3.org/Graphics/SVG/1.1/DTD/svg11.dtd">
<!-- Generiert durch Microsoft Visio, SVG Export 21.svg Page-1 -->
<svg xmlns="http://www.w3.org/2000/svg" xmlns:xlink="http://www.w3.org/1999/xlink" xmlns:ev="http://www.w3.org/2001/xml-events"
		xmlns:v="http://schemas.microsoft.com/visio/2003/SVGExtensions/" width="5.20768in" height="2.44414in"
		viewBox="0 0 374.953 175.978" xml:space="preserve" color-interpolation-filters="sRGB" class="st9">
	<v:documentProperties v:langID="1031" v:metric="true" v:viewMarkup="false">
		<v:userDefs>
			<v:ud v:nameU="msvNoAutoConnect" v:val="VT0(0):26"/>
			<v:ud v:nameU="msvConvertTheme"/>
		</v:userDefs>
	</v:documentProperties>

	<style type="text/css">
	<![CDATA[
		.st1 {fill:#000000;stroke:none;stroke-linecap:round;stroke-linejoin:round;stroke-width:0.75}
		.st2 {fill:url(#grad0-6);stroke:#ffffff;stroke-linecap:round;stroke-linejoin:round;stroke-width:0.25}
		.st3 {fill:none;stroke:none;stroke-linecap:round;stroke-linejoin:round;stroke-width:0.25}
		.st4 {fill:url(#grad0-6);stroke:#404040;stroke-linecap:round;stroke-linejoin:round;stroke-width:0.25}
		.st5 {fill:url(#grad0-44);stroke:none;stroke-linecap:round;stroke-linejoin:round;stroke-width:0.25}
		.st6 {fill:url(#grad0-6);stroke:#7f7f7f;stroke-linecap:round;stroke-linejoin:round;stroke-width:0.25}
		.st7 {fill:url(#grad0-142);stroke:#c00000;stroke-linecap:round;stroke-linejoin:round;stroke-width:0.25}
		.st8 {fill:#ffffff;stroke:#1f477d;stroke-linecap:round;stroke-linejoin:round;stroke-width:0.25}
		.st9 {fill:none;fill-rule:evenodd;font-size:12px;overflow:visible;stroke-linecap:square;stroke-miterlimit:3}
	]]>
	</style>

	<defs id="Patterns_And_Gradients">
		<linearGradient id="grad0-6" x1="0" y1="0" x2="1" y2="0" gradientTransform="rotate(270 0.5 0.5)">
			<stop offset="0" stop-color="#f0f0f0" stop-opacity="1"/>
			<stop offset="1" stop-color="#ffffff" stop-opacity="1"/>
		</linearGradient>
		<linearGradient id="grad0-44" x1="0" y1="0" x2="1" y2="0" gradientTransform="rotate(270 0.5 0.5)">
			<stop offset="0" stop-color="#3a2f4f" stop-opacity="1"/>
			<stop offset="1" stop-color="#43365a" stop-opacity="1"/>
		</linearGradient>
		<linearGradient id="grad0-142" x1="0" y1="0" x2="1" y2="0" gradientTransform="rotate(270 0.5 0.5)">
			<stop offset="0" stop-color="#a60000" stop-opacity="1"/>
			<stop offset="1" stop-color="#c00000" stop-opacity="1"/>
		</linearGradient>
	</defs>
	<g v:mID="4" v:index="1" v:groupContext="backgroundPage">
		<v:userDefs>
			<v:ud v:nameU="msvThemeColors" v:val="VT0(36):26"/>
			<v:ud v:nameU="msvThemeEffects" v:val="VT0(16):26"/>
			<v:ud v:nameU="msvThemeOrder" v:val="VT0(0):26"/>
			<v:ud v:nameU="msvVisioCreated" v:prompt="" v:val="VT0(0):26"/>
		</v:userDefs>
		<title>VHintergrund-1</title>
		<v:pageProperties width="5.20768" height="2.44414" v:drawingScale="0.0393701" v:pageScale="0.0393701" v:drawingUnits="24"
				v:shadowOffsetX="8.50394" v:shadowOffsetY="-8.50394"/>
		<g id="shape1-1" v:mID="1" v:groupContext="shape">
			<title>Vollton</title>
			<v:userDefs>
				<v:ud v:nameU="Background" v:val="VT0(0):26"/>
				<v:ud v:nameU="visVersion" v:val="VT0(14):26"/>
				<v:ud v:nameU="msvShapeCategories" v:prompt="" v:val="VT4(DoNotContain)"/>
				<v:ud v:nameU="msvThemeColors" v:val="VT0(36):26"/>
				<v:ud v:nameU="msvVisioCreated" v:prompt="" v:val="VT0(0):26"/>
			</v:userDefs>
			<rect x="0" y="0" width="374.953" height="175.978" class="st1"/>
		</g>
		<g id="shape2-3" v:mID="2" v:groupContext="shape" transform="translate(222.201,234.318) rotate(180)">
			<title>Pfeil 60 Grad-Spitze</title>
			<v:userDefs>
				<v:ud v:nameU="visVersion" v:val="VT0(14):26"/>
				<v:ud v:nameU="msvThemeColors" v:val="VT0(36):26"/>
				<v:ud v:nameU="msvThemeEffects" v:val="VT0(16):26"/>
			</v:userDefs>
			<path d="M0 168.89 L4.09 161.8 L4.09 166.48 L69.45 166.48 L69.45 171.3 L4.09 171.3 L4.09 175.98 L0 168.89 Z"
					class="st2"/>
		</g>
	</g>
	<g v:mID="0" v:index="2" v:groupContext="foregroundPage">
		<v:userDefs>
			<v:ud v:nameU="msvThemeColors" v:val="VT0(36):26"/>
			<v:ud v:nameU="msvThemeEffects" v:val="VT0(16):26"/>
			<v:ud v:nameU="msvThemeOrder" v:val="VT0(0):26"/>
		</v:userDefs>
		<title>Zeichenblatt-1</title>
		<v:pageProperties v:drawingScale="0.0393701" v:pageScale="0.0393701" v:drawingUnits="24" v:shadowOffsetX="8.50394"
				v:shadowOffsetY="-8.50394"/>
		<v:layer v:name="Flussdiagramm" v:index="0"/>
		<v:layer v:name="Verbinder" v:index="1"/>
		<g id="shape195-7" v:mID="195" v:groupContext="shape" transform="translate(125.787,-123.895)">
			<title>Rechteck.195</title>
			<v:userDefs>
				<v:ud v:nameU="visVersion" v:val="VT0(15):26"/>
				<v:ud v:nameU="msvThemeColors" v:val="VT0(36):26"/>
				<v:ud v:nameU="msvThemeEffects" v:val="VT0(16):26"/>
			</v:userDefs>
			<rect x="0" y="128.965" width="123.307" height="47.0131" class="st3"/>
		</g>
		<g id="shape192-9" v:mID="192" v:groupContext="shape" transform="translate(1.59872E-014,-2.26772)">
			<title>Rechteck.13.192</title>
			<v:userDefs>
				<v:ud v:nameU="visVersion" v:val="VT0(15):26"/>
				<v:ud v:nameU="msvThemeColors" v:val="VT0(36):26"/>
				<v:ud v:nameU="msvThemeEffects" v:val="VT0(16):26"/>
			</v:userDefs>
			<rect x="0" y="3.63146" width="123.307" height="172.346" class="st3"/>
		</g>
		<g id="shape194-11" v:mID="194" v:groupContext="shape" transform="translate(251.575,-2.26772)">
			<title>Rechteck.194</title>
			<v:userDefs>
				<v:ud v:nameU="visVersion" v:val="VT0(15):26"/>
				<v:ud v:nameU="msvThemeColors" v:val="VT0(36):26"/>
				<v:ud v:nameU="msvThemeEffects" v:val="VT0(16):26"/>
			</v:userDefs>
			<rect x="0" y="3.63146" width="123.307" height="172.346" class="st3"/>
		</g>
		<g id="group670-13" transform="translate(18.8151,-10.4675)" v:mID="670" v:groupContext="group">
			<v:userDefs>
				<v:ud v:nameU="msvThemeColors" v:val="VT0(36):26"/>
				<v:ud v:nameU="msvThemeEffects" v:val="VT0(16):26"/>
			</v:userDefs>
			<title>Tabelle.670</title>
			<g id="shape671-14" v:mID="671" v:groupContext="shape" transform="translate(37.4999,-84.6243) scale(-1,1)">
				<title>Tabelle.671</title>
				<v:userDefs>
					<v:ud v:nameU="msvThemeColors" v:val="VT0(36):26"/>
					<v:ud v:nameU="msvThemeEffects" v:val="VT0(16):26"/>
				</v:userDefs>
				<path d="M0.95 121.64 L0.95 126.75 A3.18192 2.44763 -180 0 0 0 128.49 L0 173.53 A3.18192 2.44763 -180 0 0 6.36 173.53
							 L6.36 128.49 A3.18192 2.44763 -180 0 0 5.41 126.75 L5.41 121.64 L0.95 121.64 Z" class="st4"/>
			</g>
			<g id="shape672-17" v:mID="672" v:groupContext="shape" transform="translate(37.5024,-132.62) scale(-1,1)">
				<title>Tabelle.672</title>
				<v:userDefs>
					<v:ud v:nameU="msvThemeColors" v:val="VT0(36):26"/>
					<v:ud v:nameU="msvThemeEffects" v:val="VT0(16):26"/>
				</v:userDefs>
				<path d="M0 165.3 L0 168.33 L1.47 168.33 L1.47 173.68 L1.49 173.68 L3.18 175.98 L4.88 173.68 L4.9 173.68 L4.9 168.33
							 L6.36 168.33 L6.36 165.3 L0 165.3 Z" class="st4"/>
			</g>
			<g id="shape673-20" v:mID="673" v:groupContext="shape" v:layerMember="0"
					transform="translate(37.4999,-137.493) scale(-1,1)">
				<title>Start/Ende.31</title>
				<v:custProps>
					<v:cp v:nameU="Cost" v:lbl="Kosten" v:prompt="" v:type="7" v:format="@" v:sortKey="" v:invis="false"
							v:ask="false" v:langID="1031" v:cal="0"/>
					<v:cp v:nameU="ProcessNumber" v:lbl="Prozessnummer" v:prompt="" v:type="2" v:format="" v:sortKey=""
							v:invis="false" v:ask="false" v:langID="1031" v:cal="0"/>
					<v:cp v:nameU="Owner" v:lbl="Besitzer" v:prompt="" v:type="0" v:format="" v:sortKey="" v:invis="false"
							v:ask="false" v:langID="1031" v:cal="0"/>
					<v:cp v:nameU="Function" v:lbl="Funktionsname" v:prompt="" v:type="0" v:format="" v:sortKey="" v:invis="false"
							v:ask="false" v:langID="1031" v:cal="0" v:val="VT4()"/>
					<v:cp v:nameU="StartDate" v:lbl="Startdatum" v:prompt="" v:type="5" v:format="" v:sortKey="" v:invis="false"
							v:ask="false" v:langID="1031" v:cal="0"/>
					<v:cp v:nameU="EndDate" v:lbl="Enddatum" v:prompt="" v:type="5" v:format="" v:sortKey="" v:invis="false"
							v:ask="false" v:langID="1031" v:cal="0"/>
					<v:cp v:nameU="Status" v:lbl="Status" v:prompt="" v:type="4"
							v:format=";Nicht begonnen;In Bearbeitung;Abgeschlossen;Zurückgestellt;Auf Eingabe wartend" v:sortKey=""
							v:invis="false" v:ask="false" v:langID="1031" v:cal="0" v:val="VT4()"/>
				</v:custProps>
				<v:userDefs>
					<v:ud v:nameU="visVersion" v:prompt="" v:val="VT0(14):26"/>
					<v:ud v:nameU="DefaultWidth" v:prompt="" v:val="VT0(0.98425196850394):24"/>
					<v:ud v:nameU="DefaultHeight" v:prompt="" v:val="VT0(0.39370078740157):24"/>
					<v:ud v:nameU="ResizeTxtHeight" v:prompt="" v:val="VT0(0.39370078740157):24"/>
					<v:ud v:nameU="msvThemeColors" v:val="VT0(36):26"/>
					<v:ud v:nameU="msvThemeEffects" v:val="VT0(16):26"/>
				</v:userDefs>
				<path d="M0.73 175.98 L5.63 175.98 a0.734289 0.734289 -180 1 0 0 -1.46858 L0.73 174.51 a0.734289 0.734289 -180 1
							 0 -9.99201E-015 1.46858 Z" class="st4"/>
			</g>
			<g id="shape674-23" v:mID="674" v:groupContext="shape" transform="translate(25.6753,-84.6243) scale(-1,1)">
				<title>Tabelle.674</title>
				<v:userDefs>
					<v:ud v:nameU="msvThemeColors" v:val="VT0(36):26"/>
					<v:ud v:nameU="msvThemeEffects" v:val="VT0(16):26"/>
				</v:userDefs>
				<path d="M0.95 121.64 L0.95 126.75 A3.18192 2.44763 -180 0 0 0 128.49 L0 173.53 A3.18192 2.44763 -180 0 0 6.36 173.53
							 L6.36 128.49 A3.18192 2.44763 -180 0 0 5.41 126.75 L5.41 121.64 L0.95 121.64 Z" class="st4"/>
			</g>
			<g id="shape675-26" v:mID="675" v:groupContext="shape" transform="translate(25.6778,-132.62) scale(-1,1)">
				<title>Tabelle.675</title>
				<v:userDefs>
					<v:ud v:nameU="msvThemeColors" v:val="VT0(36):26"/>
					<v:ud v:nameU="msvThemeEffects" v:val="VT0(16):26"/>
				</v:userDefs>
				<path d="M0 165.3 L0 168.33 L1.47 168.33 L1.47 173.68 L1.49 173.68 L3.18 175.98 L4.88 173.68 L4.9 173.68 L4.9 168.33
							 L6.36 168.33 L6.36 165.3 L0 165.3 Z" class="st4"/>
			</g>
			<g id="shape676-29" v:mID="676" v:groupContext="shape" v:layerMember="0"
					transform="translate(25.6753,-137.493) scale(-1,1)">
				<title>Start/Ende.37</title>
				<v:custProps>
					<v:cp v:nameU="Cost" v:lbl="Kosten" v:prompt="" v:type="7" v:format="@" v:sortKey="" v:invis="false"
							v:ask="false" v:langID="1031" v:cal="0"/>
					<v:cp v:nameU="ProcessNumber" v:lbl="Prozessnummer" v:prompt="" v:type="2" v:format="" v:sortKey=""
							v:invis="false" v:ask="false" v:langID="1031" v:cal="0"/>
					<v:cp v:nameU="Owner" v:lbl="Besitzer" v:prompt="" v:type="0" v:format="" v:sortKey="" v:invis="false"
							v:ask="false" v:langID="1031" v:cal="0"/>
					<v:cp v:nameU="Function" v:lbl="Funktionsname" v:prompt="" v:type="0" v:format="" v:sortKey="" v:invis="false"
							v:ask="false" v:langID="1031" v:cal="0" v:val="VT4()"/>
					<v:cp v:nameU="StartDate" v:lbl="Startdatum" v:prompt="" v:type="5" v:format="" v:sortKey="" v:invis="false"
							v:ask="false" v:langID="1031" v:cal="0"/>
					<v:cp v:nameU="EndDate" v:lbl="Enddatum" v:prompt="" v:type="5" v:format="" v:sortKey="" v:invis="false"
							v:ask="false" v:langID="1031" v:cal="0"/>
					<v:cp v:nameU="Status" v:lbl="Status" v:prompt="" v:type="4"
							v:format=";Nicht begonnen;In Bearbeitung;Abgeschlossen;Zurückgestellt;Auf Eingabe wartend" v:sortKey=""
							v:invis="false" v:ask="false" v:langID="1031" v:cal="0" v:val="VT4()"/>
				</v:custProps>
				<v:userDefs>
					<v:ud v:nameU="visVersion" v:prompt="" v:val="VT0(14):26"/>
					<v:ud v:nameU="DefaultWidth" v:prompt="" v:val="VT0(0.98425196850394):24"/>
					<v:ud v:nameU="DefaultHeight" v:prompt="" v:val="VT0(0.39370078740157):24"/>
					<v:ud v:nameU="ResizeTxtHeight" v:prompt="" v:val="VT0(0.39370078740157):24"/>
					<v:ud v:nameU="msvThemeColors" v:val="VT0(36):26"/>
					<v:ud v:nameU="msvThemeEffects" v:val="VT0(16):26"/>
				</v:userDefs>
				<path d="M0.73 175.98 L5.63 175.98 a0.734289 0.734289 -180 1 0 0 -1.46858 L0.73 174.51 a0.734289 0.734289 -180 1
							 0 -9.99201E-015 1.46858 Z" class="st4"/>
			</g>
			<g id="shape677-32" v:mID="677" v:groupContext="shape" transform="translate(13.9583,-84.6243) scale(-1,1)">
				<title>Tabelle.677</title>
				<v:userDefs>
					<v:ud v:nameU="msvThemeColors" v:val="VT0(36):26"/>
					<v:ud v:nameU="msvThemeEffects" v:val="VT0(16):26"/>
				</v:userDefs>
				<path d="M0.95 121.64 L0.95 126.75 A3.18192 2.44763 -180 0 0 0 128.49 L0 173.53 A3.18192 2.44763 -180 0 0 6.36 173.53
							 L6.36 128.49 A3.18192 2.44763 -180 0 0 5.41 126.75 L5.41 121.64 L0.95 121.64 Z" class="st4"/>
			</g>
			<g id="shape678-35" v:mID="678" v:groupContext="shape" transform="translate(13.9608,-132.62) scale(-1,1)">
				<title>Tabelle.678</title>
				<v:userDefs>
					<v:ud v:nameU="msvThemeColors" v:val="VT0(36):26"/>
					<v:ud v:nameU="msvThemeEffects" v:val="VT0(16):26"/>
				</v:userDefs>
				<path d="M0 165.3 L0 168.33 L1.47 168.33 L1.47 173.68 L1.49 173.68 L3.18 175.98 L4.88 173.68 L4.9 173.68 L4.9 168.33
							 L6.36 168.33 L6.36 165.3 L0 165.3 Z" class="st4"/>
			</g>
			<g id="shape679-38" v:mID="679" v:groupContext="shape" v:layerMember="0"
					transform="translate(13.9583,-137.493) scale(-1,1)">
				<title>Start/Ende.10</title>
				<v:custProps>
					<v:cp v:nameU="Cost" v:lbl="Kosten" v:prompt="" v:type="7" v:format="@" v:sortKey="" v:invis="false"
							v:ask="false" v:langID="1031" v:cal="0"/>
					<v:cp v:nameU="ProcessNumber" v:lbl="Prozessnummer" v:prompt="" v:type="2" v:format="" v:sortKey=""
							v:invis="false" v:ask="false" v:langID="1031" v:cal="0"/>
					<v:cp v:nameU="Owner" v:lbl="Besitzer" v:prompt="" v:type="0" v:format="" v:sortKey="" v:invis="false"
							v:ask="false" v:langID="1031" v:cal="0"/>
					<v:cp v:nameU="Function" v:lbl="Funktionsname" v:prompt="" v:type="0" v:format="" v:sortKey="" v:invis="false"
							v:ask="false" v:langID="1031" v:cal="0" v:val="VT4()"/>
					<v:cp v:nameU="StartDate" v:lbl="Startdatum" v:prompt="" v:type="5" v:format="" v:sortKey="" v:invis="false"
							v:ask="false" v:langID="1031" v:cal="0"/>
					<v:cp v:nameU="EndDate" v:lbl="Enddatum" v:prompt="" v:type="5" v:format="" v:sortKey="" v:invis="false"
							v:ask="false" v:langID="1031" v:cal="0"/>
					<v:cp v:nameU="Status" v:lbl="Status" v:prompt="" v:type="4"
							v:format=";Nicht begonnen;In Bearbeitung;Abgeschlossen;Zurückgestellt;Auf Eingabe wartend" v:sortKey=""
							v:invis="false" v:ask="false" v:langID="1031" v:cal="0" v:val="VT4()"/>
				</v:custProps>
				<v:userDefs>
					<v:ud v:nameU="visVersion" v:prompt="" v:val="VT0(14):26"/>
					<v:ud v:nameU="DefaultWidth" v:prompt="" v:val="VT0(0.98425196850394):24"/>
					<v:ud v:nameU="DefaultHeight" v:prompt="" v:val="VT0(0.39370078740157):24"/>
					<v:ud v:nameU="ResizeTxtHeight" v:prompt="" v:val="VT0(0.39370078740157):24"/>
					<v:ud v:nameU="msvThemeColors" v:val="VT0(36):26"/>
					<v:ud v:nameU="msvThemeEffects" v:val="VT0(16):26"/>
				</v:userDefs>
				<path d="M0.73 175.98 L5.63 175.98 a0.734289 0.734289 -180 1 0 0 -1.46858 L0.73 174.51 a0.734289 0.734289 -180 1
							 0 -9.99201E-015 1.46858 Z" class="st4"/>
			</g>
			<g id="shape680-41" v:mID="680" v:groupContext="shape" transform="translate(25.6753,-84.6243) scale(-1,1)">
				<title>Tabelle.680</title>
				<v:userDefs>
					<v:ud v:nameU="msvThemeColors" v:val="VT0(36):26"/>
					<v:ud v:nameU="msvThemeEffects" v:val="VT0(16):26"/>
				</v:userDefs>
				<path d="M0 141.51 L0 171.2 A3.18192 4.7796 -180 0 0 6.36 171.2 L6.36 141.51 L0 141.51 Z" class="st5"/>
			</g>
			<g id="shape681-45" v:mID="681" v:groupContext="shape" transform="translate(13.9583,-84.6243) scale(-1,1)">
				<title>Tabelle.681</title>
				<v:userDefs>
					<v:ud v:nameU="msvThemeColors" v:val="VT0(36):26"/>
					<v:ud v:nameU="msvThemeEffects" v:val="VT0(16):26"/>
				</v:userDefs>
				<path d="M0 141.51 L0 171.2 A3.18192 4.7796 -180 0 0 6.36 171.2 L6.36 141.51 L0 141.51 Z" class="st5"/>
			</g>
			<g id="shape682-48" v:mID="682" v:groupContext="shape" transform="translate(37.4999,-84.6243) scale(-1,1)">
				<title>Tabelle.682</title>
				<v:userDefs>
					<v:ud v:nameU="msvThemeColors" v:val="VT0(36):26"/>
					<v:ud v:nameU="msvThemeEffects" v:val="VT0(16):26"/>
				</v:userDefs>
				<path d="M0 141.51 L0 171.2 A3.18192 4.7796 -180 0 0 6.36 171.2 L6.36 141.51 L0 141.51 Z" class="st5"/>
			</g>
			<g id="shape683-51" v:mID="683" v:groupContext="shape" transform="translate(76.8765,-84.6141) scale(-1,1)">
				<title>Tabelle.683</title>
				<v:userDefs>
					<v:ud v:nameU="msvThemeColors" v:val="VT0(36):26"/>
					<v:ud v:nameU="msvThemeEffects" v:val="VT0(16):26"/>
				</v:userDefs>
				<path d="M0.95 121.64 L0.95 126.75 A3.18192 2.44763 -180 0 0 0 128.49 L0 173.53 A3.18192 2.44763 -180 0 0 6.36 173.53
							 L6.36 128.49 A3.18192 2.44763 -180 0 0 5.41 126.75 L5.41 121.64 L0.95 121.64 Z" class="st4"/>
			</g>
			<g id="shape684-54" v:mID="684" v:groupContext="shape" transform="translate(76.8895,-132.571) scale(-1,1)">
				<title>Tabelle.684</title>
				<v:userDefs>
					<v:ud v:nameU="msvThemeColors" v:val="VT0(36):26"/>
					<v:ud v:nameU="msvThemeEffects" v:val="VT0(16):26"/>
				</v:userDefs>
				<path d="M0 165.3 L0 168.33 L1.47 168.33 L1.47 173.68 L1.49 173.68 L3.18 175.98 L4.88 173.68 L4.9 173.68 L4.9 168.33
							 L6.36 168.33 L6.36 165.3 L0 165.3 Z" class="st4"/>
			</g>
			<g id="shape685-57" v:mID="685" v:groupContext="shape" v:layerMember="0"
					transform="translate(76.8765,-137.483) scale(-1,1)">
				<title>Start/Ende.54</title>
				<v:custProps>
					<v:cp v:nameU="Cost" v:lbl="Kosten" v:prompt="" v:type="7" v:format="@" v:sortKey="" v:invis="false"
							v:ask="false" v:langID="1031" v:cal="0"/>
					<v:cp v:nameU="ProcessNumber" v:lbl="Prozessnummer" v:prompt="" v:type="2" v:format="" v:sortKey=""
							v:invis="false" v:ask="false" v:langID="1031" v:cal="0"/>
					<v:cp v:nameU="Owner" v:lbl="Besitzer" v:prompt="" v:type="0" v:format="" v:sortKey="" v:invis="false"
							v:ask="false" v:langID="1031" v:cal="0"/>
					<v:cp v:nameU="Function" v:lbl="Funktionsname" v:prompt="" v:type="0" v:format="" v:sortKey="" v:invis="false"
							v:ask="false" v:langID="1031" v:cal="0" v:val="VT4()"/>
					<v:cp v:nameU="StartDate" v:lbl="Startdatum" v:prompt="" v:type="5" v:format="" v:sortKey="" v:invis="false"
							v:ask="false" v:langID="1031" v:cal="0"/>
					<v:cp v:nameU="EndDate" v:lbl="Enddatum" v:prompt="" v:type="5" v:format="" v:sortKey="" v:invis="false"
							v:ask="false" v:langID="1031" v:cal="0"/>
					<v:cp v:nameU="Status" v:lbl="Status" v:prompt="" v:type="4"
							v:format=";Nicht begonnen;In Bearbeitung;Abgeschlossen;Zurückgestellt;Auf Eingabe wartend" v:sortKey=""
							v:invis="false" v:ask="false" v:langID="1031" v:cal="0" v:val="VT4()"/>
				</v:custProps>
				<v:userDefs>
					<v:ud v:nameU="visVersion" v:prompt="" v:val="VT0(14):26"/>
					<v:ud v:nameU="DefaultWidth" v:prompt="" v:val="VT0(0.98425196850394):24"/>
					<v:ud v:nameU="DefaultHeight" v:prompt="" v:val="VT0(0.39370078740157):24"/>
					<v:ud v:nameU="ResizeTxtHeight" v:prompt="" v:val="VT0(0.39370078740157):24"/>
					<v:ud v:nameU="msvThemeColors" v:val="VT0(36):26"/>
					<v:ud v:nameU="msvThemeEffects" v:val="VT0(16):26"/>
				</v:userDefs>
				<path d="M0.73 175.98 L5.63 175.98 a0.734289 0.734289 -180 1 0 0 -1.46858 L0.73 174.51 a0.734289 0.734289 -180 1
							 0 -9.99201E-015 1.46858 Z" class="st4"/>
			</g>
			<g id="shape686-60" v:mID="686" v:groupContext="shape" transform="translate(65.0518,-84.6141) scale(-1,1)">
				<title>Tabelle.686</title>
				<v:userDefs>
					<v:ud v:nameU="msvThemeColors" v:val="VT0(36):26"/>
					<v:ud v:nameU="msvThemeEffects" v:val="VT0(16):26"/>
				</v:userDefs>
				<path d="M0.95 121.64 L0.95 126.75 A3.18192 2.44763 -180 0 0 0 128.49 L0 173.53 A3.18192 2.44763 -180 0 0 6.36 173.53
							 L6.36 128.49 A3.18192 2.44763 -180 0 0 5.41 126.75 L5.41 121.64 L0.95 121.64 Z" class="st4"/>
			</g>
			<g id="shape687-63" v:mID="687" v:groupContext="shape" transform="translate(65.0649,-132.571) scale(-1,1)">
				<title>Tabelle.687</title>
				<v:userDefs>
					<v:ud v:nameU="msvThemeColors" v:val="VT0(36):26"/>
					<v:ud v:nameU="msvThemeEffects" v:val="VT0(16):26"/>
				</v:userDefs>
				<path d="M0 165.3 L0 168.33 L1.47 168.33 L1.47 173.68 L1.49 173.68 L3.18 175.98 L4.88 173.68 L4.9 173.68 L4.9 168.33
							 L6.36 168.33 L6.36 165.3 L0 165.3 Z" class="st4"/>
			</g>
			<g id="shape688-66" v:mID="688" v:groupContext="shape" v:layerMember="0"
					transform="translate(65.0518,-137.483) scale(-1,1)">
				<title>Start/Ende.57</title>
				<v:custProps>
					<v:cp v:nameU="Cost" v:lbl="Kosten" v:prompt="" v:type="7" v:format="@" v:sortKey="" v:invis="false"
							v:ask="false" v:langID="1031" v:cal="0"/>
					<v:cp v:nameU="ProcessNumber" v:lbl="Prozessnummer" v:prompt="" v:type="2" v:format="" v:sortKey=""
							v:invis="false" v:ask="false" v:langID="1031" v:cal="0"/>
					<v:cp v:nameU="Owner" v:lbl="Besitzer" v:prompt="" v:type="0" v:format="" v:sortKey="" v:invis="false"
							v:ask="false" v:langID="1031" v:cal="0"/>
					<v:cp v:nameU="Function" v:lbl="Funktionsname" v:prompt="" v:type="0" v:format="" v:sortKey="" v:invis="false"
							v:ask="false" v:langID="1031" v:cal="0" v:val="VT4()"/>
					<v:cp v:nameU="StartDate" v:lbl="Startdatum" v:prompt="" v:type="5" v:format="" v:sortKey="" v:invis="false"
							v:ask="false" v:langID="1031" v:cal="0"/>
					<v:cp v:nameU="EndDate" v:lbl="Enddatum" v:prompt="" v:type="5" v:format="" v:sortKey="" v:invis="false"
							v:ask="false" v:langID="1031" v:cal="0"/>
					<v:cp v:nameU="Status" v:lbl="Status" v:prompt="" v:type="4"
							v:format=";Nicht begonnen;In Bearbeitung;Abgeschlossen;Zurückgestellt;Auf Eingabe wartend" v:sortKey=""
							v:invis="false" v:ask="false" v:langID="1031" v:cal="0" v:val="VT4()"/>
				</v:custProps>
				<v:userDefs>
					<v:ud v:nameU="visVersion" v:prompt="" v:val="VT0(14):26"/>
					<v:ud v:nameU="DefaultWidth" v:prompt="" v:val="VT0(0.98425196850394):24"/>
					<v:ud v:nameU="DefaultHeight" v:prompt="" v:val="VT0(0.39370078740157):24"/>
					<v:ud v:nameU="ResizeTxtHeight" v:prompt="" v:val="VT0(0.39370078740157):24"/>
					<v:ud v:nameU="msvThemeColors" v:val="VT0(36):26"/>
					<v:ud v:nameU="msvThemeEffects" v:val="VT0(16):26"/>
				</v:userDefs>
				<path d="M0.73 175.98 L5.63 175.98 a0.734289 0.734289 -180 1 0 0 -1.46858 L0.73 174.51 a0.734289 0.734289 -180 1
							 0 -9.99201E-015 1.46858 Z" class="st4"/>
			</g>
			<g id="shape689-69" v:mID="689" v:groupContext="shape" transform="translate(53.3348,-84.6141) scale(-1,1)">
				<title>Tabelle.689</title>
				<v:userDefs>
					<v:ud v:nameU="msvThemeColors" v:val="VT0(36):26"/>
					<v:ud v:nameU="msvThemeEffects" v:val="VT0(16):26"/>
				</v:userDefs>
				<path d="M0.95 121.64 L0.95 126.75 A3.18192 2.44763 -180 0 0 0 128.49 L0 173.53 A3.18192 2.44763 -180 0 0 6.36 173.53
							 L6.36 128.49 A3.18192 2.44763 -180 0 0 5.41 126.75 L5.41 121.64 L0.95 121.64 Z" class="st4"/>
			</g>
			<g id="shape690-72" v:mID="690" v:groupContext="shape" transform="translate(53.3478,-132.571) scale(-1,1)">
				<title>Tabelle.690</title>
				<v:userDefs>
					<v:ud v:nameU="msvThemeColors" v:val="VT0(36):26"/>
					<v:ud v:nameU="msvThemeEffects" v:val="VT0(16):26"/>
				</v:userDefs>
				<path d="M0 165.3 L0 168.33 L1.47 168.33 L1.47 173.68 L1.49 173.68 L3.18 175.98 L4.88 173.68 L4.9 173.68 L4.9 168.33
							 L6.36 168.33 L6.36 165.3 L0 165.3 Z" class="st4"/>
			</g>
			<g id="shape691-75" v:mID="691" v:groupContext="shape" v:layerMember="0"
					transform="translate(53.3348,-137.483) scale(-1,1)">
				<title>Start/Ende.60</title>
				<v:custProps>
					<v:cp v:nameU="Cost" v:lbl="Kosten" v:prompt="" v:type="7" v:format="@" v:sortKey="" v:invis="false"
							v:ask="false" v:langID="1031" v:cal="0"/>
					<v:cp v:nameU="ProcessNumber" v:lbl="Prozessnummer" v:prompt="" v:type="2" v:format="" v:sortKey=""
							v:invis="false" v:ask="false" v:langID="1031" v:cal="0"/>
					<v:cp v:nameU="Owner" v:lbl="Besitzer" v:prompt="" v:type="0" v:format="" v:sortKey="" v:invis="false"
							v:ask="false" v:langID="1031" v:cal="0"/>
					<v:cp v:nameU="Function" v:lbl="Funktionsname" v:prompt="" v:type="0" v:format="" v:sortKey="" v:invis="false"
							v:ask="false" v:langID="1031" v:cal="0" v:val="VT4()"/>
					<v:cp v:nameU="StartDate" v:lbl="Startdatum" v:prompt="" v:type="5" v:format="" v:sortKey="" v:invis="false"
							v:ask="false" v:langID="1031" v:cal="0"/>
					<v:cp v:nameU="EndDate" v:lbl="Enddatum" v:prompt="" v:type="5" v:format="" v:sortKey="" v:invis="false"
							v:ask="false" v:langID="1031" v:cal="0"/>
					<v:cp v:nameU="Status" v:lbl="Status" v:prompt="" v:type="4"
							v:format=";Nicht begonnen;In Bearbeitung;Abgeschlossen;Zurückgestellt;Auf Eingabe wartend" v:sortKey=""
							v:invis="false" v:ask="false" v:langID="1031" v:cal="0" v:val="VT4()"/>
				</v:custProps>
				<v:userDefs>
					<v:ud v:nameU="visVersion" v:prompt="" v:val="VT0(14):26"/>
					<v:ud v:nameU="DefaultWidth" v:prompt="" v:val="VT0(0.98425196850394):24"/>
					<v:ud v:nameU="DefaultHeight" v:prompt="" v:val="VT0(0.39370078740157):24"/>
					<v:ud v:nameU="ResizeTxtHeight" v:prompt="" v:val="VT0(0.39370078740157):24"/>
					<v:ud v:nameU="msvThemeColors" v:val="VT0(36):26"/>
					<v:ud v:nameU="msvThemeEffects" v:val="VT0(16):26"/>
				</v:userDefs>
				<path d="M0.73 175.98 L5.63 175.98 a0.734289 0.734289 -180 1 0 0 -1.46858 L0.73 174.51 a0.734289 0.734289 -180 1
							 0 -9.99201E-015 1.46858 Z" class="st4"/>
			</g>
			<g id="shape692-78" v:mID="692" v:groupContext="shape" transform="translate(65.0518,-84.6141) scale(-1,1)">
				<title>Tabelle.692</title>
				<v:userDefs>
					<v:ud v:nameU="msvThemeColors" v:val="VT0(36):26"/>
					<v:ud v:nameU="msvThemeEffects" v:val="VT0(16):26"/>
				</v:userDefs>
				<path d="M0 141.5 L0 171.2 A3.18192 4.78102 -180 0 0 6.36 171.2 L6.36 141.5 L0 141.5 Z" class="st5"/>
			</g>
			<g id="shape693-81" v:mID="693" v:groupContext="shape" transform="translate(53.3348,-84.6141) scale(-1,1)">
				<title>Tabelle.693</title>
				<v:userDefs>
					<v:ud v:nameU="msvThemeColors" v:val="VT0(36):26"/>
					<v:ud v:nameU="msvThemeEffects" v:val="VT0(16):26"/>
				</v:userDefs>
				<path d="M0 141.5 L0 171.2 A3.18192 4.78102 -180 0 0 6.36 171.2 L6.36 141.5 L0 141.5 Z" class="st5"/>
			</g>
			<g id="shape694-84" v:mID="694" v:groupContext="shape" transform="translate(76.8765,-84.6141) scale(-1,1)">
				<title>Tabelle.694</title>
				<v:userDefs>
					<v:ud v:nameU="msvThemeColors" v:val="VT0(36):26"/>
					<v:ud v:nameU="msvThemeEffects" v:val="VT0(16):26"/>
				</v:userDefs>
				<path d="M0 141.5 L0 171.2 A3.18192 4.78102 -180 0 0 6.36 171.2 L6.36 141.5 L0 141.5 Z" class="st5"/>
			</g>
			<g id="shape695-87" v:mID="695" v:groupContext="shape" transform="translate(42.0744,-93.5682)">
				<title>Rechteck.27</title>
				<v:userDefs>
					<v:ud v:nameU="visVersion" v:val="VT0(14):26"/>
					<v:ud v:nameU="msvThemeColors" v:val="VT0(36):26"/>
					<v:ud v:nameU="msvThemeEffects" v:val="VT0(16):26"/>
				</v:userDefs>
				<rect x="0" y="113.599" width="1.24758" height="62.3788" class="st4"/>
			</g>
			<g id="shape696-90" v:mID="696" v:groupContext="shape" transform="translate(0,-78.7203)">
				<title>Rechteck.46</title>
				<v:userDefs>
					<v:ud v:nameU="visVersion" v:val="VT0(14):26"/>
					<v:ud v:nameU="msvThemeColors" v:val="VT0(36):26"/>
					<v:ud v:nameU="msvThemeEffects" v:val="VT0(16):26"/>
				</v:userDefs>
				<rect x="0" y="161.007" width="85.3963" height="14.9709" class="st6"/>
			</g>
			<g id="shape697-93" v:mID="697" v:groupContext="shape" transform="translate(37.7805,-5.90404) scale(-1,1)">
				<title>Tabelle.697</title>
				<v:userDefs>
					<v:ud v:nameU="msvThemeColors" v:val="VT0(36):26"/>
					<v:ud v:nameU="msvThemeEffects" v:val="VT0(16):26"/>
				</v:userDefs>
				<path d="M0.95 121.64 L0.95 126.75 A3.18192 2.44763 -180 0 0 0 128.49 L0 173.53 A3.18192 2.44763 -180 0 0 6.36 173.53
							 L6.36 128.49 A3.18192 2.44763 -180 0 0 5.41 126.75 L5.41 121.64 L0.95 121.64 Z" class="st4"/>
			</g>
			<g id="shape698-96" v:mID="698" v:groupContext="shape" transform="translate(37.783,-53.8997) scale(-1,1)">
				<title>Tabelle.698</title>
				<v:userDefs>
					<v:ud v:nameU="msvThemeColors" v:val="VT0(36):26"/>
					<v:ud v:nameU="msvThemeEffects" v:val="VT0(16):26"/>
				</v:userDefs>
				<path d="M0 165.3 L0 168.33 L1.47 168.33 L1.47 173.68 L1.49 173.68 L3.18 175.98 L4.88 173.68 L4.9 173.68 L4.9 168.33
							 L6.36 168.33 L6.36 165.3 L0 165.3 Z" class="st4"/>
			</g>
			<g id="shape699-99" v:mID="699" v:groupContext="shape" v:layerMember="0"
					transform="translate(37.7805,-58.7728) scale(-1,1)">
				<title>Start/Ende.67</title>
				<v:custProps>
					<v:cp v:nameU="Cost" v:lbl="Kosten" v:prompt="" v:type="7" v:format="@" v:sortKey="" v:invis="false"
							v:ask="false" v:langID="1031" v:cal="0"/>
					<v:cp v:nameU="ProcessNumber" v:lbl="Prozessnummer" v:prompt="" v:type="2" v:format="" v:sortKey=""
							v:invis="false" v:ask="false" v:langID="1031" v:cal="0"/>
					<v:cp v:nameU="Owner" v:lbl="Besitzer" v:prompt="" v:type="0" v:format="" v:sortKey="" v:invis="false"
							v:ask="false" v:langID="1031" v:cal="0"/>
					<v:cp v:nameU="Function" v:lbl="Funktionsname" v:prompt="" v:type="0" v:format="" v:sortKey="" v:invis="false"
							v:ask="false" v:langID="1031" v:cal="0" v:val="VT4()"/>
					<v:cp v:nameU="StartDate" v:lbl="Startdatum" v:prompt="" v:type="5" v:format="" v:sortKey="" v:invis="false"
							v:ask="false" v:langID="1031" v:cal="0"/>
					<v:cp v:nameU="EndDate" v:lbl="Enddatum" v:prompt="" v:type="5" v:format="" v:sortKey="" v:invis="false"
							v:ask="false" v:langID="1031" v:cal="0"/>
					<v:cp v:nameU="Status" v:lbl="Status" v:prompt="" v:type="4"
							v:format=";Nicht begonnen;In Bearbeitung;Abgeschlossen;Zurückgestellt;Auf Eingabe wartend" v:sortKey=""
							v:invis="false" v:ask="false" v:langID="1031" v:cal="0" v:val="VT4()"/>
				</v:custProps>
				<v:userDefs>
					<v:ud v:nameU="visVersion" v:prompt="" v:val="VT0(14):26"/>
					<v:ud v:nameU="DefaultWidth" v:prompt="" v:val="VT0(0.98425196850394):24"/>
					<v:ud v:nameU="DefaultHeight" v:prompt="" v:val="VT0(0.39370078740157):24"/>
					<v:ud v:nameU="ResizeTxtHeight" v:prompt="" v:val="VT0(0.39370078740157):24"/>
					<v:ud v:nameU="msvThemeColors" v:val="VT0(36):26"/>
					<v:ud v:nameU="msvThemeEffects" v:val="VT0(16):26"/>
				</v:userDefs>
				<path d="M0.73 175.98 L5.63 175.98 a0.734289 0.734289 -180 1 0 0 -1.46858 L0.73 174.51 a0.734289 0.734289 -180 1
							 0 -9.99201E-015 1.46858 Z" class="st4"/>
			</g>
			<g id="shape700-102" v:mID="700" v:groupContext="shape" transform="translate(25.9559,-5.90404) scale(-1,1)">
				<title>Tabelle.700</title>
				<v:userDefs>
					<v:ud v:nameU="msvThemeColors" v:val="VT0(36):26"/>
					<v:ud v:nameU="msvThemeEffects" v:val="VT0(16):26"/>
				</v:userDefs>
				<path d="M0.95 121.64 L0.95 126.75 A3.18192 2.44763 -180 0 0 0 128.49 L0 173.53 A3.18192 2.44763 -180 0 0 6.36 173.53
							 L6.36 128.49 A3.18192 2.44763 -180 0 0 5.41 126.75 L5.41 121.64 L0.95 121.64 Z" class="st4"/>
			</g>
			<g id="shape701-105" v:mID="701" v:groupContext="shape" transform="translate(25.9584,-53.8997) scale(-1,1)">
				<title>Tabelle.701</title>
				<v:userDefs>
					<v:ud v:nameU="msvThemeColors" v:val="VT0(36):26"/>
					<v:ud v:nameU="msvThemeEffects" v:val="VT0(16):26"/>
				</v:userDefs>
				<path d="M0 165.3 L0 168.33 L1.47 168.33 L1.47 173.68 L1.49 173.68 L3.18 175.98 L4.88 173.68 L4.9 173.68 L4.9 168.33
							 L6.36 168.33 L6.36 165.3 L0 165.3 Z" class="st4"/>
			</g>
			<g id="shape702-108" v:mID="702" v:groupContext="shape" v:layerMember="0"
					transform="translate(25.9559,-58.7728) scale(-1,1)">
				<title>Start/Ende.70</title>
				<v:custProps>
					<v:cp v:nameU="Cost" v:lbl="Kosten" v:prompt="" v:type="7" v:format="@" v:sortKey="" v:invis="false"
							v:ask="false" v:langID="1031" v:cal="0"/>
					<v:cp v:nameU="ProcessNumber" v:lbl="Prozessnummer" v:prompt="" v:type="2" v:format="" v:sortKey=""
							v:invis="false" v:ask="false" v:langID="1031" v:cal="0"/>
					<v:cp v:nameU="Owner" v:lbl="Besitzer" v:prompt="" v:type="0" v:format="" v:sortKey="" v:invis="false"
							v:ask="false" v:langID="1031" v:cal="0"/>
					<v:cp v:nameU="Function" v:lbl="Funktionsname" v:prompt="" v:type="0" v:format="" v:sortKey="" v:invis="false"
							v:ask="false" v:langID="1031" v:cal="0" v:val="VT4()"/>
					<v:cp v:nameU="StartDate" v:lbl="Startdatum" v:prompt="" v:type="5" v:format="" v:sortKey="" v:invis="false"
							v:ask="false" v:langID="1031" v:cal="0"/>
					<v:cp v:nameU="EndDate" v:lbl="Enddatum" v:prompt="" v:type="5" v:format="" v:sortKey="" v:invis="false"
							v:ask="false" v:langID="1031" v:cal="0"/>
					<v:cp v:nameU="Status" v:lbl="Status" v:prompt="" v:type="4"
							v:format=";Nicht begonnen;In Bearbeitung;Abgeschlossen;Zurückgestellt;Auf Eingabe wartend" v:sortKey=""
							v:invis="false" v:ask="false" v:langID="1031" v:cal="0" v:val="VT4()"/>
				</v:custProps>
				<v:userDefs>
					<v:ud v:nameU="visVersion" v:prompt="" v:val="VT0(14):26"/>
					<v:ud v:nameU="DefaultWidth" v:prompt="" v:val="VT0(0.98425196850394):24"/>
					<v:ud v:nameU="DefaultHeight" v:prompt="" v:val="VT0(0.39370078740157):24"/>
					<v:ud v:nameU="ResizeTxtHeight" v:prompt="" v:val="VT0(0.39370078740157):24"/>
					<v:ud v:nameU="msvThemeColors" v:val="VT0(36):26"/>
					<v:ud v:nameU="msvThemeEffects" v:val="VT0(16):26"/>
				</v:userDefs>
				<path d="M0.73 175.98 L5.63 175.98 a0.734289 0.734289 -180 1 0 0 -1.46858 L0.73 174.51 a0.734289 0.734289 -180 1
							 0 -9.99201E-015 1.46858 Z" class="st4"/>
			</g>
			<g id="shape703-111" v:mID="703" v:groupContext="shape" transform="translate(14.2388,-5.90404) scale(-1,1)">
				<title>Tabelle.703</title>
				<v:userDefs>
					<v:ud v:nameU="msvThemeColors" v:val="VT0(36):26"/>
					<v:ud v:nameU="msvThemeEffects" v:val="VT0(16):26"/>
				</v:userDefs>
				<path d="M0.95 121.64 L0.95 126.75 A3.18192 2.44763 -180 0 0 0 128.49 L0 173.53 A3.18192 2.44763 -180 0 0 6.36 173.53
							 L6.36 128.49 A3.18192 2.44763 -180 0 0 5.41 126.75 L5.41 121.64 L0.95 121.64 Z" class="st4"/>
			</g>
			<g id="shape704-114" v:mID="704" v:groupContext="shape" transform="translate(14.2413,-53.8997) scale(-1,1)">
				<title>Tabelle.704</title>
				<v:userDefs>
					<v:ud v:nameU="msvThemeColors" v:val="VT0(36):26"/>
					<v:ud v:nameU="msvThemeEffects" v:val="VT0(16):26"/>
				</v:userDefs>
				<path d="M0 165.3 L0 168.33 L1.47 168.33 L1.47 173.68 L1.49 173.68 L3.18 175.98 L4.88 173.68 L4.9 173.68 L4.9 168.33
							 L6.36 168.33 L6.36 165.3 L0 165.3 Z" class="st4"/>
			</g>
			<g id="shape705-117" v:mID="705" v:groupContext="shape" v:layerMember="0"
					transform="translate(14.2388,-58.7728) scale(-1,1)">
				<title>Start/Ende.73</title>
				<v:custProps>
					<v:cp v:nameU="Cost" v:lbl="Kosten" v:prompt="" v:type="7" v:format="@" v:sortKey="" v:invis="false"
							v:ask="false" v:langID="1031" v:cal="0"/>
					<v:cp v:nameU="ProcessNumber" v:lbl="Prozessnummer" v:prompt="" v:type="2" v:format="" v:sortKey=""
							v:invis="false" v:ask="false" v:langID="1031" v:cal="0"/>
					<v:cp v:nameU="Owner" v:lbl="Besitzer" v:prompt="" v:type="0" v:format="" v:sortKey="" v:invis="false"
							v:ask="false" v:langID="1031" v:cal="0"/>
					<v:cp v:nameU="Function" v:lbl="Funktionsname" v:prompt="" v:type="0" v:format="" v:sortKey="" v:invis="false"
							v:ask="false" v:langID="1031" v:cal="0" v:val="VT4()"/>
					<v:cp v:nameU="StartDate" v:lbl="Startdatum" v:prompt="" v:type="5" v:format="" v:sortKey="" v:invis="false"
							v:ask="false" v:langID="1031" v:cal="0"/>
					<v:cp v:nameU="EndDate" v:lbl="Enddatum" v:prompt="" v:type="5" v:format="" v:sortKey="" v:invis="false"
							v:ask="false" v:langID="1031" v:cal="0"/>
					<v:cp v:nameU="Status" v:lbl="Status" v:prompt="" v:type="4"
							v:format=";Nicht begonnen;In Bearbeitung;Abgeschlossen;Zurückgestellt;Auf Eingabe wartend" v:sortKey=""
							v:invis="false" v:ask="false" v:langID="1031" v:cal="0" v:val="VT4()"/>
				</v:custProps>
				<v:userDefs>
					<v:ud v:nameU="visVersion" v:prompt="" v:val="VT0(14):26"/>
					<v:ud v:nameU="DefaultWidth" v:prompt="" v:val="VT0(0.98425196850394):24"/>
					<v:ud v:nameU="DefaultHeight" v:prompt="" v:val="VT0(0.39370078740157):24"/>
					<v:ud v:nameU="ResizeTxtHeight" v:prompt="" v:val="VT0(0.39370078740157):24"/>
					<v:ud v:nameU="msvThemeColors" v:val="VT0(36):26"/>
					<v:ud v:nameU="msvThemeEffects" v:val="VT0(16):26"/>
				</v:userDefs>
				<path d="M0.73 175.98 L5.63 175.98 a0.734289 0.734289 -180 1 0 0 -1.46858 L0.73 174.51 a0.734289 0.734289 -180 1
							 0 -9.99201E-015 1.46858 Z" class="st4"/>
			</g>
			<g id="shape706-120" v:mID="706" v:groupContext="shape" transform="translate(25.9559,-5.90404) scale(-1,1)">
				<title>Tabelle.706</title>
				<v:userDefs>
					<v:ud v:nameU="msvThemeColors" v:val="VT0(36):26"/>
					<v:ud v:nameU="msvThemeEffects" v:val="VT0(16):26"/>
				</v:userDefs>
				<path d="M0 142.16 L0 171.29 A3.18192 4.68951 -180 0 0 6.36 171.29 L6.36 142.16 L0 142.16 Z" class="st5"/>
			</g>
			<g id="shape707-123" v:mID="707" v:groupContext="shape" transform="translate(14.2388,-5.90404) scale(-1,1)">
				<title>Tabelle.707</title>
				<v:userDefs>
					<v:ud v:nameU="msvThemeColors" v:val="VT0(36):26"/>
					<v:ud v:nameU="msvThemeEffects" v:val="VT0(16):26"/>
				</v:userDefs>
				<path d="M0 142.16 L0 171.29 A3.18192 4.68951 -180 0 0 6.36 171.29 L6.36 142.16 L0 142.16 Z" class="st5"/>
			</g>
			<g id="shape708-126" v:mID="708" v:groupContext="shape" transform="translate(37.7805,-5.90404) scale(-1,1)">
				<title>Tabelle.708</title>
				<v:userDefs>
					<v:ud v:nameU="msvThemeColors" v:val="VT0(36):26"/>
					<v:ud v:nameU="msvThemeEffects" v:val="VT0(16):26"/>
				</v:userDefs>
				<path d="M0 142.16 L0 171.29 A3.18192 4.68951 -180 0 0 6.36 171.29 L6.36 142.16 L0 142.16 Z" class="st5"/>
			</g>
			<g id="shape709-129" v:mID="709" v:groupContext="shape" transform="translate(42.3549,-14.8479)">
				<title>Rechteck.89</title>
				<v:userDefs>
					<v:ud v:nameU="visVersion" v:val="VT0(14):26"/>
					<v:ud v:nameU="msvThemeColors" v:val="VT0(36):26"/>
					<v:ud v:nameU="msvThemeEffects" v:val="VT0(16):26"/>
				</v:userDefs>
				<rect x="0" y="113.599" width="1.24758" height="62.3788" class="st4"/>
			</g>
			<g id="shape710-132" v:mID="710" v:groupContext="shape" transform="translate(0.28058,0)">
				<title>Rechteck.90</title>
				<v:userDefs>
					<v:ud v:nameU="visVersion" v:val="VT0(14):26"/>
					<v:ud v:nameU="msvThemeColors" v:val="VT0(36):26"/>
					<v:ud v:nameU="msvThemeEffects" v:val="VT0(16):26"/>
				</v:userDefs>
				<rect x="0" y="161.007" width="85.3963" height="14.9709" class="st6"/>
			</g>
		</g>
		<g id="group711-135" transform="translate(280.382,-50.4081)" v:mID="711" v:groupContext="group">
			<v:userDefs>
				<v:ud v:nameU="msvThemeColors" v:val="VT0(36):26"/>
				<v:ud v:nameU="msvThemeEffects" v:val="VT0(16):26"/>
			</v:userDefs>
			<title>Tabelle.711</title>
			<g id="shape712-136" v:mID="712" v:groupContext="shape" transform="translate(-7.99361E-015,-6.61679)">
				<title>Tabelle.712</title>
				<v:userDefs>
					<v:ud v:nameU="msvThemeColors" v:val="VT0(36):26"/>
					<v:ud v:nameU="msvThemeEffects" v:val="VT0(16):26"/>
				</v:userDefs>
				<path d="M0 166.02 L0 175.98 L65.69 175.98 L65.69 128.6 L21.6 128.6 L0 166.02 Z" class="st4"/>
			</g>
			<g id="shape713-139" v:mID="713" v:groupContext="shape" transform="translate(21.1415,-15.185)">
				<title>Tabelle.713</title>
				<v:userDefs>
					<v:ud v:nameU="msvThemeColors" v:val="VT0(36):26"/>
					<v:ud v:nameU="msvThemeEffects" v:val="VT0(16):26"/>
				</v:userDefs>
				<path d="M26.21 160.38 L30.44 163.54 L34.66 160.38 L32.13 160.38 A15.3179 10.2119 -180 0 0 18.58 152.8 L18.58 155.74
							 A11.291 7.29047 0 0 1 27.87 160.38 L26.21 160.38 ZM20.51 167.53 L17.36 171.75 L20.51 175.98 L20.51 172.97
							 A15.3179 10.2119 -180 0 0 32.52 164.25 L28.44 164.25 A11.291 7.29047 0 0 1 20.51 169.97 L20.51 167.53
							 ZM14.2 158.61 L17.35 154.38 L14.2 150.16 L14.2 152.98 A15.3179 10.2119 -180 0 0 2.11 161.72 L6.19 161.72
							 A11.291 7.29047 0 0 1 14.2 155.98 L14.2 158.61 ZM6.87 165.75 L8.45 165.75 L4.22 162.6 L0 165.75 L2.57
							 165.75 A15.3179 10.2119 -180 0 0 16.05 173.16 L16.05 170.23 A11.291 7.29047 0 0 1 6.87 165.75 Z"
						class="st7"/>
			</g>
			<g id="shape714-143" v:mID="714" v:groupContext="shape" transform="translate(2.83465,0)">
				<title>Rechteck.6</title>
				<v:userDefs>
					<v:ud v:nameU="visVersion" v:val="VT0(14):26"/>
					<v:ud v:nameU="msvThemeColors" v:val="VT0(36):26"/>
					<v:ud v:nameU="msvThemeEffects" v:val="VT0(16):26"/>
				</v:userDefs>
				<rect x="0" y="170.309" width="8.50394" height="5.66929" class="st4"/>
			</g>
			<g id="shape715-146" v:mID="715" v:groupContext="shape" transform="translate(55.2756,0)">
				<title>Rechteck.7</title>
				<v:userDefs>
					<v:ud v:nameU="visVersion" v:val="VT0(14):26"/>
					<v:ud v:nameU="msvThemeColors" v:val="VT0(36):26"/>
					<v:ud v:nameU="msvThemeEffects" v:val="VT0(16):26"/>
				</v:userDefs>
				<rect x="0" y="170.309" width="8.50394" height="5.66929" class="st4"/>
			</g>
			<g id="shape716-149" v:mID="716" v:groupContext="shape" transform="translate(35.9857,-54.9392)">
				<title>Tabelle.716</title>
				<rect x="0" y="169.025" width="12.0016" height="6.95321" class="st8"/>
			</g>
			<g id="shape717-151" v:mID="717" v:groupContext="shape" transform="translate(21.1008,-59.0577)">
				<title>Tabelle.717</title>
				<path d="M0 175.98 L41.77 175.98 A26.9291 56.6929 -180 0 0 30.7 158.97 L11.07 158.97 A26.9291 56.6929 -180 0 0 0
							 175.98 Z" class="st8"/>
			</g>
		</g>
	</g>
</svg>
