<?xml version="1.0" encoding="UTF-8" standalone="no"?>
<!DOCTYPE svg PUBLIC "-//W3C//DTD SVG 1.1//EN" "http://www.w3.org/Graphics/SVG/1.1/DTD/svg11.dtd">
<!-- Generiert durch Microsoft Visio, SVG Export 10.svg Page-1 -->
<svg xmlns="http://www.w3.org/2000/svg" xmlns:xlink="http://www.w3.org/1999/xlink" xmlns:ev="http://www.w3.org/2001/xml-events"
		xmlns:v="http://schemas.microsoft.com/visio/2003/SVGExtensions/" width="5.20768in" height="2.44414in"
		viewBox="0 0 374.953 175.978" xml:space="preserve" color-interpolation-filters="sRGB" class="st12">
	<v:documentProperties v:langID="1031" v:metric="true" v:viewMarkup="false">
		<v:userDefs>
			<v:ud v:nameU="msvNoAutoConnect" v:val="VT0(0):26"/>
			<v:ud v:nameU="msvConvertTheme"/>
		</v:userDefs>
	</v:documentProperties>

	<style type="text/css">
	<![CDATA[
		.st1 {fill:#000000;stroke:none;stroke-linecap:round;stroke-linejoin:round;stroke-width:0.75}
		.st2 {fill:url(#grad0-6);stroke:#ffffff;stroke-linecap:round;stroke-linejoin:round;stroke-width:0.25}
		.st3 {fill:none;stroke:none;stroke-linecap:round;stroke-linejoin:round;stroke-width:0.25}
		.st4 {fill:url(#grad0-17);stroke:none;stroke-linecap:round;stroke-linejoin:round;stroke-width:0.25}
		.st5 {fill:url(#grad0-6);stroke:none;stroke-linecap:round;stroke-linejoin:round;stroke-width:0.25}
		.st6 {fill:url(#grad0-30);stroke:none;stroke-linecap:round;stroke-linejoin:round;stroke-width:0.25}
		.st7 {fill:url(#grad0-34);stroke:#000000;stroke-linecap:round;stroke-linejoin:round;stroke-width:1.5}
		.st8 {fill:none;stroke:#ffffff;stroke-linecap:round;stroke-linejoin:round;stroke-width:1}
		.st9 {fill:url(#grad0-6);stroke:#404040;stroke-linecap:round;stroke-linejoin:round;stroke-width:0.25}
		.st10 {fill:url(#grad0-45);stroke:#000000;stroke-linecap:round;stroke-linejoin:round;stroke-width:1.5}
		.st11 {fill:none;stroke:#000000;stroke-linecap:round;stroke-linejoin:round;stroke-width:1}
		.st12 {fill:none;fill-rule:evenodd;font-size:12px;overflow:visible;stroke-linecap:square;stroke-miterlimit:3}
	]]>
	</style>

	<defs id="Patterns_And_Gradients">
		<linearGradient id="grad0-6" x1="0" y1="0" x2="1" y2="0" gradientTransform="rotate(270 0.5 0.5)">
			<stop offset="0" stop-color="#f0f0f0" stop-opacity="1"/>
			<stop offset="1" stop-color="#ffffff" stop-opacity="1"/>
		</linearGradient>
		<linearGradient id="grad0-17" x1="0" y1="0" x2="1" y2="0" gradientTransform="rotate(270 0.5 0.5)">
			<stop offset="0" stop-color="#c9c9c9" stop-opacity="1"/>
			<stop offset="1" stop-color="#d8d8d8" stop-opacity="1"/>
		</linearGradient>
		<linearGradient id="grad0-30" x1="0" y1="0" x2="1" y2="0" gradientTransform="rotate(270 0.5 0.5)">
			<stop offset="0" stop-color="#e1a900" stop-opacity="1"/>
			<stop offset="1" stop-color="#ffc000" stop-opacity="1"/>
		</linearGradient>
		<linearGradient id="grad0-34" x1="0" y1="0" x2="1" y2="0" gradientTransform="rotate(270 0.5 0.5)">
			<stop offset="0" stop-color="#a60000" stop-opacity="1"/>
			<stop offset="1" stop-color="#c00000" stop-opacity="1"/>
		</linearGradient>
		<linearGradient id="grad0-45" x1="0" y1="0" x2="1" y2="0" gradientTransform="rotate(270 0.5 0.5)">
			<stop offset="0" stop-color="#363636" stop-opacity="1"/>
			<stop offset="1" stop-color="#3f3f3f" stop-opacity="1"/>
		</linearGradient>
	</defs>
	<g v:mID="4" v:index="1" v:groupContext="backgroundPage">
		<v:userDefs>
			<v:ud v:nameU="msvThemeColors" v:val="VT0(36):26"/>
			<v:ud v:nameU="msvThemeEffects" v:val="VT0(16):26"/>
			<v:ud v:nameU="msvThemeOrder" v:val="VT0(0):26"/>
			<v:ud v:nameU="msvVisioCreated" v:prompt="" v:val="VT0(0):26"/>
		</v:userDefs>
		<title>VHintergrund-1</title>
		<v:pageProperties width="5.20768" height="2.44414" v:drawingScale="0.0393701" v:pageScale="0.0393701" v:drawingUnits="24"
				v:shadowOffsetX="8.50394" v:shadowOffsetY="-8.50394"/>
		<g id="shape1-1" v:mID="1" v:groupContext="shape">
			<title>Vollton</title>
			<v:userDefs>
				<v:ud v:nameU="Background" v:val="VT0(0):26"/>
				<v:ud v:nameU="visVersion" v:val="VT0(14):26"/>
				<v:ud v:nameU="msvShapeCategories" v:prompt="" v:val="VT4(DoNotContain)"/>
				<v:ud v:nameU="msvThemeColors" v:val="VT0(36):26"/>
				<v:ud v:nameU="msvVisioCreated" v:prompt="" v:val="VT0(0):26"/>
			</v:userDefs>
			<rect x="0" y="0" width="374.953" height="175.978" class="st1"/>
		</g>
		<g id="shape2-3" v:mID="2" v:groupContext="shape" transform="translate(222.201,234.318) rotate(180)">
			<title>Pfeil 60 Grad-Spitze</title>
			<v:userDefs>
				<v:ud v:nameU="visVersion" v:val="VT0(14):26"/>
				<v:ud v:nameU="msvThemeColors" v:val="VT0(36):26"/>
				<v:ud v:nameU="msvThemeEffects" v:val="VT0(16):26"/>
			</v:userDefs>
			<path d="M0 168.89 L4.09 161.8 L4.09 166.48 L69.45 166.48 L69.45 171.3 L4.09 171.3 L4.09 175.98 L0 168.89 Z"
					class="st2"/>
		</g>
	</g>
	<g v:mID="0" v:index="2" v:groupContext="foregroundPage">
		<v:userDefs>
			<v:ud v:nameU="msvThemeColors" v:val="VT0(36):26"/>
			<v:ud v:nameU="msvThemeEffects" v:val="VT0(16):26"/>
			<v:ud v:nameU="msvThemeOrder" v:val="VT0(0):26"/>
		</v:userDefs>
		<title>Zeichenblatt-1</title>
		<v:pageProperties v:drawingScale="0.0393701" v:pageScale="0.0393701" v:drawingUnits="24" v:shadowOffsetX="8.50394"
				v:shadowOffsetY="-8.50394"/>
		<v:layer v:name="Flussdiagramm" v:index="0"/>
		<v:layer v:name="Verbinder" v:index="1"/>
		<g id="shape195-7" v:mID="195" v:groupContext="shape" transform="translate(125.787,-123.895)">
			<title>Rechteck.195</title>
			<v:userDefs>
				<v:ud v:nameU="visVersion" v:val="VT0(15):26"/>
				<v:ud v:nameU="msvThemeColors" v:val="VT0(36):26"/>
				<v:ud v:nameU="msvThemeEffects" v:val="VT0(16):26"/>
			</v:userDefs>
			<rect x="0" y="128.965" width="123.307" height="47.0131" class="st3"/>
		</g>
		<g id="shape192-9" v:mID="192" v:groupContext="shape" transform="translate(1.59872E-014,-2.26772)">
			<title>Rechteck.13.192</title>
			<v:userDefs>
				<v:ud v:nameU="visVersion" v:val="VT0(15):26"/>
				<v:ud v:nameU="msvThemeColors" v:val="VT0(36):26"/>
				<v:ud v:nameU="msvThemeEffects" v:val="VT0(16):26"/>
			</v:userDefs>
			<rect x="0" y="3.63146" width="123.307" height="172.346" class="st3"/>
		</g>
		<g id="shape194-11" v:mID="194" v:groupContext="shape" transform="translate(251.575,-2.26772)">
			<title>Rechteck.194</title>
			<v:userDefs>
				<v:ud v:nameU="visVersion" v:val="VT0(15):26"/>
				<v:ud v:nameU="msvThemeColors" v:val="VT0(36):26"/>
				<v:ud v:nameU="msvThemeEffects" v:val="VT0(16):26"/>
			</v:userDefs>
			<rect x="0" y="3.63146" width="123.307" height="172.346" class="st3"/>
		</g>
		<g id="group251-13" transform="translate(33.2112,-23.3974)" v:mID="251" v:groupContext="group">
			<v:userDefs>
				<v:ud v:nameU="msvThemeColors" v:val="VT0(36):26"/>
				<v:ud v:nameU="msvThemeEffects" v:val="VT0(16):26"/>
			</v:userDefs>
			<title>Tabelle.251</title>
			<g id="shape252-14" v:mID="252" v:groupContext="shape" transform="translate(28.3829,-28.3465)">
				<title>Rechteck.111</title>
				<v:userDefs>
					<v:ud v:nameU="visVersion" v:val="VT0(14):26"/>
					<v:ud v:nameU="msvThemeColors" v:val="VT0(36):26"/>
					<v:ud v:nameU="msvThemeEffects" v:val="VT0(16):26"/>
				</v:userDefs>
				<rect x="0" y="137.71" width="28.5018" height="38.2677" class="st4"/>
			</g>
			<g id="shape253-18" v:mID="253" v:groupContext="shape" transform="translate(28.2157,-28.3465)">
				<title>Rechteck.5</title>
				<v:userDefs>
					<v:ud v:nameU="visVersion" v:val="VT0(14):26"/>
					<v:ud v:nameU="msvThemeColors" v:val="VT0(36):26"/>
					<v:ud v:nameU="msvThemeEffects" v:val="VT0(16):26"/>
				</v:userDefs>
				<rect x="0" y="137.71" width="28.5018" height="38.2677" class="st4"/>
			</g>
			<g id="shape254-21" v:mID="254" v:groupContext="shape" transform="translate(28.2026,-1.76215E-012)">
				<title>Tabelle.254</title>
				<v:userDefs>
					<v:ud v:nameU="msvThemeColors" v:val="VT0(36):26"/>
					<v:ud v:nameU="msvThemeEffects" v:val="VT0(16):26"/>
				</v:userDefs>
				<path d="M28.5 155.53 L28.5 86.24 L28.49 86.24 A7.26384 6.94575 -180 0 0 23.46 79.95 L23.46 68.63 L5.04 68.63 L5.04
							 79.95 A7.26384 6.94575 -180 0 0 0.01 86.24 L0 86.24 L0 155.53 L12.75 174.56 L12.81 174.56 A29.0551 4.85436
							 -90 0 0 14.3 175.98 A29.0551 4.85436 -90 0 0 15.01 175.67 L28.5 155.53 Z" class="st5"/>
			</g>
			<g id="shape255-24" v:mID="255" v:groupContext="shape" transform="translate(28.2797,-28.3465)">
				<title>Rechteck.8</title>
				<v:userDefs>
					<v:ud v:nameU="visVersion" v:val="VT0(14):26"/>
					<v:ud v:nameU="msvThemeColors" v:val="VT0(36):26"/>
					<v:ud v:nameU="msvThemeEffects" v:val="VT0(16):26"/>
				</v:userDefs>
				<rect x="0" y="150.466" width="28.5018" height="25.5118" class="st4"/>
			</g>
			<g id="shape256-27" v:mID="256" v:groupContext="shape" transform="translate(28.2026,0)">
				<title>Tabelle.256</title>
				<v:userDefs>
					<v:ud v:nameU="msvThemeColors" v:val="VT0(36):26"/>
					<v:ud v:nameU="msvThemeEffects" v:val="VT0(16):26"/>
				</v:userDefs>
				<path d="M0 144.37 L0 148.32 L0.08 148.32 L0.08 155.76 L12.67 174.56 L12.73 174.56 A29.0551 4.85436 -90 0 0 14.23
							 175.98 A29.0551 4.85436 -90 0 0 14.94 175.67 L28.58 155.3 L28.58 144.69 L28.5 144.69 L28.5 144.37 L0
							 144.37 Z" class="st6"/>
			</g>
			<g id="shape257-31" v:mID="257" v:groupContext="shape" transform="translate(-44.8678,-95.7089) rotate(-25) scale(-1,1)">
				<title>Rechteck.17</title>
				<v:userDefs>
					<v:ud v:nameU="visVersion" v:val="VT0(14):26"/>
					<v:ud v:nameU="msvThemeColors" v:val="VT0(36):26"/>
					<v:ud v:nameU="msvThemeEffects" v:val="VT0(16):26"/>
				</v:userDefs>
				<rect x="0" y="156.238" width="23.3488" height="19.7398" class="st7"/>
			</g>
		</g>
		<g id="group258-35" transform="translate(166.991,-126.952)" v:mID="258" v:groupContext="group">
			<v:userDefs>
				<v:ud v:nameU="msvThemeColors" v:val="VT0(36):26"/>
				<v:ud v:nameU="msvThemeEffects" v:val="VT0(16):26"/>
			</v:userDefs>
			<title>Tabelle.258</title>
			<g id="shape259-36" v:mID="259" v:groupContext="shape">
				<title>Kreis</title>
				<v:userDefs>
					<v:ud v:nameU="visVersion" v:val="VT0(14):26"/>
					<v:ud v:nameU="msvThemeColors" v:val="VT0(36):26"/>
					<v:ud v:nameU="msvThemeEffects" v:val="VT0(16):26"/>
				</v:userDefs>
				<path d="M0 155.53 A20.4499 20.4499 0 0 1 40.9 155.53 A20.4499 20.4499 0 1 1 -0 155.53 Z" class="st8"/>
			</g>
			<g id="shape260-38" v:mID="260" v:groupContext="shape" transform="translate(9.11136,-10.0842)">
				<title>Tabelle.260</title>
				<v:userDefs>
					<v:ud v:nameU="msvThemeColors" v:val="VT0(36):26"/>
					<v:ud v:nameU="msvThemeEffects" v:val="VT0(16):26"/>
				</v:userDefs>
				<path d="M6.48 170.84 L6.47 170.85 L6.48 170.86 A3.76494 3.76494 0 0 1 6.5 171.29 A3.76494 3.76494 0 0 1 0.48 174.3
							 L0 174.58 A4.12271 4.12271 -180 0 0 7.22 171.86 A4.12271 4.12271 -180 0 0 7.19 171.34 L22.68 155.85
							 L22.07 155.25 L6.48 170.83 L6.48 170.84 L6.48 170.84 Z" class="st9"/>
			</g>
		</g>
		<g id="group261-41" transform="translate(298.939,-23.3974)" v:mID="261" v:groupContext="group">
			<v:userDefs>
				<v:ud v:nameU="msvThemeColors" v:val="VT0(36):26"/>
				<v:ud v:nameU="msvThemeEffects" v:val="VT0(16):26"/>
			</v:userDefs>
			<title>Tabelle.261</title>
			<g id="shape262-42" v:mID="262" v:groupContext="shape" transform="translate(2.58904,-99.2126)">
				<title>Rechteck.127</title>
				<v:userDefs>
					<v:ud v:nameU="visVersion" v:val="VT0(14):26"/>
					<v:ud v:nameU="msvThemeColors" v:val="VT0(36):26"/>
					<v:ud v:nameU="msvThemeEffects" v:val="VT0(16):26"/>
				</v:userDefs>
				<rect x="0" y="163.638" width="23.3488" height="12.34" class="st10"/>
			</g>
			<g id="shape263-46" v:mID="263" v:groupContext="shape" transform="translate(0.0130908,-28.3465)">
				<title>Rechteck.7</title>
				<v:userDefs>
					<v:ud v:nameU="visVersion" v:val="VT0(14):26"/>
					<v:ud v:nameU="msvThemeColors" v:val="VT0(36):26"/>
					<v:ud v:nameU="msvThemeEffects" v:val="VT0(16):26"/>
				</v:userDefs>
				<rect x="0" y="137.71" width="28.5018" height="38.2677" class="st4"/>
			</g>
			<g id="shape264-49" v:mID="264" v:groupContext="shape">
				<title>Tabelle.264</title>
				<v:userDefs>
					<v:ud v:nameU="msvThemeColors" v:val="VT0(36):26"/>
					<v:ud v:nameU="msvThemeEffects" v:val="VT0(16):26"/>
				</v:userDefs>
				<path d="M28.5 155.53 L28.5 86.24 L28.49 86.24 A7.26384 6.94575 -180 0 0 23.46 79.95 L23.46 68.63 L5.04 68.63 L5.04
							 79.95 A7.26384 6.94575 -180 0 0 0.01 86.24 L0 86.24 L0 155.53 L12.75 174.56 L12.81 174.56 A29.0551 4.85436
							 -90 0 0 14.3 175.98 A29.0551 4.85436 -90 0 0 15.01 175.67 L28.5 155.53 Z" class="st5"/>
			</g>
			<g id="shape265-52" v:mID="265" v:groupContext="shape" transform="translate(0.0771364,-28.3465)">
				<title>Rechteck.117</title>
				<v:userDefs>
					<v:ud v:nameU="visVersion" v:val="VT0(14):26"/>
					<v:ud v:nameU="msvThemeColors" v:val="VT0(36):26"/>
					<v:ud v:nameU="msvThemeEffects" v:val="VT0(16):26"/>
				</v:userDefs>
				<rect x="0" y="150.466" width="28.5018" height="25.5118" class="st4"/>
			</g>
			<g id="shape266-55" v:mID="266" v:groupContext="shape" transform="translate(2.58904,-99.2126)">
				<title>Rechteck.118</title>
				<v:userDefs>
					<v:ud v:nameU="visVersion" v:val="VT0(14):26"/>
					<v:ud v:nameU="msvThemeColors" v:val="VT0(36):26"/>
					<v:ud v:nameU="msvThemeEffects" v:val="VT0(16):26"/>
				</v:userDefs>
				<rect x="0" y="163.638" width="23.3488" height="12.34" class="st10"/>
			</g>
			<g id="shape267-58" v:mID="267" v:groupContext="shape" transform="translate(2.58904,-99.2126)">
				<title>Rechteck.112</title>
				<v:userDefs>
					<v:ud v:nameU="visVersion" v:val="VT0(14):26"/>
					<v:ud v:nameU="msvThemeColors" v:val="VT0(36):26"/>
					<v:ud v:nameU="msvThemeEffects" v:val="VT0(16):26"/>
				</v:userDefs>
				<rect x="0" y="163.638" width="23.3488" height="12.34" class="st10"/>
			</g>
			<g id="shape268-61" v:mID="268" v:groupContext="shape" transform="translate(2.58904,-99.2126)">
				<title>Rechteck.113</title>
				<v:userDefs>
					<v:ud v:nameU="visVersion" v:val="VT0(14):26"/>
					<v:ud v:nameU="msvThemeColors" v:val="VT0(36):26"/>
					<v:ud v:nameU="msvThemeEffects" v:val="VT0(16):26"/>
				</v:userDefs>
				<rect x="0" y="163.638" width="23.3488" height="12.34" class="st10"/>
			</g>
			<g id="shape269-64" v:mID="269" v:groupContext="shape" transform="translate(2.57652,-99.2126)">
				<title>Rechteck.3</title>
				<v:userDefs>
					<v:ud v:nameU="visVersion" v:val="VT0(14):26"/>
					<v:ud v:nameU="msvThemeColors" v:val="VT0(36):26"/>
					<v:ud v:nameU="msvThemeEffects" v:val="VT0(16):26"/>
				</v:userDefs>
				<rect x="0" y="156.238" width="23.3488" height="19.7398" class="st7"/>
			</g>
			<g id="shape270-67" v:mID="270" v:groupContext="shape">
				<title>Tabelle.270</title>
				<v:userDefs>
					<v:ud v:nameU="msvThemeColors" v:val="VT0(36):26"/>
					<v:ud v:nameU="msvThemeEffects" v:val="VT0(16):26"/>
				</v:userDefs>
				<path d="M0 144.37 L0 148.32 L0.08 148.32 L0.08 155.76 L12.67 174.56 L12.73 174.56 A29.0551 4.85436 -90 0 0 14.23
							 175.98 A29.0551 4.85436 -90 0 0 14.94 175.67 L28.58 155.3 L28.58 144.69 L28.5 144.69 L28.5 144.37 L0
							 144.37 Z" class="st6"/>
			</g>
			<g id="shape271-70" v:mID="271" v:groupContext="shape" transform="translate(4.48448,-15.3071)">
				<title>Kreis.112</title>
				<v:userDefs>
					<v:ud v:nameU="visVersion" v:val="VT0(14):26"/>
					<v:ud v:nameU="msvThemeColors" v:val="VT0(36):26"/>
					<v:ud v:nameU="msvThemeEffects" v:val="VT0(16):26"/>
				</v:userDefs>
				<path d="M0 173.71 A2.26772 2.26772 0 0 1 4.54 173.71 A2.26772 2.26772 0 1 1 0 173.71 Z" class="st11"/>
			</g>
			<g id="shape272-72" v:mID="272" v:groupContext="shape" transform="translate(12.9884,-4.8189)">
				<title>Kreis.113</title>
				<v:userDefs>
					<v:ud v:nameU="visVersion" v:val="VT0(14):26"/>
					<v:ud v:nameU="msvThemeColors" v:val="VT0(36):26"/>
					<v:ud v:nameU="msvThemeEffects" v:val="VT0(16):26"/>
				</v:userDefs>
				<path d="M0 173.71 A2.26772 2.26772 0 0 1 4.54 173.71 A2.26772 2.26772 0 1 1 0 173.71 Z" class="st11"/>
			</g>
			<g id="shape273-74" v:mID="273" v:groupContext="shape" transform="translate(20.075,-14.6096)">
				<title>Kreis.114</title>
				<v:userDefs>
					<v:ud v:nameU="visVersion" v:val="VT0(14):26"/>
					<v:ud v:nameU="msvThemeColors" v:val="VT0(36):26"/>
					<v:ud v:nameU="msvThemeEffects" v:val="VT0(16):26"/>
				</v:userDefs>
				<path d="M0 173.71 A2.26772 2.26772 0 0 1 4.54 173.71 A2.26772 2.26772 0 1 1 0 173.71 Z" class="st11"/>
			</g>
			<g id="shape274-76" v:mID="274" v:groupContext="shape" transform="translate(11.5711,-18.1417)">
				<title>Kreis.115</title>
				<v:userDefs>
					<v:ud v:nameU="visVersion" v:val="VT0(14):26"/>
					<v:ud v:nameU="msvThemeColors" v:val="VT0(36):26"/>
					<v:ud v:nameU="msvThemeEffects" v:val="VT0(16):26"/>
				</v:userDefs>
				<path d="M0 173.71 A2.26772 2.26772 0 0 1 4.54 173.71 A2.26772 2.26772 0 1 1 0 173.71 Z" class="st11"/>
			</g>
		</g>
	</g>
</svg>
