<?xml version="1.0" encoding="UTF-8" standalone="no"?>
<!DOCTYPE svg PUBLIC "-//W3C//DTD SVG 1.1//EN" "http://www.w3.org/Graphics/SVG/1.1/DTD/svg11.dtd">
<!-- Generiert durch Microsoft Visio, SVG Export 4b1.svg Page-1 -->
<svg xmlns="http://www.w3.org/2000/svg" xmlns:xlink="http://www.w3.org/1999/xlink" xmlns:ev="http://www.w3.org/2001/xml-events"
		xmlns:v="http://schemas.microsoft.com/visio/2003/SVGExtensions/" width="5.20768in" height="2.44414in"
		viewBox="0 0 374.953 175.978" xml:space="preserve" color-interpolation-filters="sRGB" class="st13">
	<v:documentProperties v:langID="1031" v:metric="true" v:viewMarkup="false">
		<v:userDefs>
			<v:ud v:nameU="msvNoAutoConnect" v:val="VT0(0):26"/>
			<v:ud v:nameU="msvConvertTheme"/>
		</v:userDefs>
	</v:documentProperties>

	<style type="text/css">
	<![CDATA[
		.st1 {fill:#000000;stroke:none;stroke-linecap:round;stroke-linejoin:round;stroke-width:0.75}
		.st2 {fill:url(#grad0-6);stroke:#ffffff;stroke-linecap:round;stroke-linejoin:round;stroke-width:0.25}
		.st3 {fill:none;stroke:none;stroke-linecap:round;stroke-linejoin:round;stroke-width:0.25}
		.st4 {fill:#ffffff;stroke:none;stroke-linecap:round;stroke-linejoin:round;stroke-width:0.25}
		.st5 {fill:#c6d8f0;stroke:none;stroke-linecap:round;stroke-linejoin:round;stroke-width:0.25}
		.st6 {fill:url(#grad0-6);stroke:none;stroke-linecap:round;stroke-linejoin:round;stroke-width:0.25}
		.st7 {fill:url(#grad0-24);stroke:none;stroke-linecap:round;stroke-linejoin:round;stroke-width:0.25}
		.st8 {fill:url(#grad0-28);stroke:none;stroke-linecap:round;stroke-linejoin:round;stroke-width:0.25}
		.st9 {fill:url(#grad0-155);stroke:#000000;stroke-linecap:round;stroke-linejoin:round;stroke-width:1.5}
		.st10 {fill:url(#grad0-163);stroke:#000000;stroke-linecap:round;stroke-linejoin:round;stroke-width:1.5}
		.st11 {fill:url(#grad0-6);stroke:#000000;stroke-linecap:round;stroke-linejoin:round;stroke-width:1.5}
		.st12 {fill:#c00000;stroke:#c00000;stroke-linecap:round;stroke-linejoin:round;stroke-width:0.25}
		.st13 {fill:none;fill-rule:evenodd;font-size:12px;overflow:visible;stroke-linecap:square;stroke-miterlimit:3}
	]]>
	</style>

	<defs id="Patterns_And_Gradients">
		<linearGradient id="grad0-6" x1="0" y1="0" x2="1" y2="0" gradientTransform="rotate(270 0.5 0.5)">
			<stop offset="0" stop-color="#f0f0f0" stop-opacity="1"/>
			<stop offset="1" stop-color="#ffffff" stop-opacity="1"/>
		</linearGradient>
		<linearGradient id="grad0-24" x1="0" y1="0" x2="1" y2="0" gradientTransform="rotate(270 0.5 0.5)">
			<stop offset="0" stop-color="#e1a900" stop-opacity="1"/>
			<stop offset="1" stop-color="#ffc000" stop-opacity="1"/>
		</linearGradient>
		<linearGradient id="grad0-28" x1="0" y1="0" x2="1" y2="0" gradientTransform="rotate(270 0.5 0.5)">
			<stop offset="0" stop-color="#783e0e" stop-opacity="1"/>
			<stop offset="1" stop-color="#8c4810" stop-opacity="1"/>
		</linearGradient>
		<linearGradient id="grad0-155" x1="0" y1="0" x2="1" y2="0" gradientTransform="rotate(270 0.5 0.5)">
			<stop offset="0" stop-color="#a60000" stop-opacity="1"/>
			<stop offset="1" stop-color="#c00000" stop-opacity="1"/>
		</linearGradient>
		<linearGradient id="grad0-163" x1="0" y1="0" x2="1" y2="0" gradientTransform="rotate(270 0.5 0.5)">
			<stop offset="0" stop-color="#e3e3e3" stop-opacity="1"/>
			<stop offset="1" stop-color="#f2f2f2" stop-opacity="1"/>
		</linearGradient>
	</defs>
	<g v:mID="4" v:index="1" v:groupContext="backgroundPage">
		<v:userDefs>
			<v:ud v:nameU="msvThemeColors" v:val="VT0(36):26"/>
			<v:ud v:nameU="msvThemeEffects" v:val="VT0(16):26"/>
			<v:ud v:nameU="msvThemeOrder" v:val="VT0(0):26"/>
			<v:ud v:nameU="msvVisioCreated" v:prompt="" v:val="VT0(0):26"/>
		</v:userDefs>
		<title>VHintergrund-1</title>
		<v:pageProperties width="5.20768" height="2.44414" v:drawingScale="0.0393701" v:pageScale="0.0393701" v:drawingUnits="24"
				v:shadowOffsetX="8.50394" v:shadowOffsetY="-8.50394"/>
		<g id="shape1-1" v:mID="1" v:groupContext="shape">
			<title>Vollton</title>
			<v:userDefs>
				<v:ud v:nameU="Background" v:val="VT0(0):26"/>
				<v:ud v:nameU="visVersion" v:val="VT0(14):26"/>
				<v:ud v:nameU="msvShapeCategories" v:prompt="" v:val="VT4(DoNotContain)"/>
				<v:ud v:nameU="msvThemeColors" v:val="VT0(36):26"/>
				<v:ud v:nameU="msvVisioCreated" v:prompt="" v:val="VT0(0):26"/>
			</v:userDefs>
			<rect x="0" y="0" width="374.953" height="175.978" class="st1"/>
		</g>
		<g id="shape2-3" v:mID="2" v:groupContext="shape" transform="translate(222.201,234.318) rotate(180)">
			<title>Pfeil 60 Grad-Spitze</title>
			<v:userDefs>
				<v:ud v:nameU="visVersion" v:val="VT0(14):26"/>
				<v:ud v:nameU="msvThemeColors" v:val="VT0(36):26"/>
				<v:ud v:nameU="msvThemeEffects" v:val="VT0(16):26"/>
			</v:userDefs>
			<path d="M0 168.89 L4.09 161.8 L4.09 166.48 L69.45 166.48 L69.45 171.3 L4.09 171.3 L4.09 175.98 L0 168.89 Z"
					class="st2"/>
		</g>
	</g>
	<g v:mID="0" v:index="2" v:groupContext="foregroundPage">
		<v:userDefs>
			<v:ud v:nameU="msvThemeColors" v:val="VT0(36):26"/>
			<v:ud v:nameU="msvThemeEffects" v:val="VT0(16):26"/>
			<v:ud v:nameU="msvThemeOrder" v:val="VT0(0):26"/>
		</v:userDefs>
		<title>Zeichenblatt-1</title>
		<v:pageProperties v:drawingScale="0.0393701" v:pageScale="0.0393701" v:drawingUnits="24" v:shadowOffsetX="8.50394"
				v:shadowOffsetY="-8.50394"/>
		<v:layer v:name="Flussdiagramm" v:index="0"/>
		<v:layer v:name="Verbinder" v:index="1"/>
		<g id="shape195-7" v:mID="195" v:groupContext="shape" transform="translate(125.787,-123.895)">
			<title>Rechteck.195</title>
			<v:userDefs>
				<v:ud v:nameU="visVersion" v:val="VT0(15):26"/>
				<v:ud v:nameU="msvThemeColors" v:val="VT0(36):26"/>
				<v:ud v:nameU="msvThemeEffects" v:val="VT0(16):26"/>
			</v:userDefs>
			<rect x="0" y="128.965" width="123.307" height="47.0131" class="st3"/>
		</g>
		<g id="shape192-9" v:mID="192" v:groupContext="shape" transform="translate(1.59872E-014,-2.26772)">
			<title>Rechteck.13.192</title>
			<v:userDefs>
				<v:ud v:nameU="visVersion" v:val="VT0(15):26"/>
				<v:ud v:nameU="msvThemeColors" v:val="VT0(36):26"/>
				<v:ud v:nameU="msvThemeEffects" v:val="VT0(16):26"/>
			</v:userDefs>
			<rect x="0" y="3.63146" width="123.307" height="172.346" class="st3"/>
		</g>
		<g id="shape194-11" v:mID="194" v:groupContext="shape" transform="translate(251.575,-2.26772)">
			<title>Rechteck.194</title>
			<v:userDefs>
				<v:ud v:nameU="visVersion" v:val="VT0(15):26"/>
				<v:ud v:nameU="msvThemeColors" v:val="VT0(36):26"/>
				<v:ud v:nameU="msvThemeEffects" v:val="VT0(16):26"/>
			</v:userDefs>
			<rect x="0" y="3.63146" width="123.307" height="172.346" class="st3"/>
		</g>
		<g id="group420-13" transform="translate(29.6475,-28.9647)" v:mID="420" v:groupContext="group">
			<v:userDefs>
				<v:ud v:nameU="msvThemeColors" v:val="VT0(36):26"/>
				<v:ud v:nameU="msvThemeEffects" v:val="VT0(16):26"/>
			</v:userDefs>
			<title>Tabelle.420</title>
			<g id="shape421-14" v:mID="421" v:groupContext="shape" transform="translate(35.4331,-0.354331)">
				<title>Tabelle.421</title>
				<path d="M28.5 155.53 L28.5 86.24 L28.49 86.24 A7.26384 6.94575 -180 0 0 23.46 79.95 L23.46 68.63 L5.04 68.63 L5.04
							 79.95 A7.26384 6.94575 -180 0 0 0.01 86.24 L0 86.24 L0 155.53 L12.75 174.56 L12.81 174.56 A29.0551 4.85436
							 -90 0 0 14.3 175.98 A29.0551 4.85436 -90 0 0 15.01 175.67 L28.5 155.53 Z" class="st4"/>
			</g>
			<g id="shape422-16" v:mID="422" v:groupContext="shape" transform="translate(35.4331,-0.354331)">
				<title>Tabelle.422</title>
				<path d="M28.58 155.3 L28.58 144.69 L28.5 144.69 L28.5 119.98 L0 119.98 L0 148.32 L0.08 148.32 L0.08 155.76 L12.67
							 174.56 L12.73 174.56 A29.0551 4.85436 -90 0 0 14.23 175.98 A29.0551 4.85436 -90 0 0 14.94 175.67 L28.58
							 155.3 Z" class="st5"/>
			</g>
			<g id="shape423-18" v:mID="423" v:groupContext="shape">
				<title>Tabelle.423</title>
				<v:userDefs>
					<v:ud v:nameU="msvThemeColors" v:val="VT0(36):26"/>
					<v:ud v:nameU="msvThemeEffects" v:val="VT0(16):26"/>
				</v:userDefs>
				<path d="M28.5 155.53 L28.5 86.24 L28.49 86.24 A7.26384 6.94575 -180 0 0 23.46 79.95 L23.46 68.63 L5.04 68.63 L5.04
							 79.95 A7.26384 6.94575 -180 0 0 0.01 86.24 L0 86.24 L0 155.53 L12.75 174.56 L12.81 174.56 A29.0551 4.85436
							 -90 0 0 14.3 175.98 A29.0551 4.85436 -90 0 0 15.01 175.67 L28.5 155.53 Z" class="st6"/>
			</g>
			<g id="shape424-21" v:mID="424" v:groupContext="shape">
				<title>Tabelle.424</title>
				<v:userDefs>
					<v:ud v:nameU="msvThemeColors" v:val="VT0(36):26"/>
					<v:ud v:nameU="msvThemeEffects" v:val="VT0(16):26"/>
				</v:userDefs>
				<path d="M28.58 155.3 L28.58 144.69 L28.5 144.69 L28.5 119.98 L0 119.98 L0 148.32 L0.08 148.32 L0.08 155.76 L12.67
							 174.56 L12.73 174.56 A29.0551 4.85436 -90 0 0 14.23 175.98 A29.0551 4.85436 -90 0 0 14.94 175.67 L28.58
							 155.3 Z" class="st7"/>
			</g>
			<g id="shape425-25" v:mID="425" v:groupContext="shape" transform="translate(23.2175,-14.9621)">
				<title>Sechseck.83</title>
				<v:userDefs>
					<v:ud v:nameU="visVersion" v:val="VT0(14):26"/>
					<v:ud v:nameU="msvThemeColors" v:val="VT0(36):26"/>
					<v:ud v:nameU="msvThemeEffects" v:val="VT0(16):26"/>
				</v:userDefs>
				<path d="M1.2 174.46 L0.32 174.46 L-0.12 175.22 L0.32 175.98 L1.2 175.98 L1.64 175.22 L1.2 174.46 Z" class="st8"/>
			</g>
			<g id="shape426-29" v:mID="426" v:groupContext="shape" transform="translate(14.6637,-17.0353)">
				<title>Sechseck.85</title>
				<v:userDefs>
					<v:ud v:nameU="visVersion" v:val="VT0(14):26"/>
					<v:ud v:nameU="msvThemeColors" v:val="VT0(36):26"/>
					<v:ud v:nameU="msvThemeEffects" v:val="VT0(16):26"/>
				</v:userDefs>
				<path d="M1.2 174.46 L0.32 174.46 L-0.12 175.22 L0.32 175.98 L1.2 175.98 L1.64 175.22 L1.2 174.46 Z" class="st8"/>
			</g>
			<g id="shape427-32" v:mID="427" v:groupContext="shape" transform="translate(15.475,-3.92044)">
				<title>Sechseck.89</title>
				<v:userDefs>
					<v:ud v:nameU="visVersion" v:val="VT0(14):26"/>
					<v:ud v:nameU="msvThemeColors" v:val="VT0(36):26"/>
					<v:ud v:nameU="msvThemeEffects" v:val="VT0(16):26"/>
				</v:userDefs>
				<path d="M1.12 174.46 L0.3 174.46 L-0.11 175.22 L0.3 175.98 L1.12 175.98 L1.53 175.22 L1.12 174.46 Z" class="st8"/>
			</g>
			<g id="shape428-35" v:mID="428" v:groupContext="shape" transform="translate(9.99758,-6.56062)">
				<title>Sechseck.149</title>
				<v:userDefs>
					<v:ud v:nameU="visVersion" v:val="VT0(14):26"/>
					<v:ud v:nameU="msvThemeColors" v:val="VT0(36):26"/>
					<v:ud v:nameU="msvThemeEffects" v:val="VT0(16):26"/>
				</v:userDefs>
				<path d="M1.2 174.46 L0.32 174.46 L-0.12 175.22 L0.32 175.98 L1.2 175.98 L1.64 175.22 L1.2 174.46 Z" class="st8"/>
			</g>
			<g id="shape429-38" v:mID="429" v:groupContext="shape" transform="translate(9.62253,-17.4858)">
				<title>Sechseck.150</title>
				<v:userDefs>
					<v:ud v:nameU="visVersion" v:val="VT0(14):26"/>
					<v:ud v:nameU="msvThemeColors" v:val="VT0(36):26"/>
					<v:ud v:nameU="msvThemeEffects" v:val="VT0(16):26"/>
				</v:userDefs>
				<path d="M1.2 174.46 L0.32 174.46 L-0.12 175.22 L0.32 175.98 L1.2 175.98 L1.64 175.22 L1.2 174.46 Z" class="st8"/>
			</g>
			<g id="shape430-41" v:mID="430" v:groupContext="shape" transform="translate(3.24514,-15.5906)">
				<title>Sechseck.151</title>
				<v:userDefs>
					<v:ud v:nameU="visVersion" v:val="VT0(14):26"/>
					<v:ud v:nameU="msvThemeColors" v:val="VT0(36):26"/>
					<v:ud v:nameU="msvThemeEffects" v:val="VT0(16):26"/>
				</v:userDefs>
				<path d="M1.2 174.46 L0.32 174.46 L-0.12 175.22 L0.32 175.98 L1.2 175.98 L1.64 175.22 L1.2 174.46 Z" class="st8"/>
			</g>
			<g id="shape431-44" v:mID="431" v:groupContext="shape" transform="translate(6.80436,-15.5906)">
				<title>Sechseck.152</title>
				<v:userDefs>
					<v:ud v:nameU="visVersion" v:val="VT0(14):26"/>
					<v:ud v:nameU="msvThemeColors" v:val="VT0(36):26"/>
					<v:ud v:nameU="msvThemeEffects" v:val="VT0(16):26"/>
				</v:userDefs>
				<path d="M1.2 174.46 L0.32 174.46 L-0.12 175.22 L0.32 175.98 L1.2 175.98 L1.64 175.22 L1.2 174.46 Z" class="st8"/>
			</g>
			<g id="shape432-47" v:mID="432" v:groupContext="shape" transform="translate(15.475,-23.466)">
				<title>Sechseck.153</title>
				<v:userDefs>
					<v:ud v:nameU="visVersion" v:val="VT0(14):26"/>
					<v:ud v:nameU="msvThemeColors" v:val="VT0(36):26"/>
					<v:ud v:nameU="msvThemeEffects" v:val="VT0(16):26"/>
				</v:userDefs>
				<path d="M1.2 174.46 L0.32 174.46 L-0.12 175.22 L0.32 175.98 L1.2 175.98 L1.64 175.22 L1.2 174.46 Z" class="st8"/>
			</g>
			<g id="shape433-50" v:mID="433" v:groupContext="shape" transform="translate(16.8923,-8.53137)">
				<title>Sechseck.155</title>
				<v:userDefs>
					<v:ud v:nameU="visVersion" v:val="VT0(14):26"/>
					<v:ud v:nameU="msvThemeColors" v:val="VT0(36):26"/>
					<v:ud v:nameU="msvThemeEffects" v:val="VT0(16):26"/>
				</v:userDefs>
				<path d="M1.2 174.46 L0.32 174.46 L-0.12 175.22 L0.32 175.98 L1.2 175.98 L1.64 175.22 L1.2 174.46 Z" class="st8"/>
			</g>
			<g id="shape434-53" v:mID="434" v:groupContext="shape" transform="translate(13.2963,-1.41732)">
				<title>Sechseck.156</title>
				<v:userDefs>
					<v:ud v:nameU="visVersion" v:val="VT0(14):26"/>
					<v:ud v:nameU="msvThemeColors" v:val="VT0(36):26"/>
					<v:ud v:nameU="msvThemeEffects" v:val="VT0(16):26"/>
				</v:userDefs>
				<path d="M1.2 174.46 L0.32 174.46 L-0.12 175.22 L0.32 175.98 L1.2 175.98 L1.64 175.22 L1.2 174.46 Z" class="st8"/>
			</g>
			<g id="shape435-56" v:mID="435" v:groupContext="shape" transform="translate(19.6493,-12.1274)">
				<title>Sechseck.157</title>
				<v:userDefs>
					<v:ud v:nameU="visVersion" v:val="VT0(14):26"/>
					<v:ud v:nameU="msvThemeColors" v:val="VT0(36):26"/>
					<v:ud v:nameU="msvThemeEffects" v:val="VT0(16):26"/>
				</v:userDefs>
				<path d="M1.2 174.46 L0.32 174.46 L-0.12 175.22 L0.32 175.98 L1.2 175.98 L1.64 175.22 L1.2 174.46 Z" class="st8"/>
			</g>
			<g id="shape436-59" v:mID="436" v:groupContext="shape" transform="translate(10.8274,-12.8888)">
				<title>Sechseck.101</title>
				<v:userDefs>
					<v:ud v:nameU="visVersion" v:val="VT0(14):26"/>
					<v:ud v:nameU="msvThemeColors" v:val="VT0(36):26"/>
					<v:ud v:nameU="msvThemeEffects" v:val="VT0(16):26"/>
				</v:userDefs>
				<path d="M1.2 174.46 L0.32 174.46 L-0.12 175.22 L0.32 175.98 L1.2 175.98 L1.64 175.22 L1.2 174.46 Z" class="st8"/>
			</g>
			<g id="shape437-62" v:mID="437" v:groupContext="shape" transform="translate(6.5986,-20.9148)">
				<title>Sechseck.102</title>
				<v:userDefs>
					<v:ud v:nameU="visVersion" v:val="VT0(14):26"/>
					<v:ud v:nameU="msvThemeColors" v:val="VT0(36):26"/>
					<v:ud v:nameU="msvThemeEffects" v:val="VT0(16):26"/>
				</v:userDefs>
				<path d="M1.2 174.46 L0.32 174.46 L-0.12 175.22 L0.32 175.98 L1.2 175.98 L1.64 175.22 L1.2 174.46 Z" class="st8"/>
			</g>
			<g id="shape438-65" v:mID="438" v:groupContext="shape" transform="translate(21.0388,-20.6314)">
				<title>Sechseck.103</title>
				<v:userDefs>
					<v:ud v:nameU="visVersion" v:val="VT0(14):26"/>
					<v:ud v:nameU="msvThemeColors" v:val="VT0(36):26"/>
					<v:ud v:nameU="msvThemeEffects" v:val="VT0(16):26"/>
				</v:userDefs>
				<path d="M1.2 174.46 L0.32 174.46 L-0.12 175.22 L0.32 175.98 L1.2 175.98 L1.64 175.22 L1.2 174.46 Z" class="st8"/>
			</g>
			<g id="shape439-68" v:mID="439" v:groupContext="shape" transform="translate(1.30177,-21.1093)">
				<title>Sechseck.104</title>
				<v:userDefs>
					<v:ud v:nameU="visVersion" v:val="VT0(14):26"/>
					<v:ud v:nameU="msvThemeColors" v:val="VT0(36):26"/>
					<v:ud v:nameU="msvThemeEffects" v:val="VT0(16):26"/>
				</v:userDefs>
				<path d="M1.2 174.46 L0.32 174.46 L-0.12 175.22 L0.32 175.98 L1.2 175.98 L1.64 175.22 L1.2 174.46 Z" class="st8"/>
			</g>
			<g id="shape440-71" v:mID="440" v:groupContext="shape" transform="translate(12.5349,-27.062)">
				<title>Sechseck.105</title>
				<v:userDefs>
					<v:ud v:nameU="visVersion" v:val="VT0(14):26"/>
					<v:ud v:nameU="msvThemeColors" v:val="VT0(36):26"/>
					<v:ud v:nameU="msvThemeEffects" v:val="VT0(16):26"/>
				</v:userDefs>
				<path d="M1.2 174.46 L0.32 174.46 L-0.12 175.22 L0.32 175.98 L1.2 175.98 L1.64 175.22 L1.2 174.46 Z" class="st8"/>
			</g>
			<g id="shape441-74" v:mID="441" v:groupContext="shape" transform="translate(3.95019,-26.9566)">
				<title>Sechseck.106</title>
				<v:userDefs>
					<v:ud v:nameU="visVersion" v:val="VT0(14):26"/>
					<v:ud v:nameU="msvThemeColors" v:val="VT0(36):26"/>
					<v:ud v:nameU="msvThemeEffects" v:val="VT0(16):26"/>
				</v:userDefs>
				<path d="M1.2 174.46 L0.32 174.46 L-0.12 175.22 L0.32 175.98 L1.2 175.98 L1.64 175.22 L1.2 174.46 Z" class="st8"/>
			</g>
			<g id="shape442-77" v:mID="442" v:groupContext="shape" transform="translate(23.8735,-25.5392)">
				<title>Sechseck.108</title>
				<v:userDefs>
					<v:ud v:nameU="visVersion" v:val="VT0(14):26"/>
					<v:ud v:nameU="msvThemeColors" v:val="VT0(36):26"/>
					<v:ud v:nameU="msvThemeEffects" v:val="VT0(16):26"/>
				</v:userDefs>
				<path d="M1.2 174.46 L0.32 174.46 L-0.12 175.22 L0.32 175.98 L1.2 175.98 L1.64 175.22 L1.2 174.46 Z" class="st8"/>
			</g>
			<g id="shape443-80" v:mID="443" v:groupContext="shape" transform="translate(24.2215,-41.3744)">
				<title>Sechseck.74</title>
				<v:userDefs>
					<v:ud v:nameU="visVersion" v:val="VT0(14):26"/>
					<v:ud v:nameU="msvThemeColors" v:val="VT0(36):26"/>
					<v:ud v:nameU="msvThemeEffects" v:val="VT0(16):26"/>
				</v:userDefs>
				<path d="M1.2 174.46 L0.32 174.46 L-0.12 175.22 L0.32 175.98 L1.2 175.98 L1.64 175.22 L1.2 174.46 Z" class="st8"/>
			</g>
			<g id="shape444-83" v:mID="444" v:groupContext="shape" transform="translate(15.6677,-43.4477)">
				<title>Sechseck.75</title>
				<v:userDefs>
					<v:ud v:nameU="visVersion" v:val="VT0(14):26"/>
					<v:ud v:nameU="msvThemeColors" v:val="VT0(36):26"/>
					<v:ud v:nameU="msvThemeEffects" v:val="VT0(16):26"/>
				</v:userDefs>
				<path d="M1.2 174.46 L0.32 174.46 L-0.12 175.22 L0.32 175.98 L1.2 175.98 L1.64 175.22 L1.2 174.46 Z" class="st8"/>
			</g>
			<g id="shape445-86" v:mID="445" v:groupContext="shape" transform="translate(25.6388,-36.1966)">
				<title>Sechseck.76</title>
				<v:userDefs>
					<v:ud v:nameU="visVersion" v:val="VT0(14):26"/>
					<v:ud v:nameU="msvThemeColors" v:val="VT0(36):26"/>
					<v:ud v:nameU="msvThemeEffects" v:val="VT0(16):26"/>
				</v:userDefs>
				<path d="M1.2 174.46 L0.32 174.46 L-0.12 175.22 L0.32 175.98 L1.2 175.98 L1.64 175.22 L1.2 174.46 Z" class="st8"/>
			</g>
			<g id="shape446-89" v:mID="446" v:groupContext="shape" transform="translate(10.6265,-43.8982)">
				<title>Sechseck.77</title>
				<v:userDefs>
					<v:ud v:nameU="visVersion" v:val="VT0(14):26"/>
					<v:ud v:nameU="msvThemeColors" v:val="VT0(36):26"/>
					<v:ud v:nameU="msvThemeEffects" v:val="VT0(16):26"/>
				</v:userDefs>
				<path d="M1.2 174.46 L0.32 174.46 L-0.12 175.22 L0.32 175.98 L1.2 175.98 L1.64 175.22 L1.2 174.46 Z" class="st8"/>
			</g>
			<g id="shape447-92" v:mID="447" v:groupContext="shape" transform="translate(3.64538,-42.0029)">
				<title>Sechseck.78</title>
				<v:userDefs>
					<v:ud v:nameU="visVersion" v:val="VT0(14):26"/>
					<v:ud v:nameU="msvThemeColors" v:val="VT0(36):26"/>
					<v:ud v:nameU="msvThemeEffects" v:val="VT0(16):26"/>
				</v:userDefs>
				<path d="M1.2 174.46 L0.32 174.46 L-0.12 175.22 L0.32 175.98 L1.2 175.98 L1.64 175.22 L1.2 174.46 Z" class="st8"/>
			</g>
			<g id="shape448-95" v:mID="448" v:groupContext="shape" transform="translate(7.80835,-42.0029)">
				<title>Sechseck.79</title>
				<v:userDefs>
					<v:ud v:nameU="visVersion" v:val="VT0(14):26"/>
					<v:ud v:nameU="msvThemeColors" v:val="VT0(36):26"/>
					<v:ud v:nameU="msvThemeEffects" v:val="VT0(16):26"/>
				</v:userDefs>
				<path d="M1.2 174.46 L0.32 174.46 L-0.12 175.22 L0.32 175.98 L1.2 175.98 L1.64 175.22 L1.2 174.46 Z" class="st8"/>
			</g>
			<g id="shape449-98" v:mID="449" v:groupContext="shape" transform="translate(16.479,-49.8784)">
				<title>Sechseck.80</title>
				<v:userDefs>
					<v:ud v:nameU="visVersion" v:val="VT0(14):26"/>
					<v:ud v:nameU="msvThemeColors" v:val="VT0(36):26"/>
					<v:ud v:nameU="msvThemeEffects" v:val="VT0(16):26"/>
				</v:userDefs>
				<path d="M1.2 174.46 L0.32 174.46 L-0.12 175.22 L0.32 175.98 L1.2 175.98 L1.64 175.22 L1.2 174.46 Z" class="st8"/>
			</g>
			<g id="shape450-101" v:mID="450" v:groupContext="shape" transform="translate(17.8963,-34.9437)">
				<title>Sechseck.81</title>
				<v:userDefs>
					<v:ud v:nameU="visVersion" v:val="VT0(14):26"/>
					<v:ud v:nameU="msvThemeColors" v:val="VT0(36):26"/>
					<v:ud v:nameU="msvThemeEffects" v:val="VT0(16):26"/>
				</v:userDefs>
				<path d="M1.2 174.46 L0.32 174.46 L-0.12 175.22 L0.32 175.98 L1.2 175.98 L1.64 175.22 L1.2 174.46 Z" class="st8"/>
			</g>
			<g id="shape451-104" v:mID="451" v:groupContext="shape" transform="translate(20.6532,-38.5398)">
				<title>Sechseck.82</title>
				<v:userDefs>
					<v:ud v:nameU="visVersion" v:val="VT0(14):26"/>
					<v:ud v:nameU="msvThemeColors" v:val="VT0(36):26"/>
					<v:ud v:nameU="msvThemeEffects" v:val="VT0(16):26"/>
				</v:userDefs>
				<path d="M1.2 174.46 L0.32 174.46 L-0.12 175.22 L0.32 175.98 L1.2 175.98 L1.64 175.22 L1.2 174.46 Z" class="st8"/>
			</g>
			<g id="shape452-107" v:mID="452" v:groupContext="shape" transform="translate(11.8313,-39.3012)">
				<title>Sechseck.111</title>
				<v:userDefs>
					<v:ud v:nameU="visVersion" v:val="VT0(14):26"/>
					<v:ud v:nameU="msvThemeColors" v:val="VT0(36):26"/>
					<v:ud v:nameU="msvThemeEffects" v:val="VT0(16):26"/>
				</v:userDefs>
				<path d="M1.2 174.46 L0.32 174.46 L-0.12 175.22 L0.32 175.98 L1.2 175.98 L1.64 175.22 L1.2 174.46 Z" class="st8"/>
			</g>
			<g id="shape453-110" v:mID="453" v:groupContext="shape" transform="translate(7.60259,-47.3272)">
				<title>Sechseck.113</title>
				<v:userDefs>
					<v:ud v:nameU="visVersion" v:val="VT0(14):26"/>
					<v:ud v:nameU="msvThemeColors" v:val="VT0(36):26"/>
					<v:ud v:nameU="msvThemeEffects" v:val="VT0(16):26"/>
				</v:userDefs>
				<path d="M1.2 174.46 L0.32 174.46 L-0.12 175.22 L0.32 175.98 L1.2 175.98 L1.64 175.22 L1.2 174.46 Z" class="st8"/>
			</g>
			<g id="shape454-113" v:mID="454" v:groupContext="shape" transform="translate(22.0428,-47.0437)">
				<title>Sechseck.114</title>
				<v:userDefs>
					<v:ud v:nameU="visVersion" v:val="VT0(14):26"/>
					<v:ud v:nameU="msvThemeColors" v:val="VT0(36):26"/>
					<v:ud v:nameU="msvThemeEffects" v:val="VT0(16):26"/>
				</v:userDefs>
				<path d="M1.2 174.46 L0.32 174.46 L-0.12 175.22 L0.32 175.98 L1.2 175.98 L1.64 175.22 L1.2 174.46 Z" class="st8"/>
			</g>
			<g id="shape455-116" v:mID="455" v:groupContext="shape" transform="translate(2.30576,-47.5217)">
				<title>Sechseck.115</title>
				<v:userDefs>
					<v:ud v:nameU="visVersion" v:val="VT0(14):26"/>
					<v:ud v:nameU="msvThemeColors" v:val="VT0(36):26"/>
					<v:ud v:nameU="msvThemeEffects" v:val="VT0(16):26"/>
				</v:userDefs>
				<path d="M1.2 174.46 L0.32 174.46 L-0.12 175.22 L0.32 175.98 L1.2 175.98 L1.64 175.22 L1.2 174.46 Z" class="st8"/>
			</g>
			<g id="shape456-119" v:mID="456" v:groupContext="shape" transform="translate(13.5389,-53.4744)">
				<title>Sechseck.116</title>
				<v:userDefs>
					<v:ud v:nameU="visVersion" v:val="VT0(14):26"/>
					<v:ud v:nameU="msvThemeColors" v:val="VT0(36):26"/>
					<v:ud v:nameU="msvThemeEffects" v:val="VT0(16):26"/>
				</v:userDefs>
				<path d="M1.2 174.46 L0.32 174.46 L-0.12 175.22 L0.32 175.98 L1.2 175.98 L1.64 175.22 L1.2 174.46 Z" class="st8"/>
			</g>
			<g id="shape457-122" v:mID="457" v:groupContext="shape" transform="translate(4.95417,-53.3689)">
				<title>Sechseck.117</title>
				<v:userDefs>
					<v:ud v:nameU="visVersion" v:val="VT0(14):26"/>
					<v:ud v:nameU="msvThemeColors" v:val="VT0(36):26"/>
					<v:ud v:nameU="msvThemeEffects" v:val="VT0(16):26"/>
				</v:userDefs>
				<path d="M1.2 174.46 L0.32 174.46 L-0.12 175.22 L0.32 175.98 L1.2 175.98 L1.64 175.22 L1.2 174.46 Z" class="st8"/>
			</g>
			<g id="shape458-125" v:mID="458" v:groupContext="shape" transform="translate(4.379,-39.3012)">
				<title>Sechseck.118</title>
				<v:userDefs>
					<v:ud v:nameU="visVersion" v:val="VT0(14):26"/>
					<v:ud v:nameU="msvThemeColors" v:val="VT0(36):26"/>
					<v:ud v:nameU="msvThemeEffects" v:val="VT0(16):26"/>
				</v:userDefs>
				<path d="M1.2 174.46 L0.32 174.46 L-0.12 175.22 L0.32 175.98 L1.2 175.98 L1.64 175.22 L1.2 174.46 Z" class="st8"/>
			</g>
			<g id="shape459-128" v:mID="459" v:groupContext="shape" transform="translate(24.8774,-51.9516)">
				<title>Sechseck.119</title>
				<v:userDefs>
					<v:ud v:nameU="visVersion" v:val="VT0(14):26"/>
					<v:ud v:nameU="msvThemeColors" v:val="VT0(36):26"/>
					<v:ud v:nameU="msvThemeEffects" v:val="VT0(16):26"/>
				</v:userDefs>
				<path d="M1.2 174.46 L0.32 174.46 L-0.12 175.22 L0.32 175.98 L1.2 175.98 L1.64 175.22 L1.2 174.46 Z" class="st8"/>
			</g>
			<g id="shape460-131" v:mID="460" v:groupContext="shape" transform="translate(2.96168,-34.9437)">
				<title>Sechseck.120</title>
				<v:userDefs>
					<v:ud v:nameU="visVersion" v:val="VT0(14):26"/>
					<v:ud v:nameU="msvThemeColors" v:val="VT0(36):26"/>
					<v:ud v:nameU="msvThemeEffects" v:val="VT0(16):26"/>
				</v:userDefs>
				<path d="M1.2 174.46 L0.32 174.46 L-0.12 175.22 L0.32 175.98 L1.2 175.98 L1.64 175.22 L1.2 174.46 Z" class="st8"/>
			</g>
			<g id="shape461-134" v:mID="461" v:groupContext="shape" transform="translate(23.9613,-30.4218)">
				<title>Sechseck.122</title>
				<v:userDefs>
					<v:ud v:nameU="visVersion" v:val="VT0(14):26"/>
					<v:ud v:nameU="msvThemeColors" v:val="VT0(36):26"/>
					<v:ud v:nameU="msvThemeEffects" v:val="VT0(16):26"/>
				</v:userDefs>
				<path d="M1.2 174.46 L0.32 174.46 L-0.12 175.22 L0.32 175.98 L1.2 175.98 L1.64 175.22 L1.2 174.46 Z" class="st8"/>
			</g>
			<g id="shape462-137" v:mID="462" v:groupContext="shape" transform="translate(16.2187,-29.169)">
				<title>Sechseck.127</title>
				<v:userDefs>
					<v:ud v:nameU="visVersion" v:val="VT0(14):26"/>
					<v:ud v:nameU="msvThemeColors" v:val="VT0(36):26"/>
					<v:ud v:nameU="msvThemeEffects" v:val="VT0(16):26"/>
				</v:userDefs>
				<path d="M1.2 174.46 L0.32 174.46 L-0.12 175.22 L0.32 175.98 L1.2 175.98 L1.64 175.22 L1.2 174.46 Z" class="st8"/>
			</g>
			<g id="shape463-140" v:mID="463" v:groupContext="shape" transform="translate(18.9757,-32.765)">
				<title>Sechseck.128</title>
				<v:userDefs>
					<v:ud v:nameU="visVersion" v:val="VT0(14):26"/>
					<v:ud v:nameU="msvThemeColors" v:val="VT0(36):26"/>
					<v:ud v:nameU="msvThemeEffects" v:val="VT0(16):26"/>
				</v:userDefs>
				<path d="M1.2 174.46 L0.32 174.46 L-0.12 175.22 L0.32 175.98 L1.2 175.98 L1.64 175.22 L1.2 174.46 Z" class="st8"/>
			</g>
			<g id="shape464-143" v:mID="464" v:groupContext="shape" transform="translate(10.1538,-33.5264)">
				<title>Sechseck.129</title>
				<v:userDefs>
					<v:ud v:nameU="visVersion" v:val="VT0(14):26"/>
					<v:ud v:nameU="msvThemeColors" v:val="VT0(36):26"/>
					<v:ud v:nameU="msvThemeEffects" v:val="VT0(16):26"/>
				</v:userDefs>
				<path d="M1.2 174.46 L0.32 174.46 L-0.12 175.22 L0.32 175.98 L1.2 175.98 L1.64 175.22 L1.2 174.46 Z" class="st8"/>
			</g>
			<g id="shape465-146" v:mID="465" v:groupContext="shape" transform="translate(7.31912,-24.7473)">
				<title>Sechseck.131</title>
				<v:userDefs>
					<v:ud v:nameU="visVersion" v:val="VT0(14):26"/>
					<v:ud v:nameU="msvThemeColors" v:val="VT0(36):26"/>
					<v:ud v:nameU="msvThemeEffects" v:val="VT0(16):26"/>
				</v:userDefs>
				<path d="M1.2 174.46 L0.32 174.46 L-0.12 175.22 L0.32 175.98 L1.2 175.98 L1.64 175.22 L1.2 174.46 Z" class="st8"/>
			</g>
			<g id="shape466-149" v:mID="466" v:groupContext="shape" transform="translate(10.1538,-29.6551)">
				<title>Sechseck.136</title>
				<v:userDefs>
					<v:ud v:nameU="visVersion" v:val="VT0(14):26"/>
					<v:ud v:nameU="msvThemeColors" v:val="VT0(36):26"/>
					<v:ud v:nameU="msvThemeEffects" v:val="VT0(16):26"/>
				</v:userDefs>
				<path d="M1.2 174.46 L0.32 174.46 L-0.12 175.22 L0.32 175.98 L1.2 175.98 L1.64 175.22 L1.2 174.46 Z" class="st8"/>
			</g>
			<g id="shape467-152" v:mID="467" v:groupContext="shape" transform="translate(2.57652,-99.2126)">
				<title>Rechteck.40</title>
				<v:userDefs>
					<v:ud v:nameU="visVersion" v:val="VT0(14):26"/>
					<v:ud v:nameU="msvThemeColors" v:val="VT0(36):26"/>
					<v:ud v:nameU="msvThemeEffects" v:val="VT0(16):26"/>
				</v:userDefs>
				<rect x="0" y="156.238" width="23.3488" height="19.7398" class="st9"/>
			</g>
			<g id="shape468-156" v:mID="468" v:groupContext="shape" transform="translate(38.0096,-99.2126)">
				<title>Rechteck.41</title>
				<v:userDefs>
					<v:ud v:nameU="visVersion" v:val="VT0(14):26"/>
					<v:ud v:nameU="msvThemeColors" v:val="VT0(36):26"/>
					<v:ud v:nameU="msvThemeEffects" v:val="VT0(16):26"/>
				</v:userDefs>
				<rect x="0" y="156.238" width="23.3488" height="19.7398" class="st9"/>
			</g>
		</g>
		<g id="group469-159" transform="translate(270.701,-42.3489)" v:mID="469" v:groupContext="group">
			<v:userDefs>
				<v:ud v:nameU="msvThemeColors" v:val="VT0(36):26"/>
				<v:ud v:nameU="msvThemeEffects" v:val="VT0(16):26"/>
			</v:userDefs>
			<title>Tabelle.469</title>
			<g id="shape470-160" v:mID="470" v:groupContext="shape" transform="translate(-2.39808E-014,-3.31085)">
				<title>Tabelle.470</title>
				<v:userDefs>
					<v:ud v:nameU="msvThemeColors" v:val="VT0(36):26"/>
					<v:ud v:nameU="msvThemeEffects" v:val="VT0(16):26"/>
				</v:userDefs>
				<path d="M0 148.44 L0 163.78 L0 168.11 A9.96592 7.86783 -180 0 0 9.97 175.98 L69.76 175.98 A9.96592 7.86783 -180
							 0 0 79.73 168.11 L79.73 163.78 L79.73 148.44 L79.73 138.61 L0 138.61 L0 148.44 Z" class="st10"/>
			</g>
			<g id="shape471-164" v:mID="471" v:groupContext="shape" transform="translate(0.145089,272.703) rotate(-150)">
				<title>Tabelle.471</title>
				<v:userDefs>
					<v:ud v:nameU="msvThemeColors" v:val="VT0(36):26"/>
					<v:ud v:nameU="msvThemeEffects" v:val="VT0(16):26"/>
				</v:userDefs>
				<path d="M0 159.04 L0 168.11 A9.96592 7.86783 -180 0 0 9.97 175.98 L69.76 175.98 A9.96592 7.86783 -180 0 0 79.73
							 168.11 L79.73 159.04 L0 159.04 Z" class="st10"/>
			</g>
			<g id="shape472-167" v:mID="472" v:groupContext="shape" transform="translate(9.96584,0)">
				<title>Rechteck.126</title>
				<v:userDefs>
					<v:ud v:nameU="visVersion" v:val="VT0(14):26"/>
					<v:ud v:nameU="msvThemeColors" v:val="VT0(36):26"/>
					<v:ud v:nameU="msvThemeEffects" v:val="VT0(16):26"/>
				</v:userDefs>
				<rect x="0" y="172.988" width="3.98634" height="2.98975" class="st11"/>
			</g>
			<g id="shape473-170" v:mID="473" v:groupContext="shape" transform="translate(65.7746,0)">
				<title>Rechteck.127</title>
				<v:userDefs>
					<v:ud v:nameU="visVersion" v:val="VT0(14):26"/>
					<v:ud v:nameU="msvThemeColors" v:val="VT0(36):26"/>
					<v:ud v:nameU="msvThemeEffects" v:val="VT0(16):26"/>
				</v:userDefs>
				<rect x="0" y="172.988" width="3.98634" height="2.98975" class="st11"/>
			</g>
			<g id="shape474-173" v:mID="474" v:groupContext="shape" transform="translate(22.2754,-4.84513)">
				<title>Tabelle.474</title>
				<path d="M25.33 155.13 L30.25 160 L35.18 155.13 L32.55 155.13 A15.3159 15.3159 -180 0 0 20.78 143.41 L20.78 148.41
							 A10.4793 10.4793 0 0 1 27.55 155.13 L25.33 155.13 ZM13.52 150.99 L18.39 146.06 L13.52 141.14 L13.52
							 143.62 A15.3159 15.3159 -180 0 0 2.62 155.17 L7.62 155.17 A10.4793 10.4793 0 0 1 13.52 148.73 L13.52
							 150.99 ZM20.81 175.98 L20.81 173.36 A15.3159 15.3159 -180 0 0 32.56 161.61 L27.56 161.61 A10.4793 10.4793
							 0 0 1 20.81 168.36 L20.81 166.13 L15.94 171.05 L20.81 175.98 ZM7.63 161.65 L9.85 161.65 L4.93 156.78
							 L0 161.65 L2.62 161.65 A15.3159 15.3159 -180 0 0 14.4 173.37 L14.4 168.37 A10.4793 10.4793 0 0 1 7.63
							 161.65 Z" class="st12"/>
			</g>
		</g>
	</g>
</svg>
