<?xml version="1.0" encoding="UTF-8" standalone="no"?>
<!DOCTYPE svg PUBLIC "-//W3C//DTD SVG 1.1//EN" "http://www.w3.org/Graphics/SVG/1.1/DTD/svg11.dtd">
<!-- Generiert durch Microsoft Visio, SVG Export 11.svg Page-1 -->
<svg xmlns="http://www.w3.org/2000/svg" xmlns:xlink="http://www.w3.org/1999/xlink" xmlns:ev="http://www.w3.org/2001/xml-events"
		xmlns:v="http://schemas.microsoft.com/visio/2003/SVGExtensions/" width="5.20768in" height="2.44414in"
		viewBox="0 0 374.953 175.978" xml:space="preserve" color-interpolation-filters="sRGB" class="st12">
	<v:documentProperties v:langID="1031" v:metric="true" v:viewMarkup="false">
		<v:userDefs>
			<v:ud v:nameU="msvNoAutoConnect" v:val="VT0(0):26"/>
			<v:ud v:nameU="msvConvertTheme"/>
		</v:userDefs>
	</v:documentProperties>

	<style type="text/css">
	<![CDATA[
		.st1 {fill:#000000;stroke:none;stroke-linecap:round;stroke-linejoin:round;stroke-width:0.75}
		.st2 {fill:url(#grad0-6);stroke:#ffffff;stroke-linecap:round;stroke-linejoin:round;stroke-width:0.25}
		.st3 {fill:none;stroke:none;stroke-linecap:round;stroke-linejoin:round;stroke-width:0.25}
		.st4 {fill:url(#grad0-17);stroke:#000000;stroke-linecap:round;stroke-linejoin:round;stroke-width:1.5}
		.st5 {fill:url(#grad0-21);stroke:none;stroke-linecap:round;stroke-linejoin:round;stroke-width:0.25}
		.st6 {fill:none;stroke:#000000;stroke-linecap:round;stroke-linejoin:round;stroke-width:1}
		.st7 {fill:url(#grad0-6);stroke:none;stroke-linecap:round;stroke-linejoin:round;stroke-width:0.25}
		.st8 {fill:url(#grad0-52);stroke:#000000;stroke-linecap:round;stroke-linejoin:round;stroke-width:1.5}
		.st9 {fill:url(#grad0-56);stroke:none;stroke-linecap:round;stroke-linejoin:round;stroke-width:0.25}
		.st10 {fill:url(#grad0-6);stroke:#404040;stroke-linecap:round;stroke-linejoin:round;stroke-width:0.25}
		.st11 {fill:url(#grad0-52);stroke:#c00000;stroke-linecap:round;stroke-linejoin:round;stroke-width:0.25}
		.st12 {fill:none;fill-rule:evenodd;font-size:12px;overflow:visible;stroke-linecap:square;stroke-miterlimit:3}
	]]>
	</style>

	<defs id="Patterns_And_Gradients">
		<linearGradient id="grad0-6" x1="0" y1="0" x2="1" y2="0" gradientTransform="rotate(270 0.5 0.5)">
			<stop offset="0" stop-color="#f0f0f0" stop-opacity="1"/>
			<stop offset="1" stop-color="#ffffff" stop-opacity="1"/>
		</linearGradient>
		<linearGradient id="grad0-17" x1="0" y1="0" x2="1" y2="0" gradientTransform="rotate(270 0.5 0.5)">
			<stop offset="0" stop-color="#363636" stop-opacity="1"/>
			<stop offset="1" stop-color="#3f3f3f" stop-opacity="1"/>
		</linearGradient>
		<linearGradient id="grad0-21" x1="0" y1="0" x2="1" y2="0" gradientTransform="rotate(270 0.5 0.5)">
			<stop offset="0" stop-color="#c9c9c9" stop-opacity="1"/>
			<stop offset="1" stop-color="#d8d8d8" stop-opacity="1"/>
		</linearGradient>
		<linearGradient id="grad0-52" x1="0" y1="0" x2="1" y2="0" gradientTransform="rotate(270 0.5 0.5)">
			<stop offset="0" stop-color="#a60000" stop-opacity="1"/>
			<stop offset="1" stop-color="#c00000" stop-opacity="1"/>
		</linearGradient>
		<linearGradient id="grad0-56" x1="0" y1="0" x2="1" y2="0" gradientTransform="rotate(270 0.5 0.5)">
			<stop offset="0" stop-color="#e1a900" stop-opacity="1"/>
			<stop offset="1" stop-color="#ffc000" stop-opacity="1"/>
		</linearGradient>
	</defs>
	<g v:mID="4" v:index="1" v:groupContext="backgroundPage">
		<v:userDefs>
			<v:ud v:nameU="msvThemeColors" v:val="VT0(36):26"/>
			<v:ud v:nameU="msvThemeEffects" v:val="VT0(16):26"/>
			<v:ud v:nameU="msvThemeOrder" v:val="VT0(0):26"/>
			<v:ud v:nameU="msvVisioCreated" v:prompt="" v:val="VT0(0):26"/>
		</v:userDefs>
		<title>VHintergrund-1</title>
		<v:pageProperties width="5.20768" height="2.44414" v:drawingScale="0.0393701" v:pageScale="0.0393701" v:drawingUnits="24"
				v:shadowOffsetX="8.50394" v:shadowOffsetY="-8.50394"/>
		<g id="shape1-1" v:mID="1" v:groupContext="shape">
			<title>Vollton</title>
			<v:userDefs>
				<v:ud v:nameU="Background" v:val="VT0(0):26"/>
				<v:ud v:nameU="visVersion" v:val="VT0(14):26"/>
				<v:ud v:nameU="msvShapeCategories" v:prompt="" v:val="VT4(DoNotContain)"/>
				<v:ud v:nameU="msvThemeColors" v:val="VT0(36):26"/>
				<v:ud v:nameU="msvVisioCreated" v:prompt="" v:val="VT0(0):26"/>
			</v:userDefs>
			<rect x="0" y="0" width="374.953" height="175.978" class="st1"/>
		</g>
		<g id="shape2-3" v:mID="2" v:groupContext="shape" transform="translate(222.201,234.318) rotate(180)">
			<title>Pfeil 60 Grad-Spitze</title>
			<v:userDefs>
				<v:ud v:nameU="visVersion" v:val="VT0(14):26"/>
				<v:ud v:nameU="msvThemeColors" v:val="VT0(36):26"/>
				<v:ud v:nameU="msvThemeEffects" v:val="VT0(16):26"/>
			</v:userDefs>
			<path d="M0 168.89 L4.09 161.8 L4.09 166.48 L69.45 166.48 L69.45 171.3 L4.09 171.3 L4.09 175.98 L0 168.89 Z"
					class="st2"/>
		</g>
	</g>
	<g v:mID="0" v:index="2" v:groupContext="foregroundPage">
		<v:userDefs>
			<v:ud v:nameU="msvThemeColors" v:val="VT0(36):26"/>
			<v:ud v:nameU="msvThemeEffects" v:val="VT0(16):26"/>
			<v:ud v:nameU="msvThemeOrder" v:val="VT0(0):26"/>
		</v:userDefs>
		<title>Zeichenblatt-1</title>
		<v:pageProperties v:drawingScale="0.0393701" v:pageScale="0.0393701" v:drawingUnits="24" v:shadowOffsetX="8.50394"
				v:shadowOffsetY="-8.50394"/>
		<v:layer v:name="Flussdiagramm" v:index="0"/>
		<v:layer v:name="Verbinder" v:index="1"/>
		<g id="shape195-7" v:mID="195" v:groupContext="shape" transform="translate(125.787,-123.895)">
			<title>Rechteck.195</title>
			<v:userDefs>
				<v:ud v:nameU="visVersion" v:val="VT0(15):26"/>
				<v:ud v:nameU="msvThemeColors" v:val="VT0(36):26"/>
				<v:ud v:nameU="msvThemeEffects" v:val="VT0(16):26"/>
			</v:userDefs>
			<rect x="0" y="128.965" width="123.307" height="47.0131" class="st3"/>
		</g>
		<g id="shape192-9" v:mID="192" v:groupContext="shape" transform="translate(1.59872E-014,-2.26772)">
			<title>Rechteck.13.192</title>
			<v:userDefs>
				<v:ud v:nameU="visVersion" v:val="VT0(15):26"/>
				<v:ud v:nameU="msvThemeColors" v:val="VT0(36):26"/>
				<v:ud v:nameU="msvThemeEffects" v:val="VT0(16):26"/>
			</v:userDefs>
			<rect x="0" y="3.63146" width="123.307" height="172.346" class="st3"/>
		</g>
		<g id="shape194-11" v:mID="194" v:groupContext="shape" transform="translate(251.575,-2.26772)">
			<title>Rechteck.194</title>
			<v:userDefs>
				<v:ud v:nameU="visVersion" v:val="VT0(15):26"/>
				<v:ud v:nameU="msvThemeColors" v:val="VT0(36):26"/>
				<v:ud v:nameU="msvThemeEffects" v:val="VT0(16):26"/>
			</v:userDefs>
			<rect x="0" y="3.63146" width="123.307" height="172.346" class="st3"/>
		</g>
		<g id="group275-13" transform="translate(47.3641,-28.9647)" v:mID="275" v:groupContext="group">
			<v:userDefs>
				<v:ud v:nameU="msvThemeColors" v:val="VT0(36):26"/>
				<v:ud v:nameU="msvThemeEffects" v:val="VT0(16):26"/>
			</v:userDefs>
			<title>Tabelle.275</title>
			<g id="shape276-14" v:mID="276" v:groupContext="shape" transform="translate(2.3955,-99.2126)">
				<title>Rechteck.32</title>
				<v:userDefs>
					<v:ud v:nameU="visVersion" v:val="VT0(14):26"/>
					<v:ud v:nameU="msvThemeColors" v:val="VT0(36):26"/>
					<v:ud v:nameU="msvThemeEffects" v:val="VT0(16):26"/>
				</v:userDefs>
				<rect x="0" y="163.638" width="23.3488" height="12.34" class="st4"/>
			</g>
			<g id="shape277-18" v:mID="277" v:groupContext="shape" transform="translate(0.0130908,-28.3465)">
				<title>Rechteck.111</title>
				<v:userDefs>
					<v:ud v:nameU="visVersion" v:val="VT0(14):26"/>
					<v:ud v:nameU="msvThemeColors" v:val="VT0(36):26"/>
					<v:ud v:nameU="msvThemeEffects" v:val="VT0(16):26"/>
				</v:userDefs>
				<rect x="0" y="137.71" width="28.5018" height="38.2677" class="st5"/>
			</g>
			<g id="shape278-22" v:mID="278" v:groupContext="shape" transform="translate(3.1312,-14.1452)">
				<title>Kreis.4</title>
				<v:userDefs>
					<v:ud v:nameU="visVersion" v:val="VT0(14):26"/>
					<v:ud v:nameU="msvThemeColors" v:val="VT0(36):26"/>
					<v:ud v:nameU="msvThemeEffects" v:val="VT0(16):26"/>
				</v:userDefs>
				<path d="M0 173.71 A2.26772 2.26772 0 0 1 4.54 173.71 A2.26772 2.26772 0 1 1 0 173.71 Z" class="st6"/>
			</g>
			<g id="shape279-24" v:mID="279" v:groupContext="shape" transform="translate(20.1391,-14.1452)">
				<title>Kreis.8</title>
				<v:userDefs>
					<v:ud v:nameU="visVersion" v:val="VT0(14):26"/>
					<v:ud v:nameU="msvThemeColors" v:val="VT0(36):26"/>
					<v:ud v:nameU="msvThemeEffects" v:val="VT0(16):26"/>
				</v:userDefs>
				<path d="M0 173.71 A2.26772 2.26772 0 0 1 4.54 173.71 A2.26772 2.26772 0 1 1 0 173.71 Z" class="st6"/>
			</g>
			<g id="shape280-26" v:mID="280" v:groupContext="shape" transform="translate(11.6351,-17.6773)">
				<title>Kreis.9</title>
				<v:userDefs>
					<v:ud v:nameU="visVersion" v:val="VT0(14):26"/>
					<v:ud v:nameU="msvThemeColors" v:val="VT0(36):26"/>
					<v:ud v:nameU="msvThemeEffects" v:val="VT0(16):26"/>
				</v:userDefs>
				<path d="M0 173.71 A2.26772 2.26772 0 0 1 4.54 173.71 A2.26772 2.26772 0 1 1 0 173.71 Z" class="st6"/>
			</g>
			<g id="shape281-28" v:mID="281" v:groupContext="shape" transform="translate(2.58904,-99.2126)">
				<title>Rechteck.127</title>
				<v:userDefs>
					<v:ud v:nameU="visVersion" v:val="VT0(14):26"/>
					<v:ud v:nameU="msvThemeColors" v:val="VT0(36):26"/>
					<v:ud v:nameU="msvThemeEffects" v:val="VT0(16):26"/>
				</v:userDefs>
				<rect x="0" y="163.638" width="23.3488" height="12.34" class="st4"/>
			</g>
			<g id="shape282-31" v:mID="282" v:groupContext="shape" transform="translate(0.0130908,-28.3465)">
				<title>Rechteck.35</title>
				<v:userDefs>
					<v:ud v:nameU="visVersion" v:val="VT0(14):26"/>
					<v:ud v:nameU="msvThemeColors" v:val="VT0(36):26"/>
					<v:ud v:nameU="msvThemeEffects" v:val="VT0(16):26"/>
				</v:userDefs>
				<rect x="0" y="137.71" width="28.5018" height="38.2677" class="st5"/>
			</g>
			<g id="shape283-34" v:mID="283" v:groupContext="shape">
				<title>Tabelle.283</title>
				<v:userDefs>
					<v:ud v:nameU="msvThemeColors" v:val="VT0(36):26"/>
					<v:ud v:nameU="msvThemeEffects" v:val="VT0(16):26"/>
				</v:userDefs>
				<path d="M28.5 155.53 L28.5 86.24 L28.49 86.24 A7.26384 6.94575 -180 0 0 23.46 79.95 L23.46 68.63 L5.04 68.63 L5.04
							 79.95 A7.26384 6.94575 -180 0 0 0.01 86.24 L0 86.24 L0 155.53 L12.75 174.56 L12.81 174.56 A29.0551 4.85436
							 -90 0 0 14.3 175.98 A29.0551 4.85436 -90 0 0 15.01 175.67 L28.5 155.53 Z" class="st7"/>
			</g>
			<g id="shape284-37" v:mID="284" v:groupContext="shape" transform="translate(0.0771364,-28.3465)">
				<title>Rechteck.117</title>
				<v:userDefs>
					<v:ud v:nameU="visVersion" v:val="VT0(14):26"/>
					<v:ud v:nameU="msvThemeColors" v:val="VT0(36):26"/>
					<v:ud v:nameU="msvThemeEffects" v:val="VT0(16):26"/>
				</v:userDefs>
				<rect x="0" y="150.466" width="28.5018" height="25.5118" class="st5"/>
			</g>
			<g id="shape285-40" v:mID="285" v:groupContext="shape" transform="translate(2.58904,-99.2126)">
				<title>Rechteck.118</title>
				<v:userDefs>
					<v:ud v:nameU="visVersion" v:val="VT0(14):26"/>
					<v:ud v:nameU="msvThemeColors" v:val="VT0(36):26"/>
					<v:ud v:nameU="msvThemeEffects" v:val="VT0(16):26"/>
				</v:userDefs>
				<rect x="0" y="163.638" width="23.3488" height="12.34" class="st4"/>
			</g>
			<g id="shape286-43" v:mID="286" v:groupContext="shape" transform="translate(2.58904,-99.2126)">
				<title>Rechteck.112</title>
				<v:userDefs>
					<v:ud v:nameU="visVersion" v:val="VT0(14):26"/>
					<v:ud v:nameU="msvThemeColors" v:val="VT0(36):26"/>
					<v:ud v:nameU="msvThemeEffects" v:val="VT0(16):26"/>
				</v:userDefs>
				<rect x="0" y="163.638" width="23.3488" height="12.34" class="st4"/>
			</g>
			<g id="shape287-46" v:mID="287" v:groupContext="shape" transform="translate(2.58904,-99.2126)">
				<title>Rechteck.113</title>
				<v:userDefs>
					<v:ud v:nameU="visVersion" v:val="VT0(14):26"/>
					<v:ud v:nameU="msvThemeColors" v:val="VT0(36):26"/>
					<v:ud v:nameU="msvThemeEffects" v:val="VT0(16):26"/>
				</v:userDefs>
				<rect x="0" y="163.638" width="23.3488" height="12.34" class="st4"/>
			</g>
			<g id="shape288-49" v:mID="288" v:groupContext="shape" transform="translate(2.57652,-99.2126)">
				<title>Rechteck.3</title>
				<v:userDefs>
					<v:ud v:nameU="visVersion" v:val="VT0(14):26"/>
					<v:ud v:nameU="msvThemeColors" v:val="VT0(36):26"/>
					<v:ud v:nameU="msvThemeEffects" v:val="VT0(16):26"/>
				</v:userDefs>
				<rect x="0" y="156.238" width="23.3488" height="19.7398" class="st8"/>
			</g>
			<g id="shape289-53" v:mID="289" v:groupContext="shape">
				<title>Tabelle.289</title>
				<v:userDefs>
					<v:ud v:nameU="msvThemeColors" v:val="VT0(36):26"/>
					<v:ud v:nameU="msvThemeEffects" v:val="VT0(16):26"/>
				</v:userDefs>
				<path d="M0 144.37 L0 148.32 L0.08 148.32 L0.08 155.76 L12.67 174.56 L12.73 174.56 A29.0551 4.85436 -90 0 0 14.23
							 175.98 A29.0551 4.85436 -90 0 0 14.94 175.67 L28.58 155.3 L28.58 144.69 L28.5 144.69 L28.5 144.37 L0
							 144.37 Z" class="st9"/>
			</g>
			<g id="shape290-57" v:mID="290" v:groupContext="shape" transform="translate(4.48448,-15.3071)">
				<title>Kreis.112</title>
				<v:userDefs>
					<v:ud v:nameU="visVersion" v:val="VT0(14):26"/>
					<v:ud v:nameU="msvThemeColors" v:val="VT0(36):26"/>
					<v:ud v:nameU="msvThemeEffects" v:val="VT0(16):26"/>
				</v:userDefs>
				<path d="M0 173.71 A2.26772 2.26772 0 0 1 4.54 173.71 A2.26772 2.26772 0 1 1 0 173.71 Z" class="st6"/>
			</g>
			<g id="shape291-59" v:mID="291" v:groupContext="shape" transform="translate(12.9884,-4.8189)">
				<title>Kreis.113</title>
				<v:userDefs>
					<v:ud v:nameU="visVersion" v:val="VT0(14):26"/>
					<v:ud v:nameU="msvThemeColors" v:val="VT0(36):26"/>
					<v:ud v:nameU="msvThemeEffects" v:val="VT0(16):26"/>
				</v:userDefs>
				<path d="M0 173.71 A2.26772 2.26772 0 0 1 4.54 173.71 A2.26772 2.26772 0 1 1 0 173.71 Z" class="st6"/>
			</g>
			<g id="shape292-61" v:mID="292" v:groupContext="shape" transform="translate(20.075,-14.6096)">
				<title>Kreis.114</title>
				<v:userDefs>
					<v:ud v:nameU="visVersion" v:val="VT0(14):26"/>
					<v:ud v:nameU="msvThemeColors" v:val="VT0(36):26"/>
					<v:ud v:nameU="msvThemeEffects" v:val="VT0(16):26"/>
				</v:userDefs>
				<path d="M0 173.71 A2.26772 2.26772 0 0 1 4.54 173.71 A2.26772 2.26772 0 1 1 0 173.71 Z" class="st6"/>
			</g>
			<g id="shape293-63" v:mID="293" v:groupContext="shape" transform="translate(11.5711,-18.1417)">
				<title>Kreis.115</title>
				<v:userDefs>
					<v:ud v:nameU="visVersion" v:val="VT0(14):26"/>
					<v:ud v:nameU="msvThemeColors" v:val="VT0(36):26"/>
					<v:ud v:nameU="msvThemeEffects" v:val="VT0(16):26"/>
				</v:userDefs>
				<path d="M0 173.71 A2.26772 2.26772 0 0 1 4.54 173.71 A2.26772 2.26772 0 1 1 0 173.71 Z" class="st6"/>
			</g>
		</g>
		<g id="group294-65" transform="translate(280.382,-25.49)" v:mID="294" v:groupContext="group">
			<v:userDefs>
				<v:ud v:nameU="msvThemeColors" v:val="VT0(36):26"/>
				<v:ud v:nameU="msvThemeEffects" v:val="VT0(16):26"/>
			</v:userDefs>
			<title>Tabelle.294</title>
			<g id="group295-66" transform="translate(35.8606,-60.5263)" v:mID="295" v:groupContext="group">
				<v:userDefs>
					<v:ud v:nameU="msvThemeColors" v:val="VT0(36):26"/>
					<v:ud v:nameU="msvThemeEffects" v:val="VT0(16):26"/>
				</v:userDefs>
				<title>Tabelle.295</title>
				<g id="shape296-67" v:mID="296" v:groupContext="shape" transform="translate(1.31655,-54.5266)">
					<title>Rechteck.32</title>
					<v:userDefs>
						<v:ud v:nameU="visVersion" v:val="VT0(14):26"/>
						<v:ud v:nameU="msvThemeColors" v:val="VT0(36):26"/>
						<v:ud v:nameU="msvThemeEffects" v:val="VT0(16):26"/>
					</v:userDefs>
					<rect x="0" y="169.196" width="12.8324" height="6.78199" class="st4"/>
				</g>
				<g id="shape297-70" v:mID="297" v:groupContext="shape" transform="translate(0.00719461,-15.579)">
					<title>Rechteck.111</title>
					<v:userDefs>
						<v:ud v:nameU="visVersion" v:val="VT0(14):26"/>
						<v:ud v:nameU="msvThemeColors" v:val="VT0(36):26"/>
						<v:ud v:nameU="msvThemeEffects" v:val="VT0(16):26"/>
					</v:userDefs>
					<rect x="0" y="154.946" width="15.6644" height="21.0317" class="st5"/>
				</g>
				<g id="shape298-73" v:mID="298" v:groupContext="shape" transform="translate(1.72089,-7.77409)">
					<title>Kreis.4</title>
					<v:userDefs>
						<v:ud v:nameU="visVersion" v:val="VT0(14):26"/>
						<v:ud v:nameU="msvThemeColors" v:val="VT0(36):26"/>
						<v:ud v:nameU="msvThemeEffects" v:val="VT0(16):26"/>
					</v:userDefs>
					<path d="M0 174.73 A1.24632 1.24632 0 0 1 2.49 174.73 A1.24632 1.24632 0 1 1 0 174.73 Z" class="st6"/>
				</g>
				<g id="shape299-75" v:mID="299" v:groupContext="shape" transform="translate(11.0683,-7.77409)">
					<title>Kreis.8</title>
					<v:userDefs>
						<v:ud v:nameU="visVersion" v:val="VT0(14):26"/>
						<v:ud v:nameU="msvThemeColors" v:val="VT0(36):26"/>
						<v:ud v:nameU="msvThemeEffects" v:val="VT0(16):26"/>
					</v:userDefs>
					<path d="M0 174.73 A1.24632 1.24632 0 0 1 2.49 174.73 A1.24632 1.24632 0 1 1 0 174.73 Z" class="st6"/>
				</g>
				<g id="shape300-77" v:mID="300" v:groupContext="shape" transform="translate(6.39459,-9.71532)">
					<title>Kreis.9</title>
					<v:userDefs>
						<v:ud v:nameU="visVersion" v:val="VT0(14):26"/>
						<v:ud v:nameU="msvThemeColors" v:val="VT0(36):26"/>
						<v:ud v:nameU="msvThemeEffects" v:val="VT0(16):26"/>
					</v:userDefs>
					<path d="M0 174.73 A1.24632 1.24632 0 0 1 2.49 174.73 A1.24632 1.24632 0 1 1 0 174.73 Z" class="st6"/>
				</g>
				<g id="shape301-79" v:mID="301" v:groupContext="shape" transform="translate(1.42292,-54.5266)">
					<title>Rechteck.127</title>
					<v:userDefs>
						<v:ud v:nameU="visVersion" v:val="VT0(14):26"/>
						<v:ud v:nameU="msvThemeColors" v:val="VT0(36):26"/>
						<v:ud v:nameU="msvThemeEffects" v:val="VT0(16):26"/>
					</v:userDefs>
					<rect x="0" y="169.196" width="12.8324" height="6.78199" class="st4"/>
				</g>
				<g id="shape302-82" v:mID="302" v:groupContext="shape" transform="translate(0.00719461,-15.579)">
					<title>Rechteck.35</title>
					<v:userDefs>
						<v:ud v:nameU="visVersion" v:val="VT0(14):26"/>
						<v:ud v:nameU="msvThemeColors" v:val="VT0(36):26"/>
						<v:ud v:nameU="msvThemeEffects" v:val="VT0(16):26"/>
					</v:userDefs>
					<rect x="0" y="154.946" width="15.6644" height="21.0317" class="st5"/>
				</g>
				<g id="shape303-85" v:mID="303" v:groupContext="shape">
					<title>Tabelle.303</title>
					<v:userDefs>
						<v:ud v:nameU="msvThemeColors" v:val="VT0(36):26"/>
						<v:ud v:nameU="msvThemeEffects" v:val="VT0(16):26"/>
					</v:userDefs>
					<path d="M15.66 164.74 L15.66 126.66 L15.66 126.66 A3.99216 3.81734 -180 0 0 12.9 123.2 L12.9 116.98 L2.77 116.98
								 L2.77 123.2 A3.99216 3.81734 -180 0 0 0 126.66 L0 126.66 L0 164.74 L7.01 175.2 L7.04 175.2 A15.9685
								 2.66792 -90 0 0 7.86 175.98 A15.9685 2.66792 -90 0 0 8.25 175.81 L15.66 164.74 Z" class="st7"/>
				</g>
				<g id="shape304-88" v:mID="304" v:groupContext="shape" transform="translate(0.0423936,-15.579)">
					<title>Rechteck.117</title>
					<v:userDefs>
						<v:ud v:nameU="visVersion" v:val="VT0(14):26"/>
						<v:ud v:nameU="msvThemeColors" v:val="VT0(36):26"/>
						<v:ud v:nameU="msvThemeEffects" v:val="VT0(16):26"/>
					</v:userDefs>
					<rect x="0" y="161.957" width="15.6644" height="14.0211" class="st5"/>
				</g>
				<g id="shape305-91" v:mID="305" v:groupContext="shape" transform="translate(1.42292,-54.5266)">
					<title>Rechteck.118</title>
					<v:userDefs>
						<v:ud v:nameU="visVersion" v:val="VT0(14):26"/>
						<v:ud v:nameU="msvThemeColors" v:val="VT0(36):26"/>
						<v:ud v:nameU="msvThemeEffects" v:val="VT0(16):26"/>
					</v:userDefs>
					<rect x="0" y="169.196" width="12.8324" height="6.78199" class="st4"/>
				</g>
				<g id="shape306-94" v:mID="306" v:groupContext="shape" transform="translate(1.42292,-54.5266)">
					<title>Rechteck.112</title>
					<v:userDefs>
						<v:ud v:nameU="visVersion" v:val="VT0(14):26"/>
						<v:ud v:nameU="msvThemeColors" v:val="VT0(36):26"/>
						<v:ud v:nameU="msvThemeEffects" v:val="VT0(16):26"/>
					</v:userDefs>
					<rect x="0" y="169.196" width="12.8324" height="6.78199" class="st4"/>
				</g>
				<g id="shape307-97" v:mID="307" v:groupContext="shape" transform="translate(1.42292,-54.5266)">
					<title>Rechteck.113</title>
					<v:userDefs>
						<v:ud v:nameU="visVersion" v:val="VT0(14):26"/>
						<v:ud v:nameU="msvThemeColors" v:val="VT0(36):26"/>
						<v:ud v:nameU="msvThemeEffects" v:val="VT0(16):26"/>
					</v:userDefs>
					<rect x="0" y="169.196" width="12.8324" height="6.78199" class="st4"/>
				</g>
				<g id="shape308-100" v:mID="308" v:groupContext="shape" transform="translate(1.41604,-54.5266)">
					<title>Rechteck.3</title>
					<v:userDefs>
						<v:ud v:nameU="visVersion" v:val="VT0(14):26"/>
						<v:ud v:nameU="msvThemeColors" v:val="VT0(36):26"/>
						<v:ud v:nameU="msvThemeEffects" v:val="VT0(16):26"/>
					</v:userDefs>
					<rect x="0" y="165.129" width="12.8324" height="10.8489" class="st8"/>
				</g>
				<g id="shape309-103" v:mID="309" v:groupContext="shape">
					<title>Tabelle.309</title>
					<v:userDefs>
						<v:ud v:nameU="msvThemeColors" v:val="VT0(36):26"/>
						<v:ud v:nameU="msvThemeEffects" v:val="VT0(16):26"/>
					</v:userDefs>
					<path d="M0 158.61 L0 160.78 L0.04 160.78 L0.04 164.87 L6.96 175.2 L7 175.2 A15.9685 2.66792 -90 0 0 7.82 175.98
								 A15.9685 2.66792 -90 0 0 8.21 175.81 L15.71 164.61 L15.71 158.78 L15.66 158.78 L15.66 158.61 L0
								 158.61 Z" class="st9"/>
				</g>
				<g id="shape310-106" v:mID="310" v:groupContext="shape" transform="translate(2.46464,-8.41267)">
					<title>Kreis.112</title>
					<v:userDefs>
						<v:ud v:nameU="visVersion" v:val="VT0(14):26"/>
						<v:ud v:nameU="msvThemeColors" v:val="VT0(36):26"/>
						<v:ud v:nameU="msvThemeEffects" v:val="VT0(16):26"/>
					</v:userDefs>
					<path d="M0 174.73 A1.24632 1.24632 0 0 1 2.49 174.73 A1.24632 1.24632 0 1 1 0 174.73 Z" class="st6"/>
				</g>
				<g id="shape311-108" v:mID="311" v:groupContext="shape" transform="translate(7.13835,-2.64843)">
					<title>Kreis.113</title>
					<v:userDefs>
						<v:ud v:nameU="visVersion" v:val="VT0(14):26"/>
						<v:ud v:nameU="msvThemeColors" v:val="VT0(36):26"/>
						<v:ud v:nameU="msvThemeEffects" v:val="VT0(16):26"/>
					</v:userDefs>
					<path d="M0 174.73 A1.24632 1.24632 0 0 1 2.49 174.73 A1.24632 1.24632 0 1 1 0 174.73 Z" class="st6"/>
				</g>
				<g id="shape312-110" v:mID="312" v:groupContext="shape" transform="translate(11.0331,-8.02934)">
					<title>Kreis.114</title>
					<v:userDefs>
						<v:ud v:nameU="visVersion" v:val="VT0(14):26"/>
						<v:ud v:nameU="msvThemeColors" v:val="VT0(36):26"/>
						<v:ud v:nameU="msvThemeEffects" v:val="VT0(16):26"/>
					</v:userDefs>
					<path d="M0 174.73 A1.24632 1.24632 0 0 1 2.49 174.73 A1.24632 1.24632 0 1 1 0 174.73 Z" class="st6"/>
				</g>
				<g id="shape313-112" v:mID="313" v:groupContext="shape" transform="translate(6.35939,-9.97057)">
					<title>Kreis.115</title>
					<v:userDefs>
						<v:ud v:nameU="visVersion" v:val="VT0(14):26"/>
						<v:ud v:nameU="msvThemeColors" v:val="VT0(36):26"/>
						<v:ud v:nameU="msvThemeEffects" v:val="VT0(16):26"/>
					</v:userDefs>
					<path d="M0 174.73 A1.24632 1.24632 0 0 1 2.49 174.73 A1.24632 1.24632 0 1 1 0 174.73 Z" class="st6"/>
				</g>
			</g>
			<g id="shape314-114" v:mID="314" v:groupContext="shape" transform="translate(29.4631,-52.6822)">
				<title>Tabelle.314</title>
				<v:userDefs>
					<v:ud v:nameU="msvThemeColors" v:val="VT0(36):26"/>
					<v:ud v:nameU="msvThemeEffects" v:val="VT0(16):26"/>
				</v:userDefs>
				<path d="M28.5 146.76 L28.5 145.18 L28.5 122.29 L28.5 120.71 L27.65 120.71 L0.85 120.71 L0 120.71 L0 122.29 L0 145.18
							 L0 146.76 L0 168.08 L0.43 168.08 L0.85 168.08 L10.64 168.08 L10.64 175.98 L17.1 175.98 L17.1 168.08
							 L27.65 168.08 L27.99 168.08 L28.5 168.08 L28.5 146.76 ZM27.65 145.18 L0.85 145.18 L0.85 122.29 L27.65
							 122.29 L27.65 145.18 ZM27.65 166.5 L0.85 166.5 L0.85 146.76 L27.65 146.76 L27.65 166.5 Z" class="st10"/>
			</g>
			<g id="shape315-117" v:mID="315" v:groupContext="shape" transform="translate(-7.99361E-015,-6.61679)">
				<title>Tabelle.315</title>
				<v:userDefs>
					<v:ud v:nameU="msvThemeColors" v:val="VT0(36):26"/>
					<v:ud v:nameU="msvThemeEffects" v:val="VT0(16):26"/>
				</v:userDefs>
				<path d="M0 166.02 L0 175.98 L65.69 175.98 L65.69 128.6 L21.6 128.6 L0 166.02 Z" class="st10"/>
			</g>
			<g id="shape316-120" v:mID="316" v:groupContext="shape" transform="translate(21.1415,-15.185)">
				<title>Tabelle.316</title>
				<v:userDefs>
					<v:ud v:nameU="msvThemeColors" v:val="VT0(36):26"/>
					<v:ud v:nameU="msvThemeEffects" v:val="VT0(16):26"/>
				</v:userDefs>
				<path d="M26.21 160.38 L30.44 163.54 L34.66 160.38 L32.13 160.38 A15.3179 10.2119 -180 0 0 18.58 152.8 L18.58 155.74
							 A11.291 7.29047 0 0 1 27.87 160.38 L26.21 160.38 ZM20.51 167.53 L17.36 171.75 L20.51 175.98 L20.51 172.97
							 A15.3179 10.2119 -180 0 0 32.52 164.25 L28.44 164.25 A11.291 7.29047 0 0 1 20.51 169.97 L20.51 167.53
							 ZM14.2 158.61 L17.35 154.38 L14.2 150.16 L14.2 152.98 A15.3179 10.2119 -180 0 0 2.11 161.72 L6.19 161.72
							 A11.291 7.29047 0 0 1 14.2 155.98 L14.2 158.61 ZM6.87 165.75 L8.45 165.75 L4.22 162.6 L0 165.75 L2.57
							 165.75 A15.3179 10.2119 -180 0 0 16.05 173.16 L16.05 170.23 A11.291 7.29047 0 0 1 6.87 165.75 Z"
						class="st11"/>
			</g>
			<g id="shape317-123" v:mID="317" v:groupContext="shape" transform="translate(2.83465,0)">
				<title>Rechteck.6</title>
				<v:userDefs>
					<v:ud v:nameU="visVersion" v:val="VT0(14):26"/>
					<v:ud v:nameU="msvThemeColors" v:val="VT0(36):26"/>
					<v:ud v:nameU="msvThemeEffects" v:val="VT0(16):26"/>
				</v:userDefs>
				<rect x="0" y="170.309" width="8.50394" height="5.66929" class="st10"/>
			</g>
			<g id="shape318-126" v:mID="318" v:groupContext="shape" transform="translate(55.2756,0)">
				<title>Rechteck.7</title>
				<v:userDefs>
					<v:ud v:nameU="visVersion" v:val="VT0(14):26"/>
					<v:ud v:nameU="msvThemeColors" v:val="VT0(36):26"/>
					<v:ud v:nameU="msvThemeEffects" v:val="VT0(16):26"/>
				</v:userDefs>
				<rect x="0" y="170.309" width="8.50394" height="5.66929" class="st10"/>
			</g>
		</g>
	</g>
</svg>
