<?xml version="1.0" encoding="UTF-8" standalone="no"?>
<!DOCTYPE svg PUBLIC "-//W3C//DTD SVG 1.1//EN" "http://www.w3.org/Graphics/SVG/1.1/DTD/svg11.dtd">
<!-- Generiert durch Microsoft Visio, SVG Export 4b2.svg Page-1 -->
<svg xmlns="http://www.w3.org/2000/svg" xmlns:xlink="http://www.w3.org/1999/xlink" xmlns:ev="http://www.w3.org/2001/xml-events"
		xmlns:v="http://schemas.microsoft.com/visio/2003/SVGExtensions/" width="5.20768in" height="2.44414in"
		viewBox="0 0 374.953 175.978" xml:space="preserve" color-interpolation-filters="sRGB" class="st5">
	<v:documentProperties v:langID="1031" v:metric="true" v:viewMarkup="false">
		<v:userDefs>
			<v:ud v:nameU="msvNoAutoConnect" v:val="VT0(0):26"/>
			<v:ud v:nameU="msvConvertTheme"/>
		</v:userDefs>
	</v:documentProperties>

	<style type="text/css">
	<![CDATA[
		.st1 {fill:#000000;stroke:none;stroke-linecap:round;stroke-linejoin:round;stroke-width:0.75}
		.st2 {fill:#f5f5f5;stroke:#000000;stroke-linecap:round;stroke-linejoin:round;stroke-width:1.5}
		.st3 {fill:url(#grad0-9);stroke:none;stroke-linecap:round;stroke-linejoin:round;stroke-width:0.25}
		.st4 {fill:url(#grad0-9);stroke:#c00000;stroke-linecap:round;stroke-linejoin:round;stroke-width:0.25}
		.st5 {fill:none;fill-rule:evenodd;font-size:12px;overflow:visible;stroke-linecap:square;stroke-miterlimit:3}
	]]>
	</style>

	<defs id="Patterns_And_Gradients">
		<linearGradient id="grad0-9" x1="0" y1="0" x2="1" y2="0" gradientTransform="rotate(270 0.5 0.5)">
			<stop offset="0" stop-color="#a60000" stop-opacity="1"/>
			<stop offset="1" stop-color="#c00000" stop-opacity="1"/>
		</linearGradient>
	</defs>
	<g v:mID="4" v:index="1" v:groupContext="backgroundPage">
		<v:userDefs>
			<v:ud v:nameU="msvThemeColors" v:val="VT0(36):26"/>
			<v:ud v:nameU="msvThemeEffects" v:val="VT0(16):26"/>
			<v:ud v:nameU="msvThemeOrder" v:val="VT0(0):26"/>
			<v:ud v:nameU="msvVisioCreated" v:prompt="" v:val="VT0(0):26"/>
		</v:userDefs>
		<title>VHintergrund-1</title>
		<v:pageProperties width="5.20768" height="2.44414" v:drawingScale="0.0393701" v:pageScale="0.0393701" v:drawingUnits="24"
				v:shadowOffsetX="8.50394" v:shadowOffsetY="-8.50394"/>
		<g id="shape1-1" v:mID="1" v:groupContext="shape">
			<title>Vollton</title>
			<v:userDefs>
				<v:ud v:nameU="Background" v:val="VT0(0):26"/>
				<v:ud v:nameU="visVersion" v:val="VT0(14):26"/>
				<v:ud v:nameU="msvShapeCategories" v:prompt="" v:val="VT4(DoNotContain)"/>
				<v:ud v:nameU="msvThemeColors" v:val="VT0(36):26"/>
				<v:ud v:nameU="msvVisioCreated" v:prompt="" v:val="VT0(0):26"/>
			</v:userDefs>
			<rect x="0" y="0" width="374.953" height="175.978" class="st1"/>
		</g>
	</g>
	<g v:mID="0" v:index="2" v:groupContext="foregroundPage">
		<v:userDefs>
			<v:ud v:nameU="msvThemeColors" v:val="VT0(36):26"/>
			<v:ud v:nameU="msvThemeEffects" v:val="VT0(16):26"/>
			<v:ud v:nameU="msvThemeOrder" v:val="VT0(0):26"/>
		</v:userDefs>
		<title>Zeichenblatt-1</title>
		<v:pageProperties v:drawingScale="0.0393701" v:pageScale="0.0393701" v:drawingUnits="24" v:shadowOffsetX="8.50394"
				v:shadowOffsetY="-8.50394"/>
		<v:layer v:name="Flussdiagramm" v:index="0"/>
		<v:layer v:name="Verbinder" v:index="1"/>
		<g id="group16-3" transform="translate(144.559,-73.7008)" v:mID="16" v:groupContext="group">
			<v:userDefs>
				<v:ud v:nameU="msvThemeColors" v:val="VT0(36):26"/>
				<v:ud v:nameU="msvThemeEffects" v:val="VT0(16):26"/>
			</v:userDefs>
			<title>Tabelle.16</title>
			<g id="shape1-4" v:mID="1" v:groupContext="shape">
				<title>Tabelle.1</title>
				<path d="M65.77 175.98 L69.76 175.98 L69.76 172.99 L65.77 172.99 L65.77 175.98 ZM79.66 134.97 L84.2 127.12 A9.96592
							 7.86783 -150 0 0 79.5 115.32 L27.72 85.42 A9.96592 7.86783 -150 0 0 15.15 87.25 L10.62 95.11 L79.66
							 134.97 ZM9.97 175.98 L13.95 175.98 L13.95 172.99 L9.97 172.99 L9.97 175.98 ZM0 145.13 L0 164.8 A9.96592
							 7.86783 -180 0 0 9.97 172.67 L69.76 172.67 A9.96592 7.86783 -180 0 0 79.73 164.8 L79.73 135.3 L0 135.3
							 L0 145.13 Z" class="st2"/>
			</g>
			<g id="shape2-6" v:mID="2" v:groupContext="shape" transform="translate(173.912,181.033) rotate(-71.5651) scale(1,-1)">
				<title>Pfeil 60 Grad-Spitze</title>
				<v:userDefs>
					<v:ud v:nameU="visVersion" v:val="VT0(14):26"/>
					<v:ud v:nameU="msvThemeColors" v:val="VT0(36):26"/>
					<v:ud v:nameU="msvThemeEffects" v:val="VT0(16):26"/>
				</v:userDefs>
				<path d="M0 168.37 L4.39 160.77 L4.39 165.79 L17.93 165.79 L17.93 170.96 L4.39 170.96 L4.39 175.98 L0 168.37 Z"
						class="st3"/>
			</g>
			<g id="shape15-10" v:mID="15" v:groupContext="shape" transform="translate(22.6715,-4.53543)">
				<title>Tabelle.15</title>
				<v:userDefs>
					<v:ud v:nameU="msvThemeColors" v:val="VT0(36):26"/>
					<v:ud v:nameU="msvThemeEffects" v:val="VT0(16):26"/>
				</v:userDefs>
				<path d="M25.33 155.13 L30.25 160 L35.18 155.13 L32.55 155.13 A15.3159 15.3159 -180 0 0 20.78 143.41 L20.78 148.41
							 A10.4793 10.4793 0 0 1 27.55 155.13 L25.33 155.13 ZM13.52 150.99 L18.39 146.06 L13.52 141.14 L13.52
							 143.62 A15.3159 15.3159 -180 0 0 2.62 155.17 L7.62 155.17 A10.4793 10.4793 0 0 1 13.52 148.73 L13.52
							 150.99 ZM20.81 175.98 L20.81 173.36 A15.3159 15.3159 -180 0 0 32.56 161.61 L27.56 161.61 A10.4793 10.4793
							 0 0 1 20.81 168.36 L20.81 166.13 L15.94 171.05 L20.81 175.98 ZM7.63 161.65 L9.85 161.65 L4.93 156.78
							 L0 161.65 L2.62 161.65 A15.3159 15.3159 -180 0 0 14.4 173.37 L14.4 168.37 A10.4793 10.4793 0 0 1 7.63
							 161.65 Z" class="st4"/>
			</g>
		</g>
	</g>
</svg>
