<?xml version="1.0" encoding="UTF-8" standalone="no"?>
<!DOCTYPE svg PUBLIC "-//W3C//DTD SVG 1.1//EN" "http://www.w3.org/Graphics/SVG/1.1/DTD/svg11.dtd">
<!-- Generiert durch Microsoft Visio, SVG Export 5.svg Page-1 -->
<svg xmlns="http://www.w3.org/2000/svg" xmlns:xlink="http://www.w3.org/1999/xlink" xmlns:ev="http://www.w3.org/2001/xml-events"
		xmlns:v="http://schemas.microsoft.com/visio/2003/SVGExtensions/" width="5.20768in" height="2.44414in"
		viewBox="0 0 374.953 175.978" xml:space="preserve" color-interpolation-filters="sRGB" class="st11">
	<v:documentProperties v:langID="1031" v:metric="true" v:viewMarkup="false">
		<v:userDefs>
			<v:ud v:nameU="msvNoAutoConnect" v:val="VT0(0):26"/>
			<v:ud v:nameU="msvConvertTheme"/>
		</v:userDefs>
	</v:documentProperties>

	<style type="text/css">
	<![CDATA[
		.st1 {fill:#000000;stroke:none;stroke-linecap:round;stroke-linejoin:round;stroke-width:0.75}
		.st2 {fill:url(#grad0-6);stroke:#ffffff;stroke-linecap:round;stroke-linejoin:round;stroke-width:0.25}
		.st3 {fill:none;stroke:none;stroke-linecap:round;stroke-linejoin:round;stroke-width:0.25}
		.st4 {fill:url(#grad0-6);stroke:#000000;stroke-linecap:round;stroke-linejoin:round;stroke-width:0.5}
		.st5 {fill:#ffffff;stroke:#000000;stroke-linecap:round;stroke-linejoin:round;stroke-width:0.5}
		.st6 {fill:url(#grad0-27);stroke:#000000;stroke-dasharray:0.5,1;stroke-linecap:round;stroke-linejoin:round;stroke-width:0.5}
		.st7 {fill:url(#grad0-34);stroke:#000000;stroke-linecap:round;stroke-linejoin:round;stroke-width:0.5}
		.st8 {fill:url(#grad0-50);stroke:none;stroke-linecap:round;stroke-linejoin:round;stroke-width:0.25}
		.st9 {fill:url(#grad0-6);stroke:#000000;stroke-linecap:round;stroke-linejoin:round;stroke-width:0.25}
		.st10 {fill:url(#grad0-200);stroke:#000000;stroke-linecap:round;stroke-linejoin:round;stroke-width:0.5}
		.st11 {fill:none;fill-rule:evenodd;font-size:12px;overflow:visible;stroke-linecap:square;stroke-miterlimit:3}
	]]>
	</style>

	<defs id="Patterns_And_Gradients">
		<linearGradient id="grad0-6" x1="0" y1="0" x2="1" y2="0" gradientTransform="rotate(270 0.5 0.5)">
			<stop offset="0" stop-color="#f0f0f0" stop-opacity="1"/>
			<stop offset="1" stop-color="#ffffff" stop-opacity="1"/>
		</linearGradient>
		<linearGradient id="grad0-27" x1="0" y1="0" x2="1" y2="0" gradientTransform="rotate(270 0.5 0.5)">
			<stop offset="0" stop-color="#e1a900" stop-opacity="1"/>
			<stop offset="1" stop-color="#ffc000" stop-opacity="1"/>
		</linearGradient>
		<linearGradient id="grad0-34" x1="0" y1="0" x2="1" y2="0" gradientTransform="rotate(270 0.5 0.5)">
			<stop offset="0" stop-color="#000000" stop-opacity="1"/>
			<stop offset="1" stop-color="#000000" stop-opacity="1"/>
		</linearGradient>
		<linearGradient id="grad0-50" x1="0" y1="0" x2="1" y2="0" gradientTransform="rotate(270 0.5 0.5)">
			<stop offset="0" stop-color="#783e0e" stop-opacity="1"/>
			<stop offset="1" stop-color="#8c4810" stop-opacity="1"/>
		</linearGradient>
		<linearGradient id="grad0-200" x1="0" y1="0" x2="1" y2="0" gradientTransform="rotate(270 0.5 0.5)">
			<stop offset="0" stop-color="#ffffff" stop-opacity="1"/>
			<stop offset="1" stop-color="#f0f0f0" stop-opacity="1"/>
		</linearGradient>
	</defs>
	<g v:mID="4" v:index="1" v:groupContext="backgroundPage">
		<v:userDefs>
			<v:ud v:nameU="msvThemeColors" v:val="VT0(36):26"/>
			<v:ud v:nameU="msvThemeEffects" v:val="VT0(16):26"/>
			<v:ud v:nameU="msvThemeOrder" v:val="VT0(0):26"/>
			<v:ud v:nameU="msvVisioCreated" v:prompt="" v:val="VT0(0):26"/>
		</v:userDefs>
		<title>VHintergrund-1</title>
		<v:pageProperties width="5.20768" height="2.44414" v:drawingScale="0.0393701" v:pageScale="0.0393701" v:drawingUnits="24"
				v:shadowOffsetX="8.50394" v:shadowOffsetY="-8.50394"/>
		<g id="shape1-1" v:mID="1" v:groupContext="shape">
			<title>Vollton</title>
			<v:userDefs>
				<v:ud v:nameU="Background" v:val="VT0(0):26"/>
				<v:ud v:nameU="visVersion" v:val="VT0(14):26"/>
				<v:ud v:nameU="msvShapeCategories" v:prompt="" v:val="VT4(DoNotContain)"/>
				<v:ud v:nameU="msvThemeColors" v:val="VT0(36):26"/>
				<v:ud v:nameU="msvVisioCreated" v:prompt="" v:val="VT0(0):26"/>
			</v:userDefs>
			<rect x="0" y="0" width="374.953" height="175.978" class="st1"/>
		</g>
		<g id="shape2-3" v:mID="2" v:groupContext="shape" transform="translate(222.201,234.318) rotate(180)">
			<title>Pfeil 60 Grad-Spitze</title>
			<v:userDefs>
				<v:ud v:nameU="visVersion" v:val="VT0(14):26"/>
				<v:ud v:nameU="msvThemeColors" v:val="VT0(36):26"/>
				<v:ud v:nameU="msvThemeEffects" v:val="VT0(16):26"/>
			</v:userDefs>
			<path d="M0 168.89 L4.09 161.8 L4.09 166.48 L69.45 166.48 L69.45 171.3 L4.09 171.3 L4.09 175.98 L0 168.89 Z"
					class="st2"/>
		</g>
	</g>
	<g v:mID="0" v:index="2" v:groupContext="foregroundPage">
		<v:userDefs>
			<v:ud v:nameU="msvThemeColors" v:val="VT0(36):26"/>
			<v:ud v:nameU="msvThemeEffects" v:val="VT0(16):26"/>
			<v:ud v:nameU="msvThemeOrder" v:val="VT0(0):26"/>
		</v:userDefs>
		<title>Zeichenblatt-1</title>
		<v:pageProperties v:drawingScale="0.0393701" v:pageScale="0.0393701" v:drawingUnits="24" v:shadowOffsetX="8.50394"
				v:shadowOffsetY="-8.50394"/>
		<v:layer v:name="Flussdiagramm" v:index="0"/>
		<v:layer v:name="Verbinder" v:index="1"/>
		<g id="shape195-7" v:mID="195" v:groupContext="shape" transform="translate(125.787,-123.895)">
			<title>Rechteck.195</title>
			<v:userDefs>
				<v:ud v:nameU="visVersion" v:val="VT0(15):26"/>
				<v:ud v:nameU="msvThemeColors" v:val="VT0(36):26"/>
				<v:ud v:nameU="msvThemeEffects" v:val="VT0(16):26"/>
			</v:userDefs>
			<rect x="0" y="128.965" width="123.307" height="47.0131" class="st3"/>
		</g>
		<g id="shape192-9" v:mID="192" v:groupContext="shape" transform="translate(1.59872E-014,-2.26772)">
			<title>Rechteck.13.192</title>
			<v:userDefs>
				<v:ud v:nameU="visVersion" v:val="VT0(15):26"/>
				<v:ud v:nameU="msvThemeColors" v:val="VT0(36):26"/>
				<v:ud v:nameU="msvThemeEffects" v:val="VT0(16):26"/>
			</v:userDefs>
			<rect x="0" y="3.63146" width="123.307" height="172.346" class="st3"/>
		</g>
		<g id="shape194-11" v:mID="194" v:groupContext="shape" transform="translate(251.575,-2.26772)">
			<title>Rechteck.194</title>
			<v:userDefs>
				<v:ud v:nameU="visVersion" v:val="VT0(15):26"/>
				<v:ud v:nameU="msvThemeColors" v:val="VT0(36):26"/>
				<v:ud v:nameU="msvThemeEffects" v:val="VT0(16):26"/>
			</v:userDefs>
			<rect x="0" y="3.63146" width="123.307" height="172.346" class="st3"/>
		</g>
		<g id="group197-13" transform="translate(34.4409,-27.7776)" v:mID="197" v:groupContext="group">
			<v:userDefs>
				<v:ud v:nameU="msvThemeColors" v:val="VT0(36):26"/>
				<v:ud v:nameU="msvThemeEffects" v:val="VT0(16):26"/>
			</v:userDefs>
			<title>Tabelle.197</title>
			<g id="shape198-14" v:mID="198" v:groupContext="shape" transform="translate(80.4381,-105.662) rotate(17)">
				<title>Ellipse.44</title>
				<v:userDefs>
					<v:ud v:nameU="visVersion" v:val="VT0(14):26"/>
					<v:ud v:nameU="msvThemeColors" v:val="VT0(36):26"/>
					<v:ud v:nameU="msvThemeEffects" v:val="VT0(16):26"/>
				</v:userDefs>
				<path d="M0 170.5 A12.4073 5.4738 0 1 1 24.81 170.5 A12.4073 5.4738 0 0 1 0 170.5 Z" class="st4"/>
			</g>
			<g id="shape199-17" v:mID="199" v:groupContext="shape" transform="translate(26.918,-75.3992)">
				<title>Tabelle.199</title>
				<path d="M6.55 152.21 L0 173.65 A8.48206 7.48386 107 0 1 7.6 175.98 L17.56 143.39 L17.54 143.39 A6.21017 3.97763
							 -73 0 0 17.74 142.82 A6.21017 3.97763 -73 0 0 17.91 142.18 L18.73 139.5 L18.71 139.5 A3.97763 2.86536
							 -163 0 0 18.81 139.24 A3.97763 2.86536 -163 0 0 11.2 136.91 A3.97763 2.86536 -163 0 0 11.14 137.18 L11.13
							 137.18 L6.53 152.21 L6.55 152.21 Z" class="st5"/>
			</g>
			<g id="shape200-19" v:mID="200" v:groupContext="shape" transform="translate(60.2435,-65.1007) rotate(17)">
				<title>Ellipse.37</title>
				<v:userDefs>
					<v:ud v:nameU="visVersion" v:val="VT0(14):26"/>
					<v:ud v:nameU="msvThemeColors" v:val="VT0(36):26"/>
					<v:ud v:nameU="msvThemeEffects" v:val="VT0(16):26"/>
				</v:userDefs>
				<path d="M0 169.41 A19.8425 6.56856 0 0 1 39.69 169.41 A19.8425 6.56856 0 1 1 0 169.41 Z" class="st5"/>
			</g>
			<g id="shape201-21" v:mID="201" v:groupContext="shape" transform="translate(50.1424,-0.265275) rotate(17)">
				<title>Tabelle.201</title>
				<v:userDefs>
					<v:ud v:nameU="msvThemeColors" v:val="VT0(36):26"/>
					<v:ud v:nameU="msvThemeEffects" v:val="VT0(16):26"/>
				</v:userDefs>
				<path d="M0 106.34 A10.5462 4.80919 -180 0 0 0.05 106.8 L0.02 106.8 L0.02 170.89 A10.5462 4.80919 -180 0 0 0 171.17
							 A10.5462 4.80919 -180 0 0 21.08 171.37 L21.09 171.37 L21.09 171.17 L21.09 106.8 L21.04 106.8 A10.5462
							 4.80919 -180 0 0 21.09 106.34 A10.5462 4.80919 -180 0 0 0 106.34 Z" class="st4"/>
			</g>
			<g id="shape202-24" v:mID="202" v:groupContext="shape" transform="translate(51.0686,-3.17824) rotate(17)">
				<title>Tabelle.202</title>
				<v:userDefs>
					<v:ud v:nameU="msvThemeColors" v:val="VT0(36):26"/>
					<v:ud v:nameU="msvThemeEffects" v:val="VT0(16):26"/>
				</v:userDefs>
				<path d="M0 141.57 A10.5462 2.37641 -180 0 0 0.05 141.8 L0.02 141.8 L0.02 173.46 A10.5462 2.37641 -180 0 0 0 173.6
							 A10.5462 2.37641 -180 0 0 21.08 173.7 L21.09 173.7 L21.09 173.6 L21.09 141.8 L21.04 141.8 A10.5462 2.37641
							 -180 0 0 21.09 141.57 A10.5462 2.37641 -180 0 0 0 141.57 Z" class="st6"/>
			</g>
			<g id="shape203-28" v:mID="203" v:groupContext="shape" transform="translate(67.3589,-33.9242) rotate(17)">
				<title>Tabelle.203</title>
				<v:userDefs>
					<v:ud v:nameU="msvThemeColors" v:val="VT0(36):26"/>
					<v:ud v:nameU="msvThemeEffects" v:val="VT0(16):26"/>
				</v:userDefs>
				<path d="M0 139.1 L0 175.98 L7.85 175.98 L7.85 139.1 A10.5462 4.80919 -180 0 0 -0 139.1 Z" class="st4"/>
			</g>
			<g id="shape204-31" v:mID="204" v:groupContext="shape" transform="translate(61.1059,-34.1546) rotate(17)">
				<title>Ellipse.41</title>
				<v:userDefs>
					<v:ud v:nameU="visVersion" v:val="VT0(14):26"/>
					<v:ud v:nameU="msvThemeColors" v:val="VT0(36):26"/>
					<v:ud v:nameU="msvThemeEffects" v:val="VT0(16):26"/>
				</v:userDefs>
				<path d="M0 173.03 A10.0454 2.94922 0 1 1 20.09 173.03 A10.0454 2.94922 0 1 1 0 173.03 Z" class="st7"/>
			</g>
			<g id="shape205-35" v:mID="205" v:groupContext="shape" transform="translate(50.8055,-0.0625599) rotate(17)">
				<title>Ellipse.42</title>
				<v:userDefs>
					<v:ud v:nameU="visVersion" v:val="VT0(14):26"/>
					<v:ud v:nameU="msvThemeColors" v:val="VT0(36):26"/>
					<v:ud v:nameU="msvThemeEffects" v:val="VT0(16):26"/>
				</v:userDefs>
				<path d="M0 171.6 A9.85284 4.37904 0 1 1 19.71 171.6 A9.85284 4.37904 0 1 1 0 171.6 Z" class="st4"/>
			</g>
			<g id="shape206-38" v:mID="206" v:groupContext="shape" transform="translate(55.0453,6.16465) rotate(17)">
				<title>Tabelle.206</title>
				<v:userDefs>
					<v:ud v:nameU="msvThemeColors" v:val="VT0(36):26"/>
					<v:ud v:nameU="msvThemeEffects" v:val="VT0(16):26"/>
				</v:userDefs>
				<path d="M0 166.92 L0 174.04 L0.02 174.04 A3.97763 1.7653 -180 0 0 0 174.21 A3.97763 1.7653 -180 1 0 7.96 174.21
							 A3.97763 1.7653 -180 0 0 7.94 174.04 L7.95 174.04 L7.95 166.92 A9.85284 4.37904 -180 0 0 0 166.92 Z"
						class="st4"/>
			</g>
			<g id="shape207-41" v:mID="207" v:groupContext="shape" transform="translate(55.1298,6.10026) rotate(17)">
				<title>Ellipse.27</title>
				<v:userDefs>
					<v:ud v:nameU="visVersion" v:val="VT0(14):26"/>
					<v:ud v:nameU="msvThemeColors" v:val="VT0(36):26"/>
					<v:ud v:nameU="msvThemeEffects" v:val="VT0(16):26"/>
				</v:userDefs>
				<path d="M0 174.54 A3.97757 1.43622 0 0 1 7.96 174.54 A3.97757 1.43622 0 0 1 0 174.54 Z" class="st4"/>
			</g>
			<g id="shape208-44" v:mID="208" v:groupContext="shape" transform="translate(68.5469,-37.7482) rotate(17)">
				<title>Tabelle.208</title>
				<v:userDefs>
					<v:ud v:nameU="msvThemeColors" v:val="VT0(36):26"/>
					<v:ud v:nameU="msvThemeEffects" v:val="VT0(16):26"/>
				</v:userDefs>
				<path d="M0 143.35 L0 175.98 L7.85 175.98 L7.85 143.35 A10.5462 4.25502 -180 0 0 -0 143.35 Z" class="st4"/>
			</g>
			<g id="shape209-47" v:mID="209" v:groupContext="shape" transform="translate(16.9024,-33.7004)">
				<title>Sechseck</title>
				<v:userDefs>
					<v:ud v:nameU="visVersion" v:val="VT0(14):26"/>
					<v:ud v:nameU="msvThemeColors" v:val="VT0(36):26"/>
					<v:ud v:nameU="msvThemeEffects" v:val="VT0(16):26"/>
				</v:userDefs>
				<path d="M1.2 174.46 L0.32 174.46 L-0.12 175.22 L0.32 175.98 L1.2 175.98 L1.64 175.22 L1.2 174.46 Z" class="st8"/>
			</g>
			<g id="shape210-51" v:mID="210" v:groupContext="shape" transform="translate(19.0811,-28.2091)">
				<title>Sechseck.33</title>
				<v:userDefs>
					<v:ud v:nameU="visVersion" v:val="VT0(14):26"/>
					<v:ud v:nameU="msvThemeColors" v:val="VT0(36):26"/>
					<v:ud v:nameU="msvThemeEffects" v:val="VT0(16):26"/>
				</v:userDefs>
				<path d="M1.2 174.46 L0.32 174.46 L-0.12 175.22 L0.32 175.98 L1.2 175.98 L1.64 175.22 L1.2 174.46 Z" class="st8"/>
			</g>
			<g id="shape211-54" v:mID="211" v:groupContext="shape" transform="translate(20.8204,-23.1232)">
				<title>Sechseck.34</title>
				<v:userDefs>
					<v:ud v:nameU="visVersion" v:val="VT0(14):26"/>
					<v:ud v:nameU="msvThemeColors" v:val="VT0(36):26"/>
					<v:ud v:nameU="msvThemeEffects" v:val="VT0(16):26"/>
				</v:userDefs>
				<path d="M1.2 174.46 L0.32 174.46 L-0.12 175.22 L0.32 175.98 L1.2 175.98 L1.64 175.22 L1.2 174.46 Z" class="st8"/>
			</g>
			<g id="shape212-57" v:mID="212" v:groupContext="shape" transform="translate(8.39846,-29.7319)">
				<title>Sechseck.35</title>
				<v:userDefs>
					<v:ud v:nameU="visVersion" v:val="VT0(14):26"/>
					<v:ud v:nameU="msvThemeColors" v:val="VT0(36):26"/>
					<v:ud v:nameU="msvThemeEffects" v:val="VT0(16):26"/>
				</v:userDefs>
				<path d="M1.2 174.46 L0.32 174.46 L-0.12 175.22 L0.32 175.98 L1.2 175.98 L1.64 175.22 L1.2 174.46 Z" class="st8"/>
			</g>
			<g id="shape213-60" v:mID="213" v:groupContext="shape" transform="translate(15.5741,-30.1044)">
				<title>Sechseck.36</title>
				<v:userDefs>
					<v:ud v:nameU="visVersion" v:val="VT0(14):26"/>
					<v:ud v:nameU="msvThemeColors" v:val="VT0(36):26"/>
					<v:ud v:nameU="msvThemeEffects" v:val="VT0(16):26"/>
				</v:userDefs>
				<path d="M1.2 174.46 L0.32 174.46 L-0.12 175.22 L0.32 175.98 L1.2 175.98 L1.64 175.22 L1.2 174.46 Z" class="st8"/>
			</g>
			<g id="shape214-63" v:mID="214" v:groupContext="shape" transform="translate(4.25197,-18.2879)">
				<title>Sechseck.37</title>
				<v:userDefs>
					<v:ud v:nameU="visVersion" v:val="VT0(14):26"/>
					<v:ud v:nameU="msvThemeColors" v:val="VT0(36):26"/>
					<v:ud v:nameU="msvThemeEffects" v:val="VT0(16):26"/>
				</v:userDefs>
				<path d="M1.2 174.46 L0.32 174.46 L-0.12 175.22 L0.32 175.98 L1.2 175.98 L1.64 175.22 L1.2 174.46 Z" class="st8"/>
			</g>
			<g id="shape215-66" v:mID="215" v:groupContext="shape" transform="translate(14.8929,-23.1232)">
				<title>Sechseck.38</title>
				<v:userDefs>
					<v:ud v:nameU="visVersion" v:val="VT0(14):26"/>
					<v:ud v:nameU="msvThemeColors" v:val="VT0(36):26"/>
					<v:ud v:nameU="msvThemeEffects" v:val="VT0(16):26"/>
				</v:userDefs>
				<path d="M1.2 174.46 L0.32 174.46 L-0.12 175.22 L0.32 175.98 L1.2 175.98 L1.64 175.22 L1.2 174.46 Z" class="st8"/>
			</g>
			<g id="shape216-69" v:mID="216" v:groupContext="shape" transform="translate(8.96539,-18.9603)">
				<title>Sechseck.39</title>
				<v:userDefs>
					<v:ud v:nameU="visVersion" v:val="VT0(14):26"/>
					<v:ud v:nameU="msvThemeColors" v:val="VT0(36):26"/>
					<v:ud v:nameU="msvThemeEffects" v:val="VT0(16):26"/>
				</v:userDefs>
				<path d="M1.2 174.46 L0.32 174.46 L-0.12 175.22 L0.32 175.98 L1.2 175.98 L1.64 175.22 L1.2 174.46 Z" class="st8"/>
			</g>
			<g id="shape217-72" v:mID="217" v:groupContext="shape" transform="translate(11.9945,-15.3642)">
				<title>Sechseck.40</title>
				<v:userDefs>
					<v:ud v:nameU="visVersion" v:val="VT0(14):26"/>
					<v:ud v:nameU="msvThemeColors" v:val="VT0(36):26"/>
					<v:ud v:nameU="msvThemeEffects" v:val="VT0(16):26"/>
				</v:userDefs>
				<path d="M1.2 174.46 L0.32 174.46 L-0.12 175.22 L0.32 175.98 L1.2 175.98 L1.64 175.22 L1.2 174.46 Z" class="st8"/>
			</g>
			<g id="shape218-75" v:mID="218" v:groupContext="shape" transform="translate(13.8898,-19.3327)">
				<title>Sechseck.41</title>
				<v:userDefs>
					<v:ud v:nameU="visVersion" v:val="VT0(14):26"/>
					<v:ud v:nameU="msvThemeColors" v:val="VT0(36):26"/>
					<v:ud v:nameU="msvThemeEffects" v:val="VT0(16):26"/>
				</v:userDefs>
				<path d="M1.2 174.46 L0.32 174.46 L-0.12 175.22 L0.32 175.98 L1.2 175.98 L1.64 175.22 L1.2 174.46 Z" class="st8"/>
			</g>
			<g id="shape219-78" v:mID="219" v:groupContext="shape" transform="translate(23.3331,-31.0438)">
				<title>Sechseck.42</title>
				<v:userDefs>
					<v:ud v:nameU="visVersion" v:val="VT0(14):26"/>
					<v:ud v:nameU="msvThemeColors" v:val="VT0(36):26"/>
					<v:ud v:nameU="msvThemeEffects" v:val="VT0(16):26"/>
				</v:userDefs>
				<path d="M1.2 174.46 L0.32 174.46 L-0.12 175.22 L0.32 175.98 L1.2 175.98 L1.64 175.22 L1.2 174.46 Z" class="st8"/>
			</g>
			<g id="shape220-81" v:mID="220" v:groupContext="shape" transform="translate(16.1575,-11.9627)">
				<title>Sechseck.43</title>
				<v:userDefs>
					<v:ud v:nameU="visVersion" v:val="VT0(14):26"/>
					<v:ud v:nameU="msvThemeColors" v:val="VT0(36):26"/>
					<v:ud v:nameU="msvThemeEffects" v:val="VT0(16):26"/>
				</v:userDefs>
				<path d="M1.2 174.46 L0.32 174.46 L-0.12 175.22 L0.32 175.98 L1.2 175.98 L1.64 175.22 L1.2 174.46 Z" class="st8"/>
			</g>
			<g id="shape221-84" v:mID="221" v:groupContext="shape" transform="translate(8.96539,-23.316)">
				<title>Sechseck.44</title>
				<v:userDefs>
					<v:ud v:nameU="visVersion" v:val="VT0(14):26"/>
					<v:ud v:nameU="msvThemeColors" v:val="VT0(36):26"/>
					<v:ud v:nameU="msvThemeEffects" v:val="VT0(16):26"/>
				</v:userDefs>
				<path d="M1.2 174.46 L0.32 174.46 L-0.12 175.22 L0.32 175.98 L1.2 175.98 L1.64 175.22 L1.2 174.46 Z" class="st8"/>
			</g>
			<g id="shape222-87" v:mID="222" v:groupContext="shape" transform="translate(11.2331,-33.506)">
				<title>Sechseck.45</title>
				<v:userDefs>
					<v:ud v:nameU="visVersion" v:val="VT0(14):26"/>
					<v:ud v:nameU="msvThemeColors" v:val="VT0(36):26"/>
					<v:ud v:nameU="msvThemeEffects" v:val="VT0(16):26"/>
				</v:userDefs>
				<path d="M1.2 174.46 L0.32 174.46 L-0.12 175.22 L0.32 175.98 L1.2 175.98 L1.64 175.22 L1.2 174.46 Z" class="st8"/>
			</g>
			<g id="shape223-90" v:mID="223" v:groupContext="shape" transform="translate(14.2457,-26.3304)">
				<title>Sechseck.46</title>
				<v:userDefs>
					<v:ud v:nameU="visVersion" v:val="VT0(14):26"/>
					<v:ud v:nameU="msvThemeColors" v:val="VT0(36):26"/>
					<v:ud v:nameU="msvThemeEffects" v:val="VT0(16):26"/>
				</v:userDefs>
				<path d="M1.2 174.46 L0.32 174.46 L-0.12 175.22 L0.32 175.98 L1.2 175.98 L1.64 175.22 L1.2 174.46 Z" class="st8"/>
			</g>
			<g id="shape224-93" v:mID="224" v:groupContext="shape" transform="translate(17.2913,-19.5272)">
				<title>Sechseck.47</title>
				<v:userDefs>
					<v:ud v:nameU="visVersion" v:val="VT0(14):26"/>
					<v:ud v:nameU="msvThemeColors" v:val="VT0(36):26"/>
					<v:ud v:nameU="msvThemeEffects" v:val="VT0(16):26"/>
				</v:userDefs>
				<path d="M1.2 174.46 L0.32 174.46 L-0.12 175.22 L0.32 175.98 L1.2 175.98 L1.64 175.22 L1.2 174.46 Z" class="st8"/>
			</g>
			<g id="shape225-96" v:mID="225" v:groupContext="shape" transform="translate(17.7415,-15.3642)">
				<title>Sechseck.48</title>
				<v:userDefs>
					<v:ud v:nameU="visVersion" v:val="VT0(14):26"/>
					<v:ud v:nameU="msvThemeColors" v:val="VT0(36):26"/>
					<v:ud v:nameU="msvThemeEffects" v:val="VT0(16):26"/>
				</v:userDefs>
				<path d="M1.2 174.46 L0.32 174.46 L-0.12 175.22 L0.32 175.98 L1.2 175.98 L1.64 175.22 L1.2 174.46 Z" class="st8"/>
			</g>
			<g id="shape226-99" v:mID="226" v:groupContext="shape" transform="translate(11.194,-28.2091)">
				<title>Sechseck.49</title>
				<v:userDefs>
					<v:ud v:nameU="visVersion" v:val="VT0(14):26"/>
					<v:ud v:nameU="msvThemeColors" v:val="VT0(36):26"/>
					<v:ud v:nameU="msvThemeEffects" v:val="VT0(16):26"/>
				</v:userDefs>
				<path d="M1.2 174.46 L0.32 174.46 L-0.12 175.22 L0.32 175.98 L1.2 175.98 L1.64 175.22 L1.2 174.46 Z" class="st8"/>
			</g>
		</g>
		<g id="group227-102" transform="translate(284.709,-24.6604)" v:mID="227" v:groupContext="group">
			<v:userDefs>
				<v:ud v:nameU="msvThemeColors" v:val="VT0(36):26"/>
				<v:ud v:nameU="msvThemeEffects" v:val="VT0(16):26"/>
			</v:userDefs>
			<title>Tabelle.227</title>
			<g id="shape228-103" v:mID="228" v:groupContext="shape" transform="translate(83.0524,-111.896) rotate(17)">
				<title>Ellipse.3</title>
				<v:userDefs>
					<v:ud v:nameU="visVersion" v:val="VT0(14):26"/>
					<v:ud v:nameU="msvThemeColors" v:val="VT0(36):26"/>
					<v:ud v:nameU="msvThemeEffects" v:val="VT0(16):26"/>
				</v:userDefs>
				<path d="M0 170.5 A12.4073 5.4738 0 1 1 24.81 170.5 A12.4073 5.4738 0 0 1 0 170.5 Z" class="st4"/>
			</g>
			<g id="shape229-106" v:mID="229" v:groupContext="shape" transform="translate(29.5323,-81.6334)">
				<title>Tabelle.229</title>
				<v:userDefs>
					<v:ud v:nameU="msvThemeColors" v:val="VT0(36):26"/>
					<v:ud v:nameU="msvThemeEffects" v:val="VT0(16):26"/>
				</v:userDefs>
				<path d="M6.55 152.21 L0 173.65 A8.48206 7.48386 107 0 1 7.6 175.98 L17.56 143.39 L17.54 143.39 A6.21017 3.97763
							 -73 0 0 17.74 142.82 A6.21017 3.97763 -73 0 0 17.91 142.18 L18.73 139.5 L18.71 139.5 A3.97763 2.86536
							 -163 0 0 18.81 139.24 A3.97763 2.86536 -163 0 0 11.2 136.91 A3.97763 2.86536 -163 0 0 11.14 137.18 L11.13
							 137.18 L6.53 152.21 L6.55 152.21 Z" class="st9"/>
			</g>
			<g id="shape230-109" v:mID="230" v:groupContext="shape" transform="translate(62.8578,-71.335) rotate(17)">
				<title>Ellipse.5</title>
				<v:userDefs>
					<v:ud v:nameU="visVersion" v:val="VT0(14):26"/>
					<v:ud v:nameU="msvThemeColors" v:val="VT0(36):26"/>
					<v:ud v:nameU="msvThemeEffects" v:val="VT0(16):26"/>
				</v:userDefs>
				<path d="M0 169.41 A19.8425 6.56856 0 0 1 39.69 169.41 A19.8425 6.56856 0 1 1 0 169.41 Z" class="st5"/>
			</g>
			<g id="shape231-111" v:mID="231" v:groupContext="shape" transform="translate(52.7567,-6.49953) rotate(17)">
				<title>Tabelle.231</title>
				<v:userDefs>
					<v:ud v:nameU="msvThemeColors" v:val="VT0(36):26"/>
					<v:ud v:nameU="msvThemeEffects" v:val="VT0(16):26"/>
				</v:userDefs>
				<path d="M0 106.34 A10.5462 4.80919 -180 0 0 0.05 106.8 L0.02 106.8 L0.02 170.89 A10.5462 4.80919 -180 0 0 0 171.17
							 A10.5462 4.80919 -180 0 0 21.08 171.37 L21.09 171.37 L21.09 171.17 L21.09 106.8 L21.04 106.8 A10.5462
							 4.80919 -180 0 0 21.09 106.34 A10.5462 4.80919 -180 0 0 0 106.34 Z" class="st4"/>
			</g>
			<g id="shape232-114" v:mID="232" v:groupContext="shape" transform="translate(53.6829,-9.4125) rotate(17)">
				<title>Tabelle.232</title>
				<v:userDefs>
					<v:ud v:nameU="msvThemeColors" v:val="VT0(36):26"/>
					<v:ud v:nameU="msvThemeEffects" v:val="VT0(16):26"/>
				</v:userDefs>
				<path d="M0 141.57 A10.5462 2.37641 -180 0 0 0.05 141.8 L0.02 141.8 L0.02 173.46 A10.5462 2.37641 -180 0 0 0 173.6
							 A10.5462 2.37641 -180 0 0 21.08 173.7 L21.09 173.7 L21.09 173.6 L21.09 141.8 L21.04 141.8 A10.5462 2.37641
							 -180 0 0 21.09 141.57 A10.5462 2.37641 -180 0 0 0 141.57 Z" class="st6"/>
			</g>
			<g id="shape233-117" v:mID="233" v:groupContext="shape" transform="translate(69.9732,-40.1585) rotate(17)">
				<title>Tabelle.233</title>
				<v:userDefs>
					<v:ud v:nameU="msvThemeColors" v:val="VT0(36):26"/>
					<v:ud v:nameU="msvThemeEffects" v:val="VT0(16):26"/>
				</v:userDefs>
				<path d="M0 139.1 L0 175.98 L7.85 175.98 L7.85 139.1 A10.5462 4.80919 -180 0 0 -0 139.1 Z" class="st4"/>
			</g>
			<g id="shape234-120" v:mID="234" v:groupContext="shape" transform="translate(63.7202,-40.3889) rotate(17)">
				<title>Ellipse.9</title>
				<v:userDefs>
					<v:ud v:nameU="visVersion" v:val="VT0(14):26"/>
					<v:ud v:nameU="msvThemeColors" v:val="VT0(36):26"/>
					<v:ud v:nameU="msvThemeEffects" v:val="VT0(16):26"/>
				</v:userDefs>
				<path d="M0 173.03 A10.0454 2.94922 0 1 1 20.09 173.03 A10.0454 2.94922 0 1 1 0 173.03 Z" class="st7"/>
			</g>
			<g id="shape235-123" v:mID="235" v:groupContext="shape" transform="translate(53.4198,-6.29682) rotate(17)">
				<title>Ellipse.11</title>
				<v:userDefs>
					<v:ud v:nameU="visVersion" v:val="VT0(14):26"/>
					<v:ud v:nameU="msvThemeColors" v:val="VT0(36):26"/>
					<v:ud v:nameU="msvThemeEffects" v:val="VT0(16):26"/>
				</v:userDefs>
				<path d="M0 171.6 A9.85284 4.37904 0 1 1 19.71 171.6 A9.85284 4.37904 0 1 1 0 171.6 Z" class="st4"/>
			</g>
			<g id="shape236-126" v:mID="236" v:groupContext="shape" transform="translate(57.6596,-0.0696041) rotate(17)">
				<title>Tabelle.236</title>
				<v:userDefs>
					<v:ud v:nameU="msvThemeColors" v:val="VT0(36):26"/>
					<v:ud v:nameU="msvThemeEffects" v:val="VT0(16):26"/>
				</v:userDefs>
				<path d="M0 166.92 L0 174.04 L0.02 174.04 A3.97763 1.7653 -180 0 0 0 174.21 A3.97763 1.7653 -180 1 0 7.96 174.21
							 A3.97763 1.7653 -180 0 0 7.94 174.04 L7.95 174.04 L7.95 166.92 A9.85284 4.37904 -180 0 0 0 166.92 Z"
						class="st4"/>
			</g>
			<g id="shape237-129" v:mID="237" v:groupContext="shape" transform="translate(57.7441,-0.133997) rotate(17)">
				<title>Ellipse.17</title>
				<v:userDefs>
					<v:ud v:nameU="visVersion" v:val="VT0(14):26"/>
					<v:ud v:nameU="msvThemeColors" v:val="VT0(36):26"/>
					<v:ud v:nameU="msvThemeEffects" v:val="VT0(16):26"/>
				</v:userDefs>
				<path d="M0 174.54 A3.97757 1.43622 0 0 1 7.96 174.54 A3.97757 1.43622 0 0 1 0 174.54 Z" class="st4"/>
			</g>
			<g id="shape238-132" v:mID="238" v:groupContext="shape" transform="translate(71.1612,-43.9825) rotate(17)">
				<title>Tabelle.238</title>
				<v:userDefs>
					<v:ud v:nameU="msvThemeColors" v:val="VT0(36):26"/>
					<v:ud v:nameU="msvThemeEffects" v:val="VT0(16):26"/>
				</v:userDefs>
				<path d="M0 143.35 L0 175.98 L7.85 175.98 L7.85 143.35 A10.5462 4.25502 -180 0 0 -0 143.35 Z" class="st4"/>
			</g>
			<g id="shape239-135" v:mID="239" v:groupContext="shape" transform="translate(19.5167,-39.9347)">
				<title>Sechseck.19</title>
				<v:userDefs>
					<v:ud v:nameU="visVersion" v:val="VT0(14):26"/>
					<v:ud v:nameU="msvThemeColors" v:val="VT0(36):26"/>
					<v:ud v:nameU="msvThemeEffects" v:val="VT0(16):26"/>
				</v:userDefs>
				<path d="M1.2 174.46 L0.32 174.46 L-0.12 175.22 L0.32 175.98 L1.2 175.98 L1.64 175.22 L1.2 174.46 Z" class="st8"/>
			</g>
			<g id="shape240-138" v:mID="240" v:groupContext="shape" transform="translate(21.6954,-34.4434)">
				<title>Sechseck.20</title>
				<v:userDefs>
					<v:ud v:nameU="visVersion" v:val="VT0(14):26"/>
					<v:ud v:nameU="msvThemeColors" v:val="VT0(36):26"/>
					<v:ud v:nameU="msvThemeEffects" v:val="VT0(16):26"/>
				</v:userDefs>
				<path d="M1.2 174.46 L0.32 174.46 L-0.12 175.22 L0.32 175.98 L1.2 175.98 L1.64 175.22 L1.2 174.46 Z" class="st8"/>
			</g>
			<g id="shape241-141" v:mID="241" v:groupContext="shape" transform="translate(23.4347,-29.3575)">
				<title>Sechseck.21</title>
				<v:userDefs>
					<v:ud v:nameU="visVersion" v:val="VT0(14):26"/>
					<v:ud v:nameU="msvThemeColors" v:val="VT0(36):26"/>
					<v:ud v:nameU="msvThemeEffects" v:val="VT0(16):26"/>
				</v:userDefs>
				<path d="M1.2 174.46 L0.32 174.46 L-0.12 175.22 L0.32 175.98 L1.2 175.98 L1.64 175.22 L1.2 174.46 Z" class="st8"/>
			</g>
			<g id="shape242-144" v:mID="242" v:groupContext="shape" transform="translate(11.0128,-35.9662)">
				<title>Sechseck.22</title>
				<v:userDefs>
					<v:ud v:nameU="visVersion" v:val="VT0(14):26"/>
					<v:ud v:nameU="msvThemeColors" v:val="VT0(36):26"/>
					<v:ud v:nameU="msvThemeEffects" v:val="VT0(16):26"/>
				</v:userDefs>
				<path d="M1.2 174.46 L0.32 174.46 L-0.12 175.22 L0.32 175.98 L1.2 175.98 L1.64 175.22 L1.2 174.46 Z" class="st8"/>
			</g>
			<g id="shape243-147" v:mID="243" v:groupContext="shape" transform="translate(18.1884,-36.3386)">
				<title>Sechseck.23</title>
				<v:userDefs>
					<v:ud v:nameU="visVersion" v:val="VT0(14):26"/>
					<v:ud v:nameU="msvThemeColors" v:val="VT0(36):26"/>
					<v:ud v:nameU="msvThemeEffects" v:val="VT0(16):26"/>
				</v:userDefs>
				<path d="M1.2 174.46 L0.32 174.46 L-0.12 175.22 L0.32 175.98 L1.2 175.98 L1.64 175.22 L1.2 174.46 Z" class="st8"/>
			</g>
			<g id="shape244-150" v:mID="244" v:groupContext="shape" transform="translate(6.86627,-24.5221)">
				<title>Sechseck.24</title>
				<v:userDefs>
					<v:ud v:nameU="visVersion" v:val="VT0(14):26"/>
					<v:ud v:nameU="msvThemeColors" v:val="VT0(36):26"/>
					<v:ud v:nameU="msvThemeEffects" v:val="VT0(16):26"/>
				</v:userDefs>
				<path d="M1.2 174.46 L0.32 174.46 L-0.12 175.22 L0.32 175.98 L1.2 175.98 L1.64 175.22 L1.2 174.46 Z" class="st8"/>
			</g>
			<g id="shape245-153" v:mID="245" v:groupContext="shape" transform="translate(17.5072,-29.3575)">
				<title>Sechseck.25</title>
				<v:userDefs>
					<v:ud v:nameU="visVersion" v:val="VT0(14):26"/>
					<v:ud v:nameU="msvThemeColors" v:val="VT0(36):26"/>
					<v:ud v:nameU="msvThemeEffects" v:val="VT0(16):26"/>
				</v:userDefs>
				<path d="M1.2 174.46 L0.32 174.46 L-0.12 175.22 L0.32 175.98 L1.2 175.98 L1.64 175.22 L1.2 174.46 Z" class="st8"/>
			</g>
			<g id="shape246-156" v:mID="246" v:groupContext="shape" transform="translate(11.5797,-25.1945)">
				<title>Sechseck.26</title>
				<v:userDefs>
					<v:ud v:nameU="visVersion" v:val="VT0(14):26"/>
					<v:ud v:nameU="msvThemeColors" v:val="VT0(36):26"/>
					<v:ud v:nameU="msvThemeEffects" v:val="VT0(16):26"/>
				</v:userDefs>
				<path d="M1.2 174.46 L0.32 174.46 L-0.12 175.22 L0.32 175.98 L1.2 175.98 L1.64 175.22 L1.2 174.46 Z" class="st8"/>
			</g>
			<g id="shape247-159" v:mID="247" v:groupContext="shape" transform="translate(14.6088,-21.5985)">
				<title>Sechseck.27</title>
				<v:userDefs>
					<v:ud v:nameU="visVersion" v:val="VT0(14):26"/>
					<v:ud v:nameU="msvThemeColors" v:val="VT0(36):26"/>
					<v:ud v:nameU="msvThemeEffects" v:val="VT0(16):26"/>
				</v:userDefs>
				<path d="M1.2 174.46 L0.32 174.46 L-0.12 175.22 L0.32 175.98 L1.2 175.98 L1.64 175.22 L1.2 174.46 Z" class="st8"/>
			</g>
			<g id="shape248-162" v:mID="248" v:groupContext="shape" transform="translate(16.5041,-25.567)">
				<title>Sechseck.28</title>
				<v:userDefs>
					<v:ud v:nameU="visVersion" v:val="VT0(14):26"/>
					<v:ud v:nameU="msvThemeColors" v:val="VT0(36):26"/>
					<v:ud v:nameU="msvThemeEffects" v:val="VT0(16):26"/>
				</v:userDefs>
				<path d="M1.2 174.46 L0.32 174.46 L-0.12 175.22 L0.32 175.98 L1.2 175.98 L1.64 175.22 L1.2 174.46 Z" class="st8"/>
			</g>
			<g id="shape249-165" v:mID="249" v:groupContext="shape" transform="translate(25.9474,-37.278)">
				<title>Sechseck.29</title>
				<v:userDefs>
					<v:ud v:nameU="visVersion" v:val="VT0(14):26"/>
					<v:ud v:nameU="msvThemeColors" v:val="VT0(36):26"/>
					<v:ud v:nameU="msvThemeEffects" v:val="VT0(16):26"/>
				</v:userDefs>
				<path d="M1.2 174.46 L0.32 174.46 L-0.12 175.22 L0.32 175.98 L1.2 175.98 L1.64 175.22 L1.2 174.46 Z" class="st8"/>
			</g>
			<g id="shape250-168" v:mID="250" v:groupContext="shape" transform="translate(18.7718,-18.1969)">
				<title>Sechseck.30</title>
				<v:userDefs>
					<v:ud v:nameU="visVersion" v:val="VT0(14):26"/>
					<v:ud v:nameU="msvThemeColors" v:val="VT0(36):26"/>
					<v:ud v:nameU="msvThemeEffects" v:val="VT0(16):26"/>
				</v:userDefs>
				<path d="M1.2 174.46 L0.32 174.46 L-0.12 175.22 L0.32 175.98 L1.2 175.98 L1.64 175.22 L1.2 174.46 Z" class="st8"/>
			</g>
			<g id="shape251-171" v:mID="251" v:groupContext="shape" transform="translate(11.5797,-29.5503)">
				<title>Sechseck.31</title>
				<v:userDefs>
					<v:ud v:nameU="visVersion" v:val="VT0(14):26"/>
					<v:ud v:nameU="msvThemeColors" v:val="VT0(36):26"/>
					<v:ud v:nameU="msvThemeEffects" v:val="VT0(16):26"/>
				</v:userDefs>
				<path d="M1.2 174.46 L0.32 174.46 L-0.12 175.22 L0.32 175.98 L1.2 175.98 L1.64 175.22 L1.2 174.46 Z" class="st8"/>
			</g>
			<g id="shape252-174" v:mID="252" v:groupContext="shape" transform="translate(13.8474,-39.7402)">
				<title>Sechseck.32</title>
				<v:userDefs>
					<v:ud v:nameU="visVersion" v:val="VT0(14):26"/>
					<v:ud v:nameU="msvThemeColors" v:val="VT0(36):26"/>
					<v:ud v:nameU="msvThemeEffects" v:val="VT0(16):26"/>
				</v:userDefs>
				<path d="M1.2 174.46 L0.32 174.46 L-0.12 175.22 L0.32 175.98 L1.2 175.98 L1.64 175.22 L1.2 174.46 Z" class="st8"/>
			</g>
			<g id="shape253-177" v:mID="253" v:groupContext="shape" transform="translate(16.86,-32.5646)">
				<title>Sechseck.33</title>
				<v:userDefs>
					<v:ud v:nameU="visVersion" v:val="VT0(14):26"/>
					<v:ud v:nameU="msvThemeColors" v:val="VT0(36):26"/>
					<v:ud v:nameU="msvThemeEffects" v:val="VT0(16):26"/>
				</v:userDefs>
				<path d="M1.2 174.46 L0.32 174.46 L-0.12 175.22 L0.32 175.98 L1.2 175.98 L1.64 175.22 L1.2 174.46 Z" class="st8"/>
			</g>
			<g id="shape254-180" v:mID="254" v:groupContext="shape" transform="translate(19.9056,-25.7615)">
				<title>Sechseck.36</title>
				<v:userDefs>
					<v:ud v:nameU="visVersion" v:val="VT0(14):26"/>
					<v:ud v:nameU="msvThemeColors" v:val="VT0(36):26"/>
					<v:ud v:nameU="msvThemeEffects" v:val="VT0(16):26"/>
				</v:userDefs>
				<path d="M1.2 174.46 L0.32 174.46 L-0.12 175.22 L0.32 175.98 L1.2 175.98 L1.64 175.22 L1.2 174.46 Z" class="st8"/>
			</g>
			<g id="shape255-183" v:mID="255" v:groupContext="shape" transform="translate(20.3558,-21.5985)">
				<title>Sechseck.45</title>
				<v:userDefs>
					<v:ud v:nameU="visVersion" v:val="VT0(14):26"/>
					<v:ud v:nameU="msvThemeColors" v:val="VT0(36):26"/>
					<v:ud v:nameU="msvThemeEffects" v:val="VT0(16):26"/>
				</v:userDefs>
				<path d="M1.2 174.46 L0.32 174.46 L-0.12 175.22 L0.32 175.98 L1.2 175.98 L1.64 175.22 L1.2 174.46 Z" class="st8"/>
			</g>
			<g id="shape256-186" v:mID="256" v:groupContext="shape" transform="translate(13.8084,-34.4434)">
				<title>Sechseck.65</title>
				<v:userDefs>
					<v:ud v:nameU="visVersion" v:val="VT0(14):26"/>
					<v:ud v:nameU="msvThemeColors" v:val="VT0(36):26"/>
					<v:ud v:nameU="msvThemeEffects" v:val="VT0(16):26"/>
				</v:userDefs>
				<path d="M1.2 174.46 L0.32 174.46 L-0.12 175.22 L0.32 175.98 L1.2 175.98 L1.64 175.22 L1.2 174.46 Z" class="st8"/>
			</g>
			<g id="shape257-189" v:mID="257" v:groupContext="shape" transform="translate(57.6171,-0.046648) rotate(17)">
				<title>Tabelle.257</title>
				<v:userDefs>
					<v:ud v:nameU="msvThemeColors" v:val="VT0(36):26"/>
					<v:ud v:nameU="msvThemeEffects" v:val="VT0(16):26"/>
				</v:userDefs>
				<path d="M0 166.92 L0 174.04 L0.02 174.04 A3.97763 1.7653 -180 0 0 0 174.21 A3.97763 1.7653 -180 1 0 7.96 174.21
							 A3.97763 1.7653 -180 0 0 7.94 174.04 L7.95 174.04 L7.95 166.92 A9.85284 4.37904 -180 0 0 0 166.92 Z"
						class="st4"/>
			</g>
			<g id="shape258-192" v:mID="258" v:groupContext="shape" transform="translate(2.79776E-014,-2.29994)">
				<title>Tabelle.258</title>
				<path d="M18.84 175.98 L19.91 172.51 L19.86 172.49 A9.85284 4.37904 -163 0 0 1.1 166.76 L1.06 166.75 L0.98 167.03
							 A9.85284 4.37904 -163 0 0 0.94 167.13 A9.85284 4.37904 -163 0 0 0.91 167.23 L0 170.22 L18.84 175.98
							 Z" class="st5"/>
			</g>
			<g id="shape259-194" v:mID="259" v:groupContext="shape" transform="translate(50.2572,3.29489) rotate(17)">
				<title>Ellipse.1</title>
				<v:userDefs>
					<v:ud v:nameU="visVersion" v:val="VT0(14):26"/>
					<v:ud v:nameU="msvThemeColors" v:val="VT0(36):26"/>
					<v:ud v:nameU="msvThemeEffects" v:val="VT0(16):26"/>
				</v:userDefs>
				<path d="M0 171.6 A9.85284 4.37904 0 1 1 19.71 171.6 A9.85284 4.37904 0 1 1 0 171.6 Z" class="st4"/>
			</g>
			<g id="shape260-197" v:mID="260" v:groupContext="shape" transform="translate(57.5309,6.91373) rotate(17)">
				<title>Tabelle.260</title>
				<v:userDefs>
					<v:ud v:nameU="msvThemeColors" v:val="VT0(36):26"/>
					<v:ud v:nameU="msvThemeEffects" v:val="VT0(16):26"/>
				</v:userDefs>
				<path d="M0 170.83 L0 174.55 L0.01 174.55 A2.00079 1.30073 -180 0 0 0 174.68 A2.00079 1.30073 -180 1 0 4 174.68 A2.00079
							 1.30073 -180 0 0 3.99 174.55 L4 174.55 L4 170.83 A14.9795 4.58718 0 0 1 -0 170.83 Z" class="st10"/>
			</g>
			<g id="shape261-201" v:mID="261" v:groupContext="shape" transform="translate(57.6004,6.93367) rotate(17)">
				<title>Ellipse.49</title>
				<v:userDefs>
					<v:ud v:nameU="visVersion" v:val="VT0(14):26"/>
					<v:ud v:nameU="msvThemeColors" v:val="VT0(36):26"/>
					<v:ud v:nameU="msvThemeEffects" v:val="VT0(16):26"/>
				</v:userDefs>
				<path d="M0 175.04 a1.99324 0.936218 0 1 1 3.98648 0 a1.99324 0.936218 0 1 1 -3.98648 0 Z" class="st4"/>
			</g>
		</g>
		<g id="group262-204" transform="translate(177.488,-139.191)" v:mID="262" v:groupContext="group">
			<v:userDefs>
				<v:ud v:nameU="msvThemeColors" v:val="VT0(36):26"/>
				<v:ud v:nameU="msvThemeEffects" v:val="VT0(16):26"/>
			</v:userDefs>
			<title>Tabelle.262</title>
			<g id="shape263-205" v:mID="263" v:groupContext="shape" transform="translate(57.6596,-0.0696041) rotate(17)">
				<title>Tabelle.263</title>
				<v:userDefs>
					<v:ud v:nameU="msvThemeColors" v:val="VT0(36):26"/>
					<v:ud v:nameU="msvThemeEffects" v:val="VT0(16):26"/>
				</v:userDefs>
				<path d="M0 166.92 L0 174.04 L0.02 174.04 A3.97763 1.7653 -180 0 0 0 174.21 A3.97763 1.7653 -180 1 0 7.96 174.21
							 A3.97763 1.7653 -180 0 0 7.94 174.04 L7.95 174.04 L7.95 166.92 A9.85284 4.37904 -180 0 0 0 166.92 Z"
						class="st4"/>
			</g>
			<g id="shape264-208" v:mID="264" v:groupContext="shape" transform="translate(57.7441,-0.133997) rotate(17)">
				<title>Ellipse.72</title>
				<v:userDefs>
					<v:ud v:nameU="visVersion" v:val="VT0(14):26"/>
					<v:ud v:nameU="msvThemeColors" v:val="VT0(36):26"/>
					<v:ud v:nameU="msvThemeEffects" v:val="VT0(16):26"/>
				</v:userDefs>
				<path d="M0 174.54 A3.97757 1.43622 0 0 1 7.96 174.54 A3.97757 1.43622 0 0 1 0 174.54 Z" class="st4"/>
			</g>
			<g id="shape265-211" v:mID="265" v:groupContext="shape" transform="translate(57.6171,-0.046648) rotate(17)">
				<title>Tabelle.265</title>
				<v:userDefs>
					<v:ud v:nameU="msvThemeColors" v:val="VT0(36):26"/>
					<v:ud v:nameU="msvThemeEffects" v:val="VT0(16):26"/>
				</v:userDefs>
				<path d="M0 166.92 L0 174.04 L0.02 174.04 A3.97763 1.7653 -180 0 0 0 174.21 A3.97763 1.7653 -180 1 0 7.96 174.21
							 A3.97763 1.7653 -180 0 0 7.94 174.04 L7.95 174.04 L7.95 166.92 A9.85284 4.37904 -180 0 0 0 166.92 Z"
						class="st4"/>
			</g>
			<g id="shape266-214" v:mID="266" v:groupContext="shape" transform="translate(0,-2.29994)">
				<title>Tabelle.266</title>
				<v:userDefs>
					<v:ud v:nameU="msvThemeColors" v:val="VT0(36):26"/>
					<v:ud v:nameU="msvThemeEffects" v:val="VT0(16):26"/>
				</v:userDefs>
				<path d="M18.84 175.98 L19.91 172.51 L19.86 172.49 A9.85284 4.37904 -163 0 0 1.1 166.76 L1.06 166.75 L0.98 167.03
							 A9.85284 4.37904 -163 0 0 0.94 167.13 A9.85284 4.37904 -163 0 0 0.91 167.23 L0 170.22 L18.84 175.98
							 Z" class="st9"/>
			</g>
			<g id="shape267-217" v:mID="267" v:groupContext="shape" transform="translate(50.2572,3.29489) rotate(17)">
				<title>Ellipse.75</title>
				<v:userDefs>
					<v:ud v:nameU="visVersion" v:val="VT0(14):26"/>
					<v:ud v:nameU="msvThemeColors" v:val="VT0(36):26"/>
					<v:ud v:nameU="msvThemeEffects" v:val="VT0(16):26"/>
				</v:userDefs>
				<path d="M0 171.6 A9.85284 4.37904 0 1 1 19.71 171.6 A9.85284 4.37904 0 1 1 0 171.6 Z" class="st4"/>
			</g>
			<g id="shape268-220" v:mID="268" v:groupContext="shape" transform="translate(57.5309,6.91373) rotate(17)">
				<title>Tabelle.268</title>
				<v:userDefs>
					<v:ud v:nameU="msvThemeColors" v:val="VT0(36):26"/>
					<v:ud v:nameU="msvThemeEffects" v:val="VT0(16):26"/>
				</v:userDefs>
				<path d="M0 170.83 L0 174.55 L0.01 174.55 A2.00079 1.30073 -180 0 0 0 174.68 A2.00079 1.30073 -180 1 0 4 174.68 A2.00079
							 1.30073 -180 0 0 3.99 174.55 L4 174.55 L4 170.83 A14.9795 4.58718 0 0 1 -0 170.83 Z" class="st10"/>
			</g>
			<g id="shape269-223" v:mID="269" v:groupContext="shape" transform="translate(57.6004,6.93367) rotate(17)">
				<title>Ellipse.77</title>
				<v:userDefs>
					<v:ud v:nameU="visVersion" v:val="VT0(14):26"/>
					<v:ud v:nameU="msvThemeColors" v:val="VT0(36):26"/>
					<v:ud v:nameU="msvThemeEffects" v:val="VT0(16):26"/>
				</v:userDefs>
				<path d="M0 175.04 a1.99324 0.936218 0 1 1 3.98648 0 a1.99324 0.936218 0 1 1 -3.98648 0 Z" class="st4"/>
			</g>
		</g>
	</g>
</svg>
