<?xml version="1.0" encoding="UTF-8" standalone="no"?>
<!DOCTYPE svg PUBLIC "-//W3C//DTD SVG 1.1//EN" "http://www.w3.org/Graphics/SVG/1.1/DTD/svg11.dtd">
<!-- Generiert durch Microsoft Visio, SVG Export 6.svg Page-1 -->
<svg xmlns="http://www.w3.org/2000/svg" xmlns:xlink="http://www.w3.org/1999/xlink" xmlns:ev="http://www.w3.org/2001/xml-events"
		xmlns:v="http://schemas.microsoft.com/visio/2003/SVGExtensions/" width="5.20768in" height="2.44414in"
		viewBox="0 0 374.953 175.978" xml:space="preserve" color-interpolation-filters="sRGB" class="st14">
	<v:documentProperties v:langID="1031" v:metric="true" v:viewMarkup="false">
		<v:userDefs>
			<v:ud v:nameU="msvNoAutoConnect" v:val="VT0(0):26"/>
			<v:ud v:nameU="msvConvertTheme"/>
		</v:userDefs>
	</v:documentProperties>

	<style type="text/css">
	<![CDATA[
		.st1 {fill:#000000;stroke:none;stroke-linecap:round;stroke-linejoin:round;stroke-width:0.75}
		.st2 {fill:url(#grad0-6);stroke:#ffffff;stroke-linecap:round;stroke-linejoin:round;stroke-width:0.25}
		.st3 {fill:none;stroke:none;stroke-linecap:round;stroke-linejoin:round;stroke-width:0.25}
		.st4 {fill:url(#grad0-6);stroke:#000000;stroke-linecap:round;stroke-linejoin:round;stroke-width:0.5}
		.st5 {fill:#ffffff;stroke:#000000;stroke-linecap:round;stroke-linejoin:round;stroke-width:0.5}
		.st6 {fill:url(#grad0-27);stroke:#000000;stroke-linecap:round;stroke-linejoin:round;stroke-width:0.5}
		.st7 {fill:url(#grad0-34);stroke:#000000;stroke-linecap:round;stroke-linejoin:round;stroke-width:0.5}
		.st8 {fill:url(#grad0-50);stroke:none;stroke-linecap:round;stroke-linejoin:round;stroke-width:0.25}
		.st9 {fill:url(#grad0-116);stroke:#000000;stroke-linecap:round;stroke-linejoin:round;stroke-width:0.5}
		.st10 {fill:url(#grad0-6);stroke:#000000;stroke-linecap:round;stroke-linejoin:round;stroke-width:0.25}
		.st11 {fill:url(#grad0-127);stroke:#000000;stroke-linecap:round;stroke-linejoin:round;stroke-width:1.5}
		.st12 {fill:url(#grad0-131);stroke:#000000;stroke-linecap:round;stroke-linejoin:round;stroke-width:0.25}
		.st13 {fill:url(#grad0-34);stroke:#000000;stroke-linecap:round;stroke-linejoin:round;stroke-width:0.25}
		.st14 {fill:none;fill-rule:evenodd;font-size:12px;overflow:visible;stroke-linecap:square;stroke-miterlimit:3}
	]]>
	</style>

	<defs id="Patterns_And_Gradients">
		<linearGradient id="grad0-6" x1="0" y1="0" x2="1" y2="0" gradientTransform="rotate(270 0.5 0.5)">
			<stop offset="0" stop-color="#f0f0f0" stop-opacity="1"/>
			<stop offset="1" stop-color="#ffffff" stop-opacity="1"/>
		</linearGradient>
		<linearGradient id="grad0-27" x1="0" y1="0" x2="1" y2="0" gradientTransform="rotate(270 0.5 0.5)">
			<stop offset="0" stop-color="#e1a900" stop-opacity="1"/>
			<stop offset="1" stop-color="#ffc000" stop-opacity="1"/>
		</linearGradient>
		<linearGradient id="grad0-34" x1="0" y1="0" x2="1" y2="0" gradientTransform="rotate(270 0.5 0.5)">
			<stop offset="0" stop-color="#000000" stop-opacity="1"/>
			<stop offset="1" stop-color="#000000" stop-opacity="1"/>
		</linearGradient>
		<linearGradient id="grad0-50" x1="0" y1="0" x2="1" y2="0" gradientTransform="rotate(270 0.5 0.5)">
			<stop offset="0" stop-color="#783e0e" stop-opacity="1"/>
			<stop offset="1" stop-color="#8c4810" stop-opacity="1"/>
		</linearGradient>
		<linearGradient id="grad0-116" x1="0" y1="0" x2="1" y2="0" gradientTransform="rotate(270 0.5 0.5)">
			<stop offset="0" stop-color="#ffffff" stop-opacity="1"/>
			<stop offset="1" stop-color="#f0f0f0" stop-opacity="1"/>
		</linearGradient>
		<linearGradient id="grad0-127" x1="0" y1="0" x2="1" y2="0" gradientTransform="rotate(270 0.5 0.5)">
			<stop offset="0" stop-color="#e78636" stop-opacity="1"/>
			<stop offset="1" stop-color="#ea9651" stop-opacity="1"/>
		</linearGradient>
		<linearGradient id="grad0-131" x1="0" y1="0" x2="1" y2="0" gradientTransform="rotate(270 0.5 0.5)">
			<stop offset="0" stop-color="#d7a200" stop-opacity="1"/>
			<stop offset="1" stop-color="#f4b400" stop-opacity="1"/>
		</linearGradient>
	</defs>
	<g v:mID="4" v:index="1" v:groupContext="backgroundPage">
		<v:userDefs>
			<v:ud v:nameU="msvThemeColors" v:val="VT0(36):26"/>
			<v:ud v:nameU="msvThemeEffects" v:val="VT0(16):26"/>
			<v:ud v:nameU="msvThemeOrder" v:val="VT0(0):26"/>
			<v:ud v:nameU="msvVisioCreated" v:prompt="" v:val="VT0(0):26"/>
		</v:userDefs>
		<title>VHintergrund-1</title>
		<v:pageProperties width="5.20768" height="2.44414" v:drawingScale="0.0393701" v:pageScale="0.0393701" v:drawingUnits="24"
				v:shadowOffsetX="8.50394" v:shadowOffsetY="-8.50394"/>
		<g id="shape1-1" v:mID="1" v:groupContext="shape">
			<title>Vollton</title>
			<v:userDefs>
				<v:ud v:nameU="Background" v:val="VT0(0):26"/>
				<v:ud v:nameU="visVersion" v:val="VT0(14):26"/>
				<v:ud v:nameU="msvShapeCategories" v:prompt="" v:val="VT4(DoNotContain)"/>
				<v:ud v:nameU="msvThemeColors" v:val="VT0(36):26"/>
				<v:ud v:nameU="msvVisioCreated" v:prompt="" v:val="VT0(0):26"/>
			</v:userDefs>
			<rect x="0" y="0" width="374.953" height="175.978" class="st1"/>
		</g>
		<g id="shape2-3" v:mID="2" v:groupContext="shape" transform="translate(222.201,234.318) rotate(180)">
			<title>Pfeil 60 Grad-Spitze</title>
			<v:userDefs>
				<v:ud v:nameU="visVersion" v:val="VT0(14):26"/>
				<v:ud v:nameU="msvThemeColors" v:val="VT0(36):26"/>
				<v:ud v:nameU="msvThemeEffects" v:val="VT0(16):26"/>
			</v:userDefs>
			<path d="M0 168.89 L4.09 161.8 L4.09 166.48 L69.45 166.48 L69.45 171.3 L4.09 171.3 L4.09 175.98 L0 168.89 Z"
					class="st2"/>
		</g>
	</g>
	<g v:mID="0" v:index="2" v:groupContext="foregroundPage">
		<v:userDefs>
			<v:ud v:nameU="msvThemeColors" v:val="VT0(36):26"/>
			<v:ud v:nameU="msvThemeEffects" v:val="VT0(16):26"/>
			<v:ud v:nameU="msvThemeOrder" v:val="VT0(0):26"/>
		</v:userDefs>
		<title>Zeichenblatt-1</title>
		<v:pageProperties v:drawingScale="0.0393701" v:pageScale="0.0393701" v:drawingUnits="24" v:shadowOffsetX="8.50394"
				v:shadowOffsetY="-8.50394"/>
		<v:layer v:name="Flussdiagramm" v:index="0"/>
		<v:layer v:name="Verbinder" v:index="1"/>
		<g id="shape195-7" v:mID="195" v:groupContext="shape" transform="translate(125.787,-123.895)">
			<title>Rechteck.195</title>
			<v:userDefs>
				<v:ud v:nameU="visVersion" v:val="VT0(15):26"/>
				<v:ud v:nameU="msvThemeColors" v:val="VT0(36):26"/>
				<v:ud v:nameU="msvThemeEffects" v:val="VT0(16):26"/>
			</v:userDefs>
			<rect x="0" y="128.965" width="123.307" height="47.0131" class="st3"/>
		</g>
		<g id="shape192-9" v:mID="192" v:groupContext="shape" transform="translate(1.59872E-014,-2.26772)">
			<title>Rechteck.13.192</title>
			<v:userDefs>
				<v:ud v:nameU="visVersion" v:val="VT0(15):26"/>
				<v:ud v:nameU="msvThemeColors" v:val="VT0(36):26"/>
				<v:ud v:nameU="msvThemeEffects" v:val="VT0(16):26"/>
			</v:userDefs>
			<rect x="0" y="3.63146" width="123.307" height="172.346" class="st3"/>
		</g>
		<g id="shape194-11" v:mID="194" v:groupContext="shape" transform="translate(251.575,-2.26772)">
			<title>Rechteck.194</title>
			<v:userDefs>
				<v:ud v:nameU="visVersion" v:val="VT0(15):26"/>
				<v:ud v:nameU="msvThemeColors" v:val="VT0(36):26"/>
				<v:ud v:nameU="msvThemeEffects" v:val="VT0(16):26"/>
			</v:userDefs>
			<rect x="0" y="3.63146" width="123.307" height="172.346" class="st3"/>
		</g>
		<g id="group270-13" transform="translate(33.1338,-24.688)" v:mID="270" v:groupContext="group">
			<v:userDefs>
				<v:ud v:nameU="msvThemeColors" v:val="VT0(36):26"/>
				<v:ud v:nameU="msvThemeEffects" v:val="VT0(16):26"/>
			</v:userDefs>
			<title>Tabelle.270</title>
			<g id="shape271-14" v:mID="271" v:groupContext="shape" transform="translate(83.0524,-111.841) rotate(17)">
				<title>Ellipse.44</title>
				<v:userDefs>
					<v:ud v:nameU="visVersion" v:val="VT0(14):26"/>
					<v:ud v:nameU="msvThemeColors" v:val="VT0(36):26"/>
					<v:ud v:nameU="msvThemeEffects" v:val="VT0(16):26"/>
				</v:userDefs>
				<path d="M0 170.5 A12.4073 5.4738 0 1 1 24.81 170.5 A12.4073 5.4738 0 0 1 0 170.5 Z" class="st4"/>
			</g>
			<g id="shape272-17" v:mID="272" v:groupContext="shape" transform="translate(29.5323,-81.5783)">
				<title>Tabelle.272</title>
				<path d="M6.55 152.21 L0 173.65 A8.48206 7.48386 107 0 1 7.6 175.98 L17.56 143.39 L17.54 143.39 A6.21017 3.97763
							 -73 0 0 17.74 142.82 A6.21017 3.97763 -73 0 0 17.91 142.18 L18.73 139.5 L18.71 139.5 A3.97763 2.86536
							 -163 0 0 18.81 139.24 A3.97763 2.86536 -163 0 0 11.2 136.91 A3.97763 2.86536 -163 0 0 11.14 137.18 L11.13
							 137.18 L6.53 152.21 L6.55 152.21 Z" class="st5"/>
			</g>
			<g id="shape273-19" v:mID="273" v:groupContext="shape" transform="translate(62.8578,-71.2798) rotate(17)">
				<title>Ellipse.37</title>
				<v:userDefs>
					<v:ud v:nameU="visVersion" v:val="VT0(14):26"/>
					<v:ud v:nameU="msvThemeColors" v:val="VT0(36):26"/>
					<v:ud v:nameU="msvThemeEffects" v:val="VT0(16):26"/>
				</v:userDefs>
				<path d="M0 169.41 A19.8425 6.56856 0 0 1 39.69 169.41 A19.8425 6.56856 0 1 1 0 169.41 Z" class="st5"/>
			</g>
			<g id="shape274-21" v:mID="274" v:groupContext="shape" transform="translate(52.7567,-6.44435) rotate(17)">
				<title>Tabelle.274</title>
				<v:userDefs>
					<v:ud v:nameU="msvThemeColors" v:val="VT0(36):26"/>
					<v:ud v:nameU="msvThemeEffects" v:val="VT0(16):26"/>
				</v:userDefs>
				<path d="M0 106.34 A10.5462 4.80919 -180 0 0 0.05 106.8 L0.02 106.8 L0.02 170.89 A10.5462 4.80919 -180 0 0 0 171.17
							 A10.5462 4.80919 -180 0 0 21.08 171.37 L21.09 171.37 L21.09 171.17 L21.09 106.8 L21.04 106.8 A10.5462
							 4.80919 -180 0 0 21.09 106.34 A10.5462 4.80919 -180 0 0 0 106.34 Z" class="st4"/>
			</g>
			<g id="shape275-24" v:mID="275" v:groupContext="shape" transform="translate(53.6829,-9.35732) rotate(17)">
				<title>Tabelle.275</title>
				<v:userDefs>
					<v:ud v:nameU="msvThemeColors" v:val="VT0(36):26"/>
					<v:ud v:nameU="msvThemeEffects" v:val="VT0(16):26"/>
				</v:userDefs>
				<path d="M0 141.57 A10.5462 2.37641 -180 0 0 0.05 141.8 L0.02 141.8 L0.02 173.46 A10.5462 2.37641 -180 0 0 0 173.6
							 A10.5462 2.37641 -180 0 0 21.08 173.7 L21.09 173.7 L21.09 173.6 L21.09 141.8 L21.04 141.8 A10.5462 2.37641
							 -180 0 0 21.09 141.57 A10.5462 2.37641 -180 0 0 0 141.57 Z" class="st6"/>
			</g>
			<g id="shape276-28" v:mID="276" v:groupContext="shape" transform="translate(69.9732,-40.1033) rotate(17)">
				<title>Tabelle.276</title>
				<v:userDefs>
					<v:ud v:nameU="msvThemeColors" v:val="VT0(36):26"/>
					<v:ud v:nameU="msvThemeEffects" v:val="VT0(16):26"/>
				</v:userDefs>
				<path d="M0 139.1 L0 175.98 L7.85 175.98 L7.85 139.1 A10.5462 4.80919 -180 0 0 -0 139.1 Z" class="st4"/>
			</g>
			<g id="shape277-31" v:mID="277" v:groupContext="shape" transform="translate(63.7202,-40.3337) rotate(17)">
				<title>Ellipse.41</title>
				<v:userDefs>
					<v:ud v:nameU="visVersion" v:val="VT0(14):26"/>
					<v:ud v:nameU="msvThemeColors" v:val="VT0(36):26"/>
					<v:ud v:nameU="msvThemeEffects" v:val="VT0(16):26"/>
				</v:userDefs>
				<path d="M0 173.03 A10.0454 2.94922 0 1 1 20.09 173.03 A10.0454 2.94922 0 1 1 0 173.03 Z" class="st7"/>
			</g>
			<g id="shape278-35" v:mID="278" v:groupContext="shape" transform="translate(53.4198,-6.24164) rotate(17)">
				<title>Ellipse.42</title>
				<v:userDefs>
					<v:ud v:nameU="visVersion" v:val="VT0(14):26"/>
					<v:ud v:nameU="msvThemeColors" v:val="VT0(36):26"/>
					<v:ud v:nameU="msvThemeEffects" v:val="VT0(16):26"/>
				</v:userDefs>
				<path d="M0 171.6 A9.85284 4.37904 0 1 1 19.71 171.6 A9.85284 4.37904 0 1 1 0 171.6 Z" class="st4"/>
			</g>
			<g id="shape279-38" v:mID="279" v:groupContext="shape" transform="translate(57.6596,-0.0144222) rotate(17)">
				<title>Tabelle.279</title>
				<v:userDefs>
					<v:ud v:nameU="msvThemeColors" v:val="VT0(36):26"/>
					<v:ud v:nameU="msvThemeEffects" v:val="VT0(16):26"/>
				</v:userDefs>
				<path d="M0 166.92 L0 174.04 L0.02 174.04 A3.97763 1.7653 -180 0 0 0 174.21 A3.97763 1.7653 -180 1 0 7.96 174.21
							 A3.97763 1.7653 -180 0 0 7.94 174.04 L7.95 174.04 L7.95 166.92 A9.85284 4.37904 -180 0 0 0 166.92 Z"
						class="st4"/>
			</g>
			<g id="shape280-41" v:mID="280" v:groupContext="shape" transform="translate(57.7441,-0.0788147) rotate(17)">
				<title>Ellipse.27</title>
				<v:userDefs>
					<v:ud v:nameU="visVersion" v:val="VT0(14):26"/>
					<v:ud v:nameU="msvThemeColors" v:val="VT0(36):26"/>
					<v:ud v:nameU="msvThemeEffects" v:val="VT0(16):26"/>
				</v:userDefs>
				<path d="M0 174.54 A3.97757 1.43622 0 0 1 7.96 174.54 A3.97757 1.43622 0 0 1 0 174.54 Z" class="st4"/>
			</g>
			<g id="shape281-44" v:mID="281" v:groupContext="shape" transform="translate(71.1612,-43.9273) rotate(17)">
				<title>Tabelle.281</title>
				<v:userDefs>
					<v:ud v:nameU="msvThemeColors" v:val="VT0(36):26"/>
					<v:ud v:nameU="msvThemeEffects" v:val="VT0(16):26"/>
				</v:userDefs>
				<path d="M0 143.35 L0 175.98 L7.85 175.98 L7.85 143.35 A10.5462 4.25502 -180 0 0 -0 143.35 Z" class="st4"/>
			</g>
			<g id="shape282-47" v:mID="282" v:groupContext="shape" transform="translate(19.5167,-39.8795)">
				<title>Sechseck</title>
				<v:userDefs>
					<v:ud v:nameU="visVersion" v:val="VT0(14):26"/>
					<v:ud v:nameU="msvThemeColors" v:val="VT0(36):26"/>
					<v:ud v:nameU="msvThemeEffects" v:val="VT0(16):26"/>
				</v:userDefs>
				<path d="M1.2 174.46 L0.32 174.46 L-0.12 175.22 L0.32 175.98 L1.2 175.98 L1.64 175.22 L1.2 174.46 Z" class="st8"/>
			</g>
			<g id="shape283-51" v:mID="283" v:groupContext="shape" transform="translate(21.6954,-34.3882)">
				<title>Sechseck.33</title>
				<v:userDefs>
					<v:ud v:nameU="visVersion" v:val="VT0(14):26"/>
					<v:ud v:nameU="msvThemeColors" v:val="VT0(36):26"/>
					<v:ud v:nameU="msvThemeEffects" v:val="VT0(16):26"/>
				</v:userDefs>
				<path d="M1.2 174.46 L0.32 174.46 L-0.12 175.22 L0.32 175.98 L1.2 175.98 L1.64 175.22 L1.2 174.46 Z" class="st8"/>
			</g>
			<g id="shape284-54" v:mID="284" v:groupContext="shape" transform="translate(23.4347,-29.3023)">
				<title>Sechseck.34</title>
				<v:userDefs>
					<v:ud v:nameU="visVersion" v:val="VT0(14):26"/>
					<v:ud v:nameU="msvThemeColors" v:val="VT0(36):26"/>
					<v:ud v:nameU="msvThemeEffects" v:val="VT0(16):26"/>
				</v:userDefs>
				<path d="M1.2 174.46 L0.32 174.46 L-0.12 175.22 L0.32 175.98 L1.2 175.98 L1.64 175.22 L1.2 174.46 Z" class="st8"/>
			</g>
			<g id="shape285-57" v:mID="285" v:groupContext="shape" transform="translate(11.0128,-35.911)">
				<title>Sechseck.35</title>
				<v:userDefs>
					<v:ud v:nameU="visVersion" v:val="VT0(14):26"/>
					<v:ud v:nameU="msvThemeColors" v:val="VT0(36):26"/>
					<v:ud v:nameU="msvThemeEffects" v:val="VT0(16):26"/>
				</v:userDefs>
				<path d="M1.2 174.46 L0.32 174.46 L-0.12 175.22 L0.32 175.98 L1.2 175.98 L1.64 175.22 L1.2 174.46 Z" class="st8"/>
			</g>
			<g id="shape286-60" v:mID="286" v:groupContext="shape" transform="translate(18.1884,-36.2835)">
				<title>Sechseck.36</title>
				<v:userDefs>
					<v:ud v:nameU="visVersion" v:val="VT0(14):26"/>
					<v:ud v:nameU="msvThemeColors" v:val="VT0(36):26"/>
					<v:ud v:nameU="msvThemeEffects" v:val="VT0(16):26"/>
				</v:userDefs>
				<path d="M1.2 174.46 L0.32 174.46 L-0.12 175.22 L0.32 175.98 L1.2 175.98 L1.64 175.22 L1.2 174.46 Z" class="st8"/>
			</g>
			<g id="shape287-63" v:mID="287" v:groupContext="shape" transform="translate(6.86627,-24.4669)">
				<title>Sechseck.37</title>
				<v:userDefs>
					<v:ud v:nameU="visVersion" v:val="VT0(14):26"/>
					<v:ud v:nameU="msvThemeColors" v:val="VT0(36):26"/>
					<v:ud v:nameU="msvThemeEffects" v:val="VT0(16):26"/>
				</v:userDefs>
				<path d="M1.2 174.46 L0.32 174.46 L-0.12 175.22 L0.32 175.98 L1.2 175.98 L1.64 175.22 L1.2 174.46 Z" class="st8"/>
			</g>
			<g id="shape288-66" v:mID="288" v:groupContext="shape" transform="translate(17.5072,-29.3023)">
				<title>Sechseck.38</title>
				<v:userDefs>
					<v:ud v:nameU="visVersion" v:val="VT0(14):26"/>
					<v:ud v:nameU="msvThemeColors" v:val="VT0(36):26"/>
					<v:ud v:nameU="msvThemeEffects" v:val="VT0(16):26"/>
				</v:userDefs>
				<path d="M1.2 174.46 L0.32 174.46 L-0.12 175.22 L0.32 175.98 L1.2 175.98 L1.64 175.22 L1.2 174.46 Z" class="st8"/>
			</g>
			<g id="shape289-69" v:mID="289" v:groupContext="shape" transform="translate(11.5797,-25.1394)">
				<title>Sechseck.39</title>
				<v:userDefs>
					<v:ud v:nameU="visVersion" v:val="VT0(14):26"/>
					<v:ud v:nameU="msvThemeColors" v:val="VT0(36):26"/>
					<v:ud v:nameU="msvThemeEffects" v:val="VT0(16):26"/>
				</v:userDefs>
				<path d="M1.2 174.46 L0.32 174.46 L-0.12 175.22 L0.32 175.98 L1.2 175.98 L1.64 175.22 L1.2 174.46 Z" class="st8"/>
			</g>
			<g id="shape290-72" v:mID="290" v:groupContext="shape" transform="translate(14.6088,-21.5433)">
				<title>Sechseck.40</title>
				<v:userDefs>
					<v:ud v:nameU="visVersion" v:val="VT0(14):26"/>
					<v:ud v:nameU="msvThemeColors" v:val="VT0(36):26"/>
					<v:ud v:nameU="msvThemeEffects" v:val="VT0(16):26"/>
				</v:userDefs>
				<path d="M1.2 174.46 L0.32 174.46 L-0.12 175.22 L0.32 175.98 L1.2 175.98 L1.64 175.22 L1.2 174.46 Z" class="st8"/>
			</g>
			<g id="shape291-75" v:mID="291" v:groupContext="shape" transform="translate(16.5041,-25.5118)">
				<title>Sechseck.41</title>
				<v:userDefs>
					<v:ud v:nameU="visVersion" v:val="VT0(14):26"/>
					<v:ud v:nameU="msvThemeColors" v:val="VT0(36):26"/>
					<v:ud v:nameU="msvThemeEffects" v:val="VT0(16):26"/>
				</v:userDefs>
				<path d="M1.2 174.46 L0.32 174.46 L-0.12 175.22 L0.32 175.98 L1.2 175.98 L1.64 175.22 L1.2 174.46 Z" class="st8"/>
			</g>
			<g id="shape292-78" v:mID="292" v:groupContext="shape" transform="translate(25.9474,-37.2229)">
				<title>Sechseck.42</title>
				<v:userDefs>
					<v:ud v:nameU="visVersion" v:val="VT0(14):26"/>
					<v:ud v:nameU="msvThemeColors" v:val="VT0(36):26"/>
					<v:ud v:nameU="msvThemeEffects" v:val="VT0(16):26"/>
				</v:userDefs>
				<path d="M1.2 174.46 L0.32 174.46 L-0.12 175.22 L0.32 175.98 L1.2 175.98 L1.64 175.22 L1.2 174.46 Z" class="st8"/>
			</g>
			<g id="shape293-81" v:mID="293" v:groupContext="shape" transform="translate(18.7718,-18.1417)">
				<title>Sechseck.43</title>
				<v:userDefs>
					<v:ud v:nameU="visVersion" v:val="VT0(14):26"/>
					<v:ud v:nameU="msvThemeColors" v:val="VT0(36):26"/>
					<v:ud v:nameU="msvThemeEffects" v:val="VT0(16):26"/>
				</v:userDefs>
				<path d="M1.2 174.46 L0.32 174.46 L-0.12 175.22 L0.32 175.98 L1.2 175.98 L1.64 175.22 L1.2 174.46 Z" class="st8"/>
			</g>
			<g id="shape294-84" v:mID="294" v:groupContext="shape" transform="translate(11.5797,-29.4951)">
				<title>Sechseck.44</title>
				<v:userDefs>
					<v:ud v:nameU="visVersion" v:val="VT0(14):26"/>
					<v:ud v:nameU="msvThemeColors" v:val="VT0(36):26"/>
					<v:ud v:nameU="msvThemeEffects" v:val="VT0(16):26"/>
				</v:userDefs>
				<path d="M1.2 174.46 L0.32 174.46 L-0.12 175.22 L0.32 175.98 L1.2 175.98 L1.64 175.22 L1.2 174.46 Z" class="st8"/>
			</g>
			<g id="shape295-87" v:mID="295" v:groupContext="shape" transform="translate(13.8474,-39.685)">
				<title>Sechseck.45</title>
				<v:userDefs>
					<v:ud v:nameU="visVersion" v:val="VT0(14):26"/>
					<v:ud v:nameU="msvThemeColors" v:val="VT0(36):26"/>
					<v:ud v:nameU="msvThemeEffects" v:val="VT0(16):26"/>
				</v:userDefs>
				<path d="M1.2 174.46 L0.32 174.46 L-0.12 175.22 L0.32 175.98 L1.2 175.98 L1.64 175.22 L1.2 174.46 Z" class="st8"/>
			</g>
			<g id="shape296-90" v:mID="296" v:groupContext="shape" transform="translate(16.86,-32.5094)">
				<title>Sechseck.46</title>
				<v:userDefs>
					<v:ud v:nameU="visVersion" v:val="VT0(14):26"/>
					<v:ud v:nameU="msvThemeColors" v:val="VT0(36):26"/>
					<v:ud v:nameU="msvThemeEffects" v:val="VT0(16):26"/>
				</v:userDefs>
				<path d="M1.2 174.46 L0.32 174.46 L-0.12 175.22 L0.32 175.98 L1.2 175.98 L1.64 175.22 L1.2 174.46 Z" class="st8"/>
			</g>
			<g id="shape297-93" v:mID="297" v:groupContext="shape" transform="translate(19.9056,-25.7063)">
				<title>Sechseck.47</title>
				<v:userDefs>
					<v:ud v:nameU="visVersion" v:val="VT0(14):26"/>
					<v:ud v:nameU="msvThemeColors" v:val="VT0(36):26"/>
					<v:ud v:nameU="msvThemeEffects" v:val="VT0(16):26"/>
				</v:userDefs>
				<path d="M1.2 174.46 L0.32 174.46 L-0.12 175.22 L0.32 175.98 L1.2 175.98 L1.64 175.22 L1.2 174.46 Z" class="st8"/>
			</g>
			<g id="shape298-96" v:mID="298" v:groupContext="shape" transform="translate(20.3558,-21.5433)">
				<title>Sechseck.48</title>
				<v:userDefs>
					<v:ud v:nameU="visVersion" v:val="VT0(14):26"/>
					<v:ud v:nameU="msvThemeColors" v:val="VT0(36):26"/>
					<v:ud v:nameU="msvThemeEffects" v:val="VT0(16):26"/>
				</v:userDefs>
				<path d="M1.2 174.46 L0.32 174.46 L-0.12 175.22 L0.32 175.98 L1.2 175.98 L1.64 175.22 L1.2 174.46 Z" class="st8"/>
			</g>
			<g id="shape299-99" v:mID="299" v:groupContext="shape" transform="translate(13.8084,-34.3882)">
				<title>Sechseck.49</title>
				<v:userDefs>
					<v:ud v:nameU="visVersion" v:val="VT0(14):26"/>
					<v:ud v:nameU="msvThemeColors" v:val="VT0(36):26"/>
					<v:ud v:nameU="msvThemeEffects" v:val="VT0(16):26"/>
				</v:userDefs>
				<path d="M1.2 174.46 L0.32 174.46 L-0.12 175.22 L0.32 175.98 L1.2 175.98 L1.64 175.22 L1.2 174.46 Z" class="st8"/>
			</g>
			<g id="shape300-102" v:mID="300" v:groupContext="shape" transform="translate(57.6596,-0.0696041) rotate(17)">
				<title>Tabelle.300</title>
				<v:userDefs>
					<v:ud v:nameU="msvThemeColors" v:val="VT0(36):26"/>
					<v:ud v:nameU="msvThemeEffects" v:val="VT0(16):26"/>
				</v:userDefs>
				<path d="M0 166.92 L0 174.04 L0.02 174.04 A3.97763 1.7653 -180 0 0 0 174.21 A3.97763 1.7653 -180 1 0 7.96 174.21
							 A3.97763 1.7653 -180 0 0 7.94 174.04 L7.95 174.04 L7.95 166.92 A9.85284 4.37904 -180 0 0 0 166.92 Z"
						class="st4"/>
			</g>
			<g id="shape301-105" v:mID="301" v:groupContext="shape" transform="translate(57.7441,-0.133997) rotate(17)">
				<title>Ellipse.17</title>
				<v:userDefs>
					<v:ud v:nameU="visVersion" v:val="VT0(14):26"/>
					<v:ud v:nameU="msvThemeColors" v:val="VT0(36):26"/>
					<v:ud v:nameU="msvThemeEffects" v:val="VT0(16):26"/>
				</v:userDefs>
				<path d="M0 174.54 A3.97757 1.43622 0 0 1 7.96 174.54 A3.97757 1.43622 0 0 1 0 174.54 Z" class="st4"/>
			</g>
			<g id="shape302-108" v:mID="302" v:groupContext="shape" transform="translate(0,-2.29994)">
				<title>Tabelle.302</title>
				<path d="M18.84 175.98 L19.91 172.51 L19.86 172.49 A9.85284 4.37904 -163 0 0 1.1 166.76 L1.06 166.75 L0.98 167.03
							 A9.85284 4.37904 -163 0 0 0.94 167.13 A9.85284 4.37904 -163 0 0 0.91 167.23 L0 170.22 L18.84 175.98
							 Z" class="st5"/>
			</g>
			<g id="shape303-110" v:mID="303" v:groupContext="shape" transform="translate(50.2572,3.29489) rotate(17)">
				<title>Ellipse.1</title>
				<v:userDefs>
					<v:ud v:nameU="visVersion" v:val="VT0(14):26"/>
					<v:ud v:nameU="msvThemeColors" v:val="VT0(36):26"/>
					<v:ud v:nameU="msvThemeEffects" v:val="VT0(16):26"/>
				</v:userDefs>
				<path d="M0 171.6 A9.85284 4.37904 0 1 1 19.71 171.6 A9.85284 4.37904 0 1 1 0 171.6 Z" class="st4"/>
			</g>
			<g id="shape304-113" v:mID="304" v:groupContext="shape" transform="translate(57.5309,6.91373) rotate(17)">
				<title>Tabelle.304</title>
				<v:userDefs>
					<v:ud v:nameU="msvThemeColors" v:val="VT0(36):26"/>
					<v:ud v:nameU="msvThemeEffects" v:val="VT0(16):26"/>
				</v:userDefs>
				<path d="M0 170.83 L0 174.55 L0.01 174.55 A2.00079 1.30073 -180 0 0 0 174.68 A2.00079 1.30073 -180 1 0 4 174.68 A2.00079
							 1.30073 -180 0 0 3.99 174.55 L4 174.55 L4 170.83 A14.9795 4.58718 0 0 1 -0 170.83 Z" class="st9"/>
			</g>
			<g id="shape305-117" v:mID="305" v:groupContext="shape" transform="translate(57.6004,6.93367) rotate(17)">
				<title>Ellipse.49</title>
				<v:userDefs>
					<v:ud v:nameU="visVersion" v:val="VT0(14):26"/>
					<v:ud v:nameU="msvThemeColors" v:val="VT0(36):26"/>
					<v:ud v:nameU="msvThemeEffects" v:val="VT0(16):26"/>
				</v:userDefs>
				<path d="M0 175.04 a1.99324 0.936218 0 1 1 3.98648 0 a1.99324 0.936218 0 1 1 -3.98648 0 Z" class="st4"/>
			</g>
		</g>
		<g id="group306-120" transform="translate(291.969,-27.2987)" v:mID="306" v:groupContext="group">
			<v:userDefs>
				<v:ud v:nameU="msvThemeColors" v:val="VT0(36):26"/>
				<v:ud v:nameU="msvThemeEffects" v:val="VT0(16):26"/>
			</v:userDefs>
			<title>Tabelle.306</title>
			<g id="shape307-121" v:mID="307" v:groupContext="shape">
				<title>Tabelle.307</title>
				<v:userDefs>
					<v:ud v:nameU="msvThemeColors" v:val="VT0(36):26"/>
					<v:ud v:nameU="msvThemeEffects" v:val="VT0(16):26"/>
				</v:userDefs>
				<path d="M28.5 120.13 L28.5 108.41 L28.5 84.68 L0 84.68 L0 164.62 L9.69 174.12 A6.47775 6.3452 -180 0 0 18.85 174.12
							 L28.5 164.67 L28.5 120.13 Z" class="st10"/>
			</g>
			<g id="shape308-124" v:mID="308" v:groupContext="shape" transform="translate(79.2023,-89.8162) rotate(25)">
				<title>Rechteck.4</title>
				<v:userDefs>
					<v:ud v:nameU="visVersion" v:val="VT0(14):26"/>
					<v:ud v:nameU="msvThemeColors" v:val="VT0(36):26"/>
					<v:ud v:nameU="msvThemeEffects" v:val="VT0(16):26"/>
				</v:userDefs>
				<rect x="0" y="158.345" width="33.3629" height="17.6325" class="st11"/>
			</g>
			<g id="shape309-128" v:mID="309" v:groupContext="shape" transform="translate(0,-0.0842053)">
				<title>Tabelle.309</title>
				<v:userDefs>
					<v:ud v:nameU="msvThemeColors" v:val="VT0(36):26"/>
					<v:ud v:nameU="msvThemeEffects" v:val="VT0(16):26"/>
				</v:userDefs>
				<path d="M0 157.24 L0 164.62 L9.69 174.12 A6.47775 6.3452 -180 0 0 18.85 174.12 L28.5 164.67 L28.5 157.24 L0 157.24
							 Z" class="st12"/>
			</g>
			<g id="shape310-132" v:mID="310" v:groupContext="shape" transform="translate(0.241541,-16.0625)">
				<title>Rechteck.6</title>
				<v:userDefs>
					<v:ud v:nameU="visVersion" v:val="VT0(14):26"/>
					<v:ud v:nameU="msvThemeColors" v:val="VT0(36):26"/>
					<v:ud v:nameU="msvThemeEffects" v:val="VT0(16):26"/>
				</v:userDefs>
				<rect x="0" y="175.253" width="9.17857" height="0.724624" class="st13"/>
			</g>
			<g id="shape311-135" v:mID="311" v:groupContext="shape" transform="translate(0.241541,-22.9464)">
				<title>Rechteck.7</title>
				<v:userDefs>
					<v:ud v:nameU="visVersion" v:val="VT0(14):26"/>
					<v:ud v:nameU="msvThemeColors" v:val="VT0(36):26"/>
					<v:ud v:nameU="msvThemeEffects" v:val="VT0(16):26"/>
				</v:userDefs>
				<rect x="0" y="175.253" width="9.17857" height="0.724624" class="st13"/>
			</g>
			<g id="shape312-138" v:mID="312" v:groupContext="shape" transform="translate(0.241541,-29.9511)">
				<title>Rechteck.8</title>
				<v:userDefs>
					<v:ud v:nameU="visVersion" v:val="VT0(14):26"/>
					<v:ud v:nameU="msvThemeColors" v:val="VT0(36):26"/>
					<v:ud v:nameU="msvThemeEffects" v:val="VT0(16):26"/>
				</v:userDefs>
				<rect x="0" y="175.253" width="9.17857" height="0.724624" class="st13"/>
			</g>
			<g id="shape313-141" v:mID="313" v:groupContext="shape" transform="translate(0.241541,-36.835)">
				<title>Rechteck.9</title>
				<v:userDefs>
					<v:ud v:nameU="visVersion" v:val="VT0(14):26"/>
					<v:ud v:nameU="msvThemeColors" v:val="VT0(36):26"/>
					<v:ud v:nameU="msvThemeEffects" v:val="VT0(16):26"/>
				</v:userDefs>
				<rect x="0" y="175.253" width="9.17857" height="0.724624" class="st13"/>
			</g>
			<g id="shape314-144" v:mID="314" v:groupContext="shape" transform="translate(0.241541,-43.8397)">
				<title>Rechteck.11</title>
				<v:userDefs>
					<v:ud v:nameU="visVersion" v:val="VT0(14):26"/>
					<v:ud v:nameU="msvThemeColors" v:val="VT0(36):26"/>
					<v:ud v:nameU="msvThemeEffects" v:val="VT0(16):26"/>
				</v:userDefs>
				<rect x="0" y="175.253" width="9.17857" height="0.724624" class="st13"/>
			</g>
			<g id="shape315-147" v:mID="315" v:groupContext="shape" transform="translate(0.241541,-50.7237)">
				<title>Rechteck.24</title>
				<v:userDefs>
					<v:ud v:nameU="visVersion" v:val="VT0(14):26"/>
					<v:ud v:nameU="msvThemeColors" v:val="VT0(36):26"/>
					<v:ud v:nameU="msvThemeEffects" v:val="VT0(16):26"/>
				</v:userDefs>
				<rect x="0" y="175.253" width="9.17857" height="0.724624" class="st13"/>
			</g>
			<g id="shape316-150" v:mID="316" v:groupContext="shape" transform="translate(0.241541,-57.7887)">
				<title>Rechteck.25</title>
				<v:userDefs>
					<v:ud v:nameU="visVersion" v:val="VT0(14):26"/>
					<v:ud v:nameU="msvThemeColors" v:val="VT0(36):26"/>
					<v:ud v:nameU="msvThemeEffects" v:val="VT0(16):26"/>
				</v:userDefs>
				<rect x="0" y="175.253" width="9.17857" height="0.724624" class="st13"/>
			</g>
			<g id="shape317-153" v:mID="317" v:groupContext="shape" transform="translate(0.241541,-64.7934)">
				<title>Rechteck.26</title>
				<v:userDefs>
					<v:ud v:nameU="visVersion" v:val="VT0(14):26"/>
					<v:ud v:nameU="msvThemeColors" v:val="VT0(36):26"/>
					<v:ud v:nameU="msvThemeEffects" v:val="VT0(16):26"/>
				</v:userDefs>
				<rect x="0" y="175.253" width="9.17857" height="0.724624" class="st13"/>
			</g>
			<g id="shape318-156" v:mID="318" v:groupContext="shape" transform="translate(0.241541,-71.6774)">
				<title>Rechteck.27</title>
				<v:userDefs>
					<v:ud v:nameU="visVersion" v:val="VT0(14):26"/>
					<v:ud v:nameU="msvThemeColors" v:val="VT0(36):26"/>
					<v:ud v:nameU="msvThemeEffects" v:val="VT0(16):26"/>
				</v:userDefs>
				<rect x="0" y="175.253" width="9.17857" height="0.724624" class="st13"/>
			</g>
			<g id="shape319-159" v:mID="319" v:groupContext="shape" transform="translate(0.241541,-78.6821)">
				<title>Rechteck.28</title>
				<v:userDefs>
					<v:ud v:nameU="visVersion" v:val="VT0(14):26"/>
					<v:ud v:nameU="msvThemeColors" v:val="VT0(36):26"/>
					<v:ud v:nameU="msvThemeEffects" v:val="VT0(16):26"/>
				</v:userDefs>
				<rect x="0" y="175.253" width="9.17857" height="0.724624" class="st13"/>
			</g>
			<g id="shape320-162" v:mID="320" v:groupContext="shape" transform="translate(0.241541,-85.566)">
				<title>Rechteck.29</title>
				<v:userDefs>
					<v:ud v:nameU="visVersion" v:val="VT0(14):26"/>
					<v:ud v:nameU="msvThemeColors" v:val="VT0(36):26"/>
					<v:ud v:nameU="msvThemeEffects" v:val="VT0(16):26"/>
				</v:userDefs>
				<rect x="0" y="175.253" width="9.17857" height="0.724624" class="st13"/>
			</g>
		</g>
	</g>
</svg>
