<?xml version="1.0" encoding="UTF-8" standalone="no"?>
<!DOCTYPE svg PUBLIC "-//W3C//DTD SVG 1.1//EN" "http://www.w3.org/Graphics/SVG/1.1/DTD/svg11.dtd">
<!-- Generiert durch Microsoft Visio, SVG Export 25.svg Page-1 -->
<svg xmlns="http://www.w3.org/2000/svg" xmlns:xlink="http://www.w3.org/1999/xlink" xmlns:ev="http://www.w3.org/2001/xml-events"
		xmlns:v="http://schemas.microsoft.com/visio/2003/SVGExtensions/" width="5.20768in" height="2.44414in"
		viewBox="0 0 374.953 175.978" xml:space="preserve" color-interpolation-filters="sRGB" class="st12">
	<v:documentProperties v:langID="1031" v:metric="true" v:viewMarkup="false">
		<v:userDefs>
			<v:ud v:nameU="msvNoAutoConnect" v:val="VT0(0):26"/>
			<v:ud v:nameU="msvConvertTheme"/>
		</v:userDefs>
	</v:documentProperties>

	<style type="text/css">
	<![CDATA[
		.st1 {fill:#000000;stroke:none;stroke-linecap:round;stroke-linejoin:round;stroke-width:0.75}
		.st2 {fill:url(#grad0-6);stroke:#ffffff;stroke-linecap:round;stroke-linejoin:round;stroke-width:0.25}
		.st3 {fill:none;stroke:none;stroke-linecap:round;stroke-linejoin:round;stroke-width:0.25}
		.st4 {fill:url(#grad0-6);stroke:#404040;stroke-linecap:round;stroke-linejoin:round;stroke-width:0.25}
		.st5 {fill:url(#grad0-26);stroke:none;stroke-linecap:round;stroke-linejoin:round;stroke-width:0.25}
		.st6 {fill:none;stroke:#ffffff;stroke-linecap:round;stroke-linejoin:round;stroke-width:1}
		.st7 {fill:url(#grad0-36);stroke:#c00000;stroke-linecap:round;stroke-linejoin:round;stroke-width:0.25}
		.st8 {fill:url(#grad0-41);stroke:#ffffff;stroke-linecap:round;stroke-linejoin:round;stroke-width:0.75}
		.st9 {fill:#ffff00;stroke:none;stroke-linecap:round;stroke-linejoin:round;stroke-width:0.25}
		.st10 {fill:none;stroke:#ffffff;stroke-linecap:round;stroke-linejoin:round;stroke-width:0.75}
		.st11 {fill:url(#grad0-41);stroke:#ffffff;stroke-dasharray:0.25,0.5;stroke-linecap:round;stroke-linejoin:round;stroke-width:0.25}
		.st12 {fill:none;fill-rule:evenodd;font-size:12px;overflow:visible;stroke-linecap:square;stroke-miterlimit:3}
	]]>
	</style>

	<defs id="Patterns_And_Gradients">
		<linearGradient id="grad0-6" x1="0" y1="0" x2="1" y2="0" gradientTransform="rotate(270 0.5 0.5)">
			<stop offset="0" stop-color="#f0f0f0" stop-opacity="1"/>
			<stop offset="1" stop-color="#ffffff" stop-opacity="1"/>
		</linearGradient>
		<linearGradient id="grad0-26" x1="0" y1="0" x2="1" y2="0" gradientTransform="rotate(270 0.5 0.5)">
			<stop offset="0" stop-color="#e1e100" stop-opacity="1"/>
			<stop offset="1" stop-color="#ffff00" stop-opacity="1"/>
		</linearGradient>
		<linearGradient id="grad0-36" x1="0" y1="0" x2="1" y2="0" gradientTransform="rotate(270 0.5 0.5)">
			<stop offset="0" stop-color="#a60000" stop-opacity="1"/>
			<stop offset="1" stop-color="#c00000" stop-opacity="1"/>
		</linearGradient>
		<linearGradient id="grad0-41" x1="0" y1="0" x2="1" y2="0" gradientTransform="rotate(270 0.5 0.5)">
			<stop offset="0" stop-color="#000000" stop-opacity="1"/>
			<stop offset="1" stop-color="#000000" stop-opacity="1"/>
		</linearGradient>
	</defs>
	<g v:mID="4" v:index="1" v:groupContext="backgroundPage">
		<v:userDefs>
			<v:ud v:nameU="msvThemeColors" v:val="VT0(36):26"/>
			<v:ud v:nameU="msvThemeEffects" v:val="VT0(16):26"/>
			<v:ud v:nameU="msvThemeOrder" v:val="VT0(0):26"/>
			<v:ud v:nameU="msvVisioCreated" v:prompt="" v:val="VT0(0):26"/>
		</v:userDefs>
		<title>VHintergrund-1</title>
		<v:pageProperties width="5.20768" height="2.44414" v:drawingScale="0.0393701" v:pageScale="0.0393701" v:drawingUnits="24"
				v:shadowOffsetX="8.50394" v:shadowOffsetY="-8.50394"/>
		<g id="shape1-1" v:mID="1" v:groupContext="shape">
			<title>Vollton</title>
			<v:userDefs>
				<v:ud v:nameU="Background" v:val="VT0(0):26"/>
				<v:ud v:nameU="visVersion" v:val="VT0(14):26"/>
				<v:ud v:nameU="msvShapeCategories" v:prompt="" v:val="VT4(DoNotContain)"/>
				<v:ud v:nameU="msvThemeColors" v:val="VT0(36):26"/>
				<v:ud v:nameU="msvVisioCreated" v:prompt="" v:val="VT0(0):26"/>
			</v:userDefs>
			<rect x="0" y="0" width="374.953" height="175.978" class="st1"/>
		</g>
		<g id="shape2-3" v:mID="2" v:groupContext="shape" transform="translate(222.201,234.318) rotate(180)">
			<title>Pfeil 60 Grad-Spitze</title>
			<v:userDefs>
				<v:ud v:nameU="visVersion" v:val="VT0(14):26"/>
				<v:ud v:nameU="msvThemeColors" v:val="VT0(36):26"/>
				<v:ud v:nameU="msvThemeEffects" v:val="VT0(16):26"/>
			</v:userDefs>
			<path d="M0 168.89 L4.09 161.8 L4.09 166.48 L69.45 166.48 L69.45 171.3 L4.09 171.3 L4.09 175.98 L0 168.89 Z"
					class="st2"/>
		</g>
	</g>
	<g v:mID="0" v:index="2" v:groupContext="foregroundPage">
		<v:userDefs>
			<v:ud v:nameU="msvThemeColors" v:val="VT0(36):26"/>
			<v:ud v:nameU="msvThemeEffects" v:val="VT0(16):26"/>
			<v:ud v:nameU="msvThemeOrder" v:val="VT0(0):26"/>
		</v:userDefs>
		<title>Zeichenblatt-1</title>
		<v:pageProperties v:drawingScale="0.0393701" v:pageScale="0.0393701" v:drawingUnits="24" v:shadowOffsetX="8.50394"
				v:shadowOffsetY="-8.50394"/>
		<v:layer v:name="Flussdiagramm" v:index="0"/>
		<v:layer v:name="Verbinder" v:index="1"/>
		<g id="shape195-7" v:mID="195" v:groupContext="shape" transform="translate(125.787,-123.895)">
			<title>Rechteck.195</title>
			<v:userDefs>
				<v:ud v:nameU="visVersion" v:val="VT0(15):26"/>
				<v:ud v:nameU="msvThemeColors" v:val="VT0(36):26"/>
				<v:ud v:nameU="msvThemeEffects" v:val="VT0(16):26"/>
			</v:userDefs>
			<rect x="0" y="128.965" width="123.307" height="47.0131" class="st3"/>
		</g>
		<g id="shape192-9" v:mID="192" v:groupContext="shape" transform="translate(1.59872E-014,-2.26772)">
			<title>Rechteck.13.192</title>
			<v:userDefs>
				<v:ud v:nameU="visVersion" v:val="VT0(15):26"/>
				<v:ud v:nameU="msvThemeColors" v:val="VT0(36):26"/>
				<v:ud v:nameU="msvThemeEffects" v:val="VT0(16):26"/>
			</v:userDefs>
			<rect x="0" y="3.63146" width="123.307" height="172.346" class="st3"/>
		</g>
		<g id="shape194-11" v:mID="194" v:groupContext="shape" transform="translate(251.575,-2.26772)">
			<title>Rechteck.194</title>
			<v:userDefs>
				<v:ud v:nameU="visVersion" v:val="VT0(15):26"/>
				<v:ud v:nameU="msvThemeColors" v:val="VT0(36):26"/>
				<v:ud v:nameU="msvThemeEffects" v:val="VT0(16):26"/>
			</v:userDefs>
			<rect x="0" y="3.63146" width="123.307" height="172.346" class="st3"/>
		</g>
		<g id="group678-13" transform="translate(43.3984,-15.7564)" v:mID="678" v:groupContext="group">
			<v:userDefs>
				<v:ud v:nameU="msvThemeColors" v:val="VT0(36):26"/>
				<v:ud v:nameU="msvThemeEffects" v:val="VT0(16):26"/>
			</v:userDefs>
			<title>Tabelle.678</title>
			<g id="shape679-14" v:mID="679" v:groupContext="shape" transform="translate(0.0880935,0)">
				<title>Tabelle.679</title>
				<v:userDefs>
					<v:ud v:nameU="msvThemeColors" v:val="VT0(36):26"/>
					<v:ud v:nameU="msvThemeEffects" v:val="VT0(16):26"/>
				</v:userDefs>
				<path d="M2.1 56.67 L2.1 67.88 A6.98622 5.37402 -180 0 0 0 71.72 L0 170.6 A6.98622 5.37402 -180 0 0 13.97 170.6 L13.97
							 71.72 A6.98622 5.37402 -180 0 0 11.88 67.88 L11.88 56.67 L2.1 56.67 Z" class="st4"/>
			</g>
			<g id="shape680-17" v:mID="680" v:groupContext="shape" transform="translate(100.674,-101.485) rotate(30)">
				<title>Tabelle.680</title>
				<v:userDefs>
					<v:ud v:nameU="msvThemeColors" v:val="VT0(36):26"/>
					<v:ud v:nameU="msvThemeEffects" v:val="VT0(16):26"/>
				</v:userDefs>
				<path d="M0 152.53 L0 159.18 L3.22 159.18 L3.22 170.94 L3.26 170.94 L6.99 175.98 L10.71 170.94 L10.75 170.94 L10.75
							 159.18 L13.97 159.18 L13.97 152.53 L0 152.53 Z" class="st4"/>
			</g>
			<g id="shape681-20" v:mID="681" v:groupContext="shape" v:layerMember="0" transform="translate(0.0880935,-116.079)">
				<title>Start/Ende</title>
				<v:custProps>
					<v:cp v:nameU="Cost" v:lbl="Kosten" v:prompt="" v:type="7" v:format="@" v:sortKey="" v:invis="false"
							v:ask="false" v:langID="1031" v:cal="0"/>
					<v:cp v:nameU="ProcessNumber" v:lbl="Prozessnummer" v:prompt="" v:type="2" v:format="" v:sortKey=""
							v:invis="false" v:ask="false" v:langID="1031" v:cal="0"/>
					<v:cp v:nameU="Owner" v:lbl="Besitzer" v:prompt="" v:type="0" v:format="" v:sortKey="" v:invis="false"
							v:ask="false" v:langID="1031" v:cal="0"/>
					<v:cp v:nameU="Function" v:lbl="Funktionsname" v:prompt="" v:type="0" v:format="" v:sortKey="" v:invis="false"
							v:ask="false" v:langID="1031" v:cal="0" v:val="VT4()"/>
					<v:cp v:nameU="StartDate" v:lbl="Startdatum" v:prompt="" v:type="5" v:format="" v:sortKey="" v:invis="false"
							v:ask="false" v:langID="1031" v:cal="0"/>
					<v:cp v:nameU="EndDate" v:lbl="Enddatum" v:prompt="" v:type="5" v:format="" v:sortKey="" v:invis="false"
							v:ask="false" v:langID="1031" v:cal="0"/>
					<v:cp v:nameU="Status" v:lbl="Status" v:prompt="" v:type="4"
							v:format=";Nicht begonnen;In Bearbeitung;Abgeschlossen;Zurückgestellt;Auf Eingabe wartend" v:sortKey=""
							v:invis="false" v:ask="false" v:langID="1031" v:cal="0" v:val="VT4()"/>
				</v:custProps>
				<v:userDefs>
					<v:ud v:nameU="visVersion" v:prompt="" v:val="VT0(14):26"/>
					<v:ud v:nameU="DefaultWidth" v:prompt="" v:val="VT0(0.98425196850394):24"/>
					<v:ud v:nameU="DefaultHeight" v:prompt="" v:val="VT0(0.39370078740157):24"/>
					<v:ud v:nameU="ResizeTxtHeight" v:prompt="" v:val="VT0(0.39370078740157):24"/>
					<v:ud v:nameU="msvThemeColors" v:val="VT0(36):26"/>
					<v:ud v:nameU="msvThemeEffects" v:val="VT0(16):26"/>
				</v:userDefs>
				<path d="M1.61 175.98 L12.36 175.98 A1.6122 1.6122 -180 1 0 12.36 172.75 L1.61 172.75 A1.6122 1.6122 -180 1 0 1.61
							 175.98 Z" class="st4"/>
			</g>
			<g id="shape682-23" v:mID="682" v:groupContext="shape" transform="translate(14.1732,0) scale(-1,1)">
				<title>Tabelle.682</title>
				<v:userDefs>
					<v:ud v:nameU="msvThemeColors" v:val="VT0(36):26"/>
					<v:ud v:nameU="msvThemeEffects" v:val="VT0(16):26"/>
				</v:userDefs>
				<path d="M0 136.66 L0 170.53 A7.08661 5.45124 -180 0 0 14.17 170.53 L14.17 136.66 L0 136.66 Z" class="st5"/>
			</g>
		</g>
		<g id="group683-27" transform="translate(166.991,-126.952)" v:mID="683" v:groupContext="group">
			<v:userDefs>
				<v:ud v:nameU="msvThemeColors" v:val="VT0(36):26"/>
				<v:ud v:nameU="msvThemeEffects" v:val="VT0(16):26"/>
			</v:userDefs>
			<title>Tabelle.683</title>
			<g id="shape684-28" v:mID="684" v:groupContext="shape">
				<title>Kreis</title>
				<v:userDefs>
					<v:ud v:nameU="visVersion" v:val="VT0(14):26"/>
					<v:ud v:nameU="msvThemeColors" v:val="VT0(36):26"/>
					<v:ud v:nameU="msvThemeEffects" v:val="VT0(16):26"/>
				</v:userDefs>
				<path d="M0 155.53 A20.4499 20.4499 0 0 1 40.9 155.53 A20.4499 20.4499 0 1 1 -0 155.53 Z" class="st6"/>
			</g>
			<g id="shape685-30" v:mID="685" v:groupContext="shape" transform="translate(74.1509,5.62054) rotate(20)">
				<title>Tabelle.685</title>
				<v:userDefs>
					<v:ud v:nameU="msvThemeColors" v:val="VT0(36):26"/>
					<v:ud v:nameU="msvThemeEffects" v:val="VT0(16):26"/>
				</v:userDefs>
				<path d="M0.77 174.75 L0.78 174.74 L0.77 174.74 L0.77 151.37 L0 151.37 L0 174.74 L0 174.74 L0 174.75 L0 174.75 L0
							 174.75 L0.39 175.98 L0.77 174.75 L0.77 174.75 L0.77 174.75 Z" class="st2"/>
			</g>
			<g id="shape686-33" v:mID="686" v:groupContext="shape" transform="translate(79.1394,-17.6164) rotate(20)">
				<title>Tabelle.686</title>
				<v:userDefs>
					<v:ud v:nameU="msvThemeColors" v:val="VT0(36):26"/>
					<v:ud v:nameU="msvThemeEffects" v:val="VT0(16):26"/>
				</v:userDefs>
				<path d="M4.19 167.3 a0.661676 0.661676 -180 0 0 0.110279 -0.365755 a0.661676 0.661676 -180 0 0 -0.110279 -0.365755
							 L4.19 165.61 L3.09 165.61 L3.09 166.57 a0.661676 0.661676 -180 0 0 -0.110279 0.365755 a0.661676 0.661676
							 -180 0 0 0.110279 0.365755 L3.09 167.56 A2.20559 2.20559 -180 0 0 1.43 169.69 A2.20559 2.20559 -180
							 0 0 3.09 171.83 L3.09 172.12 L1.69 172.12 a0.661676 0.661676 -180 0 0 -0.365755 -0.110279 a0.661676
							 0.661676 -180 0 0 -0.365755 0.110279 L0 172.12 L0 173.22 L0.96 173.22 a0.661676 0.661676 -180 0 0 0.365755
							 0.110279 a0.661676 0.661676 -180 0 0 0.365755 -0.110279 L3.09 173.22 L3.09 173.85 a0.661676 0.661676
							 -180 0 0 -0.110279 0.365755 a0.661676 0.661676 -180 0 0 0.110279 0.365755 L3.09 175.98 L4.19 175.98
							 L4.19 174.58 a0.661676 0.661676 -180 0 0 0.110279 -0.365755 a0.661676 0.661676 -180 0 0 -0.110279 -0.365755
							 L4.19 171.83 A2.20559 2.20559 -180 0 0 5.84 169.69 A2.20559 2.20559 -180 0 0 4.19 167.56 L4.19 167.3
							 Z" class="st7"/>
			</g>
		</g>
		<g id="group687-37" transform="translate(300.76,-53.9447)" v:mID="687" v:groupContext="group">
			<v:userDefs>
				<v:ud v:nameU="msvThemeColors" v:val="VT0(36):26"/>
				<v:ud v:nameU="msvThemeEffects" v:val="VT0(16):26"/>
			</v:userDefs>
			<title>Tabelle.687</title>
			<g id="shape688-38" v:mID="688" v:groupContext="shape" transform="translate(-175.844,172.658) rotate(-90)">
				<title>Rechteck.7</title>
				<v:userDefs>
					<v:ud v:nameU="visVersion" v:val="VT0(14):26"/>
					<v:ud v:nameU="msvThemeColors" v:val="VT0(36):26"/>
					<v:ud v:nameU="msvThemeEffects" v:val="VT0(16):26"/>
				</v:userDefs>
				<path d="M0 175.98 L62.01 175.98 L0 175.98 Z" class="st8"/>
			</g>
			<g id="shape689-42" v:mID="689" v:groupContext="shape" transform="translate(0.275418,-0.00440165)">
				<title>Tabelle.689</title>
				<path d="M0 122.03 L0 144.8 L0 164.51 L0 172.6 L12.26 175.98 L24.38 172.64 L24.38 164.51 L24.38 144.84 L24.38 122.07
							 L12.26 125.41 L0 122.03 Z" class="st9"/>
			</g>
			<g id="shape690-44" v:mID="690" v:groupContext="shape" transform="translate(-151.041,172.658) rotate(-90)">
				<title>Rechteck.8</title>
				<v:userDefs>
					<v:ud v:nameU="visVersion" v:val="VT0(14):26"/>
					<v:ud v:nameU="msvThemeColors" v:val="VT0(36):26"/>
					<v:ud v:nameU="msvThemeEffects" v:val="VT0(16):26"/>
				</v:userDefs>
				<path d="M0 175.98 L62.01 175.98 L0 175.98 Z" class="st8"/>
			</g>
			<g id="shape691-47" v:mID="691" v:groupContext="shape" v:layerMember="0" transform="translate(0.133686,-62.1591)">
				<title>Entscheidung.9</title>
				<v:custProps>
					<v:cp v:nameU="Cost" v:lbl="Kosten" v:prompt="" v:type="7" v:format="@" v:sortKey="" v:invis="false"
							v:ask="false" v:langID="1031" v:cal="0"/>
					<v:cp v:nameU="ProcessNumber" v:lbl="Prozessnummer" v:prompt="" v:type="2" v:format="" v:sortKey=""
							v:invis="false" v:ask="false" v:langID="1031" v:cal="0"/>
					<v:cp v:nameU="Owner" v:lbl="Besitzer" v:prompt="" v:type="0" v:format="" v:sortKey="" v:invis="false"
							v:ask="false" v:langID="1031" v:cal="0"/>
					<v:cp v:nameU="Function" v:lbl="Funktionsname" v:prompt="" v:type="0" v:format="" v:sortKey="" v:invis="false"
							v:ask="false" v:langID="1031" v:cal="0" v:val="VT4()"/>
					<v:cp v:nameU="StartDate" v:lbl="Startdatum" v:prompt="" v:type="5" v:format="" v:sortKey="" v:invis="false"
							v:ask="false" v:langID="1031" v:cal="0"/>
					<v:cp v:nameU="EndDate" v:lbl="Enddatum" v:prompt="" v:type="5" v:format="" v:sortKey="" v:invis="false"
							v:ask="false" v:langID="1031" v:cal="0"/>
					<v:cp v:nameU="Status" v:lbl="Status" v:prompt="" v:type="4"
							v:format=";Nicht begonnen;In Bearbeitung;Abgeschlossen;Zurückgestellt;Auf Eingabe wartend" v:sortKey=""
							v:invis="false" v:ask="false" v:langID="1031" v:cal="0" v:val="VT4()"/>
				</v:custProps>
				<v:userDefs>
					<v:ud v:nameU="visVersion" v:prompt="" v:val="VT0(14):26"/>
					<v:ud v:nameU="DefaultWidth" v:prompt="" v:val="VT0(0.98425196850394):24"/>
					<v:ud v:nameU="DefaultHeight" v:prompt="" v:val="VT0(0.59055118110236):24"/>
					<v:ud v:nameU="ResizeTxtHeight" v:prompt="" v:val="VT0(0.59055118110236):24"/>
					<v:ud v:nameU="msvThemeColors" v:val="VT0(36):26"/>
					<v:ud v:nameU="msvThemeEffects" v:val="VT0(16):26"/>
				</v:userDefs>
				<path d="M0 172.56 L12.4 169.14 L24.8 172.56 L12.4 175.98 L0 172.56 Z" class="st10"/>
			</g>
			<g id="shape692-49" v:mID="692" v:groupContext="shape" transform="translate(-163.443,175.882) rotate(-90)">
				<title>Rechteck.10</title>
				<v:userDefs>
					<v:ud v:nameU="visVersion" v:val="VT0(14):26"/>
					<v:ud v:nameU="msvThemeColors" v:val="VT0(36):26"/>
					<v:ud v:nameU="msvThemeEffects" v:val="VT0(16):26"/>
				</v:userDefs>
				<path d="M0 175.98 L62.01 175.98 L0 175.98 Z" class="st8"/>
			</g>
			<g id="shape693-52" v:mID="693" v:groupContext="shape" transform="translate(-32.9264,5.9963) rotate(-15)">
				<title>Rechteck.11</title>
				<v:userDefs>
					<v:ud v:nameU="visVersion" v:val="VT0(14):26"/>
					<v:ud v:nameU="msvThemeColors" v:val="VT0(36):26"/>
					<v:ud v:nameU="msvThemeEffects" v:val="VT0(16):26"/>
				</v:userDefs>
				<path d="M0 175.98 L12.69 175.98 L0 175.98 Z" class="st8"/>
			</g>
			<g id="shape694-55" v:mID="694" v:groupContext="shape" transform="translate(-45.5464,342.623) rotate(15) scale(1,-1)">
				<title>Rechteck.12</title>
				<v:userDefs>
					<v:ud v:nameU="visVersion" v:val="VT0(14):26"/>
					<v:ud v:nameU="msvThemeColors" v:val="VT0(36):26"/>
					<v:ud v:nameU="msvThemeEffects" v:val="VT0(16):26"/>
				</v:userDefs>
				<path d="M0 175.98 L12.89 175.98 L0 175.98 Z" class="st8"/>
			</g>
			<g id="shape695-58" v:mID="695" v:groupContext="shape" transform="translate(-163.514,114.371) rotate(-90)">
				<title>Rechteck.15</title>
				<v:userDefs>
					<v:ud v:nameU="visVersion" v:val="VT0(14):26"/>
					<v:ud v:nameU="msvThemeColors" v:val="VT0(36):26"/>
					<v:ud v:nameU="msvThemeEffects" v:val="VT0(16):26"/>
				</v:userDefs>
				<path d="M0 175.98 L7.19 175.98 L0 175.98 Z" class="st11"/>
			</g>
		</g>
	</g>
</svg>
