<?xml version="1.0" encoding="UTF-8" standalone="no"?>
<!DOCTYPE svg PUBLIC "-//W3C//DTD SVG 1.1//EN" "http://www.w3.org/Graphics/SVG/1.1/DTD/svg11.dtd">
<!-- Generiert durch Microsoft Visio, SVG Export 19.svg Page-1 -->
<svg xmlns="http://www.w3.org/2000/svg" xmlns:xlink="http://www.w3.org/1999/xlink" xmlns:ev="http://www.w3.org/2001/xml-events"
		xmlns:v="http://schemas.microsoft.com/visio/2003/SVGExtensions/" width="5.20768in" height="2.44414in"
		viewBox="0 0 374.953 175.978" xml:space="preserve" color-interpolation-filters="sRGB" class="st13">
	<v:documentProperties v:langID="1031" v:metric="true" v:viewMarkup="false">
		<v:userDefs>
			<v:ud v:nameU="msvNoAutoConnect" v:val="VT0(0):26"/>
			<v:ud v:nameU="msvConvertTheme"/>
		</v:userDefs>
	</v:documentProperties>

	<style type="text/css">
	<![CDATA[
		.st1 {fill:#000000;stroke:none;stroke-linecap:round;stroke-linejoin:round;stroke-width:0.75}
		.st2 {fill:url(#grad0-6);stroke:#ffffff;stroke-linecap:round;stroke-linejoin:round;stroke-width:0.25}
		.st3 {fill:none;stroke:none;stroke-linecap:round;stroke-linejoin:round;stroke-width:0.25}
		.st4 {fill:url(#grad0-6);stroke:#404040;stroke-linecap:round;stroke-linejoin:round;stroke-width:0.25}
		.st5 {fill:url(#grad0-44);stroke:none;stroke-linecap:round;stroke-linejoin:round;stroke-width:0.25}
		.st6 {fill:url(#grad0-48);stroke:none;stroke-linecap:round;stroke-linejoin:round;stroke-width:0.25}
		.st7 {fill:url(#grad0-52);stroke:none;stroke-linecap:round;stroke-linejoin:round;stroke-width:0.25}
		.st8 {fill:url(#grad0-6);stroke:#7f7f7f;stroke-linecap:round;stroke-linejoin:round;stroke-width:0.25}
		.st9 {fill:url(#grad0-87);stroke:#000000;stroke-linecap:round;stroke-linejoin:round;stroke-width:0.25}
		.st10 {fill:url(#grad0-6);stroke:#000000;stroke-linecap:round;stroke-linejoin:round;stroke-width:0.25}
		.st11 {fill:#000000;font-family:Calibri;font-size:0.333344em}
		.st12 {stroke:#c00000;stroke-linecap:round;stroke-linejoin:round;stroke-width:3}
		.st13 {fill:none;fill-rule:evenodd;font-size:12px;overflow:visible;stroke-linecap:square;stroke-miterlimit:3}
	]]>
	</style>

	<defs id="Patterns_And_Gradients">
		<linearGradient id="grad0-6" x1="0" y1="0" x2="1" y2="0" gradientTransform="rotate(270 0.5 0.5)">
			<stop offset="0" stop-color="#f0f0f0" stop-opacity="1"/>
			<stop offset="1" stop-color="#ffffff" stop-opacity="1"/>
		</linearGradient>
		<linearGradient id="grad0-44" x1="0" y1="0" x2="1" y2="0" gradientTransform="rotate(270 0.5 0.5)">
			<stop offset="0" stop-color="#e1e100" stop-opacity="1"/>
			<stop offset="1" stop-color="#ffff00" stop-opacity="1"/>
		</linearGradient>
		<linearGradient id="grad0-48" x1="0" y1="0" x2="1" y2="0" gradientTransform="rotate(270 0.5 0.5)">
			<stop offset="0" stop-color="#7c8e46" stop-opacity="1"/>
			<stop offset="1" stop-color="#8fa350" stop-opacity="1"/>
		</linearGradient>
		<linearGradient id="grad0-52" x1="0" y1="0" x2="1" y2="0" gradientTransform="rotate(270 0.5 0.5)">
			<stop offset="0" stop-color="#545f2e" stop-opacity="1"/>
			<stop offset="1" stop-color="#5f6c35" stop-opacity="1"/>
		</linearGradient>
		<linearGradient id="grad0-87" x1="0" y1="0" x2="1" y2="0" gradientTransform="rotate(270 0.5 0.5)">
			<stop offset="0" stop-color="#c9c9c9" stop-opacity="1"/>
			<stop offset="1" stop-color="#d8d8d8" stop-opacity="1"/>
		</linearGradient>
	</defs>
	<g v:mID="4" v:index="1" v:groupContext="backgroundPage">
		<v:userDefs>
			<v:ud v:nameU="msvThemeColors" v:val="VT0(36):26"/>
			<v:ud v:nameU="msvThemeEffects" v:val="VT0(16):26"/>
			<v:ud v:nameU="msvThemeOrder" v:val="VT0(0):26"/>
			<v:ud v:nameU="msvVisioCreated" v:prompt="" v:val="VT0(0):26"/>
		</v:userDefs>
		<title>VHintergrund-1</title>
		<v:pageProperties width="5.20768" height="2.44414" v:drawingScale="0.0393701" v:pageScale="0.0393701" v:drawingUnits="24"
				v:shadowOffsetX="8.50394" v:shadowOffsetY="-8.50394"/>
		<g id="shape1-1" v:mID="1" v:groupContext="shape">
			<title>Vollton</title>
			<v:userDefs>
				<v:ud v:nameU="Background" v:val="VT0(0):26"/>
				<v:ud v:nameU="visVersion" v:val="VT0(14):26"/>
				<v:ud v:nameU="msvShapeCategories" v:prompt="" v:val="VT4(DoNotContain)"/>
				<v:ud v:nameU="msvThemeColors" v:val="VT0(36):26"/>
				<v:ud v:nameU="msvVisioCreated" v:prompt="" v:val="VT0(0):26"/>
			</v:userDefs>
			<rect x="0" y="0" width="374.953" height="175.978" class="st1"/>
		</g>
		<g id="shape2-3" v:mID="2" v:groupContext="shape" transform="translate(222.201,234.318) rotate(180)">
			<title>Pfeil 60 Grad-Spitze</title>
			<v:userDefs>
				<v:ud v:nameU="visVersion" v:val="VT0(14):26"/>
				<v:ud v:nameU="msvThemeColors" v:val="VT0(36):26"/>
				<v:ud v:nameU="msvThemeEffects" v:val="VT0(16):26"/>
			</v:userDefs>
			<path d="M0 168.89 L4.09 161.8 L4.09 166.48 L69.45 166.48 L69.45 171.3 L4.09 171.3 L4.09 175.98 L0 168.89 Z"
					class="st2"/>
		</g>
	</g>
	<g v:mID="0" v:index="2" v:groupContext="foregroundPage">
		<v:userDefs>
			<v:ud v:nameU="msvThemeColors" v:val="VT0(36):26"/>
			<v:ud v:nameU="msvThemeEffects" v:val="VT0(16):26"/>
			<v:ud v:nameU="msvThemeOrder" v:val="VT0(0):26"/>
		</v:userDefs>
		<title>Zeichenblatt-1</title>
		<v:pageProperties v:drawingScale="0.0393701" v:pageScale="0.0393701" v:drawingUnits="24" v:shadowOffsetX="8.50394"
				v:shadowOffsetY="-8.50394"/>
		<v:layer v:name="Flussdiagramm" v:index="0"/>
		<v:layer v:name="Verbinder" v:index="1"/>
		<g id="shape195-7" v:mID="195" v:groupContext="shape" transform="translate(125.787,-123.895)">
			<title>Rechteck.195</title>
			<v:userDefs>
				<v:ud v:nameU="visVersion" v:val="VT0(15):26"/>
				<v:ud v:nameU="msvThemeColors" v:val="VT0(36):26"/>
				<v:ud v:nameU="msvThemeEffects" v:val="VT0(16):26"/>
			</v:userDefs>
			<rect x="0" y="128.965" width="123.307" height="47.0131" class="st3"/>
		</g>
		<g id="shape192-9" v:mID="192" v:groupContext="shape" transform="translate(1.59872E-014,-2.26772)">
			<title>Rechteck.13.192</title>
			<v:userDefs>
				<v:ud v:nameU="visVersion" v:val="VT0(15):26"/>
				<v:ud v:nameU="msvThemeColors" v:val="VT0(36):26"/>
				<v:ud v:nameU="msvThemeEffects" v:val="VT0(16):26"/>
			</v:userDefs>
			<rect x="0" y="3.63146" width="123.307" height="172.346" class="st3"/>
		</g>
		<g id="shape194-11" v:mID="194" v:groupContext="shape" transform="translate(251.575,-2.26772)">
			<title>Rechteck.194</title>
			<v:userDefs>
				<v:ud v:nameU="visVersion" v:val="VT0(15):26"/>
				<v:ud v:nameU="msvThemeColors" v:val="VT0(36):26"/>
				<v:ud v:nameU="msvThemeEffects" v:val="VT0(16):26"/>
			</v:userDefs>
			<rect x="0" y="3.63146" width="123.307" height="172.346" class="st3"/>
		</g>
		<g id="group560-13" transform="translate(10.6299,-42.2986)" v:mID="560" v:groupContext="group">
			<v:userDefs>
				<v:ud v:nameU="msvThemeColors" v:val="VT0(36):26"/>
				<v:ud v:nameU="msvThemeEffects" v:val="VT0(16):26"/>
			</v:userDefs>
			<title>Tabelle.560</title>
			<g id="shape561-14" v:mID="561" v:groupContext="shape" transform="translate(44.8118,-7.05523) scale(-1,1)">
				<title>Tabelle.561</title>
				<v:userDefs>
					<v:ud v:nameU="msvThemeColors" v:val="VT0(36):26"/>
					<v:ud v:nameU="msvThemeEffects" v:val="VT0(16):26"/>
				</v:userDefs>
				<path d="M1.14 111.05 L1.14 117.15 A3.80234 2.92488 -180 0 0 0 119.24 L0 173.05 A3.80234 2.92488 -180 0 0 7.6 173.05
							 L7.6 119.24 A3.80234 2.92488 -180 0 0 6.46 117.15 L6.46 111.05 L1.14 111.05 Z" class="st4"/>
			</g>
			<g id="shape562-17" v:mID="562" v:groupContext="shape" transform="translate(44.7992,-64.6138) scale(-1,1)">
				<title>Tabelle.562</title>
				<v:userDefs>
					<v:ud v:nameU="msvThemeColors" v:val="VT0(36):26"/>
					<v:ud v:nameU="msvThemeEffects" v:val="VT0(16):26"/>
				</v:userDefs>
				<path d="M0 163.22 L0 166.84 L1.75 166.84 L1.75 173.24 L1.78 173.24 L3.8 175.98 L5.83 173.24 L5.85 173.24 L5.85 166.84
							 L7.6 166.84 L7.6 163.22 L0 163.22 Z" class="st4"/>
			</g>
			<g id="shape563-20" v:mID="563" v:groupContext="shape" v:layerMember="0"
					transform="translate(44.8118,-70.2326) scale(-1,1)">
				<title>Start/Ende.31</title>
				<v:custProps>
					<v:cp v:nameU="Cost" v:lbl="Kosten" v:prompt="" v:type="7" v:format="@" v:sortKey="" v:invis="false"
							v:ask="false" v:langID="1031" v:cal="0"/>
					<v:cp v:nameU="ProcessNumber" v:lbl="Prozessnummer" v:prompt="" v:type="2" v:format="" v:sortKey=""
							v:invis="false" v:ask="false" v:langID="1031" v:cal="0"/>
					<v:cp v:nameU="Owner" v:lbl="Besitzer" v:prompt="" v:type="0" v:format="" v:sortKey="" v:invis="false"
							v:ask="false" v:langID="1031" v:cal="0"/>
					<v:cp v:nameU="Function" v:lbl="Funktionsname" v:prompt="" v:type="0" v:format="" v:sortKey="" v:invis="false"
							v:ask="false" v:langID="1031" v:cal="0" v:val="VT4()"/>
					<v:cp v:nameU="StartDate" v:lbl="Startdatum" v:prompt="" v:type="5" v:format="" v:sortKey="" v:invis="false"
							v:ask="false" v:langID="1031" v:cal="0"/>
					<v:cp v:nameU="EndDate" v:lbl="Enddatum" v:prompt="" v:type="5" v:format="" v:sortKey="" v:invis="false"
							v:ask="false" v:langID="1031" v:cal="0"/>
					<v:cp v:nameU="Status" v:lbl="Status" v:prompt="" v:type="4"
							v:format=";Nicht begonnen;In Bearbeitung;Abgeschlossen;Zurückgestellt;Auf Eingabe wartend" v:sortKey=""
							v:invis="false" v:ask="false" v:langID="1031" v:cal="0" v:val="VT4()"/>
				</v:custProps>
				<v:userDefs>
					<v:ud v:nameU="visVersion" v:prompt="" v:val="VT0(14):26"/>
					<v:ud v:nameU="DefaultWidth" v:prompt="" v:val="VT0(0.98425196850394):24"/>
					<v:ud v:nameU="DefaultHeight" v:prompt="" v:val="VT0(0.39370078740157):24"/>
					<v:ud v:nameU="ResizeTxtHeight" v:prompt="" v:val="VT0(0.39370078740157):24"/>
					<v:ud v:nameU="msvThemeColors" v:val="VT0(36):26"/>
					<v:ud v:nameU="msvThemeEffects" v:val="VT0(16):26"/>
				</v:userDefs>
				<path d="M0.88 175.98 L6.73 175.98 a0.877463 0.877463 -180 1 0 0 -1.75493 L0.88 174.22 a0.877463 0.877463 -180 1
							 0 -1.24345E-014 1.75493 Z" class="st4"/>
			</g>
			<g id="shape564-23" v:mID="564" v:groupContext="shape" transform="translate(30.6816,-7.05523) scale(-1,1)">
				<title>Tabelle.564</title>
				<v:userDefs>
					<v:ud v:nameU="msvThemeColors" v:val="VT0(36):26"/>
					<v:ud v:nameU="msvThemeEffects" v:val="VT0(16):26"/>
				</v:userDefs>
				<path d="M1.14 111.05 L1.14 117.15 A3.80234 2.92488 -180 0 0 0 119.24 L0 173.05 A3.80234 2.92488 -180 0 0 7.6 173.05
							 L7.6 119.24 A3.80234 2.92488 -180 0 0 6.46 117.15 L6.46 111.05 L1.14 111.05 Z" class="st4"/>
			</g>
			<g id="shape565-26" v:mID="565" v:groupContext="shape" transform="translate(30.669,-64.6138) scale(-1,1)">
				<title>Tabelle.565</title>
				<v:userDefs>
					<v:ud v:nameU="msvThemeColors" v:val="VT0(36):26"/>
					<v:ud v:nameU="msvThemeEffects" v:val="VT0(16):26"/>
				</v:userDefs>
				<path d="M0 163.22 L0 166.84 L1.75 166.84 L1.75 173.24 L1.78 173.24 L3.8 175.98 L5.83 173.24 L5.85 173.24 L5.85 166.84
							 L7.6 166.84 L7.6 163.22 L0 163.22 Z" class="st4"/>
			</g>
			<g id="shape566-29" v:mID="566" v:groupContext="shape" v:layerMember="0"
					transform="translate(30.6816,-70.2326) scale(-1,1)">
				<title>Start/Ende.37</title>
				<v:custProps>
					<v:cp v:nameU="Cost" v:lbl="Kosten" v:prompt="" v:type="7" v:format="@" v:sortKey="" v:invis="false"
							v:ask="false" v:langID="1031" v:cal="0"/>
					<v:cp v:nameU="ProcessNumber" v:lbl="Prozessnummer" v:prompt="" v:type="2" v:format="" v:sortKey=""
							v:invis="false" v:ask="false" v:langID="1031" v:cal="0"/>
					<v:cp v:nameU="Owner" v:lbl="Besitzer" v:prompt="" v:type="0" v:format="" v:sortKey="" v:invis="false"
							v:ask="false" v:langID="1031" v:cal="0"/>
					<v:cp v:nameU="Function" v:lbl="Funktionsname" v:prompt="" v:type="0" v:format="" v:sortKey="" v:invis="false"
							v:ask="false" v:langID="1031" v:cal="0" v:val="VT4()"/>
					<v:cp v:nameU="StartDate" v:lbl="Startdatum" v:prompt="" v:type="5" v:format="" v:sortKey="" v:invis="false"
							v:ask="false" v:langID="1031" v:cal="0"/>
					<v:cp v:nameU="EndDate" v:lbl="Enddatum" v:prompt="" v:type="5" v:format="" v:sortKey="" v:invis="false"
							v:ask="false" v:langID="1031" v:cal="0"/>
					<v:cp v:nameU="Status" v:lbl="Status" v:prompt="" v:type="4"
							v:format=";Nicht begonnen;In Bearbeitung;Abgeschlossen;Zurückgestellt;Auf Eingabe wartend" v:sortKey=""
							v:invis="false" v:ask="false" v:langID="1031" v:cal="0" v:val="VT4()"/>
				</v:custProps>
				<v:userDefs>
					<v:ud v:nameU="visVersion" v:prompt="" v:val="VT0(14):26"/>
					<v:ud v:nameU="DefaultWidth" v:prompt="" v:val="VT0(0.98425196850394):24"/>
					<v:ud v:nameU="DefaultHeight" v:prompt="" v:val="VT0(0.39370078740157):24"/>
					<v:ud v:nameU="ResizeTxtHeight" v:prompt="" v:val="VT0(0.39370078740157):24"/>
					<v:ud v:nameU="msvThemeColors" v:val="VT0(36):26"/>
					<v:ud v:nameU="msvThemeEffects" v:val="VT0(16):26"/>
				</v:userDefs>
				<path d="M0.88 175.98 L6.73 175.98 a0.877463 0.877463 -180 1 0 0 -1.75493 L0.88 174.22 a0.877463 0.877463 -180 1
							 0 -1.24345E-014 1.75493 Z" class="st4"/>
			</g>
			<g id="shape567-32" v:mID="567" v:groupContext="shape" transform="translate(16.6799,-7.05523) scale(-1,1)">
				<title>Tabelle.567</title>
				<v:userDefs>
					<v:ud v:nameU="msvThemeColors" v:val="VT0(36):26"/>
					<v:ud v:nameU="msvThemeEffects" v:val="VT0(16):26"/>
				</v:userDefs>
				<path d="M1.14 111.05 L1.14 117.15 A3.80234 2.92488 -180 0 0 0 119.24 L0 173.05 A3.80234 2.92488 -180 0 0 7.6 173.05
							 L7.6 119.24 A3.80234 2.92488 -180 0 0 6.46 117.15 L6.46 111.05 L1.14 111.05 Z" class="st4"/>
			</g>
			<g id="shape568-35" v:mID="568" v:groupContext="shape" transform="translate(16.6673,-64.6138) scale(-1,1)">
				<title>Tabelle.568</title>
				<v:userDefs>
					<v:ud v:nameU="msvThemeColors" v:val="VT0(36):26"/>
					<v:ud v:nameU="msvThemeEffects" v:val="VT0(16):26"/>
				</v:userDefs>
				<path d="M0 163.22 L0 166.84 L1.75 166.84 L1.75 173.24 L1.78 173.24 L3.8 175.98 L5.83 173.24 L5.85 173.24 L5.85 166.84
							 L7.6 166.84 L7.6 163.22 L0 163.22 Z" class="st4"/>
			</g>
			<g id="shape569-38" v:mID="569" v:groupContext="shape" v:layerMember="0"
					transform="translate(16.6799,-70.2326) scale(-1,1)">
				<title>Start/Ende.40</title>
				<v:custProps>
					<v:cp v:nameU="Cost" v:lbl="Kosten" v:prompt="" v:type="7" v:format="@" v:sortKey="" v:invis="false"
							v:ask="false" v:langID="1031" v:cal="0"/>
					<v:cp v:nameU="ProcessNumber" v:lbl="Prozessnummer" v:prompt="" v:type="2" v:format="" v:sortKey=""
							v:invis="false" v:ask="false" v:langID="1031" v:cal="0"/>
					<v:cp v:nameU="Owner" v:lbl="Besitzer" v:prompt="" v:type="0" v:format="" v:sortKey="" v:invis="false"
							v:ask="false" v:langID="1031" v:cal="0"/>
					<v:cp v:nameU="Function" v:lbl="Funktionsname" v:prompt="" v:type="0" v:format="" v:sortKey="" v:invis="false"
							v:ask="false" v:langID="1031" v:cal="0" v:val="VT4()"/>
					<v:cp v:nameU="StartDate" v:lbl="Startdatum" v:prompt="" v:type="5" v:format="" v:sortKey="" v:invis="false"
							v:ask="false" v:langID="1031" v:cal="0"/>
					<v:cp v:nameU="EndDate" v:lbl="Enddatum" v:prompt="" v:type="5" v:format="" v:sortKey="" v:invis="false"
							v:ask="false" v:langID="1031" v:cal="0"/>
					<v:cp v:nameU="Status" v:lbl="Status" v:prompt="" v:type="4"
							v:format=";Nicht begonnen;In Bearbeitung;Abgeschlossen;Zurückgestellt;Auf Eingabe wartend" v:sortKey=""
							v:invis="false" v:ask="false" v:langID="1031" v:cal="0" v:val="VT4()"/>
				</v:custProps>
				<v:userDefs>
					<v:ud v:nameU="visVersion" v:prompt="" v:val="VT0(14):26"/>
					<v:ud v:nameU="DefaultWidth" v:prompt="" v:val="VT0(0.98425196850394):24"/>
					<v:ud v:nameU="DefaultHeight" v:prompt="" v:val="VT0(0.39370078740157):24"/>
					<v:ud v:nameU="ResizeTxtHeight" v:prompt="" v:val="VT0(0.39370078740157):24"/>
					<v:ud v:nameU="msvThemeColors" v:val="VT0(36):26"/>
					<v:ud v:nameU="msvThemeEffects" v:val="VT0(16):26"/>
				</v:userDefs>
				<path d="M0.88 175.98 L6.73 175.98 a0.877463 0.877463 -180 1 0 0 -1.75493 L0.88 174.22 a0.877463 0.877463 -180 1
							 0 -1.24345E-014 1.75493 Z" class="st4"/>
			</g>
			<g id="shape570-41" v:mID="570" v:groupContext="shape" transform="translate(30.6816,-7.05523) scale(-1,1)">
				<title>Tabelle.570</title>
				<v:userDefs>
					<v:ud v:nameU="msvThemeColors" v:val="VT0(36):26"/>
					<v:ud v:nameU="msvThemeEffects" v:val="VT0(16):26"/>
				</v:userDefs>
				<path d="M0 154.88 L0 173.05 A3.80234 2.92488 -180 0 0 7.6 173.05 L7.6 154.88 L0 154.88 Z" class="st5"/>
			</g>
			<g id="shape571-45" v:mID="571" v:groupContext="shape" transform="translate(16.6799,-7.05523) scale(-1,1)">
				<title>Tabelle.571</title>
				<v:userDefs>
					<v:ud v:nameU="msvThemeColors" v:val="VT0(36):26"/>
					<v:ud v:nameU="msvThemeEffects" v:val="VT0(16):26"/>
				</v:userDefs>
				<path d="M0 154.88 L0 173.05 A3.80234 2.92488 -180 0 0 7.6 173.05 L7.6 154.88 L0 154.88 Z" class="st6"/>
			</g>
			<g id="shape572-49" v:mID="572" v:groupContext="shape" transform="translate(44.8118,-7.05523) scale(-1,1)">
				<title>Tabelle.572</title>
				<v:userDefs>
					<v:ud v:nameU="msvThemeColors" v:val="VT0(36):26"/>
					<v:ud v:nameU="msvThemeEffects" v:val="VT0(16):26"/>
				</v:userDefs>
				<path d="M0 154.88 L0 173.05 A3.80234 2.92488 -180 0 0 7.6 173.05 L7.6 154.88 L0 154.88 Z" class="st7"/>
			</g>
			<g id="shape573-53" v:mID="573" v:groupContext="shape" transform="translate(77.7359,-7.043) scale(-1,1)">
				<title>Tabelle.573</title>
				<v:userDefs>
					<v:ud v:nameU="msvThemeColors" v:val="VT0(36):26"/>
					<v:ud v:nameU="msvThemeEffects" v:val="VT0(16):26"/>
				</v:userDefs>
				<path d="M1.14 111.05 L1.14 117.15 A3.80234 2.92488 -180 0 0 0 119.24 L0 173.05 A3.80234 2.92488 -180 0 0 7.6 173.05
							 L7.6 119.24 A3.80234 2.92488 -180 0 0 6.46 117.15 L6.46 111.05 L1.14 111.05 Z" class="st4"/>
			</g>
			<g id="shape574-56" v:mID="574" v:groupContext="shape" transform="translate(77.7359,-64.5551) scale(-1,1)">
				<title>Tabelle.574</title>
				<v:userDefs>
					<v:ud v:nameU="msvThemeColors" v:val="VT0(36):26"/>
					<v:ud v:nameU="msvThemeEffects" v:val="VT0(16):26"/>
				</v:userDefs>
				<path d="M0 163.22 L0 166.84 L1.75 166.84 L1.75 173.24 L1.78 173.24 L3.8 175.98 L5.83 173.24 L5.85 173.24 L5.85 166.84
							 L7.6 166.84 L7.6 163.22 L0 163.22 Z" class="st4"/>
			</g>
			<g id="shape575-59" v:mID="575" v:groupContext="shape" v:layerMember="0"
					transform="translate(77.7359,-70.2204) scale(-1,1)">
				<title>Start/Ende.57</title>
				<v:custProps>
					<v:cp v:nameU="Cost" v:lbl="Kosten" v:prompt="" v:type="7" v:format="@" v:sortKey="" v:invis="false"
							v:ask="false" v:langID="1031" v:cal="0"/>
					<v:cp v:nameU="ProcessNumber" v:lbl="Prozessnummer" v:prompt="" v:type="2" v:format="" v:sortKey=""
							v:invis="false" v:ask="false" v:langID="1031" v:cal="0"/>
					<v:cp v:nameU="Owner" v:lbl="Besitzer" v:prompt="" v:type="0" v:format="" v:sortKey="" v:invis="false"
							v:ask="false" v:langID="1031" v:cal="0"/>
					<v:cp v:nameU="Function" v:lbl="Funktionsname" v:prompt="" v:type="0" v:format="" v:sortKey="" v:invis="false"
							v:ask="false" v:langID="1031" v:cal="0" v:val="VT4()"/>
					<v:cp v:nameU="StartDate" v:lbl="Startdatum" v:prompt="" v:type="5" v:format="" v:sortKey="" v:invis="false"
							v:ask="false" v:langID="1031" v:cal="0"/>
					<v:cp v:nameU="EndDate" v:lbl="Enddatum" v:prompt="" v:type="5" v:format="" v:sortKey="" v:invis="false"
							v:ask="false" v:langID="1031" v:cal="0"/>
					<v:cp v:nameU="Status" v:lbl="Status" v:prompt="" v:type="4"
							v:format=";Nicht begonnen;In Bearbeitung;Abgeschlossen;Zurückgestellt;Auf Eingabe wartend" v:sortKey=""
							v:invis="false" v:ask="false" v:langID="1031" v:cal="0" v:val="VT4()"/>
				</v:custProps>
				<v:userDefs>
					<v:ud v:nameU="visVersion" v:prompt="" v:val="VT0(14):26"/>
					<v:ud v:nameU="DefaultWidth" v:prompt="" v:val="VT0(0.98425196850394):24"/>
					<v:ud v:nameU="DefaultHeight" v:prompt="" v:val="VT0(0.39370078740157):24"/>
					<v:ud v:nameU="ResizeTxtHeight" v:prompt="" v:val="VT0(0.39370078740157):24"/>
					<v:ud v:nameU="msvThemeColors" v:val="VT0(36):26"/>
					<v:ud v:nameU="msvThemeEffects" v:val="VT0(16):26"/>
				</v:userDefs>
				<path d="M0.88 175.98 L6.73 175.98 a0.877463 0.877463 -180 1 0 0 -1.75493 L0.88 174.22 a0.877463 0.877463 -180 1
							 0 -1.24345E-014 1.75493 Z" class="st4"/>
			</g>
			<g id="shape576-62" v:mID="576" v:groupContext="shape" transform="translate(63.7343,-7.043) scale(-1,1)">
				<title>Tabelle.576</title>
				<v:userDefs>
					<v:ud v:nameU="msvThemeColors" v:val="VT0(36):26"/>
					<v:ud v:nameU="msvThemeEffects" v:val="VT0(16):26"/>
				</v:userDefs>
				<path d="M1.14 111.05 L1.14 117.15 A3.80234 2.92488 -180 0 0 0 119.24 L0 173.05 A3.80234 2.92488 -180 0 0 7.6 173.05
							 L7.6 119.24 A3.80234 2.92488 -180 0 0 6.46 117.15 L6.46 111.05 L1.14 111.05 Z" class="st4"/>
			</g>
			<g id="shape577-65" v:mID="577" v:groupContext="shape" transform="translate(63.7343,-64.5551) scale(-1,1)">
				<title>Tabelle.577</title>
				<v:userDefs>
					<v:ud v:nameU="msvThemeColors" v:val="VT0(36):26"/>
					<v:ud v:nameU="msvThemeEffects" v:val="VT0(16):26"/>
				</v:userDefs>
				<path d="M0 163.22 L0 166.84 L1.75 166.84 L1.75 173.24 L1.78 173.24 L3.8 175.98 L5.83 173.24 L5.85 173.24 L5.85 166.84
							 L7.6 166.84 L7.6 163.22 L0 163.22 Z" class="st4"/>
			</g>
			<g id="shape578-68" v:mID="578" v:groupContext="shape" v:layerMember="0"
					transform="translate(63.7343,-70.2204) scale(-1,1)">
				<title>Start/Ende.60</title>
				<v:custProps>
					<v:cp v:nameU="Cost" v:lbl="Kosten" v:prompt="" v:type="7" v:format="@" v:sortKey="" v:invis="false"
							v:ask="false" v:langID="1031" v:cal="0"/>
					<v:cp v:nameU="ProcessNumber" v:lbl="Prozessnummer" v:prompt="" v:type="2" v:format="" v:sortKey=""
							v:invis="false" v:ask="false" v:langID="1031" v:cal="0"/>
					<v:cp v:nameU="Owner" v:lbl="Besitzer" v:prompt="" v:type="0" v:format="" v:sortKey="" v:invis="false"
							v:ask="false" v:langID="1031" v:cal="0"/>
					<v:cp v:nameU="Function" v:lbl="Funktionsname" v:prompt="" v:type="0" v:format="" v:sortKey="" v:invis="false"
							v:ask="false" v:langID="1031" v:cal="0" v:val="VT4()"/>
					<v:cp v:nameU="StartDate" v:lbl="Startdatum" v:prompt="" v:type="5" v:format="" v:sortKey="" v:invis="false"
							v:ask="false" v:langID="1031" v:cal="0"/>
					<v:cp v:nameU="EndDate" v:lbl="Enddatum" v:prompt="" v:type="5" v:format="" v:sortKey="" v:invis="false"
							v:ask="false" v:langID="1031" v:cal="0"/>
					<v:cp v:nameU="Status" v:lbl="Status" v:prompt="" v:type="4"
							v:format=";Nicht begonnen;In Bearbeitung;Abgeschlossen;Zurückgestellt;Auf Eingabe wartend" v:sortKey=""
							v:invis="false" v:ask="false" v:langID="1031" v:cal="0" v:val="VT4()"/>
				</v:custProps>
				<v:userDefs>
					<v:ud v:nameU="visVersion" v:prompt="" v:val="VT0(14):26"/>
					<v:ud v:nameU="DefaultWidth" v:prompt="" v:val="VT0(0.98425196850394):24"/>
					<v:ud v:nameU="DefaultHeight" v:prompt="" v:val="VT0(0.39370078740157):24"/>
					<v:ud v:nameU="ResizeTxtHeight" v:prompt="" v:val="VT0(0.39370078740157):24"/>
					<v:ud v:nameU="msvThemeColors" v:val="VT0(36):26"/>
					<v:ud v:nameU="msvThemeEffects" v:val="VT0(16):26"/>
				</v:userDefs>
				<path d="M0.88 175.98 L6.73 175.98 a0.877463 0.877463 -180 1 0 0 -1.75493 L0.88 174.22 a0.877463 0.877463 -180 1
							 0 -1.24345E-014 1.75493 Z" class="st4"/>
			</g>
			<g id="shape579-71" v:mID="579" v:groupContext="shape" transform="translate(77.7359,-7.043) scale(-1,1)">
				<title>Tabelle.579</title>
				<v:userDefs>
					<v:ud v:nameU="msvThemeColors" v:val="VT0(36):26"/>
					<v:ud v:nameU="msvThemeEffects" v:val="VT0(16):26"/>
				</v:userDefs>
				<path d="M0 154.88 L0 173.05 A3.80234 2.92488 -180 0 0 7.6 173.05 L7.6 154.88 L0 154.88 Z" class="st7"/>
			</g>
			<g id="shape580-74" v:mID="580" v:groupContext="shape" transform="translate(63.7343,-7.043) scale(-1,1)">
				<title>Tabelle.580</title>
				<v:userDefs>
					<v:ud v:nameU="msvThemeColors" v:val="VT0(36):26"/>
					<v:ud v:nameU="msvThemeEffects" v:val="VT0(16):26"/>
				</v:userDefs>
				<path d="M0 154.88 L0 173.05 A3.80234 2.92488 -180 0 0 7.6 173.05 L7.6 154.88 L0 154.88 Z" class="st7"/>
			</g>
			<g id="shape581-77" v:mID="581" v:groupContext="shape" transform="translate(50.2782,-17.743)">
				<title>Rechteck.47</title>
				<v:userDefs>
					<v:ud v:nameU="visVersion" v:val="VT0(14):26"/>
					<v:ud v:nameU="msvThemeColors" v:val="VT0(36):26"/>
					<v:ud v:nameU="msvThemeEffects" v:val="VT0(16):26"/>
				</v:userDefs>
				<rect x="0" y="101.436" width="1.49083" height="74.5417" class="st4"/>
			</g>
			<g id="shape582-80" v:mID="582" v:groupContext="shape">
				<title>Rechteck.46</title>
				<v:userDefs>
					<v:ud v:nameU="visVersion" v:val="VT0(14):26"/>
					<v:ud v:nameU="msvThemeColors" v:val="VT0(36):26"/>
					<v:ud v:nameU="msvThemeEffects" v:val="VT0(16):26"/>
				</v:userDefs>
				<rect x="0" y="158.088" width="102.047" height="17.89" class="st8"/>
			</g>
		</g>
		<g id="group592-83" transform="translate(265.388,-64.147)" v:mID="592" v:groupContext="group">
			<v:userDefs>
				<v:ud v:nameU="msvThemeColors" v:val="VT0(36):26"/>
				<v:ud v:nameU="msvThemeEffects" v:val="VT0(16):26"/>
			</v:userDefs>
			<title>Tabelle.592</title>
			<g id="shape593-84" v:mID="593" v:groupContext="shape">
				<title>Rechteck.157</title>
				<v:userDefs>
					<v:ud v:nameU="visVersion" v:val="VT0(14):26"/>
					<v:ud v:nameU="msvThemeColors" v:val="VT0(36):26"/>
					<v:ud v:nameU="msvThemeEffects" v:val="VT0(16):26"/>
				</v:userDefs>
				<rect x="0" y="127.39" width="95.6806" height="48.5878" class="st9"/>
			</g>
			<g id="shape594-88" v:mID="594" v:groupContext="shape" transform="translate(3.56186,-7.47505)">
				<title>Rechteck.158</title>
				<v:userDefs>
					<v:ud v:nameU="visVersion" v:val="VT0(14):26"/>
					<v:ud v:nameU="msvThemeColors" v:val="VT0(36):26"/>
					<v:ud v:nameU="msvThemeEffects" v:val="VT0(16):26"/>
				</v:userDefs>
				<rect x="0" y="161.424" width="29.3284" height="14.5539" class="st10"/>
			</g>
			<g id="shape595-91" v:mID="595" v:groupContext="shape" transform="translate(25.4152,-15.3239)">
				<title>Kreis</title>
				<v:userDefs>
					<v:ud v:nameU="visVersion" v:val="VT0(14):26"/>
					<v:ud v:nameU="msvThemeColors" v:val="VT0(36):26"/>
					<v:ud v:nameU="msvThemeEffects" v:val="VT0(16):26"/>
				</v:userDefs>
				<path d="M0 173.36 A2.61627 2.61627 0 0 1 5.23 173.36 A2.61627 2.61627 0 1 1 -0 173.36 Z" class="st10"/>
			</g>
			<g id="shape596-94" v:mID="596" v:groupContext="shape" transform="translate(4.48503,-8.97006)">
				<title>Kreis.164</title>
				<v:userDefs>
					<v:ud v:nameU="visVersion" v:val="VT0(14):26"/>
					<v:ud v:nameU="msvThemeColors" v:val="VT0(36):26"/>
					<v:ud v:nameU="msvThemeEffects" v:val="VT0(16):26"/>
				</v:userDefs>
				<path d="M0 174.86 A1.12126 1.12126 0 0 1 2.24 174.86 A1.12126 1.12126 0 1 1 0 174.86 Z" class="st10"/>
			</g>
			<g id="shape597-97" v:mID="597" v:groupContext="shape" transform="translate(6.72754,-13.0813)">
				<title>Rechteck.166</title>
				<desc>95</desc>
				<v:userDefs>
					<v:ud v:nameU="visVersion" v:val="VT0(14):26"/>
					<v:ud v:nameU="msvThemeColors" v:val="VT0(36):26"/>
					<v:ud v:nameU="msvThemeEffects" v:val="VT0(16):26"/>
				</v:userDefs>
				<v:textBlock v:margins="rect(4,4,4,4)" v:tabSpace="42.5197"/>
				<v:textRect cx="7.26615" cy="172.24" width="14.54" height="7.47505"/>
				<rect x="0" y="168.503" width="14.5323" height="7.47505" class="st10"/>
				<text x="5.24" y="173.44" class="st11" v:langID="1031"><v:paragraph v:horizAlign="1"/><v:tabList/>95</text>			</g>
			<g id="shape598-101" v:mID="598" v:groupContext="shape" transform="translate(225.656,154.168) rotate(94.5739)">
				<title>Tabelle.598</title>
				<v:userDefs>
					<v:ud v:nameU="msvThemeColors" v:val="VT0(36):26"/>
					<v:ud v:nameU="msvThemeEffects" v:val="VT0(16):26"/>
				</v:userDefs>
				<path d="M0 173.34 C2.08 175.02 5.22 176.76 7.78 175.61 C9.89 174.66 11.62 171.72 13.75 171.15 C16.57 170.4 20.12
							 173.77 22.61 173.34" class="st12"/>
			</g>
			<g id="shape599-105" v:mID="599" v:groupContext="shape" transform="translate(232.867,154.168) rotate(94.5739)">
				<title>Tabelle.599</title>
				<v:userDefs>
					<v:ud v:nameU="msvThemeColors" v:val="VT0(36):26"/>
					<v:ud v:nameU="msvThemeEffects" v:val="VT0(16):26"/>
				</v:userDefs>
				<path d="M0 173.34 C2.08 175.02 5.22 176.76 7.78 175.61 C9.89 174.66 11.62 171.72 13.75 171.15 C16.57 170.4 20.12
							 173.77 22.61 173.34" class="st12"/>
			</g>
			<g id="shape600-109" v:mID="600" v:groupContext="shape" transform="translate(240.079,154.168) rotate(94.5739)">
				<title>Tabelle.600</title>
				<v:userDefs>
					<v:ud v:nameU="msvThemeColors" v:val="VT0(36):26"/>
					<v:ud v:nameU="msvThemeEffects" v:val="VT0(16):26"/>
				</v:userDefs>
				<path d="M0 173.34 C2.08 175.02 5.22 176.76 7.78 175.61 C9.89 174.66 11.62 171.72 13.75 171.15 C16.57 170.4 20.12
							 173.77 22.61 173.34" class="st12"/>
			</g>
		</g>
	</g>
</svg>
