<?xml version="1.0" encoding="UTF-8" standalone="no"?>
<!DOCTYPE svg PUBLIC "-//W3C//DTD SVG 1.1//EN" "http://www.w3.org/Graphics/SVG/1.1/DTD/svg11.dtd">
<!-- Generiert durch Microsoft Visio, SVG Export 18.svg Page-1 -->
<svg xmlns="http://www.w3.org/2000/svg" xmlns:xlink="http://www.w3.org/1999/xlink" xmlns:ev="http://www.w3.org/2001/xml-events"
		xmlns:v="http://schemas.microsoft.com/visio/2003/SVGExtensions/" width="5.20768in" height="2.44414in"
		viewBox="0 0 374.953 175.978" xml:space="preserve" color-interpolation-filters="sRGB" class="st9">
	<v:documentProperties v:langID="1031" v:metric="true" v:viewMarkup="false">
		<v:userDefs>
			<v:ud v:nameU="msvNoAutoConnect" v:val="VT0(0):26"/>
			<v:ud v:nameU="msvConvertTheme"/>
		</v:userDefs>
	</v:documentProperties>

	<style type="text/css">
	<![CDATA[
		.st1 {fill:#000000;stroke:none;stroke-linecap:round;stroke-linejoin:round;stroke-width:0.75}
		.st2 {fill:url(#grad0-6);stroke:#ffffff;stroke-linecap:round;stroke-linejoin:round;stroke-width:0.25}
		.st3 {fill:none;stroke:none;stroke-linecap:round;stroke-linejoin:round;stroke-width:0.25}
		.st4 {fill:url(#grad0-6);stroke:#404040;stroke-linecap:round;stroke-linejoin:round;stroke-width:0.25}
		.st5 {fill:url(#grad0-62);stroke:none;stroke-linecap:round;stroke-linejoin:round;stroke-width:0.25}
		.st6 {fill:url(#grad0-69);stroke:none;stroke-linecap:round;stroke-linejoin:round;stroke-width:0.25}
		.st7 {fill:url(#grad0-73);stroke:none;stroke-linecap:round;stroke-linejoin:round;stroke-width:0.25}
		.st8 {fill:url(#grad0-6);stroke:#7f7f7f;stroke-linecap:round;stroke-linejoin:round;stroke-width:0.25}
		.st9 {fill:none;fill-rule:evenodd;font-size:12px;overflow:visible;stroke-linecap:square;stroke-miterlimit:3}
	]]>
	</style>

	<defs id="Patterns_And_Gradients">
		<linearGradient id="grad0-6" x1="0" y1="0" x2="1" y2="0" gradientTransform="rotate(270 0.5 0.5)">
			<stop offset="0" stop-color="#f0f0f0" stop-opacity="1"/>
			<stop offset="1" stop-color="#ffffff" stop-opacity="1"/>
		</linearGradient>
		<linearGradient id="grad0-62" x1="0" y1="0" x2="1" y2="0" gradientTransform="rotate(270 0.5 0.5)">
			<stop offset="0" stop-color="#545f2e" stop-opacity="1"/>
			<stop offset="1" stop-color="#5f6c35" stop-opacity="1"/>
		</linearGradient>
		<linearGradient id="grad0-69" x1="0" y1="0" x2="1" y2="0" gradientTransform="rotate(270 0.5 0.5)">
			<stop offset="0" stop-color="#e1e100" stop-opacity="1"/>
			<stop offset="1" stop-color="#ffff00" stop-opacity="1"/>
		</linearGradient>
		<linearGradient id="grad0-73" x1="0" y1="0" x2="1" y2="0" gradientTransform="rotate(270 0.5 0.5)">
			<stop offset="0" stop-color="#7c8e46" stop-opacity="1"/>
			<stop offset="1" stop-color="#8fa350" stop-opacity="1"/>
		</linearGradient>
	</defs>
	<g v:mID="4" v:index="1" v:groupContext="backgroundPage">
		<v:userDefs>
			<v:ud v:nameU="msvThemeColors" v:val="VT0(36):26"/>
			<v:ud v:nameU="msvThemeEffects" v:val="VT0(16):26"/>
			<v:ud v:nameU="msvThemeOrder" v:val="VT0(0):26"/>
			<v:ud v:nameU="msvVisioCreated" v:prompt="" v:val="VT0(0):26"/>
		</v:userDefs>
		<title>VHintergrund-1</title>
		<v:pageProperties width="5.20768" height="2.44414" v:drawingScale="0.0393701" v:pageScale="0.0393701" v:drawingUnits="24"
				v:shadowOffsetX="8.50394" v:shadowOffsetY="-8.50394"/>
		<g id="shape1-1" v:mID="1" v:groupContext="shape">
			<title>Vollton</title>
			<v:userDefs>
				<v:ud v:nameU="Background" v:val="VT0(0):26"/>
				<v:ud v:nameU="visVersion" v:val="VT0(14):26"/>
				<v:ud v:nameU="msvShapeCategories" v:prompt="" v:val="VT4(DoNotContain)"/>
				<v:ud v:nameU="msvThemeColors" v:val="VT0(36):26"/>
				<v:ud v:nameU="msvVisioCreated" v:prompt="" v:val="VT0(0):26"/>
			</v:userDefs>
			<rect x="0" y="0" width="374.953" height="175.978" class="st1"/>
		</g>
		<g id="shape2-3" v:mID="2" v:groupContext="shape" transform="translate(222.201,234.318) rotate(180)">
			<title>Pfeil 60 Grad-Spitze</title>
			<v:userDefs>
				<v:ud v:nameU="visVersion" v:val="VT0(14):26"/>
				<v:ud v:nameU="msvThemeColors" v:val="VT0(36):26"/>
				<v:ud v:nameU="msvThemeEffects" v:val="VT0(16):26"/>
			</v:userDefs>
			<path d="M0 168.89 L4.09 161.8 L4.09 166.48 L69.45 166.48 L69.45 171.3 L4.09 171.3 L4.09 175.98 L0 168.89 Z"
					class="st2"/>
		</g>
	</g>
	<g v:mID="0" v:index="2" v:groupContext="foregroundPage">
		<v:userDefs>
			<v:ud v:nameU="msvThemeColors" v:val="VT0(36):26"/>
			<v:ud v:nameU="msvThemeEffects" v:val="VT0(16):26"/>
			<v:ud v:nameU="msvThemeOrder" v:val="VT0(0):26"/>
		</v:userDefs>
		<title>Zeichenblatt-1</title>
		<v:pageProperties v:drawingScale="0.0393701" v:pageScale="0.0393701" v:drawingUnits="24" v:shadowOffsetX="8.50394"
				v:shadowOffsetY="-8.50394"/>
		<v:layer v:name="Flussdiagramm" v:index="0"/>
		<v:layer v:name="Verbinder" v:index="1"/>
		<g id="shape195-7" v:mID="195" v:groupContext="shape" transform="translate(125.787,-123.895)">
			<title>Rechteck.195</title>
			<v:userDefs>
				<v:ud v:nameU="visVersion" v:val="VT0(15):26"/>
				<v:ud v:nameU="msvThemeColors" v:val="VT0(36):26"/>
				<v:ud v:nameU="msvThemeEffects" v:val="VT0(16):26"/>
			</v:userDefs>
			<rect x="0" y="128.965" width="123.307" height="47.0131" class="st3"/>
		</g>
		<g id="shape192-9" v:mID="192" v:groupContext="shape" transform="translate(1.59872E-014,-2.26772)">
			<title>Rechteck.13.192</title>
			<v:userDefs>
				<v:ud v:nameU="visVersion" v:val="VT0(15):26"/>
				<v:ud v:nameU="msvThemeColors" v:val="VT0(36):26"/>
				<v:ud v:nameU="msvThemeEffects" v:val="VT0(16):26"/>
			</v:userDefs>
			<rect x="0" y="3.63146" width="123.307" height="172.346" class="st3"/>
		</g>
		<g id="shape194-11" v:mID="194" v:groupContext="shape" transform="translate(251.575,-2.26772)">
			<title>Rechteck.194</title>
			<v:userDefs>
				<v:ud v:nameU="visVersion" v:val="VT0(15):26"/>
				<v:ud v:nameU="msvThemeColors" v:val="VT0(36):26"/>
				<v:ud v:nameU="msvThemeEffects" v:val="VT0(16):26"/>
			</v:userDefs>
			<rect x="0" y="3.63146" width="123.307" height="172.346" class="st3"/>
		</g>
		<g id="group532-13" transform="translate(25.5513,-50.8301)" v:mID="532" v:groupContext="group">
			<v:userDefs>
				<v:ud v:nameU="msvThemeColors" v:val="VT0(36):26"/>
				<v:ud v:nameU="msvThemeEffects" v:val="VT0(16):26"/>
			</v:userDefs>
			<title>Tabelle.532</title>
			<g id="shape533-14" v:mID="533" v:groupContext="shape" transform="translate(45.5906,0) scale(-1,1)">
				<title>Tabelle.533</title>
				<v:userDefs>
					<v:ud v:nameU="msvThemeColors" v:val="VT0(36):26"/>
					<v:ud v:nameU="msvThemeEffects" v:val="VT0(16):26"/>
				</v:userDefs>
				<path d="M1.08 114.25 L1.08 120.05 A3.61485 2.78066 -180 0 0 0 122.03 L0 173.2 A3.61485 2.78066 -180 0 0 7.23 173.2
							 L7.23 122.03 A3.61485 2.78066 -180 0 0 6.15 120.05 L6.15 114.25 L1.08 114.25 Z" class="st4"/>
			</g>
			<g id="shape534-17" v:mID="534" v:groupContext="shape" transform="translate(-48.9165,-41.1336) rotate(-30) scale(-1,1)">
				<title>Tabelle.534</title>
				<v:userDefs>
					<v:ud v:nameU="msvThemeColors" v:val="VT0(36):26"/>
					<v:ud v:nameU="msvThemeEffects" v:val="VT0(16):26"/>
				</v:userDefs>
				<path d="M0 163.84 L0 167.29 L1.67 167.29 L1.67 173.37 L1.69 173.37 L3.61 175.98 L5.54 173.37 L5.56 173.37 L5.56
							 167.29 L7.23 167.29 L7.23 163.84 L0 163.84 Z" class="st4"/>
			</g>
			<g id="shape535-20" v:mID="535" v:groupContext="shape" v:layerMember="0"
					transform="translate(45.5906,-60.0622) scale(-1,1)">
				<title>Start/Ende.11</title>
				<v:custProps>
					<v:cp v:nameU="Cost" v:lbl="Kosten" v:prompt="" v:type="7" v:format="@" v:sortKey="" v:invis="false"
							v:ask="false" v:langID="1031" v:cal="0"/>
					<v:cp v:nameU="ProcessNumber" v:lbl="Prozessnummer" v:prompt="" v:type="2" v:format="" v:sortKey=""
							v:invis="false" v:ask="false" v:langID="1031" v:cal="0"/>
					<v:cp v:nameU="Owner" v:lbl="Besitzer" v:prompt="" v:type="0" v:format="" v:sortKey="" v:invis="false"
							v:ask="false" v:langID="1031" v:cal="0"/>
					<v:cp v:nameU="Function" v:lbl="Funktionsname" v:prompt="" v:type="0" v:format="" v:sortKey="" v:invis="false"
							v:ask="false" v:langID="1031" v:cal="0" v:val="VT4()"/>
					<v:cp v:nameU="StartDate" v:lbl="Startdatum" v:prompt="" v:type="5" v:format="" v:sortKey="" v:invis="false"
							v:ask="false" v:langID="1031" v:cal="0"/>
					<v:cp v:nameU="EndDate" v:lbl="Enddatum" v:prompt="" v:type="5" v:format="" v:sortKey="" v:invis="false"
							v:ask="false" v:langID="1031" v:cal="0"/>
					<v:cp v:nameU="Status" v:lbl="Status" v:prompt="" v:type="4"
							v:format=";Nicht begonnen;In Bearbeitung;Abgeschlossen;Zurückgestellt;Auf Eingabe wartend" v:sortKey=""
							v:invis="false" v:ask="false" v:langID="1031" v:cal="0" v:val="VT4()"/>
				</v:custProps>
				<v:userDefs>
					<v:ud v:nameU="visVersion" v:prompt="" v:val="VT0(14):26"/>
					<v:ud v:nameU="DefaultWidth" v:prompt="" v:val="VT0(0.98425196850394):24"/>
					<v:ud v:nameU="DefaultHeight" v:prompt="" v:val="VT0(0.39370078740157):24"/>
					<v:ud v:nameU="ResizeTxtHeight" v:prompt="" v:val="VT0(0.39370078740157):24"/>
					<v:ud v:nameU="msvThemeColors" v:val="VT0(36):26"/>
					<v:ud v:nameU="msvThemeEffects" v:val="VT0(16):26"/>
				</v:userDefs>
				<path d="M0.83 175.98 L6.4 175.98 a0.834197 0.834197 -180 0 0 0 -1.66839 L0.83 174.31 a0.834197 0.834197 -180 1 0
							 -1.15463E-014 1.66839 Z" class="st4"/>
			</g>
			<g id="shape536-23" v:mID="536" v:groupContext="shape" transform="translate(32.157,0) scale(-1,1)">
				<title>Tabelle.536</title>
				<v:userDefs>
					<v:ud v:nameU="msvThemeColors" v:val="VT0(36):26"/>
					<v:ud v:nameU="msvThemeEffects" v:val="VT0(16):26"/>
				</v:userDefs>
				<path d="M1.08 114.25 L1.08 120.05 A3.61485 2.78066 -180 0 0 0 122.03 L0 173.2 A3.61485 2.78066 -180 0 0 7.23 173.2
							 L7.23 122.03 A3.61485 2.78066 -180 0 0 6.15 120.05 L6.15 114.25 L1.08 114.25 Z" class="st4"/>
			</g>
			<g id="shape537-26" v:mID="537" v:groupContext="shape" transform="translate(-62.35,-41.1336) rotate(-30) scale(-1,1)">
				<title>Tabelle.537</title>
				<v:userDefs>
					<v:ud v:nameU="msvThemeColors" v:val="VT0(36):26"/>
					<v:ud v:nameU="msvThemeEffects" v:val="VT0(16):26"/>
				</v:userDefs>
				<path d="M0 163.84 L0 167.29 L1.67 167.29 L1.67 173.37 L1.69 173.37 L3.61 175.98 L5.54 173.37 L5.56 173.37 L5.56
							 167.29 L7.23 167.29 L7.23 163.84 L0 163.84 Z" class="st4"/>
			</g>
			<g id="shape538-29" v:mID="538" v:groupContext="shape" v:layerMember="0"
					transform="translate(32.157,-60.0622) scale(-1,1)">
				<title>Start/Ende.21</title>
				<v:custProps>
					<v:cp v:nameU="Cost" v:lbl="Kosten" v:prompt="" v:type="7" v:format="@" v:sortKey="" v:invis="false"
							v:ask="false" v:langID="1031" v:cal="0"/>
					<v:cp v:nameU="ProcessNumber" v:lbl="Prozessnummer" v:prompt="" v:type="2" v:format="" v:sortKey=""
							v:invis="false" v:ask="false" v:langID="1031" v:cal="0"/>
					<v:cp v:nameU="Owner" v:lbl="Besitzer" v:prompt="" v:type="0" v:format="" v:sortKey="" v:invis="false"
							v:ask="false" v:langID="1031" v:cal="0"/>
					<v:cp v:nameU="Function" v:lbl="Funktionsname" v:prompt="" v:type="0" v:format="" v:sortKey="" v:invis="false"
							v:ask="false" v:langID="1031" v:cal="0" v:val="VT4()"/>
					<v:cp v:nameU="StartDate" v:lbl="Startdatum" v:prompt="" v:type="5" v:format="" v:sortKey="" v:invis="false"
							v:ask="false" v:langID="1031" v:cal="0"/>
					<v:cp v:nameU="EndDate" v:lbl="Enddatum" v:prompt="" v:type="5" v:format="" v:sortKey="" v:invis="false"
							v:ask="false" v:langID="1031" v:cal="0"/>
					<v:cp v:nameU="Status" v:lbl="Status" v:prompt="" v:type="4"
							v:format=";Nicht begonnen;In Bearbeitung;Abgeschlossen;Zurückgestellt;Auf Eingabe wartend" v:sortKey=""
							v:invis="false" v:ask="false" v:langID="1031" v:cal="0" v:val="VT4()"/>
				</v:custProps>
				<v:userDefs>
					<v:ud v:nameU="visVersion" v:prompt="" v:val="VT0(14):26"/>
					<v:ud v:nameU="DefaultWidth" v:prompt="" v:val="VT0(0.98425196850394):24"/>
					<v:ud v:nameU="DefaultHeight" v:prompt="" v:val="VT0(0.39370078740157):24"/>
					<v:ud v:nameU="ResizeTxtHeight" v:prompt="" v:val="VT0(0.39370078740157):24"/>
					<v:ud v:nameU="msvThemeColors" v:val="VT0(36):26"/>
					<v:ud v:nameU="msvThemeEffects" v:val="VT0(16):26"/>
				</v:userDefs>
				<path d="M0.83 175.98 L6.4 175.98 a0.834197 0.834197 -180 0 0 0 -1.66839 L0.83 174.31 a0.834197 0.834197 -180 1 0
							 -1.15463E-014 1.66839 Z" class="st4"/>
			</g>
			<g id="shape539-32" v:mID="539" v:groupContext="shape" transform="translate(18.8458,0) scale(-1,1)">
				<title>Tabelle.539</title>
				<v:userDefs>
					<v:ud v:nameU="msvThemeColors" v:val="VT0(36):26"/>
					<v:ud v:nameU="msvThemeEffects" v:val="VT0(16):26"/>
				</v:userDefs>
				<path d="M1.08 114.25 L1.08 120.05 A3.61485 2.78066 -180 0 0 0 122.03 L0 173.2 A3.61485 2.78066 -180 0 0 7.23 173.2
							 L7.23 122.03 A3.61485 2.78066 -180 0 0 6.15 120.05 L6.15 114.25 L1.08 114.25 Z" class="st4"/>
			</g>
			<g id="shape540-35" v:mID="540" v:groupContext="shape" transform="translate(-75.6612,-41.1336) rotate(-30) scale(-1,1)">
				<title>Tabelle.540</title>
				<v:userDefs>
					<v:ud v:nameU="msvThemeColors" v:val="VT0(36):26"/>
					<v:ud v:nameU="msvThemeEffects" v:val="VT0(16):26"/>
				</v:userDefs>
				<path d="M0 163.84 L0 167.29 L1.67 167.29 L1.67 173.37 L1.69 173.37 L3.61 175.98 L5.54 173.37 L5.56 173.37 L5.56
							 167.29 L7.23 167.29 L7.23 163.84 L0 163.84 Z" class="st4"/>
			</g>
			<g id="shape541-38" v:mID="541" v:groupContext="shape" v:layerMember="0"
					transform="translate(18.8458,-60.0622) scale(-1,1)">
				<title>Start/Ende.24</title>
				<v:custProps>
					<v:cp v:nameU="Cost" v:lbl="Kosten" v:prompt="" v:type="7" v:format="@" v:sortKey="" v:invis="false"
							v:ask="false" v:langID="1031" v:cal="0"/>
					<v:cp v:nameU="ProcessNumber" v:lbl="Prozessnummer" v:prompt="" v:type="2" v:format="" v:sortKey=""
							v:invis="false" v:ask="false" v:langID="1031" v:cal="0"/>
					<v:cp v:nameU="Owner" v:lbl="Besitzer" v:prompt="" v:type="0" v:format="" v:sortKey="" v:invis="false"
							v:ask="false" v:langID="1031" v:cal="0"/>
					<v:cp v:nameU="Function" v:lbl="Funktionsname" v:prompt="" v:type="0" v:format="" v:sortKey="" v:invis="false"
							v:ask="false" v:langID="1031" v:cal="0" v:val="VT4()"/>
					<v:cp v:nameU="StartDate" v:lbl="Startdatum" v:prompt="" v:type="5" v:format="" v:sortKey="" v:invis="false"
							v:ask="false" v:langID="1031" v:cal="0"/>
					<v:cp v:nameU="EndDate" v:lbl="Enddatum" v:prompt="" v:type="5" v:format="" v:sortKey="" v:invis="false"
							v:ask="false" v:langID="1031" v:cal="0"/>
					<v:cp v:nameU="Status" v:lbl="Status" v:prompt="" v:type="4"
							v:format=";Nicht begonnen;In Bearbeitung;Abgeschlossen;Zurückgestellt;Auf Eingabe wartend" v:sortKey=""
							v:invis="false" v:ask="false" v:langID="1031" v:cal="0" v:val="VT4()"/>
				</v:custProps>
				<v:userDefs>
					<v:ud v:nameU="visVersion" v:prompt="" v:val="VT0(14):26"/>
					<v:ud v:nameU="DefaultWidth" v:prompt="" v:val="VT0(0.98425196850394):24"/>
					<v:ud v:nameU="DefaultHeight" v:prompt="" v:val="VT0(0.39370078740157):24"/>
					<v:ud v:nameU="ResizeTxtHeight" v:prompt="" v:val="VT0(0.39370078740157):24"/>
					<v:ud v:nameU="msvThemeColors" v:val="VT0(36):26"/>
					<v:ud v:nameU="msvThemeEffects" v:val="VT0(16):26"/>
				</v:userDefs>
				<path d="M0.83 175.98 L6.4 175.98 a0.834197 0.834197 -180 0 0 0 -1.66839 L0.83 174.31 a0.834197 0.834197 -180 1 0
							 -1.15463E-014 1.66839 Z" class="st4"/>
			</g>
			<g id="shape542-41" v:mID="542" v:groupContext="shape" transform="translate(72.2045,-0.00392586) scale(-1,1)">
				<title>Tabelle.542</title>
				<v:userDefs>
					<v:ud v:nameU="msvThemeColors" v:val="VT0(36):26"/>
					<v:ud v:nameU="msvThemeEffects" v:val="VT0(16):26"/>
				</v:userDefs>
				<path d="M1.08 114.25 L1.08 120.05 A3.61485 2.78066 -180 0 0 0 122.03 L0 173.2 A3.61485 2.78066 -180 0 0 7.23 173.2
							 L7.23 122.03 A3.61485 2.78066 -180 0 0 6.15 120.05 L6.15 114.25 L1.08 114.25 Z" class="st4"/>
			</g>
			<g id="shape543-44" v:mID="543" v:groupContext="shape" transform="translate(-22.3025,-41.1375) rotate(-30) scale(-1,1)">
				<title>Tabelle.543</title>
				<v:userDefs>
					<v:ud v:nameU="msvThemeColors" v:val="VT0(36):26"/>
					<v:ud v:nameU="msvThemeEffects" v:val="VT0(16):26"/>
				</v:userDefs>
				<path d="M0 163.84 L0 167.29 L1.67 167.29 L1.67 173.37 L1.69 173.37 L3.61 175.98 L5.54 173.37 L5.56 173.37 L5.56
							 167.29 L7.23 167.29 L7.23 163.84 L0 163.84 Z" class="st4"/>
			</g>
			<g id="shape544-47" v:mID="544" v:groupContext="shape" v:layerMember="0"
					transform="translate(72.2045,-60.0661) scale(-1,1)">
				<title>Start/Ende.50</title>
				<v:custProps>
					<v:cp v:nameU="Cost" v:lbl="Kosten" v:prompt="" v:type="7" v:format="@" v:sortKey="" v:invis="false"
							v:ask="false" v:langID="1031" v:cal="0"/>
					<v:cp v:nameU="ProcessNumber" v:lbl="Prozessnummer" v:prompt="" v:type="2" v:format="" v:sortKey=""
							v:invis="false" v:ask="false" v:langID="1031" v:cal="0"/>
					<v:cp v:nameU="Owner" v:lbl="Besitzer" v:prompt="" v:type="0" v:format="" v:sortKey="" v:invis="false"
							v:ask="false" v:langID="1031" v:cal="0"/>
					<v:cp v:nameU="Function" v:lbl="Funktionsname" v:prompt="" v:type="0" v:format="" v:sortKey="" v:invis="false"
							v:ask="false" v:langID="1031" v:cal="0" v:val="VT4()"/>
					<v:cp v:nameU="StartDate" v:lbl="Startdatum" v:prompt="" v:type="5" v:format="" v:sortKey="" v:invis="false"
							v:ask="false" v:langID="1031" v:cal="0"/>
					<v:cp v:nameU="EndDate" v:lbl="Enddatum" v:prompt="" v:type="5" v:format="" v:sortKey="" v:invis="false"
							v:ask="false" v:langID="1031" v:cal="0"/>
					<v:cp v:nameU="Status" v:lbl="Status" v:prompt="" v:type="4"
							v:format=";Nicht begonnen;In Bearbeitung;Abgeschlossen;Zurückgestellt;Auf Eingabe wartend" v:sortKey=""
							v:invis="false" v:ask="false" v:langID="1031" v:cal="0" v:val="VT4()"/>
				</v:custProps>
				<v:userDefs>
					<v:ud v:nameU="visVersion" v:prompt="" v:val="VT0(14):26"/>
					<v:ud v:nameU="DefaultWidth" v:prompt="" v:val="VT0(0.98425196850394):24"/>
					<v:ud v:nameU="DefaultHeight" v:prompt="" v:val="VT0(0.39370078740157):24"/>
					<v:ud v:nameU="ResizeTxtHeight" v:prompt="" v:val="VT0(0.39370078740157):24"/>
					<v:ud v:nameU="msvThemeColors" v:val="VT0(36):26"/>
					<v:ud v:nameU="msvThemeEffects" v:val="VT0(16):26"/>
				</v:userDefs>
				<path d="M0.83 175.98 L6.4 175.98 a0.834197 0.834197 -180 0 0 0 -1.66839 L0.83 174.31 a0.834197 0.834197 -180 1 0
							 -1.15463E-014 1.66839 Z" class="st4"/>
			</g>
			<g id="shape545-50" v:mID="545" v:groupContext="shape" transform="translate(58.8932,-0.00392586) scale(-1,1)">
				<title>Tabelle.545</title>
				<v:userDefs>
					<v:ud v:nameU="msvThemeColors" v:val="VT0(36):26"/>
					<v:ud v:nameU="msvThemeEffects" v:val="VT0(16):26"/>
				</v:userDefs>
				<path d="M1.08 114.25 L1.08 120.05 A3.61485 2.78066 -180 0 0 0 122.03 L0 173.2 A3.61485 2.78066 -180 0 0 7.23 173.2
							 L7.23 122.03 A3.61485 2.78066 -180 0 0 6.15 120.05 L6.15 114.25 L1.08 114.25 Z" class="st4"/>
			</g>
			<g id="shape546-53" v:mID="546" v:groupContext="shape" transform="translate(-35.6138,-41.1375) rotate(-30) scale(-1,1)">
				<title>Tabelle.546</title>
				<v:userDefs>
					<v:ud v:nameU="msvThemeColors" v:val="VT0(36):26"/>
					<v:ud v:nameU="msvThemeEffects" v:val="VT0(16):26"/>
				</v:userDefs>
				<path d="M0 163.84 L0 167.29 L1.67 167.29 L1.67 173.37 L1.69 173.37 L3.61 175.98 L5.54 173.37 L5.56 173.37 L5.56
							 167.29 L7.23 167.29 L7.23 163.84 L0 163.84 Z" class="st4"/>
			</g>
			<g id="shape547-56" v:mID="547" v:groupContext="shape" v:layerMember="0"
					transform="translate(58.8932,-60.0661) scale(-1,1)">
				<title>Start/Ende.53</title>
				<v:custProps>
					<v:cp v:nameU="Cost" v:lbl="Kosten" v:prompt="" v:type="7" v:format="@" v:sortKey="" v:invis="false"
							v:ask="false" v:langID="1031" v:cal="0"/>
					<v:cp v:nameU="ProcessNumber" v:lbl="Prozessnummer" v:prompt="" v:type="2" v:format="" v:sortKey=""
							v:invis="false" v:ask="false" v:langID="1031" v:cal="0"/>
					<v:cp v:nameU="Owner" v:lbl="Besitzer" v:prompt="" v:type="0" v:format="" v:sortKey="" v:invis="false"
							v:ask="false" v:langID="1031" v:cal="0"/>
					<v:cp v:nameU="Function" v:lbl="Funktionsname" v:prompt="" v:type="0" v:format="" v:sortKey="" v:invis="false"
							v:ask="false" v:langID="1031" v:cal="0" v:val="VT4()"/>
					<v:cp v:nameU="StartDate" v:lbl="Startdatum" v:prompt="" v:type="5" v:format="" v:sortKey="" v:invis="false"
							v:ask="false" v:langID="1031" v:cal="0"/>
					<v:cp v:nameU="EndDate" v:lbl="Enddatum" v:prompt="" v:type="5" v:format="" v:sortKey="" v:invis="false"
							v:ask="false" v:langID="1031" v:cal="0"/>
					<v:cp v:nameU="Status" v:lbl="Status" v:prompt="" v:type="4"
							v:format=";Nicht begonnen;In Bearbeitung;Abgeschlossen;Zurückgestellt;Auf Eingabe wartend" v:sortKey=""
							v:invis="false" v:ask="false" v:langID="1031" v:cal="0" v:val="VT4()"/>
				</v:custProps>
				<v:userDefs>
					<v:ud v:nameU="visVersion" v:prompt="" v:val="VT0(14):26"/>
					<v:ud v:nameU="DefaultWidth" v:prompt="" v:val="VT0(0.98425196850394):24"/>
					<v:ud v:nameU="DefaultHeight" v:prompt="" v:val="VT0(0.39370078740157):24"/>
					<v:ud v:nameU="ResizeTxtHeight" v:prompt="" v:val="VT0(0.39370078740157):24"/>
					<v:ud v:nameU="msvThemeColors" v:val="VT0(36):26"/>
					<v:ud v:nameU="msvThemeEffects" v:val="VT0(16):26"/>
				</v:userDefs>
				<path d="M0.83 175.98 L6.4 175.98 a0.834197 0.834197 -180 0 0 0 -1.66839 L0.83 174.31 a0.834197 0.834197 -180 1 0
							 -1.15463E-014 1.66839 Z" class="st4"/>
			</g>
			<g id="shape548-59" v:mID="548" v:groupContext="shape" transform="translate(72.2045,-0.00392586) scale(-1,1)">
				<title>Tabelle.548</title>
				<v:userDefs>
					<v:ud v:nameU="msvThemeColors" v:val="VT0(36):26"/>
					<v:ud v:nameU="msvThemeEffects" v:val="VT0(16):26"/>
				</v:userDefs>
				<path d="M0 155.92 L0 173.2 A3.61485 2.78066 -180 0 0 7.23 173.2 L7.23 155.92 L0 155.92 Z" class="st5"/>
			</g>
			<g id="shape549-63" v:mID="549" v:groupContext="shape" transform="translate(58.8932,-0.00392586) scale(-1,1)">
				<title>Tabelle.549</title>
				<v:userDefs>
					<v:ud v:nameU="msvThemeColors" v:val="VT0(36):26"/>
					<v:ud v:nameU="msvThemeEffects" v:val="VT0(16):26"/>
				</v:userDefs>
				<path d="M0 155.92 L0 173.2 A3.61485 2.78066 -180 0 0 7.23 173.2 L7.23 155.92 L0 155.92 Z" class="st5"/>
			</g>
			<g id="shape550-66" v:mID="550" v:groupContext="shape" transform="translate(32.1158,-0.0997227) scale(-1,1)">
				<title>Tabelle.550</title>
				<v:userDefs>
					<v:ud v:nameU="msvThemeColors" v:val="VT0(36):26"/>
					<v:ud v:nameU="msvThemeEffects" v:val="VT0(16):26"/>
				</v:userDefs>
				<path d="M0 155.92 L0 173.2 A3.61485 2.78066 -180 0 0 7.23 173.2 L7.23 155.92 L0 155.92 Z" class="st6"/>
			</g>
			<g id="shape551-70" v:mID="551" v:groupContext="shape" transform="translate(18.8045,-0.0997227) scale(-1,1)">
				<title>Tabelle.551</title>
				<v:userDefs>
					<v:ud v:nameU="msvThemeColors" v:val="VT0(36):26"/>
					<v:ud v:nameU="msvThemeEffects" v:val="VT0(16):26"/>
				</v:userDefs>
				<path d="M0 155.92 L0 173.2 A3.61485 2.78066 -180 0 0 7.23 173.2 L7.23 155.92 L0 155.92 Z" class="st7"/>
			</g>
			<g id="shape552-74" v:mID="552" v:groupContext="shape" transform="translate(45.5493,-0.0997227) scale(-1,1)">
				<title>Tabelle.552</title>
				<v:userDefs>
					<v:ud v:nameU="msvThemeColors" v:val="VT0(36):26"/>
					<v:ud v:nameU="msvThemeEffects" v:val="VT0(16):26"/>
				</v:userDefs>
				<path d="M0 155.92 L0 173.2 A3.61485 2.78066 -180 0 0 7.23 173.2 L7.23 155.92 L0 155.92 Z" class="st5"/>
			</g>
		</g>
		<g id="group560-77" transform="translate(262.205,-42.2986)" v:mID="560" v:groupContext="group">
			<v:userDefs>
				<v:ud v:nameU="msvThemeColors" v:val="VT0(36):26"/>
				<v:ud v:nameU="msvThemeEffects" v:val="VT0(16):26"/>
			</v:userDefs>
			<title>Tabelle.560</title>
			<g id="shape561-78" v:mID="561" v:groupContext="shape" transform="translate(44.8118,-7.05523) scale(-1,1)">
				<title>Tabelle.561</title>
				<v:userDefs>
					<v:ud v:nameU="msvThemeColors" v:val="VT0(36):26"/>
					<v:ud v:nameU="msvThemeEffects" v:val="VT0(16):26"/>
				</v:userDefs>
				<path d="M1.14 111.05 L1.14 117.15 A3.80234 2.92488 -180 0 0 0 119.24 L0 173.05 A3.80234 2.92488 -180 0 0 7.6 173.05
							 L7.6 119.24 A3.80234 2.92488 -180 0 0 6.46 117.15 L6.46 111.05 L1.14 111.05 Z" class="st4"/>
			</g>
			<g id="shape562-81" v:mID="562" v:groupContext="shape" transform="translate(44.7992,-64.6138) scale(-1,1)">
				<title>Tabelle.562</title>
				<v:userDefs>
					<v:ud v:nameU="msvThemeColors" v:val="VT0(36):26"/>
					<v:ud v:nameU="msvThemeEffects" v:val="VT0(16):26"/>
				</v:userDefs>
				<path d="M0 163.22 L0 166.84 L1.75 166.84 L1.75 173.24 L1.78 173.24 L3.8 175.98 L5.83 173.24 L5.85 173.24 L5.85 166.84
							 L7.6 166.84 L7.6 163.22 L0 163.22 Z" class="st4"/>
			</g>
			<g id="shape563-84" v:mID="563" v:groupContext="shape" v:layerMember="0"
					transform="translate(44.8118,-70.2326) scale(-1,1)">
				<title>Start/Ende.31</title>
				<v:custProps>
					<v:cp v:nameU="Cost" v:lbl="Kosten" v:prompt="" v:type="7" v:format="@" v:sortKey="" v:invis="false"
							v:ask="false" v:langID="1031" v:cal="0"/>
					<v:cp v:nameU="ProcessNumber" v:lbl="Prozessnummer" v:prompt="" v:type="2" v:format="" v:sortKey=""
							v:invis="false" v:ask="false" v:langID="1031" v:cal="0"/>
					<v:cp v:nameU="Owner" v:lbl="Besitzer" v:prompt="" v:type="0" v:format="" v:sortKey="" v:invis="false"
							v:ask="false" v:langID="1031" v:cal="0"/>
					<v:cp v:nameU="Function" v:lbl="Funktionsname" v:prompt="" v:type="0" v:format="" v:sortKey="" v:invis="false"
							v:ask="false" v:langID="1031" v:cal="0" v:val="VT4()"/>
					<v:cp v:nameU="StartDate" v:lbl="Startdatum" v:prompt="" v:type="5" v:format="" v:sortKey="" v:invis="false"
							v:ask="false" v:langID="1031" v:cal="0"/>
					<v:cp v:nameU="EndDate" v:lbl="Enddatum" v:prompt="" v:type="5" v:format="" v:sortKey="" v:invis="false"
							v:ask="false" v:langID="1031" v:cal="0"/>
					<v:cp v:nameU="Status" v:lbl="Status" v:prompt="" v:type="4"
							v:format=";Nicht begonnen;In Bearbeitung;Abgeschlossen;Zurückgestellt;Auf Eingabe wartend" v:sortKey=""
							v:invis="false" v:ask="false" v:langID="1031" v:cal="0" v:val="VT4()"/>
				</v:custProps>
				<v:userDefs>
					<v:ud v:nameU="visVersion" v:prompt="" v:val="VT0(14):26"/>
					<v:ud v:nameU="DefaultWidth" v:prompt="" v:val="VT0(0.98425196850394):24"/>
					<v:ud v:nameU="DefaultHeight" v:prompt="" v:val="VT0(0.39370078740157):24"/>
					<v:ud v:nameU="ResizeTxtHeight" v:prompt="" v:val="VT0(0.39370078740157):24"/>
					<v:ud v:nameU="msvThemeColors" v:val="VT0(36):26"/>
					<v:ud v:nameU="msvThemeEffects" v:val="VT0(16):26"/>
				</v:userDefs>
				<path d="M0.88 175.98 L6.73 175.98 a0.877463 0.877463 -180 1 0 0 -1.75493 L0.88 174.22 a0.877463 0.877463 -180 1
							 0 -1.24345E-014 1.75493 Z" class="st4"/>
			</g>
			<g id="shape564-87" v:mID="564" v:groupContext="shape" transform="translate(30.6816,-7.05523) scale(-1,1)">
				<title>Tabelle.564</title>
				<v:userDefs>
					<v:ud v:nameU="msvThemeColors" v:val="VT0(36):26"/>
					<v:ud v:nameU="msvThemeEffects" v:val="VT0(16):26"/>
				</v:userDefs>
				<path d="M1.14 111.05 L1.14 117.15 A3.80234 2.92488 -180 0 0 0 119.24 L0 173.05 A3.80234 2.92488 -180 0 0 7.6 173.05
							 L7.6 119.24 A3.80234 2.92488 -180 0 0 6.46 117.15 L6.46 111.05 L1.14 111.05 Z" class="st4"/>
			</g>
			<g id="shape565-90" v:mID="565" v:groupContext="shape" transform="translate(30.669,-64.6138) scale(-1,1)">
				<title>Tabelle.565</title>
				<v:userDefs>
					<v:ud v:nameU="msvThemeColors" v:val="VT0(36):26"/>
					<v:ud v:nameU="msvThemeEffects" v:val="VT0(16):26"/>
				</v:userDefs>
				<path d="M0 163.22 L0 166.84 L1.75 166.84 L1.75 173.24 L1.78 173.24 L3.8 175.98 L5.83 173.24 L5.85 173.24 L5.85 166.84
							 L7.6 166.84 L7.6 163.22 L0 163.22 Z" class="st4"/>
			</g>
			<g id="shape566-93" v:mID="566" v:groupContext="shape" v:layerMember="0"
					transform="translate(30.6816,-70.2326) scale(-1,1)">
				<title>Start/Ende.37</title>
				<v:custProps>
					<v:cp v:nameU="Cost" v:lbl="Kosten" v:prompt="" v:type="7" v:format="@" v:sortKey="" v:invis="false"
							v:ask="false" v:langID="1031" v:cal="0"/>
					<v:cp v:nameU="ProcessNumber" v:lbl="Prozessnummer" v:prompt="" v:type="2" v:format="" v:sortKey=""
							v:invis="false" v:ask="false" v:langID="1031" v:cal="0"/>
					<v:cp v:nameU="Owner" v:lbl="Besitzer" v:prompt="" v:type="0" v:format="" v:sortKey="" v:invis="false"
							v:ask="false" v:langID="1031" v:cal="0"/>
					<v:cp v:nameU="Function" v:lbl="Funktionsname" v:prompt="" v:type="0" v:format="" v:sortKey="" v:invis="false"
							v:ask="false" v:langID="1031" v:cal="0" v:val="VT4()"/>
					<v:cp v:nameU="StartDate" v:lbl="Startdatum" v:prompt="" v:type="5" v:format="" v:sortKey="" v:invis="false"
							v:ask="false" v:langID="1031" v:cal="0"/>
					<v:cp v:nameU="EndDate" v:lbl="Enddatum" v:prompt="" v:type="5" v:format="" v:sortKey="" v:invis="false"
							v:ask="false" v:langID="1031" v:cal="0"/>
					<v:cp v:nameU="Status" v:lbl="Status" v:prompt="" v:type="4"
							v:format=";Nicht begonnen;In Bearbeitung;Abgeschlossen;Zurückgestellt;Auf Eingabe wartend" v:sortKey=""
							v:invis="false" v:ask="false" v:langID="1031" v:cal="0" v:val="VT4()"/>
				</v:custProps>
				<v:userDefs>
					<v:ud v:nameU="visVersion" v:prompt="" v:val="VT0(14):26"/>
					<v:ud v:nameU="DefaultWidth" v:prompt="" v:val="VT0(0.98425196850394):24"/>
					<v:ud v:nameU="DefaultHeight" v:prompt="" v:val="VT0(0.39370078740157):24"/>
					<v:ud v:nameU="ResizeTxtHeight" v:prompt="" v:val="VT0(0.39370078740157):24"/>
					<v:ud v:nameU="msvThemeColors" v:val="VT0(36):26"/>
					<v:ud v:nameU="msvThemeEffects" v:val="VT0(16):26"/>
				</v:userDefs>
				<path d="M0.88 175.98 L6.73 175.98 a0.877463 0.877463 -180 1 0 0 -1.75493 L0.88 174.22 a0.877463 0.877463 -180 1
							 0 -1.24345E-014 1.75493 Z" class="st4"/>
			</g>
			<g id="shape567-96" v:mID="567" v:groupContext="shape" transform="translate(16.6799,-7.05523) scale(-1,1)">
				<title>Tabelle.567</title>
				<v:userDefs>
					<v:ud v:nameU="msvThemeColors" v:val="VT0(36):26"/>
					<v:ud v:nameU="msvThemeEffects" v:val="VT0(16):26"/>
				</v:userDefs>
				<path d="M1.14 111.05 L1.14 117.15 A3.80234 2.92488 -180 0 0 0 119.24 L0 173.05 A3.80234 2.92488 -180 0 0 7.6 173.05
							 L7.6 119.24 A3.80234 2.92488 -180 0 0 6.46 117.15 L6.46 111.05 L1.14 111.05 Z" class="st4"/>
			</g>
			<g id="shape568-99" v:mID="568" v:groupContext="shape" transform="translate(16.6673,-64.6138) scale(-1,1)">
				<title>Tabelle.568</title>
				<v:userDefs>
					<v:ud v:nameU="msvThemeColors" v:val="VT0(36):26"/>
					<v:ud v:nameU="msvThemeEffects" v:val="VT0(16):26"/>
				</v:userDefs>
				<path d="M0 163.22 L0 166.84 L1.75 166.84 L1.75 173.24 L1.78 173.24 L3.8 175.98 L5.83 173.24 L5.85 173.24 L5.85 166.84
							 L7.6 166.84 L7.6 163.22 L0 163.22 Z" class="st4"/>
			</g>
			<g id="shape569-102" v:mID="569" v:groupContext="shape" v:layerMember="0"
					transform="translate(16.6799,-70.2326) scale(-1,1)">
				<title>Start/Ende.40</title>
				<v:custProps>
					<v:cp v:nameU="Cost" v:lbl="Kosten" v:prompt="" v:type="7" v:format="@" v:sortKey="" v:invis="false"
							v:ask="false" v:langID="1031" v:cal="0"/>
					<v:cp v:nameU="ProcessNumber" v:lbl="Prozessnummer" v:prompt="" v:type="2" v:format="" v:sortKey=""
							v:invis="false" v:ask="false" v:langID="1031" v:cal="0"/>
					<v:cp v:nameU="Owner" v:lbl="Besitzer" v:prompt="" v:type="0" v:format="" v:sortKey="" v:invis="false"
							v:ask="false" v:langID="1031" v:cal="0"/>
					<v:cp v:nameU="Function" v:lbl="Funktionsname" v:prompt="" v:type="0" v:format="" v:sortKey="" v:invis="false"
							v:ask="false" v:langID="1031" v:cal="0" v:val="VT4()"/>
					<v:cp v:nameU="StartDate" v:lbl="Startdatum" v:prompt="" v:type="5" v:format="" v:sortKey="" v:invis="false"
							v:ask="false" v:langID="1031" v:cal="0"/>
					<v:cp v:nameU="EndDate" v:lbl="Enddatum" v:prompt="" v:type="5" v:format="" v:sortKey="" v:invis="false"
							v:ask="false" v:langID="1031" v:cal="0"/>
					<v:cp v:nameU="Status" v:lbl="Status" v:prompt="" v:type="4"
							v:format=";Nicht begonnen;In Bearbeitung;Abgeschlossen;Zurückgestellt;Auf Eingabe wartend" v:sortKey=""
							v:invis="false" v:ask="false" v:langID="1031" v:cal="0" v:val="VT4()"/>
				</v:custProps>
				<v:userDefs>
					<v:ud v:nameU="visVersion" v:prompt="" v:val="VT0(14):26"/>
					<v:ud v:nameU="DefaultWidth" v:prompt="" v:val="VT0(0.98425196850394):24"/>
					<v:ud v:nameU="DefaultHeight" v:prompt="" v:val="VT0(0.39370078740157):24"/>
					<v:ud v:nameU="ResizeTxtHeight" v:prompt="" v:val="VT0(0.39370078740157):24"/>
					<v:ud v:nameU="msvThemeColors" v:val="VT0(36):26"/>
					<v:ud v:nameU="msvThemeEffects" v:val="VT0(16):26"/>
				</v:userDefs>
				<path d="M0.88 175.98 L6.73 175.98 a0.877463 0.877463 -180 1 0 0 -1.75493 L0.88 174.22 a0.877463 0.877463 -180 1
							 0 -1.24345E-014 1.75493 Z" class="st4"/>
			</g>
			<g id="shape570-105" v:mID="570" v:groupContext="shape" transform="translate(30.6816,-7.05523) scale(-1,1)">
				<title>Tabelle.570</title>
				<v:userDefs>
					<v:ud v:nameU="msvThemeColors" v:val="VT0(36):26"/>
					<v:ud v:nameU="msvThemeEffects" v:val="VT0(16):26"/>
				</v:userDefs>
				<path d="M0 154.88 L0 173.05 A3.80234 2.92488 -180 0 0 7.6 173.05 L7.6 154.88 L0 154.88 Z" class="st6"/>
			</g>
			<g id="shape571-108" v:mID="571" v:groupContext="shape" transform="translate(16.6799,-7.05523) scale(-1,1)">
				<title>Tabelle.571</title>
				<v:userDefs>
					<v:ud v:nameU="msvThemeColors" v:val="VT0(36):26"/>
					<v:ud v:nameU="msvThemeEffects" v:val="VT0(16):26"/>
				</v:userDefs>
				<path d="M0 154.88 L0 173.05 A3.80234 2.92488 -180 0 0 7.6 173.05 L7.6 154.88 L0 154.88 Z" class="st7"/>
			</g>
			<g id="shape572-111" v:mID="572" v:groupContext="shape" transform="translate(44.8118,-7.05523) scale(-1,1)">
				<title>Tabelle.572</title>
				<v:userDefs>
					<v:ud v:nameU="msvThemeColors" v:val="VT0(36):26"/>
					<v:ud v:nameU="msvThemeEffects" v:val="VT0(16):26"/>
				</v:userDefs>
				<path d="M0 154.88 L0 173.05 A3.80234 2.92488 -180 0 0 7.6 173.05 L7.6 154.88 L0 154.88 Z" class="st5"/>
			</g>
			<g id="shape573-114" v:mID="573" v:groupContext="shape" transform="translate(77.7359,-7.043) scale(-1,1)">
				<title>Tabelle.573</title>
				<v:userDefs>
					<v:ud v:nameU="msvThemeColors" v:val="VT0(36):26"/>
					<v:ud v:nameU="msvThemeEffects" v:val="VT0(16):26"/>
				</v:userDefs>
				<path d="M1.14 111.05 L1.14 117.15 A3.80234 2.92488 -180 0 0 0 119.24 L0 173.05 A3.80234 2.92488 -180 0 0 7.6 173.05
							 L7.6 119.24 A3.80234 2.92488 -180 0 0 6.46 117.15 L6.46 111.05 L1.14 111.05 Z" class="st4"/>
			</g>
			<g id="shape574-117" v:mID="574" v:groupContext="shape" transform="translate(77.7359,-64.5551) scale(-1,1)">
				<title>Tabelle.574</title>
				<v:userDefs>
					<v:ud v:nameU="msvThemeColors" v:val="VT0(36):26"/>
					<v:ud v:nameU="msvThemeEffects" v:val="VT0(16):26"/>
				</v:userDefs>
				<path d="M0 163.22 L0 166.84 L1.75 166.84 L1.75 173.24 L1.78 173.24 L3.8 175.98 L5.83 173.24 L5.85 173.24 L5.85 166.84
							 L7.6 166.84 L7.6 163.22 L0 163.22 Z" class="st4"/>
			</g>
			<g id="shape575-120" v:mID="575" v:groupContext="shape" v:layerMember="0"
					transform="translate(77.7359,-70.2204) scale(-1,1)">
				<title>Start/Ende.57</title>
				<v:custProps>
					<v:cp v:nameU="Cost" v:lbl="Kosten" v:prompt="" v:type="7" v:format="@" v:sortKey="" v:invis="false"
							v:ask="false" v:langID="1031" v:cal="0"/>
					<v:cp v:nameU="ProcessNumber" v:lbl="Prozessnummer" v:prompt="" v:type="2" v:format="" v:sortKey=""
							v:invis="false" v:ask="false" v:langID="1031" v:cal="0"/>
					<v:cp v:nameU="Owner" v:lbl="Besitzer" v:prompt="" v:type="0" v:format="" v:sortKey="" v:invis="false"
							v:ask="false" v:langID="1031" v:cal="0"/>
					<v:cp v:nameU="Function" v:lbl="Funktionsname" v:prompt="" v:type="0" v:format="" v:sortKey="" v:invis="false"
							v:ask="false" v:langID="1031" v:cal="0" v:val="VT4()"/>
					<v:cp v:nameU="StartDate" v:lbl="Startdatum" v:prompt="" v:type="5" v:format="" v:sortKey="" v:invis="false"
							v:ask="false" v:langID="1031" v:cal="0"/>
					<v:cp v:nameU="EndDate" v:lbl="Enddatum" v:prompt="" v:type="5" v:format="" v:sortKey="" v:invis="false"
							v:ask="false" v:langID="1031" v:cal="0"/>
					<v:cp v:nameU="Status" v:lbl="Status" v:prompt="" v:type="4"
							v:format=";Nicht begonnen;In Bearbeitung;Abgeschlossen;Zurückgestellt;Auf Eingabe wartend" v:sortKey=""
							v:invis="false" v:ask="false" v:langID="1031" v:cal="0" v:val="VT4()"/>
				</v:custProps>
				<v:userDefs>
					<v:ud v:nameU="visVersion" v:prompt="" v:val="VT0(14):26"/>
					<v:ud v:nameU="DefaultWidth" v:prompt="" v:val="VT0(0.98425196850394):24"/>
					<v:ud v:nameU="DefaultHeight" v:prompt="" v:val="VT0(0.39370078740157):24"/>
					<v:ud v:nameU="ResizeTxtHeight" v:prompt="" v:val="VT0(0.39370078740157):24"/>
					<v:ud v:nameU="msvThemeColors" v:val="VT0(36):26"/>
					<v:ud v:nameU="msvThemeEffects" v:val="VT0(16):26"/>
				</v:userDefs>
				<path d="M0.88 175.98 L6.73 175.98 a0.877463 0.877463 -180 1 0 0 -1.75493 L0.88 174.22 a0.877463 0.877463 -180 1
							 0 -1.24345E-014 1.75493 Z" class="st4"/>
			</g>
			<g id="shape576-123" v:mID="576" v:groupContext="shape" transform="translate(63.7343,-7.043) scale(-1,1)">
				<title>Tabelle.576</title>
				<v:userDefs>
					<v:ud v:nameU="msvThemeColors" v:val="VT0(36):26"/>
					<v:ud v:nameU="msvThemeEffects" v:val="VT0(16):26"/>
				</v:userDefs>
				<path d="M1.14 111.05 L1.14 117.15 A3.80234 2.92488 -180 0 0 0 119.24 L0 173.05 A3.80234 2.92488 -180 0 0 7.6 173.05
							 L7.6 119.24 A3.80234 2.92488 -180 0 0 6.46 117.15 L6.46 111.05 L1.14 111.05 Z" class="st4"/>
			</g>
			<g id="shape577-126" v:mID="577" v:groupContext="shape" transform="translate(63.7343,-64.5551) scale(-1,1)">
				<title>Tabelle.577</title>
				<v:userDefs>
					<v:ud v:nameU="msvThemeColors" v:val="VT0(36):26"/>
					<v:ud v:nameU="msvThemeEffects" v:val="VT0(16):26"/>
				</v:userDefs>
				<path d="M0 163.22 L0 166.84 L1.75 166.84 L1.75 173.24 L1.78 173.24 L3.8 175.98 L5.83 173.24 L5.85 173.24 L5.85 166.84
							 L7.6 166.84 L7.6 163.22 L0 163.22 Z" class="st4"/>
			</g>
			<g id="shape578-129" v:mID="578" v:groupContext="shape" v:layerMember="0"
					transform="translate(63.7343,-70.2204) scale(-1,1)">
				<title>Start/Ende.60</title>
				<v:custProps>
					<v:cp v:nameU="Cost" v:lbl="Kosten" v:prompt="" v:type="7" v:format="@" v:sortKey="" v:invis="false"
							v:ask="false" v:langID="1031" v:cal="0"/>
					<v:cp v:nameU="ProcessNumber" v:lbl="Prozessnummer" v:prompt="" v:type="2" v:format="" v:sortKey=""
							v:invis="false" v:ask="false" v:langID="1031" v:cal="0"/>
					<v:cp v:nameU="Owner" v:lbl="Besitzer" v:prompt="" v:type="0" v:format="" v:sortKey="" v:invis="false"
							v:ask="false" v:langID="1031" v:cal="0"/>
					<v:cp v:nameU="Function" v:lbl="Funktionsname" v:prompt="" v:type="0" v:format="" v:sortKey="" v:invis="false"
							v:ask="false" v:langID="1031" v:cal="0" v:val="VT4()"/>
					<v:cp v:nameU="StartDate" v:lbl="Startdatum" v:prompt="" v:type="5" v:format="" v:sortKey="" v:invis="false"
							v:ask="false" v:langID="1031" v:cal="0"/>
					<v:cp v:nameU="EndDate" v:lbl="Enddatum" v:prompt="" v:type="5" v:format="" v:sortKey="" v:invis="false"
							v:ask="false" v:langID="1031" v:cal="0"/>
					<v:cp v:nameU="Status" v:lbl="Status" v:prompt="" v:type="4"
							v:format=";Nicht begonnen;In Bearbeitung;Abgeschlossen;Zurückgestellt;Auf Eingabe wartend" v:sortKey=""
							v:invis="false" v:ask="false" v:langID="1031" v:cal="0" v:val="VT4()"/>
				</v:custProps>
				<v:userDefs>
					<v:ud v:nameU="visVersion" v:prompt="" v:val="VT0(14):26"/>
					<v:ud v:nameU="DefaultWidth" v:prompt="" v:val="VT0(0.98425196850394):24"/>
					<v:ud v:nameU="DefaultHeight" v:prompt="" v:val="VT0(0.39370078740157):24"/>
					<v:ud v:nameU="ResizeTxtHeight" v:prompt="" v:val="VT0(0.39370078740157):24"/>
					<v:ud v:nameU="msvThemeColors" v:val="VT0(36):26"/>
					<v:ud v:nameU="msvThemeEffects" v:val="VT0(16):26"/>
				</v:userDefs>
				<path d="M0.88 175.98 L6.73 175.98 a0.877463 0.877463 -180 1 0 0 -1.75493 L0.88 174.22 a0.877463 0.877463 -180 1
							 0 -1.24345E-014 1.75493 Z" class="st4"/>
			</g>
			<g id="shape579-132" v:mID="579" v:groupContext="shape" transform="translate(77.7359,-7.043) scale(-1,1)">
				<title>Tabelle.579</title>
				<v:userDefs>
					<v:ud v:nameU="msvThemeColors" v:val="VT0(36):26"/>
					<v:ud v:nameU="msvThemeEffects" v:val="VT0(16):26"/>
				</v:userDefs>
				<path d="M0 154.88 L0 173.05 A3.80234 2.92488 -180 0 0 7.6 173.05 L7.6 154.88 L0 154.88 Z" class="st5"/>
			</g>
			<g id="shape580-135" v:mID="580" v:groupContext="shape" transform="translate(63.7343,-7.043) scale(-1,1)">
				<title>Tabelle.580</title>
				<v:userDefs>
					<v:ud v:nameU="msvThemeColors" v:val="VT0(36):26"/>
					<v:ud v:nameU="msvThemeEffects" v:val="VT0(16):26"/>
				</v:userDefs>
				<path d="M0 154.88 L0 173.05 A3.80234 2.92488 -180 0 0 7.6 173.05 L7.6 154.88 L0 154.88 Z" class="st5"/>
			</g>
			<g id="shape581-138" v:mID="581" v:groupContext="shape" transform="translate(50.2782,-17.743)">
				<title>Rechteck.47</title>
				<v:userDefs>
					<v:ud v:nameU="visVersion" v:val="VT0(14):26"/>
					<v:ud v:nameU="msvThemeColors" v:val="VT0(36):26"/>
					<v:ud v:nameU="msvThemeEffects" v:val="VT0(16):26"/>
				</v:userDefs>
				<rect x="0" y="101.436" width="1.49083" height="74.5417" class="st4"/>
			</g>
			<g id="shape582-141" v:mID="582" v:groupContext="shape">
				<title>Rechteck.46</title>
				<v:userDefs>
					<v:ud v:nameU="visVersion" v:val="VT0(14):26"/>
					<v:ud v:nameU="msvThemeColors" v:val="VT0(36):26"/>
					<v:ud v:nameU="msvThemeEffects" v:val="VT0(16):26"/>
				</v:userDefs>
				<rect x="0" y="158.088" width="102.047" height="17.89" class="st8"/>
			</g>
		</g>
	</g>
</svg>
