<?xml version="1.0" encoding="UTF-8" standalone="no"?>
<!DOCTYPE svg PUBLIC "-//W3C//DTD SVG 1.1//EN" "http://www.w3.org/Graphics/SVG/1.1/DTD/svg11.dtd">
<!-- Generiert durch Microsoft Visio, SVG Export 23.svg Page-1 -->
<svg xmlns="http://www.w3.org/2000/svg" xmlns:xlink="http://www.w3.org/1999/xlink" xmlns:ev="http://www.w3.org/2001/xml-events"
		xmlns:v="http://schemas.microsoft.com/visio/2003/SVGExtensions/" width="5.20768in" height="2.44414in"
		viewBox="0 0 374.953 175.978" xml:space="preserve" color-interpolation-filters="sRGB" class="st17">
	<v:documentProperties v:langID="1031" v:metric="true" v:viewMarkup="false">
		<v:userDefs>
			<v:ud v:nameU="msvNoAutoConnect" v:val="VT0(0):26"/>
			<v:ud v:nameU="msvConvertTheme"/>
		</v:userDefs>
	</v:documentProperties>

	<style type="text/css">
	<![CDATA[
		.st1 {fill:#000000;stroke:none;stroke-linecap:round;stroke-linejoin:round;stroke-width:0.75}
		.st2 {fill:url(#grad0-6);stroke:#ffffff;stroke-linecap:round;stroke-linejoin:round;stroke-width:0.25}
		.st3 {fill:none;stroke:none;stroke-linecap:round;stroke-linejoin:round;stroke-width:0.25}
		.st4 {fill:url(#grad0-6);stroke:#404040;stroke-linecap:round;stroke-linejoin:round;stroke-width:0.25}
		.st5 {fill:url(#grad0-44);stroke:none;stroke-linecap:round;stroke-linejoin:round;stroke-width:0.25}
		.st6 {fill:url(#grad0-48);stroke:none;stroke-linecap:round;stroke-linejoin:round;stroke-width:0.25}
		.st7 {fill:url(#grad0-52);stroke:none;stroke-linecap:round;stroke-linejoin:round;stroke-width:0.25}
		.st8 {fill:url(#grad0-6);stroke:#7f7f7f;stroke-linecap:round;stroke-linejoin:round;stroke-width:0.25}
		.st9 {fill:url(#grad0-96);stroke:none;stroke-linecap:round;stroke-linejoin:round;stroke-width:0.25}
		.st10 {visibility:visible}
		.st11 {fill:#cdcdcd;fill-opacity:0.5;stroke:#cdcdcd;stroke-linecap:round;stroke-linejoin:round;stroke-opacity:0.5}
		.st12 {fill:url(#grad0-6);stroke:#000000;stroke-linecap:round;stroke-linejoin:round;stroke-width:0.25}
		.st13 {fill:url(#grad0-122);stroke:#404040;stroke-linecap:round;stroke-linejoin:round;stroke-width:0.25}
		.st14 {fill:#b8accd;stroke:none;stroke-linecap:round;stroke-linejoin:round;stroke-width:0.25}
		.st15 {fill:#ffff00;stroke:none;stroke-linecap:round;stroke-linejoin:round;stroke-width:0.25}
		.st16 {fill:#645287;stroke:none;stroke-linecap:round;stroke-linejoin:round;stroke-width:0.25}
		.st17 {fill:none;fill-rule:evenodd;font-size:12px;overflow:visible;stroke-linecap:square;stroke-miterlimit:3}
	]]>
	</style>

	<defs id="Patterns_And_Gradients">
		<linearGradient id="grad0-6" x1="0" y1="0" x2="1" y2="0" gradientTransform="rotate(270 0.5 0.5)">
			<stop offset="0" stop-color="#f0f0f0" stop-opacity="1"/>
			<stop offset="1" stop-color="#ffffff" stop-opacity="1"/>
		</linearGradient>
		<linearGradient id="grad0-44" x1="0" y1="0" x2="1" y2="0" gradientTransform="rotate(270 0.5 0.5)">
			<stop offset="0" stop-color="#e1e100" stop-opacity="1"/>
			<stop offset="1" stop-color="#ffff00" stop-opacity="1"/>
		</linearGradient>
		<linearGradient id="grad0-48" x1="0" y1="0" x2="1" y2="0" gradientTransform="rotate(270 0.5 0.5)">
			<stop offset="0" stop-color="#a899c1" stop-opacity="1"/>
			<stop offset="1" stop-color="#b8accd" stop-opacity="1"/>
		</linearGradient>
		<linearGradient id="grad0-52" x1="0" y1="0" x2="1" y2="0" gradientTransform="rotate(270 0.5 0.5)">
			<stop offset="0" stop-color="#564675" stop-opacity="1"/>
			<stop offset="1" stop-color="#645287" stop-opacity="1"/>
		</linearGradient>
		<linearGradient id="grad0-96" x1="0" y1="0" x2="1" y2="0" gradientTransform="rotate(270 0.5 0.5)">
			<stop offset="0" stop-color="#adc9e0" stop-opacity="1"/>
			<stop offset="1" stop-color="#c3d7e8" stop-opacity="1"/>
		</linearGradient>
		<linearGradient id="grad0-122" x1="0" y1="0" x2="1" y2="0" gradientTransform="rotate(270 0.5 0.5)">
			<stop offset="0" stop-color="#000000" stop-opacity="1"/>
			<stop offset="1" stop-color="#000000" stop-opacity="1"/>
		</linearGradient>
	</defs>
	<g v:mID="4" v:index="1" v:groupContext="backgroundPage">
		<v:userDefs>
			<v:ud v:nameU="msvThemeColors" v:val="VT0(36):26"/>
			<v:ud v:nameU="msvThemeEffects" v:val="VT0(16):26"/>
			<v:ud v:nameU="msvThemeOrder" v:val="VT0(0):26"/>
			<v:ud v:nameU="msvVisioCreated" v:prompt="" v:val="VT0(0):26"/>
		</v:userDefs>
		<title>VHintergrund-1</title>
		<v:pageProperties width="5.20768" height="2.44414" v:drawingScale="0.0393701" v:pageScale="0.0393701" v:drawingUnits="24"
				v:shadowOffsetX="8.50394" v:shadowOffsetY="-8.50394"/>
		<g id="shape1-1" v:mID="1" v:groupContext="shape">
			<title>Vollton</title>
			<v:userDefs>
				<v:ud v:nameU="Background" v:val="VT0(0):26"/>
				<v:ud v:nameU="visVersion" v:val="VT0(14):26"/>
				<v:ud v:nameU="msvShapeCategories" v:prompt="" v:val="VT4(DoNotContain)"/>
				<v:ud v:nameU="msvThemeColors" v:val="VT0(36):26"/>
				<v:ud v:nameU="msvVisioCreated" v:prompt="" v:val="VT0(0):26"/>
			</v:userDefs>
			<rect x="0" y="0" width="374.953" height="175.978" class="st1"/>
		</g>
		<g id="shape2-3" v:mID="2" v:groupContext="shape" transform="translate(222.201,234.318) rotate(180)">
			<title>Pfeil 60 Grad-Spitze</title>
			<v:userDefs>
				<v:ud v:nameU="visVersion" v:val="VT0(14):26"/>
				<v:ud v:nameU="msvThemeColors" v:val="VT0(36):26"/>
				<v:ud v:nameU="msvThemeEffects" v:val="VT0(16):26"/>
			</v:userDefs>
			<path d="M0 168.89 L4.09 161.8 L4.09 166.48 L69.45 166.48 L69.45 171.3 L4.09 171.3 L4.09 175.98 L0 168.89 Z"
					class="st2"/>
		</g>
	</g>
	<g v:mID="0" v:index="2" v:groupContext="foregroundPage">
		<v:userDefs>
			<v:ud v:nameU="msvThemeColors" v:val="VT0(36):26"/>
			<v:ud v:nameU="msvThemeEffects" v:val="VT0(16):26"/>
			<v:ud v:nameU="msvThemeOrder" v:val="VT0(0):26"/>
		</v:userDefs>
		<title>Zeichenblatt-1</title>
		<v:pageProperties v:drawingScale="0.0393701" v:pageScale="0.0393701" v:drawingUnits="24" v:shadowOffsetX="8.50394"
				v:shadowOffsetY="-8.50394"/>
		<v:layer v:name="Flussdiagramm" v:index="0"/>
		<v:layer v:name="Verbinder" v:index="1"/>
		<g id="shape195-7" v:mID="195" v:groupContext="shape" transform="translate(125.787,-123.895)">
			<title>Rechteck.195</title>
			<v:userDefs>
				<v:ud v:nameU="visVersion" v:val="VT0(15):26"/>
				<v:ud v:nameU="msvThemeColors" v:val="VT0(36):26"/>
				<v:ud v:nameU="msvThemeEffects" v:val="VT0(16):26"/>
			</v:userDefs>
			<rect x="0" y="128.965" width="123.307" height="47.0131" class="st3"/>
		</g>
		<g id="shape192-9" v:mID="192" v:groupContext="shape" transform="translate(1.59872E-014,-2.26772)">
			<title>Rechteck.13.192</title>
			<v:userDefs>
				<v:ud v:nameU="visVersion" v:val="VT0(15):26"/>
				<v:ud v:nameU="msvThemeColors" v:val="VT0(36):26"/>
				<v:ud v:nameU="msvThemeEffects" v:val="VT0(16):26"/>
			</v:userDefs>
			<rect x="0" y="3.63146" width="123.307" height="172.346" class="st3"/>
		</g>
		<g id="shape194-11" v:mID="194" v:groupContext="shape" transform="translate(251.575,-2.26772)">
			<title>Rechteck.194</title>
			<v:userDefs>
				<v:ud v:nameU="visVersion" v:val="VT0(15):26"/>
				<v:ud v:nameU="msvThemeColors" v:val="VT0(36):26"/>
				<v:ud v:nameU="msvThemeEffects" v:val="VT0(16):26"/>
			</v:userDefs>
			<rect x="0" y="3.63146" width="123.307" height="172.346" class="st3"/>
		</g>
		<g id="group601-13" transform="translate(262.205,-42.2986)" v:mID="601" v:groupContext="group">
			<v:userDefs>
				<v:ud v:nameU="msvThemeColors" v:val="VT0(36):26"/>
				<v:ud v:nameU="msvThemeEffects" v:val="VT0(16):26"/>
			</v:userDefs>
			<title>Tabelle.601</title>
			<g id="shape602-14" v:mID="602" v:groupContext="shape" transform="translate(44.8118,-7.05523) scale(-1,1)">
				<title>Tabelle.602</title>
				<v:userDefs>
					<v:ud v:nameU="msvThemeColors" v:val="VT0(36):26"/>
					<v:ud v:nameU="msvThemeEffects" v:val="VT0(16):26"/>
				</v:userDefs>
				<path d="M1.14 111.05 L1.14 117.15 A3.80234 2.92488 -180 0 0 0 119.24 L0 173.05 A3.80234 2.92488 -180 0 0 7.6 173.05
							 L7.6 119.24 A3.80234 2.92488 -180 0 0 6.46 117.15 L6.46 111.05 L1.14 111.05 Z" class="st4"/>
			</g>
			<g id="shape603-17" v:mID="603" v:groupContext="shape" transform="translate(44.7992,-64.6138) scale(-1,1)">
				<title>Tabelle.603</title>
				<v:userDefs>
					<v:ud v:nameU="msvThemeColors" v:val="VT0(36):26"/>
					<v:ud v:nameU="msvThemeEffects" v:val="VT0(16):26"/>
				</v:userDefs>
				<path d="M0 163.22 L0 166.84 L1.75 166.84 L1.75 173.24 L1.78 173.24 L3.8 175.98 L5.83 173.24 L5.85 173.24 L5.85 166.84
							 L7.6 166.84 L7.6 163.22 L0 163.22 Z" class="st4"/>
			</g>
			<g id="shape604-20" v:mID="604" v:groupContext="shape" v:layerMember="0"
					transform="translate(44.8118,-70.2326) scale(-1,1)">
				<title>Start/Ende.31</title>
				<v:custProps>
					<v:cp v:nameU="Cost" v:lbl="Kosten" v:prompt="" v:type="7" v:format="@" v:sortKey="" v:invis="false"
							v:ask="false" v:langID="1031" v:cal="0"/>
					<v:cp v:nameU="ProcessNumber" v:lbl="Prozessnummer" v:prompt="" v:type="2" v:format="" v:sortKey=""
							v:invis="false" v:ask="false" v:langID="1031" v:cal="0"/>
					<v:cp v:nameU="Owner" v:lbl="Besitzer" v:prompt="" v:type="0" v:format="" v:sortKey="" v:invis="false"
							v:ask="false" v:langID="1031" v:cal="0"/>
					<v:cp v:nameU="Function" v:lbl="Funktionsname" v:prompt="" v:type="0" v:format="" v:sortKey="" v:invis="false"
							v:ask="false" v:langID="1031" v:cal="0" v:val="VT4()"/>
					<v:cp v:nameU="StartDate" v:lbl="Startdatum" v:prompt="" v:type="5" v:format="" v:sortKey="" v:invis="false"
							v:ask="false" v:langID="1031" v:cal="0"/>
					<v:cp v:nameU="EndDate" v:lbl="Enddatum" v:prompt="" v:type="5" v:format="" v:sortKey="" v:invis="false"
							v:ask="false" v:langID="1031" v:cal="0"/>
					<v:cp v:nameU="Status" v:lbl="Status" v:prompt="" v:type="4"
							v:format=";Nicht begonnen;In Bearbeitung;Abgeschlossen;Zurückgestellt;Auf Eingabe wartend" v:sortKey=""
							v:invis="false" v:ask="false" v:langID="1031" v:cal="0" v:val="VT4()"/>
				</v:custProps>
				<v:userDefs>
					<v:ud v:nameU="visVersion" v:prompt="" v:val="VT0(14):26"/>
					<v:ud v:nameU="DefaultWidth" v:prompt="" v:val="VT0(0.98425196850394):24"/>
					<v:ud v:nameU="DefaultHeight" v:prompt="" v:val="VT0(0.39370078740157):24"/>
					<v:ud v:nameU="ResizeTxtHeight" v:prompt="" v:val="VT0(0.39370078740157):24"/>
					<v:ud v:nameU="msvThemeColors" v:val="VT0(36):26"/>
					<v:ud v:nameU="msvThemeEffects" v:val="VT0(16):26"/>
				</v:userDefs>
				<path d="M0.88 175.98 L6.73 175.98 a0.877463 0.877463 -180 1 0 0 -1.75493 L0.88 174.22 a0.877463 0.877463 -180 1
							 0 -1.24345E-014 1.75493 Z" class="st4"/>
			</g>
			<g id="shape605-23" v:mID="605" v:groupContext="shape" transform="translate(30.6816,-7.05523) scale(-1,1)">
				<title>Tabelle.605</title>
				<v:userDefs>
					<v:ud v:nameU="msvThemeColors" v:val="VT0(36):26"/>
					<v:ud v:nameU="msvThemeEffects" v:val="VT0(16):26"/>
				</v:userDefs>
				<path d="M1.14 111.05 L1.14 117.15 A3.80234 2.92488 -180 0 0 0 119.24 L0 173.05 A3.80234 2.92488 -180 0 0 7.6 173.05
							 L7.6 119.24 A3.80234 2.92488 -180 0 0 6.46 117.15 L6.46 111.05 L1.14 111.05 Z" class="st4"/>
			</g>
			<g id="shape606-26" v:mID="606" v:groupContext="shape" transform="translate(30.669,-64.6138) scale(-1,1)">
				<title>Tabelle.606</title>
				<v:userDefs>
					<v:ud v:nameU="msvThemeColors" v:val="VT0(36):26"/>
					<v:ud v:nameU="msvThemeEffects" v:val="VT0(16):26"/>
				</v:userDefs>
				<path d="M0 163.22 L0 166.84 L1.75 166.84 L1.75 173.24 L1.78 173.24 L3.8 175.98 L5.83 173.24 L5.85 173.24 L5.85 166.84
							 L7.6 166.84 L7.6 163.22 L0 163.22 Z" class="st4"/>
			</g>
			<g id="shape607-29" v:mID="607" v:groupContext="shape" v:layerMember="0"
					transform="translate(30.6816,-70.2326) scale(-1,1)">
				<title>Start/Ende.37</title>
				<v:custProps>
					<v:cp v:nameU="Cost" v:lbl="Kosten" v:prompt="" v:type="7" v:format="@" v:sortKey="" v:invis="false"
							v:ask="false" v:langID="1031" v:cal="0"/>
					<v:cp v:nameU="ProcessNumber" v:lbl="Prozessnummer" v:prompt="" v:type="2" v:format="" v:sortKey=""
							v:invis="false" v:ask="false" v:langID="1031" v:cal="0"/>
					<v:cp v:nameU="Owner" v:lbl="Besitzer" v:prompt="" v:type="0" v:format="" v:sortKey="" v:invis="false"
							v:ask="false" v:langID="1031" v:cal="0"/>
					<v:cp v:nameU="Function" v:lbl="Funktionsname" v:prompt="" v:type="0" v:format="" v:sortKey="" v:invis="false"
							v:ask="false" v:langID="1031" v:cal="0" v:val="VT4()"/>
					<v:cp v:nameU="StartDate" v:lbl="Startdatum" v:prompt="" v:type="5" v:format="" v:sortKey="" v:invis="false"
							v:ask="false" v:langID="1031" v:cal="0"/>
					<v:cp v:nameU="EndDate" v:lbl="Enddatum" v:prompt="" v:type="5" v:format="" v:sortKey="" v:invis="false"
							v:ask="false" v:langID="1031" v:cal="0"/>
					<v:cp v:nameU="Status" v:lbl="Status" v:prompt="" v:type="4"
							v:format=";Nicht begonnen;In Bearbeitung;Abgeschlossen;Zurückgestellt;Auf Eingabe wartend" v:sortKey=""
							v:invis="false" v:ask="false" v:langID="1031" v:cal="0" v:val="VT4()"/>
				</v:custProps>
				<v:userDefs>
					<v:ud v:nameU="visVersion" v:prompt="" v:val="VT0(14):26"/>
					<v:ud v:nameU="DefaultWidth" v:prompt="" v:val="VT0(0.98425196850394):24"/>
					<v:ud v:nameU="DefaultHeight" v:prompt="" v:val="VT0(0.39370078740157):24"/>
					<v:ud v:nameU="ResizeTxtHeight" v:prompt="" v:val="VT0(0.39370078740157):24"/>
					<v:ud v:nameU="msvThemeColors" v:val="VT0(36):26"/>
					<v:ud v:nameU="msvThemeEffects" v:val="VT0(16):26"/>
				</v:userDefs>
				<path d="M0.88 175.98 L6.73 175.98 a0.877463 0.877463 -180 1 0 0 -1.75493 L0.88 174.22 a0.877463 0.877463 -180 1
							 0 -1.24345E-014 1.75493 Z" class="st4"/>
			</g>
			<g id="shape608-32" v:mID="608" v:groupContext="shape" transform="translate(16.6799,-7.05523) scale(-1,1)">
				<title>Tabelle.608</title>
				<v:userDefs>
					<v:ud v:nameU="msvThemeColors" v:val="VT0(36):26"/>
					<v:ud v:nameU="msvThemeEffects" v:val="VT0(16):26"/>
				</v:userDefs>
				<path d="M1.14 111.05 L1.14 117.15 A3.80234 2.92488 -180 0 0 0 119.24 L0 173.05 A3.80234 2.92488 -180 0 0 7.6 173.05
							 L7.6 119.24 A3.80234 2.92488 -180 0 0 6.46 117.15 L6.46 111.05 L1.14 111.05 Z" class="st4"/>
			</g>
			<g id="shape609-35" v:mID="609" v:groupContext="shape" transform="translate(16.6673,-64.6138) scale(-1,1)">
				<title>Tabelle.609</title>
				<v:userDefs>
					<v:ud v:nameU="msvThemeColors" v:val="VT0(36):26"/>
					<v:ud v:nameU="msvThemeEffects" v:val="VT0(16):26"/>
				</v:userDefs>
				<path d="M0 163.22 L0 166.84 L1.75 166.84 L1.75 173.24 L1.78 173.24 L3.8 175.98 L5.83 173.24 L5.85 173.24 L5.85 166.84
							 L7.6 166.84 L7.6 163.22 L0 163.22 Z" class="st4"/>
			</g>
			<g id="shape610-38" v:mID="610" v:groupContext="shape" v:layerMember="0"
					transform="translate(16.6799,-70.2326) scale(-1,1)">
				<title>Start/Ende.40</title>
				<v:custProps>
					<v:cp v:nameU="Cost" v:lbl="Kosten" v:prompt="" v:type="7" v:format="@" v:sortKey="" v:invis="false"
							v:ask="false" v:langID="1031" v:cal="0"/>
					<v:cp v:nameU="ProcessNumber" v:lbl="Prozessnummer" v:prompt="" v:type="2" v:format="" v:sortKey=""
							v:invis="false" v:ask="false" v:langID="1031" v:cal="0"/>
					<v:cp v:nameU="Owner" v:lbl="Besitzer" v:prompt="" v:type="0" v:format="" v:sortKey="" v:invis="false"
							v:ask="false" v:langID="1031" v:cal="0"/>
					<v:cp v:nameU="Function" v:lbl="Funktionsname" v:prompt="" v:type="0" v:format="" v:sortKey="" v:invis="false"
							v:ask="false" v:langID="1031" v:cal="0" v:val="VT4()"/>
					<v:cp v:nameU="StartDate" v:lbl="Startdatum" v:prompt="" v:type="5" v:format="" v:sortKey="" v:invis="false"
							v:ask="false" v:langID="1031" v:cal="0"/>
					<v:cp v:nameU="EndDate" v:lbl="Enddatum" v:prompt="" v:type="5" v:format="" v:sortKey="" v:invis="false"
							v:ask="false" v:langID="1031" v:cal="0"/>
					<v:cp v:nameU="Status" v:lbl="Status" v:prompt="" v:type="4"
							v:format=";Nicht begonnen;In Bearbeitung;Abgeschlossen;Zurückgestellt;Auf Eingabe wartend" v:sortKey=""
							v:invis="false" v:ask="false" v:langID="1031" v:cal="0" v:val="VT4()"/>
				</v:custProps>
				<v:userDefs>
					<v:ud v:nameU="visVersion" v:prompt="" v:val="VT0(14):26"/>
					<v:ud v:nameU="DefaultWidth" v:prompt="" v:val="VT0(0.98425196850394):24"/>
					<v:ud v:nameU="DefaultHeight" v:prompt="" v:val="VT0(0.39370078740157):24"/>
					<v:ud v:nameU="ResizeTxtHeight" v:prompt="" v:val="VT0(0.39370078740157):24"/>
					<v:ud v:nameU="msvThemeColors" v:val="VT0(36):26"/>
					<v:ud v:nameU="msvThemeEffects" v:val="VT0(16):26"/>
				</v:userDefs>
				<path d="M0.88 175.98 L6.73 175.98 a0.877463 0.877463 -180 1 0 0 -1.75493 L0.88 174.22 a0.877463 0.877463 -180 1
							 0 -1.24345E-014 1.75493 Z" class="st4"/>
			</g>
			<g id="shape611-41" v:mID="611" v:groupContext="shape" transform="translate(30.6816,-7.05523) scale(-1,1)">
				<title>Tabelle.611</title>
				<v:userDefs>
					<v:ud v:nameU="msvThemeColors" v:val="VT0(36):26"/>
					<v:ud v:nameU="msvThemeEffects" v:val="VT0(16):26"/>
				</v:userDefs>
				<path d="M0 154.88 L0 173.05 A3.80234 2.92488 -180 0 0 7.6 173.05 L7.6 154.88 L0 154.88 Z" class="st5"/>
			</g>
			<g id="shape612-45" v:mID="612" v:groupContext="shape" transform="translate(16.6799,-7.05523) scale(-1,1)">
				<title>Tabelle.612</title>
				<v:userDefs>
					<v:ud v:nameU="msvThemeColors" v:val="VT0(36):26"/>
					<v:ud v:nameU="msvThemeEffects" v:val="VT0(16):26"/>
				</v:userDefs>
				<path d="M0 154.88 L0 173.05 A3.80234 2.92488 -180 0 0 7.6 173.05 L7.6 154.88 L0 154.88 Z" class="st6"/>
			</g>
			<g id="shape613-49" v:mID="613" v:groupContext="shape" transform="translate(44.8118,-7.05523) scale(-1,1)">
				<title>Tabelle.613</title>
				<v:userDefs>
					<v:ud v:nameU="msvThemeColors" v:val="VT0(36):26"/>
					<v:ud v:nameU="msvThemeEffects" v:val="VT0(16):26"/>
				</v:userDefs>
				<path d="M0 154.88 L0 173.05 A3.80234 2.92488 -180 0 0 7.6 173.05 L7.6 154.88 L0 154.88 Z" class="st7"/>
			</g>
			<g id="shape614-53" v:mID="614" v:groupContext="shape" transform="translate(77.7359,-7.043) scale(-1,1)">
				<title>Tabelle.614</title>
				<v:userDefs>
					<v:ud v:nameU="msvThemeColors" v:val="VT0(36):26"/>
					<v:ud v:nameU="msvThemeEffects" v:val="VT0(16):26"/>
				</v:userDefs>
				<path d="M1.14 111.05 L1.14 117.15 A3.80234 2.92488 -180 0 0 0 119.24 L0 173.05 A3.80234 2.92488 -180 0 0 7.6 173.05
							 L7.6 119.24 A3.80234 2.92488 -180 0 0 6.46 117.15 L6.46 111.05 L1.14 111.05 Z" class="st4"/>
			</g>
			<g id="shape615-56" v:mID="615" v:groupContext="shape" transform="translate(77.7359,-64.5551) scale(-1,1)">
				<title>Tabelle.615</title>
				<v:userDefs>
					<v:ud v:nameU="msvThemeColors" v:val="VT0(36):26"/>
					<v:ud v:nameU="msvThemeEffects" v:val="VT0(16):26"/>
				</v:userDefs>
				<path d="M0 163.22 L0 166.84 L1.75 166.84 L1.75 173.24 L1.78 173.24 L3.8 175.98 L5.83 173.24 L5.85 173.24 L5.85 166.84
							 L7.6 166.84 L7.6 163.22 L0 163.22 Z" class="st4"/>
			</g>
			<g id="shape616-59" v:mID="616" v:groupContext="shape" v:layerMember="0"
					transform="translate(77.7359,-70.2204) scale(-1,1)">
				<title>Start/Ende.57</title>
				<v:custProps>
					<v:cp v:nameU="Cost" v:lbl="Kosten" v:prompt="" v:type="7" v:format="@" v:sortKey="" v:invis="false"
							v:ask="false" v:langID="1031" v:cal="0"/>
					<v:cp v:nameU="ProcessNumber" v:lbl="Prozessnummer" v:prompt="" v:type="2" v:format="" v:sortKey=""
							v:invis="false" v:ask="false" v:langID="1031" v:cal="0"/>
					<v:cp v:nameU="Owner" v:lbl="Besitzer" v:prompt="" v:type="0" v:format="" v:sortKey="" v:invis="false"
							v:ask="false" v:langID="1031" v:cal="0"/>
					<v:cp v:nameU="Function" v:lbl="Funktionsname" v:prompt="" v:type="0" v:format="" v:sortKey="" v:invis="false"
							v:ask="false" v:langID="1031" v:cal="0" v:val="VT4()"/>
					<v:cp v:nameU="StartDate" v:lbl="Startdatum" v:prompt="" v:type="5" v:format="" v:sortKey="" v:invis="false"
							v:ask="false" v:langID="1031" v:cal="0"/>
					<v:cp v:nameU="EndDate" v:lbl="Enddatum" v:prompt="" v:type="5" v:format="" v:sortKey="" v:invis="false"
							v:ask="false" v:langID="1031" v:cal="0"/>
					<v:cp v:nameU="Status" v:lbl="Status" v:prompt="" v:type="4"
							v:format=";Nicht begonnen;In Bearbeitung;Abgeschlossen;Zurückgestellt;Auf Eingabe wartend" v:sortKey=""
							v:invis="false" v:ask="false" v:langID="1031" v:cal="0" v:val="VT4()"/>
				</v:custProps>
				<v:userDefs>
					<v:ud v:nameU="visVersion" v:prompt="" v:val="VT0(14):26"/>
					<v:ud v:nameU="DefaultWidth" v:prompt="" v:val="VT0(0.98425196850394):24"/>
					<v:ud v:nameU="DefaultHeight" v:prompt="" v:val="VT0(0.39370078740157):24"/>
					<v:ud v:nameU="ResizeTxtHeight" v:prompt="" v:val="VT0(0.39370078740157):24"/>
					<v:ud v:nameU="msvThemeColors" v:val="VT0(36):26"/>
					<v:ud v:nameU="msvThemeEffects" v:val="VT0(16):26"/>
				</v:userDefs>
				<path d="M0.88 175.98 L6.73 175.98 a0.877463 0.877463 -180 1 0 0 -1.75493 L0.88 174.22 a0.877463 0.877463 -180 1
							 0 -1.24345E-014 1.75493 Z" class="st4"/>
			</g>
			<g id="shape617-62" v:mID="617" v:groupContext="shape" transform="translate(63.7343,-7.043) scale(-1,1)">
				<title>Tabelle.617</title>
				<v:userDefs>
					<v:ud v:nameU="msvThemeColors" v:val="VT0(36):26"/>
					<v:ud v:nameU="msvThemeEffects" v:val="VT0(16):26"/>
				</v:userDefs>
				<path d="M1.14 111.05 L1.14 117.15 A3.80234 2.92488 -180 0 0 0 119.24 L0 173.05 A3.80234 2.92488 -180 0 0 7.6 173.05
							 L7.6 119.24 A3.80234 2.92488 -180 0 0 6.46 117.15 L6.46 111.05 L1.14 111.05 Z" class="st4"/>
			</g>
			<g id="shape618-65" v:mID="618" v:groupContext="shape" transform="translate(63.7343,-64.5551) scale(-1,1)">
				<title>Tabelle.618</title>
				<v:userDefs>
					<v:ud v:nameU="msvThemeColors" v:val="VT0(36):26"/>
					<v:ud v:nameU="msvThemeEffects" v:val="VT0(16):26"/>
				</v:userDefs>
				<path d="M0 163.22 L0 166.84 L1.75 166.84 L1.75 173.24 L1.78 173.24 L3.8 175.98 L5.83 173.24 L5.85 173.24 L5.85 166.84
							 L7.6 166.84 L7.6 163.22 L0 163.22 Z" class="st4"/>
			</g>
			<g id="shape619-68" v:mID="619" v:groupContext="shape" v:layerMember="0"
					transform="translate(63.7343,-70.2204) scale(-1,1)">
				<title>Start/Ende.60</title>
				<v:custProps>
					<v:cp v:nameU="Cost" v:lbl="Kosten" v:prompt="" v:type="7" v:format="@" v:sortKey="" v:invis="false"
							v:ask="false" v:langID="1031" v:cal="0"/>
					<v:cp v:nameU="ProcessNumber" v:lbl="Prozessnummer" v:prompt="" v:type="2" v:format="" v:sortKey=""
							v:invis="false" v:ask="false" v:langID="1031" v:cal="0"/>
					<v:cp v:nameU="Owner" v:lbl="Besitzer" v:prompt="" v:type="0" v:format="" v:sortKey="" v:invis="false"
							v:ask="false" v:langID="1031" v:cal="0"/>
					<v:cp v:nameU="Function" v:lbl="Funktionsname" v:prompt="" v:type="0" v:format="" v:sortKey="" v:invis="false"
							v:ask="false" v:langID="1031" v:cal="0" v:val="VT4()"/>
					<v:cp v:nameU="StartDate" v:lbl="Startdatum" v:prompt="" v:type="5" v:format="" v:sortKey="" v:invis="false"
							v:ask="false" v:langID="1031" v:cal="0"/>
					<v:cp v:nameU="EndDate" v:lbl="Enddatum" v:prompt="" v:type="5" v:format="" v:sortKey="" v:invis="false"
							v:ask="false" v:langID="1031" v:cal="0"/>
					<v:cp v:nameU="Status" v:lbl="Status" v:prompt="" v:type="4"
							v:format=";Nicht begonnen;In Bearbeitung;Abgeschlossen;Zurückgestellt;Auf Eingabe wartend" v:sortKey=""
							v:invis="false" v:ask="false" v:langID="1031" v:cal="0" v:val="VT4()"/>
				</v:custProps>
				<v:userDefs>
					<v:ud v:nameU="visVersion" v:prompt="" v:val="VT0(14):26"/>
					<v:ud v:nameU="DefaultWidth" v:prompt="" v:val="VT0(0.98425196850394):24"/>
					<v:ud v:nameU="DefaultHeight" v:prompt="" v:val="VT0(0.39370078740157):24"/>
					<v:ud v:nameU="ResizeTxtHeight" v:prompt="" v:val="VT0(0.39370078740157):24"/>
					<v:ud v:nameU="msvThemeColors" v:val="VT0(36):26"/>
					<v:ud v:nameU="msvThemeEffects" v:val="VT0(16):26"/>
				</v:userDefs>
				<path d="M0.88 175.98 L6.73 175.98 a0.877463 0.877463 -180 1 0 0 -1.75493 L0.88 174.22 a0.877463 0.877463 -180 1
							 0 -1.24345E-014 1.75493 Z" class="st4"/>
			</g>
			<g id="shape620-71" v:mID="620" v:groupContext="shape" transform="translate(77.7359,-7.043) scale(-1,1)">
				<title>Tabelle.620</title>
				<v:userDefs>
					<v:ud v:nameU="msvThemeColors" v:val="VT0(36):26"/>
					<v:ud v:nameU="msvThemeEffects" v:val="VT0(16):26"/>
				</v:userDefs>
				<path d="M0 154.88 L0 173.05 A3.80234 2.92488 -180 0 0 7.6 173.05 L7.6 154.88 L0 154.88 Z" class="st7"/>
			</g>
			<g id="shape621-74" v:mID="621" v:groupContext="shape" transform="translate(63.7343,-7.043) scale(-1,1)">
				<title>Tabelle.621</title>
				<v:userDefs>
					<v:ud v:nameU="msvThemeColors" v:val="VT0(36):26"/>
					<v:ud v:nameU="msvThemeEffects" v:val="VT0(16):26"/>
				</v:userDefs>
				<path d="M0 154.88 L0 173.05 A3.80234 2.92488 -180 0 0 7.6 173.05 L7.6 154.88 L0 154.88 Z" class="st7"/>
			</g>
			<g id="shape622-77" v:mID="622" v:groupContext="shape" transform="translate(50.2782,-17.743)">
				<title>Rechteck.47</title>
				<v:userDefs>
					<v:ud v:nameU="visVersion" v:val="VT0(14):26"/>
					<v:ud v:nameU="msvThemeColors" v:val="VT0(36):26"/>
					<v:ud v:nameU="msvThemeEffects" v:val="VT0(16):26"/>
				</v:userDefs>
				<rect x="0" y="101.436" width="1.49083" height="74.5417" class="st4"/>
			</g>
			<g id="shape623-80" v:mID="623" v:groupContext="shape">
				<title>Rechteck.46</title>
				<v:userDefs>
					<v:ud v:nameU="visVersion" v:val="VT0(14):26"/>
					<v:ud v:nameU="msvThemeColors" v:val="VT0(36):26"/>
					<v:ud v:nameU="msvThemeEffects" v:val="VT0(16):26"/>
				</v:userDefs>
				<rect x="0" y="158.088" width="102.047" height="17.89" class="st8"/>
			</g>
		</g>
		<g id="group624-83" transform="translate(19.9939,-40.252)" v:mID="624" v:groupContext="group">
			<v:userDefs>
				<v:ud v:nameU="msvThemeColors" v:val="VT0(36):26"/>
				<v:ud v:nameU="msvThemeEffects" v:val="VT0(16):26"/>
			</v:userDefs>
			<title>Tabelle.624</title>
			<g id="shape625-84" v:mID="625" v:groupContext="shape" transform="translate(7.21216,-23.6934)">
				<title>Tabelle.625</title>
				<v:userDefs>
					<v:ud v:nameU="msvThemeColors" v:val="VT0(36):26"/>
					<v:ud v:nameU="msvThemeEffects" v:val="VT0(16):26"/>
				</v:userDefs>
				<path d="M1.05 116.33 L1.05 121.93 A3.49311 2.68701 -180 0 0 -0 123.85 L0 173.29 A3.49311 2.68701 -180 0 0 6.99 173.29
							 L6.99 123.85 A3.49311 2.68701 -180 0 0 5.94 121.93 L5.94 116.33 L1.05 116.33 Z" class="st4"/>
			</g>
			<g id="shape626-87" v:mID="626" v:groupContext="shape" transform="translate(101.5,-62.6476) rotate(30)">
				<title>Tabelle.626</title>
				<v:userDefs>
					<v:ud v:nameU="msvThemeColors" v:val="VT0(36):26"/>
					<v:ud v:nameU="msvThemeEffects" v:val="VT0(16):26"/>
				</v:userDefs>
				<path d="M0 164.25 L0 167.58 L1.61 167.58 L1.61 173.46 L1.63 173.46 L3.49 175.98 L5.35 173.46 L5.37 173.46 L5.37
							 167.58 L6.99 167.58 L6.99 164.25 L0 164.25 Z" class="st4"/>
			</g>
			<g id="shape627-90" v:mID="627" v:groupContext="shape" v:layerMember="0" transform="translate(7.21216,-81.7327)">
				<title>Start/Ende.9</title>
				<v:custProps>
					<v:cp v:nameU="Cost" v:lbl="Kosten" v:prompt="" v:type="7" v:format="@" v:sortKey="" v:invis="false"
							v:ask="false" v:langID="1031" v:cal="0"/>
					<v:cp v:nameU="ProcessNumber" v:lbl="Prozessnummer" v:prompt="" v:type="2" v:format="" v:sortKey=""
							v:invis="false" v:ask="false" v:langID="1031" v:cal="0"/>
					<v:cp v:nameU="Owner" v:lbl="Besitzer" v:prompt="" v:type="0" v:format="" v:sortKey="" v:invis="false"
							v:ask="false" v:langID="1031" v:cal="0"/>
					<v:cp v:nameU="Function" v:lbl="Funktionsname" v:prompt="" v:type="0" v:format="" v:sortKey="" v:invis="false"
							v:ask="false" v:langID="1031" v:cal="0" v:val="VT4()"/>
					<v:cp v:nameU="StartDate" v:lbl="Startdatum" v:prompt="" v:type="5" v:format="" v:sortKey="" v:invis="false"
							v:ask="false" v:langID="1031" v:cal="0"/>
					<v:cp v:nameU="EndDate" v:lbl="Enddatum" v:prompt="" v:type="5" v:format="" v:sortKey="" v:invis="false"
							v:ask="false" v:langID="1031" v:cal="0"/>
					<v:cp v:nameU="Status" v:lbl="Status" v:prompt="" v:type="4"
							v:format=";Nicht begonnen;In Bearbeitung;Abgeschlossen;Zurückgestellt;Auf Eingabe wartend" v:sortKey=""
							v:invis="false" v:ask="false" v:langID="1031" v:cal="0" v:val="VT4()"/>
				</v:custProps>
				<v:userDefs>
					<v:ud v:nameU="visVersion" v:prompt="" v:val="VT0(14):26"/>
					<v:ud v:nameU="DefaultWidth" v:prompt="" v:val="VT0(0.98425196850394):24"/>
					<v:ud v:nameU="DefaultHeight" v:prompt="" v:val="VT0(0.39370078740157):24"/>
					<v:ud v:nameU="ResizeTxtHeight" v:prompt="" v:val="VT0(0.39370078740157):24"/>
					<v:ud v:nameU="msvThemeColors" v:val="VT0(36):26"/>
					<v:ud v:nameU="msvThemeEffects" v:val="VT0(16):26"/>
				</v:userDefs>
				<path d="M0.81 175.98 L6.18 175.98 a0.806102 0.806102 -180 0 0 0 -1.6122 L0.81 174.37 a0.806102 0.806102 -180 1 0
							 -1.14353E-014 1.6122 Z" class="st4"/>
			</g>
			<g id="shape628-93" v:mID="628" v:groupContext="shape" transform="translate(7.21216,-23.6934)">
				<title>Tabelle.628</title>
				<v:userDefs>
					<v:ud v:nameU="msvThemeColors" v:val="VT0(36):26"/>
					<v:ud v:nameU="msvThemeEffects" v:val="VT0(16):26"/>
				</v:userDefs>
				<path d="M0 167.41 L0 173.29 A3.49311 2.68701 -180 0 0 6.99 173.29 L6.99 167.41 L0 167.41 Z" class="st9"/>
			</g>
			<g id="shape629-97" v:mID="629" v:groupContext="shape" transform="translate(23.7224,-23.6934)">
				<title>Tabelle.629</title>
				<v:userDefs>
					<v:ud v:nameU="msvThemeColors" v:val="VT0(36):26"/>
					<v:ud v:nameU="msvThemeEffects" v:val="VT0(16):26"/>
				</v:userDefs>
				<path d="M1.05 116.33 L1.05 121.93 A3.49311 2.68701 -180 0 0 -0 123.85 L0 173.29 A3.49311 2.68701 -180 0 0 6.99 173.29
							 L6.99 123.85 A3.49311 2.68701 -180 0 0 5.94 121.93 L5.94 116.33 L1.05 116.33 Z" class="st4"/>
			</g>
			<g id="shape630-100" v:mID="630" v:groupContext="shape" v:layerMember="0" transform="translate(23.7224,-81.7327)">
				<title>Start/Ende.49</title>
				<v:custProps>
					<v:cp v:nameU="Cost" v:lbl="Kosten" v:prompt="" v:type="7" v:format="@" v:sortKey="" v:invis="false"
							v:ask="false" v:langID="1031" v:cal="0"/>
					<v:cp v:nameU="ProcessNumber" v:lbl="Prozessnummer" v:prompt="" v:type="2" v:format="" v:sortKey=""
							v:invis="false" v:ask="false" v:langID="1031" v:cal="0"/>
					<v:cp v:nameU="Owner" v:lbl="Besitzer" v:prompt="" v:type="0" v:format="" v:sortKey="" v:invis="false"
							v:ask="false" v:langID="1031" v:cal="0"/>
					<v:cp v:nameU="Function" v:lbl="Funktionsname" v:prompt="" v:type="0" v:format="" v:sortKey="" v:invis="false"
							v:ask="false" v:langID="1031" v:cal="0" v:val="VT4()"/>
					<v:cp v:nameU="StartDate" v:lbl="Startdatum" v:prompt="" v:type="5" v:format="" v:sortKey="" v:invis="false"
							v:ask="false" v:langID="1031" v:cal="0"/>
					<v:cp v:nameU="EndDate" v:lbl="Enddatum" v:prompt="" v:type="5" v:format="" v:sortKey="" v:invis="false"
							v:ask="false" v:langID="1031" v:cal="0"/>
					<v:cp v:nameU="Status" v:lbl="Status" v:prompt="" v:type="4"
							v:format=";Nicht begonnen;In Bearbeitung;Abgeschlossen;Zurückgestellt;Auf Eingabe wartend" v:sortKey=""
							v:invis="false" v:ask="false" v:langID="1031" v:cal="0" v:val="VT4()"/>
				</v:custProps>
				<v:userDefs>
					<v:ud v:nameU="visVersion" v:prompt="" v:val="VT0(14):26"/>
					<v:ud v:nameU="DefaultWidth" v:prompt="" v:val="VT0(0.98425196850394):24"/>
					<v:ud v:nameU="DefaultHeight" v:prompt="" v:val="VT0(0.39370078740157):24"/>
					<v:ud v:nameU="ResizeTxtHeight" v:prompt="" v:val="VT0(0.39370078740157):24"/>
					<v:ud v:nameU="msvThemeColors" v:val="VT0(36):26"/>
					<v:ud v:nameU="msvThemeEffects" v:val="VT0(16):26"/>
				</v:userDefs>
				<path d="M0.81 175.98 L6.18 175.98 a0.806102 0.806102 -180 0 0 0 -1.6122 L0.81 174.37 a0.806102 0.806102 -180 1 0
							 -1.14353E-014 1.6122 Z" class="st4"/>
			</g>
			<g id="shape631-103" v:mID="631" v:groupContext="shape" transform="translate(65.1083,-23.6934)">
				<title>Tabelle.631</title>
				<v:userDefs>
					<v:ud v:nameU="msvThemeColors" v:val="VT0(36):26"/>
					<v:ud v:nameU="msvThemeEffects" v:val="VT0(16):26"/>
				</v:userDefs>
				<path d="M1.05 116.33 L1.05 121.93 A3.49311 2.68701 -180 0 0 -0 123.85 L0 173.29 A3.49311 2.68701 -180 0 0 6.99 173.29
							 L6.99 123.85 A3.49311 2.68701 -180 0 0 5.94 121.93 L5.94 116.33 L1.05 116.33 Z" class="st4"/>
			</g>
			<g id="shape632-106" v:mID="632" v:groupContext="shape" transform="translate(52.3524,-23.6934)">
				<title>Tabelle.632</title>
				<v:userDefs>
					<v:ud v:nameU="msvThemeColors" v:val="VT0(36):26"/>
					<v:ud v:nameU="msvThemeEffects" v:val="VT0(16):26"/>
				</v:userDefs>
				<path d="M1.05 116.33 L1.05 121.93 A3.49311 2.68701 -180 0 0 -0 123.85 L0 173.29 A3.49311 2.68701 -180 0 0 6.99 173.29
							 L6.99 123.85 A3.49311 2.68701 -180 0 0 5.94 121.93 L5.94 116.33 L1.05 116.33 Z" class="st4"/>
			</g>
			<g id="shape633-109" v:mID="633" v:groupContext="shape" transform="translate(39.8799,-23.6934)">
				<title>Tabelle.633</title>
				<v:userDefs>
					<v:ud v:nameU="msvThemeColors" v:val="VT0(36):26"/>
					<v:ud v:nameU="msvThemeEffects" v:val="VT0(16):26"/>
				</v:userDefs>
				<path d="M1.05 116.33 L1.05 121.93 A3.49311 2.68701 -180 0 0 -0 123.85 L0 173.29 A3.49311 2.68701 -180 0 0 6.99 173.29
							 L6.99 123.85 A3.49311 2.68701 -180 0 0 5.94 121.93 L5.94 116.33 L1.05 116.33 Z" class="st4"/>
			</g>
			<g id="shape634-112" v:mID="634" v:groupContext="shape">
				<title>Tabelle.634</title>
				<v:userDefs>
					<v:ud v:nameU="msvThemeColors" v:val="VT0(36):26"/>
					<v:ud v:nameU="msvThemeEffects" v:val="VT0(16):26"/>
				</v:userDefs>
				<g id="shadow634-113" v:groupContext="shadow" v:shadowOffsetX="1.44" v:shadowOffsetY="-1.44" v:shadowType="1"
						transform="matrix(1,0,0,1,1.44,1.44)" class="st10">
					<path d="M0 124.13 L0 171.26 A4.7139 4.7139 -180 0 0 4.71 175.98 L74.48 175.98 A4.7139 4.7139 -180 0 0 79.19
								 171.26 L79.19 124.13 L0 124.13 Z" class="st11"/>
				</g>
				<path d="M0 124.13 L0 171.26 A4.7139 4.7139 -180 0 0 4.71 175.98 L74.48 175.98 A4.7139 4.7139 -180 0 0 79.19 171.26
							 L79.19 124.13 L0 124.13 Z" class="st12"/>
			</g>
			<g id="shape635-117" v:mID="635" v:groupContext="shape" transform="translate(20.9271,-5.69605)">
				<title>Tabelle.635</title>
				<v:userDefs>
					<v:ud v:nameU="msvThemeColors" v:val="VT0(36):26"/>
					<v:ud v:nameU="msvThemeEffects" v:val="VT0(16):26"/>
				</v:userDefs>
				<g id="shadow635-118" v:groupContext="shadow" v:shadowOffsetX="1.44" v:shadowOffsetY="-1.44" v:shadowType="1"
						transform="matrix(1,0,0,1,1.44,1.44)" class="st10">
					<path d="M16.36 159.73 L16.36 167.16 L11.04 170.23 L13.34 174.21 L16.36 172.46 L16.36 175.98 L20.96 175.98 L20.96
								 172.46 L24 174.21 L26.3 170.23 L20.96 167.15 L20.96 159.73 L27.26 163.36 L27.26 169.31 L31.86 169.31
								 L31.86 166.02 L35.04 167.85 L37.34 163.87 L33.98 161.93 L37.19 160.08 L34.89 156.09 L29.38 159.28
								 L23.27 155.75 L29.78 151.99 L34.89 154.94 L37.19 150.96 L34.38 149.33 L37.34 147.62 L35.04 143.64
								 L31.86 145.48 L31.86 141.72 L27.26 141.72 L27.26 148.13 L20.96 151.77 L20.96 143.89 L26.3 140.8
								 L24 136.82 L20.96 138.58 L20.96 135.52 L16.36 135.52 L16.36 138.57 L13.34 136.82 L11.04 140.8 L16.36
								 143.88 L16.36 151.76 L10.39 148.31 L10.39 141.72 L5.79 141.72 L5.79 145.66 L2.3 143.64 L0 147.62
								 L3.12 149.42 L0.46 150.96 L2.76 154.94 L7.72 152.08 L14.07 155.75 L7.91 159.31 L2.34 156.09 L0.04
								 160.08 L3.31 161.96 L0 163.87 L2.3 167.85 L5.37 166.08 L5.37 169.31 L9.97 169.31 L9.97 163.42 L16.36
								 159.73 Z" class="st11"/>
				</g>
				<path d="M16.36 159.73 L16.36 167.16 L11.04 170.23 L13.34 174.21 L16.36 172.46 L16.36 175.98 L20.96 175.98 L20.96
							 172.46 L24 174.21 L26.3 170.23 L20.96 167.15 L20.96 159.73 L27.26 163.36 L27.26 169.31 L31.86 169.31
							 L31.86 166.02 L35.04 167.85 L37.34 163.87 L33.98 161.93 L37.19 160.08 L34.89 156.09 L29.38 159.28 L23.27
							 155.75 L29.78 151.99 L34.89 154.94 L37.19 150.96 L34.38 149.33 L37.34 147.62 L35.04 143.64 L31.86 145.48
							 L31.86 141.72 L27.26 141.72 L27.26 148.13 L20.96 151.77 L20.96 143.89 L26.3 140.8 L24 136.82 L20.96
							 138.58 L20.96 135.52 L16.36 135.52 L16.36 138.57 L13.34 136.82 L11.04 140.8 L16.36 143.88 L16.36 151.76
							 L10.39 148.31 L10.39 141.72 L5.79 141.72 L5.79 145.66 L2.3 143.64 L0 147.62 L3.12 149.42 L0.46 150.96
							 L2.76 154.94 L7.72 152.08 L14.07 155.75 L7.91 159.31 L2.34 156.09 L0.04 160.08 L3.31 161.96 L0 163.87
							 L2.3 167.85 L5.37 166.08 L5.37 169.31 L9.97 169.31 L9.97 163.42 L16.36 159.73 Z" class="st13"/>
			</g>
			<g id="shape636-123" v:mID="636" v:groupContext="shape" v:layerMember="0" transform="translate(39.8799,-81.7327)">
				<title>Start/Ende.61</title>
				<v:custProps>
					<v:cp v:nameU="Cost" v:lbl="Kosten" v:prompt="" v:type="7" v:format="@" v:sortKey="" v:invis="false"
							v:ask="false" v:langID="1031" v:cal="0"/>
					<v:cp v:nameU="ProcessNumber" v:lbl="Prozessnummer" v:prompt="" v:type="2" v:format="" v:sortKey=""
							v:invis="false" v:ask="false" v:langID="1031" v:cal="0"/>
					<v:cp v:nameU="Owner" v:lbl="Besitzer" v:prompt="" v:type="0" v:format="" v:sortKey="" v:invis="false"
							v:ask="false" v:langID="1031" v:cal="0"/>
					<v:cp v:nameU="Function" v:lbl="Funktionsname" v:prompt="" v:type="0" v:format="" v:sortKey="" v:invis="false"
							v:ask="false" v:langID="1031" v:cal="0" v:val="VT4()"/>
					<v:cp v:nameU="StartDate" v:lbl="Startdatum" v:prompt="" v:type="5" v:format="" v:sortKey="" v:invis="false"
							v:ask="false" v:langID="1031" v:cal="0"/>
					<v:cp v:nameU="EndDate" v:lbl="Enddatum" v:prompt="" v:type="5" v:format="" v:sortKey="" v:invis="false"
							v:ask="false" v:langID="1031" v:cal="0"/>
					<v:cp v:nameU="Status" v:lbl="Status" v:prompt="" v:type="4"
							v:format=";Nicht begonnen;In Bearbeitung;Abgeschlossen;Zurückgestellt;Auf Eingabe wartend" v:sortKey=""
							v:invis="false" v:ask="false" v:langID="1031" v:cal="0" v:val="VT4()"/>
				</v:custProps>
				<v:userDefs>
					<v:ud v:nameU="visVersion" v:prompt="" v:val="VT0(14):26"/>
					<v:ud v:nameU="DefaultWidth" v:prompt="" v:val="VT0(0.98425196850394):24"/>
					<v:ud v:nameU="DefaultHeight" v:prompt="" v:val="VT0(0.39370078740157):24"/>
					<v:ud v:nameU="ResizeTxtHeight" v:prompt="" v:val="VT0(0.39370078740157):24"/>
					<v:ud v:nameU="msvThemeColors" v:val="VT0(36):26"/>
					<v:ud v:nameU="msvThemeEffects" v:val="VT0(16):26"/>
				</v:userDefs>
				<path d="M0.81 175.98 L6.18 175.98 a0.806102 0.806102 -180 0 0 0 -1.6122 L0.81 174.37 a0.806102 0.806102 -180 1 0
							 -1.14353E-014 1.6122 Z" class="st4"/>
			</g>
			<g id="shape637-126" v:mID="637" v:groupContext="shape" transform="translate(118.01,-62.6476) rotate(30)">
				<title>Tabelle.637</title>
				<v:userDefs>
					<v:ud v:nameU="msvThemeColors" v:val="VT0(36):26"/>
					<v:ud v:nameU="msvThemeEffects" v:val="VT0(16):26"/>
				</v:userDefs>
				<path d="M0 164.25 L0 167.58 L1.61 167.58 L1.61 173.46 L1.63 173.46 L3.49 175.98 L5.35 173.46 L5.37 173.46 L5.37
							 167.58 L6.99 167.58 L6.99 164.25 L0 164.25 Z" class="st4"/>
			</g>
			<g id="shape638-129" v:mID="638" v:groupContext="shape" transform="translate(134.167,-62.6476) rotate(30)">
				<title>Tabelle.638</title>
				<v:userDefs>
					<v:ud v:nameU="msvThemeColors" v:val="VT0(36):26"/>
					<v:ud v:nameU="msvThemeEffects" v:val="VT0(16):26"/>
				</v:userDefs>
				<path d="M0 164.25 L0 167.58 L1.61 167.58 L1.61 173.46 L1.63 173.46 L3.49 175.98 L5.35 173.46 L5.37 173.46 L5.37
							 167.58 L6.99 167.58 L6.99 164.25 L0 164.25 Z" class="st4"/>
			</g>
			<g id="shape639-132" v:mID="639" v:groupContext="shape" v:layerMember="0" transform="translate(52.3524,-81.7327)">
				<title>Start/Ende.65</title>
				<v:custProps>
					<v:cp v:nameU="Cost" v:lbl="Kosten" v:prompt="" v:type="7" v:format="@" v:sortKey="" v:invis="false"
							v:ask="false" v:langID="1031" v:cal="0"/>
					<v:cp v:nameU="ProcessNumber" v:lbl="Prozessnummer" v:prompt="" v:type="2" v:format="" v:sortKey=""
							v:invis="false" v:ask="false" v:langID="1031" v:cal="0"/>
					<v:cp v:nameU="Owner" v:lbl="Besitzer" v:prompt="" v:type="0" v:format="" v:sortKey="" v:invis="false"
							v:ask="false" v:langID="1031" v:cal="0"/>
					<v:cp v:nameU="Function" v:lbl="Funktionsname" v:prompt="" v:type="0" v:format="" v:sortKey="" v:invis="false"
							v:ask="false" v:langID="1031" v:cal="0" v:val="VT4()"/>
					<v:cp v:nameU="StartDate" v:lbl="Startdatum" v:prompt="" v:type="5" v:format="" v:sortKey="" v:invis="false"
							v:ask="false" v:langID="1031" v:cal="0"/>
					<v:cp v:nameU="EndDate" v:lbl="Enddatum" v:prompt="" v:type="5" v:format="" v:sortKey="" v:invis="false"
							v:ask="false" v:langID="1031" v:cal="0"/>
					<v:cp v:nameU="Status" v:lbl="Status" v:prompt="" v:type="4"
							v:format=";Nicht begonnen;In Bearbeitung;Abgeschlossen;Zurückgestellt;Auf Eingabe wartend" v:sortKey=""
							v:invis="false" v:ask="false" v:langID="1031" v:cal="0" v:val="VT4()"/>
				</v:custProps>
				<v:userDefs>
					<v:ud v:nameU="visVersion" v:prompt="" v:val="VT0(14):26"/>
					<v:ud v:nameU="DefaultWidth" v:prompt="" v:val="VT0(0.98425196850394):24"/>
					<v:ud v:nameU="DefaultHeight" v:prompt="" v:val="VT0(0.39370078740157):24"/>
					<v:ud v:nameU="ResizeTxtHeight" v:prompt="" v:val="VT0(0.39370078740157):24"/>
					<v:ud v:nameU="msvThemeColors" v:val="VT0(36):26"/>
					<v:ud v:nameU="msvThemeEffects" v:val="VT0(16):26"/>
				</v:userDefs>
				<path d="M0.81 175.98 L6.18 175.98 a0.806102 0.806102 -180 0 0 0 -1.6122 L0.81 174.37 a0.806102 0.806102 -180 1 0
							 -1.14353E-014 1.6122 Z" class="st4"/>
			</g>
			<g id="shape640-135" v:mID="640" v:groupContext="shape" transform="translate(146.64,-62.6476) rotate(30)">
				<title>Tabelle.640</title>
				<v:userDefs>
					<v:ud v:nameU="msvThemeColors" v:val="VT0(36):26"/>
					<v:ud v:nameU="msvThemeEffects" v:val="VT0(16):26"/>
				</v:userDefs>
				<path d="M0 164.25 L0 167.58 L1.61 167.58 L1.61 173.46 L1.63 173.46 L3.49 175.98 L5.35 173.46 L5.37 173.46 L5.37
							 167.58 L6.99 167.58 L6.99 164.25 L0 164.25 Z" class="st4"/>
			</g>
			<g id="shape641-138" v:mID="641" v:groupContext="shape" v:layerMember="0" transform="translate(65.1083,-81.7327)">
				<title>Start/Ende.71</title>
				<v:custProps>
					<v:cp v:nameU="Cost" v:lbl="Kosten" v:prompt="" v:type="7" v:format="@" v:sortKey="" v:invis="false"
							v:ask="false" v:langID="1031" v:cal="0"/>
					<v:cp v:nameU="ProcessNumber" v:lbl="Prozessnummer" v:prompt="" v:type="2" v:format="" v:sortKey=""
							v:invis="false" v:ask="false" v:langID="1031" v:cal="0"/>
					<v:cp v:nameU="Owner" v:lbl="Besitzer" v:prompt="" v:type="0" v:format="" v:sortKey="" v:invis="false"
							v:ask="false" v:langID="1031" v:cal="0"/>
					<v:cp v:nameU="Function" v:lbl="Funktionsname" v:prompt="" v:type="0" v:format="" v:sortKey="" v:invis="false"
							v:ask="false" v:langID="1031" v:cal="0" v:val="VT4()"/>
					<v:cp v:nameU="StartDate" v:lbl="Startdatum" v:prompt="" v:type="5" v:format="" v:sortKey="" v:invis="false"
							v:ask="false" v:langID="1031" v:cal="0"/>
					<v:cp v:nameU="EndDate" v:lbl="Enddatum" v:prompt="" v:type="5" v:format="" v:sortKey="" v:invis="false"
							v:ask="false" v:langID="1031" v:cal="0"/>
					<v:cp v:nameU="Status" v:lbl="Status" v:prompt="" v:type="4"
							v:format=";Nicht begonnen;In Bearbeitung;Abgeschlossen;Zurückgestellt;Auf Eingabe wartend" v:sortKey=""
							v:invis="false" v:ask="false" v:langID="1031" v:cal="0" v:val="VT4()"/>
				</v:custProps>
				<v:userDefs>
					<v:ud v:nameU="visVersion" v:prompt="" v:val="VT0(14):26"/>
					<v:ud v:nameU="DefaultWidth" v:prompt="" v:val="VT0(0.98425196850394):24"/>
					<v:ud v:nameU="DefaultHeight" v:prompt="" v:val="VT0(0.39370078740157):24"/>
					<v:ud v:nameU="ResizeTxtHeight" v:prompt="" v:val="VT0(0.39370078740157):24"/>
					<v:ud v:nameU="msvThemeColors" v:val="VT0(36):26"/>
					<v:ud v:nameU="msvThemeEffects" v:val="VT0(16):26"/>
				</v:userDefs>
				<path d="M0.81 175.98 L6.18 175.98 a0.806102 0.806102 -180 0 0 0 -1.6122 L0.81 174.37 a0.806102 0.806102 -180 1 0
							 -1.14353E-014 1.6122 Z" class="st4"/>
			</g>
			<g id="shape642-141" v:mID="642" v:groupContext="shape" transform="translate(159.396,-62.6476) rotate(30)">
				<title>Tabelle.642</title>
				<v:userDefs>
					<v:ud v:nameU="msvThemeColors" v:val="VT0(36):26"/>
					<v:ud v:nameU="msvThemeEffects" v:val="VT0(16):26"/>
				</v:userDefs>
				<path d="M0 164.25 L0 167.58 L1.61 167.58 L1.61 173.46 L1.63 173.46 L3.49 175.98 L5.35 173.46 L5.37 173.46 L5.37
							 167.58 L6.99 167.58 L6.99 164.25 L0 164.25 Z" class="st4"/>
			</g>
			<g id="shape643-144" v:mID="643" v:groupContext="shape" transform="translate(7.33819,-51.9874)">
				<title>Rechteck.19</title>
				<v:userDefs>
					<v:ud v:nameU="visVersion" v:val="VT0(14):26"/>
					<v:ud v:nameU="msvThemeColors" v:val="VT0(36):26"/>
					<v:ud v:nameU="msvThemeEffects" v:val="VT0(16):26"/>
				</v:userDefs>
				<rect x="0" y="174.54" width="6.74646" height="1.43754" class="st14"/>
			</g>
			<g id="shape644-146" v:mID="644" v:groupContext="shape" transform="translate(23.8358,-51.9874)">
				<title>Rechteck.20</title>
				<v:userDefs>
					<v:ud v:nameU="visVersion" v:val="VT0(14):26"/>
					<v:ud v:nameU="msvThemeColors" v:val="VT0(36):26"/>
					<v:ud v:nameU="msvThemeEffects" v:val="VT0(16):26"/>
				</v:userDefs>
				<rect x="0" y="174.54" width="6.74646" height="1.43754" class="st15"/>
			</g>
			<g id="shape645-148" v:mID="645" v:groupContext="shape" transform="translate(39.9998,-51.9874)">
				<title>Rechteck.22</title>
				<v:userDefs>
					<v:ud v:nameU="visVersion" v:val="VT0(14):26"/>
					<v:ud v:nameU="msvThemeColors" v:val="VT0(36):26"/>
					<v:ud v:nameU="msvThemeEffects" v:val="VT0(16):26"/>
				</v:userDefs>
				<rect x="0" y="174.54" width="6.74646" height="1.43754" class="st16"/>
			</g>
			<g id="shape646-150" v:mID="646" v:groupContext="shape" transform="translate(52.4657,-51.9874)">
				<title>Rechteck.23</title>
				<v:userDefs>
					<v:ud v:nameU="visVersion" v:val="VT0(14):26"/>
					<v:ud v:nameU="msvThemeColors" v:val="VT0(36):26"/>
					<v:ud v:nameU="msvThemeEffects" v:val="VT0(16):26"/>
				</v:userDefs>
				<rect x="0" y="174.54" width="6.74646" height="1.43754" class="st16"/>
			</g>
			<g id="shape647-152" v:mID="647" v:groupContext="shape" transform="translate(65.2281,-51.9874)">
				<title>Rechteck.24</title>
				<v:userDefs>
					<v:ud v:nameU="visVersion" v:val="VT0(14):26"/>
					<v:ud v:nameU="msvThemeColors" v:val="VT0(36):26"/>
					<v:ud v:nameU="msvThemeEffects" v:val="VT0(16):26"/>
				</v:userDefs>
				<rect x="0" y="174.54" width="6.74646" height="1.43754" class="st16"/>
			</g>
		</g>
	</g>
</svg>
