<?xml version="1.0" encoding="UTF-8" standalone="no"?>
<!DOCTYPE svg PUBLIC "-//W3C//DTD SVG 1.1//EN" "http://www.w3.org/Graphics/SVG/1.1/DTD/svg11.dtd">
<!-- Generiert durch Microsoft Visio, SVG Export 24.svg Page-1 -->
<svg xmlns="http://www.w3.org/2000/svg" xmlns:xlink="http://www.w3.org/1999/xlink" xmlns:ev="http://www.w3.org/2001/xml-events"
		xmlns:v="http://schemas.microsoft.com/visio/2003/SVGExtensions/" width="5.20768in" height="2.44414in"
		viewBox="0 0 374.953 175.978" xml:space="preserve" color-interpolation-filters="sRGB" class="st11">
	<v:documentProperties v:langID="1031" v:metric="true" v:viewMarkup="false">
		<v:userDefs>
			<v:ud v:nameU="msvNoAutoConnect" v:val="VT0(0):26"/>
			<v:ud v:nameU="msvConvertTheme"/>
		</v:userDefs>
	</v:documentProperties>

	<style type="text/css">
	<![CDATA[
		.st1 {fill:#000000;stroke:none;stroke-linecap:round;stroke-linejoin:round;stroke-width:0.75}
		.st2 {fill:url(#grad0-6);stroke:#ffffff;stroke-linecap:round;stroke-linejoin:round;stroke-width:0.25}
		.st3 {fill:none;stroke:none;stroke-linecap:round;stroke-linejoin:round;stroke-width:0.25}
		.st4 {fill:url(#grad0-6);stroke:#404040;stroke-linecap:round;stroke-linejoin:round;stroke-width:0.25}
		.st5 {fill:url(#grad0-44);stroke:none;stroke-linecap:round;stroke-linejoin:round;stroke-width:0.25}
		.st6 {fill:url(#grad0-48);stroke:none;stroke-linecap:round;stroke-linejoin:round;stroke-width:0.25}
		.st7 {fill:url(#grad0-52);stroke:none;stroke-linecap:round;stroke-linejoin:round;stroke-width:0.25}
		.st8 {fill:url(#grad0-6);stroke:#7f7f7f;stroke-linecap:round;stroke-linejoin:round;stroke-width:0.25}
		.st9 {fill:url(#grad0-90);stroke:#c00000;stroke-linecap:round;stroke-linejoin:round;stroke-width:0.25}
		.st10 {fill:url(#grad0-6);stroke:#000000;stroke-linecap:round;stroke-linejoin:round;stroke-width:0.25}
		.st11 {fill:none;fill-rule:evenodd;font-size:12px;overflow:visible;stroke-linecap:square;stroke-miterlimit:3}
	]]>
	</style>

	<defs id="Patterns_And_Gradients">
		<linearGradient id="grad0-6" x1="0" y1="0" x2="1" y2="0" gradientTransform="rotate(270 0.5 0.5)">
			<stop offset="0" stop-color="#f0f0f0" stop-opacity="1"/>
			<stop offset="1" stop-color="#ffffff" stop-opacity="1"/>
		</linearGradient>
		<linearGradient id="grad0-44" x1="0" y1="0" x2="1" y2="0" gradientTransform="rotate(270 0.5 0.5)">
			<stop offset="0" stop-color="#e1e100" stop-opacity="1"/>
			<stop offset="1" stop-color="#ffff00" stop-opacity="1"/>
		</linearGradient>
		<linearGradient id="grad0-48" x1="0" y1="0" x2="1" y2="0" gradientTransform="rotate(270 0.5 0.5)">
			<stop offset="0" stop-color="#a899c1" stop-opacity="1"/>
			<stop offset="1" stop-color="#b8accd" stop-opacity="1"/>
		</linearGradient>
		<linearGradient id="grad0-52" x1="0" y1="0" x2="1" y2="0" gradientTransform="rotate(270 0.5 0.5)">
			<stop offset="0" stop-color="#564675" stop-opacity="1"/>
			<stop offset="1" stop-color="#645287" stop-opacity="1"/>
		</linearGradient>
		<linearGradient id="grad0-90" x1="0" y1="0" x2="1" y2="0" gradientTransform="rotate(270 0.5 0.5)">
			<stop offset="0" stop-color="#a60000" stop-opacity="1"/>
			<stop offset="1" stop-color="#c00000" stop-opacity="1"/>
		</linearGradient>
	</defs>
	<g v:mID="4" v:index="1" v:groupContext="backgroundPage">
		<v:userDefs>
			<v:ud v:nameU="msvThemeColors" v:val="VT0(36):26"/>
			<v:ud v:nameU="msvThemeEffects" v:val="VT0(16):26"/>
			<v:ud v:nameU="msvThemeOrder" v:val="VT0(0):26"/>
			<v:ud v:nameU="msvVisioCreated" v:prompt="" v:val="VT0(0):26"/>
		</v:userDefs>
		<title>VHintergrund-1</title>
		<v:pageProperties width="5.20768" height="2.44414" v:drawingScale="0.0393701" v:pageScale="0.0393701" v:drawingUnits="24"
				v:shadowOffsetX="8.50394" v:shadowOffsetY="-8.50394"/>
		<g id="shape1-1" v:mID="1" v:groupContext="shape">
			<title>Vollton</title>
			<v:userDefs>
				<v:ud v:nameU="Background" v:val="VT0(0):26"/>
				<v:ud v:nameU="visVersion" v:val="VT0(14):26"/>
				<v:ud v:nameU="msvShapeCategories" v:prompt="" v:val="VT4(DoNotContain)"/>
				<v:ud v:nameU="msvThemeColors" v:val="VT0(36):26"/>
				<v:ud v:nameU="msvVisioCreated" v:prompt="" v:val="VT0(0):26"/>
			</v:userDefs>
			<rect x="0" y="0" width="374.953" height="175.978" class="st1"/>
		</g>
		<g id="shape2-3" v:mID="2" v:groupContext="shape" transform="translate(222.201,234.318) rotate(180)">
			<title>Pfeil 60 Grad-Spitze</title>
			<v:userDefs>
				<v:ud v:nameU="visVersion" v:val="VT0(14):26"/>
				<v:ud v:nameU="msvThemeColors" v:val="VT0(36):26"/>
				<v:ud v:nameU="msvThemeEffects" v:val="VT0(16):26"/>
			</v:userDefs>
			<path d="M0 168.89 L4.09 161.8 L4.09 166.48 L69.45 166.48 L69.45 171.3 L4.09 171.3 L4.09 175.98 L0 168.89 Z"
					class="st2"/>
		</g>
	</g>
	<g v:mID="0" v:index="2" v:groupContext="foregroundPage">
		<v:userDefs>
			<v:ud v:nameU="msvThemeColors" v:val="VT0(36):26"/>
			<v:ud v:nameU="msvThemeEffects" v:val="VT0(16):26"/>
			<v:ud v:nameU="msvThemeOrder" v:val="VT0(0):26"/>
		</v:userDefs>
		<title>Zeichenblatt-1</title>
		<v:pageProperties v:drawingScale="0.0393701" v:pageScale="0.0393701" v:drawingUnits="24" v:shadowOffsetX="8.50394"
				v:shadowOffsetY="-8.50394"/>
		<v:layer v:name="Flussdiagramm" v:index="0"/>
		<v:layer v:name="Verbinder" v:index="1"/>
		<g id="shape195-7" v:mID="195" v:groupContext="shape" transform="translate(125.787,-123.895)">
			<title>Rechteck.195</title>
			<v:userDefs>
				<v:ud v:nameU="visVersion" v:val="VT0(15):26"/>
				<v:ud v:nameU="msvThemeColors" v:val="VT0(36):26"/>
				<v:ud v:nameU="msvThemeEffects" v:val="VT0(16):26"/>
			</v:userDefs>
			<rect x="0" y="128.965" width="123.307" height="47.0131" class="st3"/>
		</g>
		<g id="shape192-9" v:mID="192" v:groupContext="shape" transform="translate(1.59872E-014,-2.26772)">
			<title>Rechteck.13.192</title>
			<v:userDefs>
				<v:ud v:nameU="visVersion" v:val="VT0(15):26"/>
				<v:ud v:nameU="msvThemeColors" v:val="VT0(36):26"/>
				<v:ud v:nameU="msvThemeEffects" v:val="VT0(16):26"/>
			</v:userDefs>
			<rect x="0" y="3.63146" width="123.307" height="172.346" class="st3"/>
		</g>
		<g id="shape194-11" v:mID="194" v:groupContext="shape" transform="translate(251.575,-2.26772)">
			<title>Rechteck.194</title>
			<v:userDefs>
				<v:ud v:nameU="visVersion" v:val="VT0(15):26"/>
				<v:ud v:nameU="msvThemeColors" v:val="VT0(36):26"/>
				<v:ud v:nameU="msvThemeEffects" v:val="VT0(16):26"/>
			</v:userDefs>
			<rect x="0" y="3.63146" width="123.307" height="172.346" class="st3"/>
		</g>
		<g id="group648-13" transform="translate(10.6299,-42.2986)" v:mID="648" v:groupContext="group">
			<v:userDefs>
				<v:ud v:nameU="msvThemeColors" v:val="VT0(36):26"/>
				<v:ud v:nameU="msvThemeEffects" v:val="VT0(16):26"/>
			</v:userDefs>
			<title>Tabelle.648</title>
			<g id="shape649-14" v:mID="649" v:groupContext="shape" transform="translate(44.8118,-7.05523) scale(-1,1)">
				<title>Tabelle.649</title>
				<v:userDefs>
					<v:ud v:nameU="msvThemeColors" v:val="VT0(36):26"/>
					<v:ud v:nameU="msvThemeEffects" v:val="VT0(16):26"/>
				</v:userDefs>
				<path d="M1.14 111.05 L1.14 117.15 A3.80234 2.92488 -180 0 0 0 119.24 L0 173.05 A3.80234 2.92488 -180 0 0 7.6 173.05
							 L7.6 119.24 A3.80234 2.92488 -180 0 0 6.46 117.15 L6.46 111.05 L1.14 111.05 Z" class="st4"/>
			</g>
			<g id="shape650-17" v:mID="650" v:groupContext="shape" transform="translate(130.876,-49.0697) rotate(30) scale(-1,1)">
				<title>Tabelle.650</title>
				<v:userDefs>
					<v:ud v:nameU="msvThemeColors" v:val="VT0(36):26"/>
					<v:ud v:nameU="msvThemeEffects" v:val="VT0(16):26"/>
				</v:userDefs>
				<path d="M0 163.22 L0 166.84 L1.75 166.84 L1.75 173.24 L1.78 173.24 L3.8 175.98 L5.83 173.24 L5.85 173.24 L5.85 166.84
							 L7.6 166.84 L7.6 163.22 L0 163.22 Z" class="st4"/>
			</g>
			<g id="shape651-20" v:mID="651" v:groupContext="shape" v:layerMember="0"
					transform="translate(44.8118,-70.2326) scale(-1,1)">
				<title>Start/Ende.31</title>
				<v:custProps>
					<v:cp v:nameU="Cost" v:lbl="Kosten" v:prompt="" v:type="7" v:format="@" v:sortKey="" v:invis="false"
							v:ask="false" v:langID="1031" v:cal="0"/>
					<v:cp v:nameU="ProcessNumber" v:lbl="Prozessnummer" v:prompt="" v:type="2" v:format="" v:sortKey=""
							v:invis="false" v:ask="false" v:langID="1031" v:cal="0"/>
					<v:cp v:nameU="Owner" v:lbl="Besitzer" v:prompt="" v:type="0" v:format="" v:sortKey="" v:invis="false"
							v:ask="false" v:langID="1031" v:cal="0"/>
					<v:cp v:nameU="Function" v:lbl="Funktionsname" v:prompt="" v:type="0" v:format="" v:sortKey="" v:invis="false"
							v:ask="false" v:langID="1031" v:cal="0" v:val="VT4()"/>
					<v:cp v:nameU="StartDate" v:lbl="Startdatum" v:prompt="" v:type="5" v:format="" v:sortKey="" v:invis="false"
							v:ask="false" v:langID="1031" v:cal="0"/>
					<v:cp v:nameU="EndDate" v:lbl="Enddatum" v:prompt="" v:type="5" v:format="" v:sortKey="" v:invis="false"
							v:ask="false" v:langID="1031" v:cal="0"/>
					<v:cp v:nameU="Status" v:lbl="Status" v:prompt="" v:type="4"
							v:format=";Nicht begonnen;In Bearbeitung;Abgeschlossen;Zurückgestellt;Auf Eingabe wartend" v:sortKey=""
							v:invis="false" v:ask="false" v:langID="1031" v:cal="0" v:val="VT4()"/>
				</v:custProps>
				<v:userDefs>
					<v:ud v:nameU="visVersion" v:prompt="" v:val="VT0(14):26"/>
					<v:ud v:nameU="DefaultWidth" v:prompt="" v:val="VT0(0.98425196850394):24"/>
					<v:ud v:nameU="DefaultHeight" v:prompt="" v:val="VT0(0.39370078740157):24"/>
					<v:ud v:nameU="ResizeTxtHeight" v:prompt="" v:val="VT0(0.39370078740157):24"/>
					<v:ud v:nameU="msvThemeColors" v:val="VT0(36):26"/>
					<v:ud v:nameU="msvThemeEffects" v:val="VT0(16):26"/>
				</v:userDefs>
				<path d="M0.88 175.98 L6.73 175.98 a0.877463 0.877463 -180 1 0 0 -1.75493 L0.88 174.22 a0.877463 0.877463 -180 1
							 0 -1.24345E-014 1.75493 Z" class="st4"/>
			</g>
			<g id="shape652-23" v:mID="652" v:groupContext="shape" transform="translate(30.6816,-7.05523) scale(-1,1)">
				<title>Tabelle.652</title>
				<v:userDefs>
					<v:ud v:nameU="msvThemeColors" v:val="VT0(36):26"/>
					<v:ud v:nameU="msvThemeEffects" v:val="VT0(16):26"/>
				</v:userDefs>
				<path d="M1.14 111.05 L1.14 117.15 A3.80234 2.92488 -180 0 0 0 119.24 L0 173.05 A3.80234 2.92488 -180 0 0 7.6 173.05
							 L7.6 119.24 A3.80234 2.92488 -180 0 0 6.46 117.15 L6.46 111.05 L1.14 111.05 Z" class="st4"/>
			</g>
			<g id="shape653-26" v:mID="653" v:groupContext="shape" transform="translate(116.746,-49.0697) rotate(30) scale(-1,1)">
				<title>Tabelle.653</title>
				<v:userDefs>
					<v:ud v:nameU="msvThemeColors" v:val="VT0(36):26"/>
					<v:ud v:nameU="msvThemeEffects" v:val="VT0(16):26"/>
				</v:userDefs>
				<path d="M0 163.22 L0 166.84 L1.75 166.84 L1.75 173.24 L1.78 173.24 L3.8 175.98 L5.83 173.24 L5.85 173.24 L5.85 166.84
							 L7.6 166.84 L7.6 163.22 L0 163.22 Z" class="st4"/>
			</g>
			<g id="shape654-29" v:mID="654" v:groupContext="shape" v:layerMember="0"
					transform="translate(30.6816,-70.2326) scale(-1,1)">
				<title>Start/Ende.37</title>
				<v:custProps>
					<v:cp v:nameU="Cost" v:lbl="Kosten" v:prompt="" v:type="7" v:format="@" v:sortKey="" v:invis="false"
							v:ask="false" v:langID="1031" v:cal="0"/>
					<v:cp v:nameU="ProcessNumber" v:lbl="Prozessnummer" v:prompt="" v:type="2" v:format="" v:sortKey=""
							v:invis="false" v:ask="false" v:langID="1031" v:cal="0"/>
					<v:cp v:nameU="Owner" v:lbl="Besitzer" v:prompt="" v:type="0" v:format="" v:sortKey="" v:invis="false"
							v:ask="false" v:langID="1031" v:cal="0"/>
					<v:cp v:nameU="Function" v:lbl="Funktionsname" v:prompt="" v:type="0" v:format="" v:sortKey="" v:invis="false"
							v:ask="false" v:langID="1031" v:cal="0" v:val="VT4()"/>
					<v:cp v:nameU="StartDate" v:lbl="Startdatum" v:prompt="" v:type="5" v:format="" v:sortKey="" v:invis="false"
							v:ask="false" v:langID="1031" v:cal="0"/>
					<v:cp v:nameU="EndDate" v:lbl="Enddatum" v:prompt="" v:type="5" v:format="" v:sortKey="" v:invis="false"
							v:ask="false" v:langID="1031" v:cal="0"/>
					<v:cp v:nameU="Status" v:lbl="Status" v:prompt="" v:type="4"
							v:format=";Nicht begonnen;In Bearbeitung;Abgeschlossen;Zurückgestellt;Auf Eingabe wartend" v:sortKey=""
							v:invis="false" v:ask="false" v:langID="1031" v:cal="0" v:val="VT4()"/>
				</v:custProps>
				<v:userDefs>
					<v:ud v:nameU="visVersion" v:prompt="" v:val="VT0(14):26"/>
					<v:ud v:nameU="DefaultWidth" v:prompt="" v:val="VT0(0.98425196850394):24"/>
					<v:ud v:nameU="DefaultHeight" v:prompt="" v:val="VT0(0.39370078740157):24"/>
					<v:ud v:nameU="ResizeTxtHeight" v:prompt="" v:val="VT0(0.39370078740157):24"/>
					<v:ud v:nameU="msvThemeColors" v:val="VT0(36):26"/>
					<v:ud v:nameU="msvThemeEffects" v:val="VT0(16):26"/>
				</v:userDefs>
				<path d="M0.88 175.98 L6.73 175.98 a0.877463 0.877463 -180 1 0 0 -1.75493 L0.88 174.22 a0.877463 0.877463 -180 1
							 0 -1.24345E-014 1.75493 Z" class="st4"/>
			</g>
			<g id="shape655-32" v:mID="655" v:groupContext="shape" transform="translate(16.6799,-7.05523) scale(-1,1)">
				<title>Tabelle.655</title>
				<v:userDefs>
					<v:ud v:nameU="msvThemeColors" v:val="VT0(36):26"/>
					<v:ud v:nameU="msvThemeEffects" v:val="VT0(16):26"/>
				</v:userDefs>
				<path d="M1.14 111.05 L1.14 117.15 A3.80234 2.92488 -180 0 0 0 119.24 L0 173.05 A3.80234 2.92488 -180 0 0 7.6 173.05
							 L7.6 119.24 A3.80234 2.92488 -180 0 0 6.46 117.15 L6.46 111.05 L1.14 111.05 Z" class="st4"/>
			</g>
			<g id="shape656-35" v:mID="656" v:groupContext="shape" transform="translate(102.744,-49.0697) rotate(30) scale(-1,1)">
				<title>Tabelle.656</title>
				<v:userDefs>
					<v:ud v:nameU="msvThemeColors" v:val="VT0(36):26"/>
					<v:ud v:nameU="msvThemeEffects" v:val="VT0(16):26"/>
				</v:userDefs>
				<path d="M0 163.22 L0 166.84 L1.75 166.84 L1.75 173.24 L1.78 173.24 L3.8 175.98 L5.83 173.24 L5.85 173.24 L5.85 166.84
							 L7.6 166.84 L7.6 163.22 L0 163.22 Z" class="st4"/>
			</g>
			<g id="shape657-38" v:mID="657" v:groupContext="shape" v:layerMember="0"
					transform="translate(16.6799,-70.2326) scale(-1,1)">
				<title>Start/Ende.40</title>
				<v:custProps>
					<v:cp v:nameU="Cost" v:lbl="Kosten" v:prompt="" v:type="7" v:format="@" v:sortKey="" v:invis="false"
							v:ask="false" v:langID="1031" v:cal="0"/>
					<v:cp v:nameU="ProcessNumber" v:lbl="Prozessnummer" v:prompt="" v:type="2" v:format="" v:sortKey=""
							v:invis="false" v:ask="false" v:langID="1031" v:cal="0"/>
					<v:cp v:nameU="Owner" v:lbl="Besitzer" v:prompt="" v:type="0" v:format="" v:sortKey="" v:invis="false"
							v:ask="false" v:langID="1031" v:cal="0"/>
					<v:cp v:nameU="Function" v:lbl="Funktionsname" v:prompt="" v:type="0" v:format="" v:sortKey="" v:invis="false"
							v:ask="false" v:langID="1031" v:cal="0" v:val="VT4()"/>
					<v:cp v:nameU="StartDate" v:lbl="Startdatum" v:prompt="" v:type="5" v:format="" v:sortKey="" v:invis="false"
							v:ask="false" v:langID="1031" v:cal="0"/>
					<v:cp v:nameU="EndDate" v:lbl="Enddatum" v:prompt="" v:type="5" v:format="" v:sortKey="" v:invis="false"
							v:ask="false" v:langID="1031" v:cal="0"/>
					<v:cp v:nameU="Status" v:lbl="Status" v:prompt="" v:type="4"
							v:format=";Nicht begonnen;In Bearbeitung;Abgeschlossen;Zurückgestellt;Auf Eingabe wartend" v:sortKey=""
							v:invis="false" v:ask="false" v:langID="1031" v:cal="0" v:val="VT4()"/>
				</v:custProps>
				<v:userDefs>
					<v:ud v:nameU="visVersion" v:prompt="" v:val="VT0(14):26"/>
					<v:ud v:nameU="DefaultWidth" v:prompt="" v:val="VT0(0.98425196850394):24"/>
					<v:ud v:nameU="DefaultHeight" v:prompt="" v:val="VT0(0.39370078740157):24"/>
					<v:ud v:nameU="ResizeTxtHeight" v:prompt="" v:val="VT0(0.39370078740157):24"/>
					<v:ud v:nameU="msvThemeColors" v:val="VT0(36):26"/>
					<v:ud v:nameU="msvThemeEffects" v:val="VT0(16):26"/>
				</v:userDefs>
				<path d="M0.88 175.98 L6.73 175.98 a0.877463 0.877463 -180 1 0 0 -1.75493 L0.88 174.22 a0.877463 0.877463 -180 1
							 0 -1.24345E-014 1.75493 Z" class="st4"/>
			</g>
			<g id="shape658-41" v:mID="658" v:groupContext="shape" transform="translate(30.6816,-7.05523) scale(-1,1)">
				<title>Tabelle.658</title>
				<v:userDefs>
					<v:ud v:nameU="msvThemeColors" v:val="VT0(36):26"/>
					<v:ud v:nameU="msvThemeEffects" v:val="VT0(16):26"/>
				</v:userDefs>
				<path d="M0 154.88 L0 173.05 A3.80234 2.92488 -180 0 0 7.6 173.05 L7.6 154.88 L0 154.88 Z" class="st5"/>
			</g>
			<g id="shape659-45" v:mID="659" v:groupContext="shape" transform="translate(16.6799,-7.05523) scale(-1,1)">
				<title>Tabelle.659</title>
				<v:userDefs>
					<v:ud v:nameU="msvThemeColors" v:val="VT0(36):26"/>
					<v:ud v:nameU="msvThemeEffects" v:val="VT0(16):26"/>
				</v:userDefs>
				<path d="M0 154.88 L0 173.05 A3.80234 2.92488 -180 0 0 7.6 173.05 L7.6 154.88 L0 154.88 Z" class="st6"/>
			</g>
			<g id="shape660-49" v:mID="660" v:groupContext="shape" transform="translate(44.8118,-7.05523) scale(-1,1)">
				<title>Tabelle.660</title>
				<v:userDefs>
					<v:ud v:nameU="msvThemeColors" v:val="VT0(36):26"/>
					<v:ud v:nameU="msvThemeEffects" v:val="VT0(16):26"/>
				</v:userDefs>
				<path d="M0 154.88 L0 173.05 A3.80234 2.92488 -180 0 0 7.6 173.05 L7.6 154.88 L0 154.88 Z" class="st7"/>
			</g>
			<g id="shape661-53" v:mID="661" v:groupContext="shape" transform="translate(77.7359,-7.043) scale(-1,1)">
				<title>Tabelle.661</title>
				<v:userDefs>
					<v:ud v:nameU="msvThemeColors" v:val="VT0(36):26"/>
					<v:ud v:nameU="msvThemeEffects" v:val="VT0(16):26"/>
				</v:userDefs>
				<path d="M1.14 111.05 L1.14 117.15 A3.80234 2.92488 -180 0 0 0 119.24 L0 173.05 A3.80234 2.92488 -180 0 0 7.6 173.05
							 L7.6 119.24 A3.80234 2.92488 -180 0 0 6.46 117.15 L6.46 111.05 L1.14 111.05 Z" class="st4"/>
			</g>
			<g id="shape662-56" v:mID="662" v:groupContext="shape" transform="translate(163.812,-49.011) rotate(30) scale(-1,1)">
				<title>Tabelle.662</title>
				<v:userDefs>
					<v:ud v:nameU="msvThemeColors" v:val="VT0(36):26"/>
					<v:ud v:nameU="msvThemeEffects" v:val="VT0(16):26"/>
				</v:userDefs>
				<path d="M0 163.22 L0 166.84 L1.75 166.84 L1.75 173.24 L1.78 173.24 L3.8 175.98 L5.83 173.24 L5.85 173.24 L5.85 166.84
							 L7.6 166.84 L7.6 163.22 L0 163.22 Z" class="st4"/>
			</g>
			<g id="shape663-59" v:mID="663" v:groupContext="shape" v:layerMember="0"
					transform="translate(77.7359,-70.2204) scale(-1,1)">
				<title>Start/Ende.57</title>
				<v:custProps>
					<v:cp v:nameU="Cost" v:lbl="Kosten" v:prompt="" v:type="7" v:format="@" v:sortKey="" v:invis="false"
							v:ask="false" v:langID="1031" v:cal="0"/>
					<v:cp v:nameU="ProcessNumber" v:lbl="Prozessnummer" v:prompt="" v:type="2" v:format="" v:sortKey=""
							v:invis="false" v:ask="false" v:langID="1031" v:cal="0"/>
					<v:cp v:nameU="Owner" v:lbl="Besitzer" v:prompt="" v:type="0" v:format="" v:sortKey="" v:invis="false"
							v:ask="false" v:langID="1031" v:cal="0"/>
					<v:cp v:nameU="Function" v:lbl="Funktionsname" v:prompt="" v:type="0" v:format="" v:sortKey="" v:invis="false"
							v:ask="false" v:langID="1031" v:cal="0" v:val="VT4()"/>
					<v:cp v:nameU="StartDate" v:lbl="Startdatum" v:prompt="" v:type="5" v:format="" v:sortKey="" v:invis="false"
							v:ask="false" v:langID="1031" v:cal="0"/>
					<v:cp v:nameU="EndDate" v:lbl="Enddatum" v:prompt="" v:type="5" v:format="" v:sortKey="" v:invis="false"
							v:ask="false" v:langID="1031" v:cal="0"/>
					<v:cp v:nameU="Status" v:lbl="Status" v:prompt="" v:type="4"
							v:format=";Nicht begonnen;In Bearbeitung;Abgeschlossen;Zurückgestellt;Auf Eingabe wartend" v:sortKey=""
							v:invis="false" v:ask="false" v:langID="1031" v:cal="0" v:val="VT4()"/>
				</v:custProps>
				<v:userDefs>
					<v:ud v:nameU="visVersion" v:prompt="" v:val="VT0(14):26"/>
					<v:ud v:nameU="DefaultWidth" v:prompt="" v:val="VT0(0.98425196850394):24"/>
					<v:ud v:nameU="DefaultHeight" v:prompt="" v:val="VT0(0.39370078740157):24"/>
					<v:ud v:nameU="ResizeTxtHeight" v:prompt="" v:val="VT0(0.39370078740157):24"/>
					<v:ud v:nameU="msvThemeColors" v:val="VT0(36):26"/>
					<v:ud v:nameU="msvThemeEffects" v:val="VT0(16):26"/>
				</v:userDefs>
				<path d="M0.88 175.98 L6.73 175.98 a0.877463 0.877463 -180 1 0 0 -1.75493 L0.88 174.22 a0.877463 0.877463 -180 1
							 0 -1.24345E-014 1.75493 Z" class="st4"/>
			</g>
			<g id="shape664-62" v:mID="664" v:groupContext="shape" transform="translate(63.7343,-7.043) scale(-1,1)">
				<title>Tabelle.664</title>
				<v:userDefs>
					<v:ud v:nameU="msvThemeColors" v:val="VT0(36):26"/>
					<v:ud v:nameU="msvThemeEffects" v:val="VT0(16):26"/>
				</v:userDefs>
				<path d="M1.14 111.05 L1.14 117.15 A3.80234 2.92488 -180 0 0 0 119.24 L0 173.05 A3.80234 2.92488 -180 0 0 7.6 173.05
							 L7.6 119.24 A3.80234 2.92488 -180 0 0 6.46 117.15 L6.46 111.05 L1.14 111.05 Z" class="st4"/>
			</g>
			<g id="shape665-65" v:mID="665" v:groupContext="shape" transform="translate(149.811,-49.011) rotate(30) scale(-1,1)">
				<title>Tabelle.665</title>
				<v:userDefs>
					<v:ud v:nameU="msvThemeColors" v:val="VT0(36):26"/>
					<v:ud v:nameU="msvThemeEffects" v:val="VT0(16):26"/>
				</v:userDefs>
				<path d="M0 163.22 L0 166.84 L1.75 166.84 L1.75 173.24 L1.78 173.24 L3.8 175.98 L5.83 173.24 L5.85 173.24 L5.85 166.84
							 L7.6 166.84 L7.6 163.22 L0 163.22 Z" class="st4"/>
			</g>
			<g id="shape666-68" v:mID="666" v:groupContext="shape" v:layerMember="0"
					transform="translate(63.7343,-70.2204) scale(-1,1)">
				<title>Start/Ende.60</title>
				<v:custProps>
					<v:cp v:nameU="Cost" v:lbl="Kosten" v:prompt="" v:type="7" v:format="@" v:sortKey="" v:invis="false"
							v:ask="false" v:langID="1031" v:cal="0"/>
					<v:cp v:nameU="ProcessNumber" v:lbl="Prozessnummer" v:prompt="" v:type="2" v:format="" v:sortKey=""
							v:invis="false" v:ask="false" v:langID="1031" v:cal="0"/>
					<v:cp v:nameU="Owner" v:lbl="Besitzer" v:prompt="" v:type="0" v:format="" v:sortKey="" v:invis="false"
							v:ask="false" v:langID="1031" v:cal="0"/>
					<v:cp v:nameU="Function" v:lbl="Funktionsname" v:prompt="" v:type="0" v:format="" v:sortKey="" v:invis="false"
							v:ask="false" v:langID="1031" v:cal="0" v:val="VT4()"/>
					<v:cp v:nameU="StartDate" v:lbl="Startdatum" v:prompt="" v:type="5" v:format="" v:sortKey="" v:invis="false"
							v:ask="false" v:langID="1031" v:cal="0"/>
					<v:cp v:nameU="EndDate" v:lbl="Enddatum" v:prompt="" v:type="5" v:format="" v:sortKey="" v:invis="false"
							v:ask="false" v:langID="1031" v:cal="0"/>
					<v:cp v:nameU="Status" v:lbl="Status" v:prompt="" v:type="4"
							v:format=";Nicht begonnen;In Bearbeitung;Abgeschlossen;Zurückgestellt;Auf Eingabe wartend" v:sortKey=""
							v:invis="false" v:ask="false" v:langID="1031" v:cal="0" v:val="VT4()"/>
				</v:custProps>
				<v:userDefs>
					<v:ud v:nameU="visVersion" v:prompt="" v:val="VT0(14):26"/>
					<v:ud v:nameU="DefaultWidth" v:prompt="" v:val="VT0(0.98425196850394):24"/>
					<v:ud v:nameU="DefaultHeight" v:prompt="" v:val="VT0(0.39370078740157):24"/>
					<v:ud v:nameU="ResizeTxtHeight" v:prompt="" v:val="VT0(0.39370078740157):24"/>
					<v:ud v:nameU="msvThemeColors" v:val="VT0(36):26"/>
					<v:ud v:nameU="msvThemeEffects" v:val="VT0(16):26"/>
				</v:userDefs>
				<path d="M0.88 175.98 L6.73 175.98 a0.877463 0.877463 -180 1 0 0 -1.75493 L0.88 174.22 a0.877463 0.877463 -180 1
							 0 -1.24345E-014 1.75493 Z" class="st4"/>
			</g>
			<g id="shape667-71" v:mID="667" v:groupContext="shape" transform="translate(77.7359,-7.043) scale(-1,1)">
				<title>Tabelle.667</title>
				<v:userDefs>
					<v:ud v:nameU="msvThemeColors" v:val="VT0(36):26"/>
					<v:ud v:nameU="msvThemeEffects" v:val="VT0(16):26"/>
				</v:userDefs>
				<path d="M0 154.88 L0 173.05 A3.80234 2.92488 -180 0 0 7.6 173.05 L7.6 154.88 L0 154.88 Z" class="st7"/>
			</g>
			<g id="shape668-74" v:mID="668" v:groupContext="shape" transform="translate(63.7343,-7.043) scale(-1,1)">
				<title>Tabelle.668</title>
				<v:userDefs>
					<v:ud v:nameU="msvThemeColors" v:val="VT0(36):26"/>
					<v:ud v:nameU="msvThemeEffects" v:val="VT0(16):26"/>
				</v:userDefs>
				<path d="M0 154.88 L0 173.05 A3.80234 2.92488 -180 0 0 7.6 173.05 L7.6 154.88 L0 154.88 Z" class="st7"/>
			</g>
			<g id="shape669-77" v:mID="669" v:groupContext="shape" transform="translate(50.2782,-17.743)">
				<title>Rechteck.47</title>
				<v:userDefs>
					<v:ud v:nameU="visVersion" v:val="VT0(14):26"/>
					<v:ud v:nameU="msvThemeColors" v:val="VT0(36):26"/>
					<v:ud v:nameU="msvThemeEffects" v:val="VT0(16):26"/>
				</v:userDefs>
				<rect x="0" y="101.436" width="1.49083" height="74.5417" class="st4"/>
			</g>
			<g id="shape670-80" v:mID="670" v:groupContext="shape">
				<title>Rechteck.46</title>
				<v:userDefs>
					<v:ud v:nameU="visVersion" v:val="VT0(14):26"/>
					<v:ud v:nameU="msvThemeColors" v:val="VT0(36):26"/>
					<v:ud v:nameU="msvThemeEffects" v:val="VT0(16):26"/>
				</v:userDefs>
				<rect x="0" y="158.088" width="102.047" height="17.89" class="st8"/>
			</g>
		</g>
		<g id="group671-83" transform="translate(280.382,-50.4081)" v:mID="671" v:groupContext="group">
			<v:userDefs>
				<v:ud v:nameU="msvThemeColors" v:val="VT0(36):26"/>
				<v:ud v:nameU="msvThemeEffects" v:val="VT0(16):26"/>
			</v:userDefs>
			<title>Tabelle.671</title>
			<g id="shape672-84" v:mID="672" v:groupContext="shape" transform="translate(-7.99361E-015,-6.61679)">
				<title>Tabelle.672</title>
				<v:userDefs>
					<v:ud v:nameU="msvThemeColors" v:val="VT0(36):26"/>
					<v:ud v:nameU="msvThemeEffects" v:val="VT0(16):26"/>
				</v:userDefs>
				<path d="M0 166.02 L0 175.98 L65.69 175.98 L65.69 128.6 L21.6 128.6 L0 166.02 Z" class="st4"/>
			</g>
			<g id="shape673-87" v:mID="673" v:groupContext="shape" transform="translate(21.1415,-15.185)">
				<title>Tabelle.673</title>
				<v:userDefs>
					<v:ud v:nameU="msvThemeColors" v:val="VT0(36):26"/>
					<v:ud v:nameU="msvThemeEffects" v:val="VT0(16):26"/>
				</v:userDefs>
				<path d="M26.21 160.38 L30.44 163.54 L34.66 160.38 L32.13 160.38 A15.3179 10.2119 -180 0 0 18.58 152.8 L18.58 155.74
							 A11.291 7.29047 0 0 1 27.87 160.38 L26.21 160.38 ZM20.51 167.53 L17.36 171.75 L20.51 175.98 L20.51 172.97
							 A15.3179 10.2119 -180 0 0 32.52 164.25 L28.44 164.25 A11.291 7.29047 0 0 1 20.51 169.97 L20.51 167.53
							 ZM14.2 158.61 L17.35 154.38 L14.2 150.16 L14.2 152.98 A15.3179 10.2119 -180 0 0 2.11 161.72 L6.19 161.72
							 A11.291 7.29047 0 0 1 14.2 155.98 L14.2 158.61 ZM6.87 165.75 L8.45 165.75 L4.22 162.6 L0 165.75 L2.57
							 165.75 A15.3179 10.2119 -180 0 0 16.05 173.16 L16.05 170.23 A11.291 7.29047 0 0 1 6.87 165.75 Z"
						class="st9"/>
			</g>
			<g id="shape674-91" v:mID="674" v:groupContext="shape" transform="translate(2.83465,0)">
				<title>Rechteck.6</title>
				<v:userDefs>
					<v:ud v:nameU="visVersion" v:val="VT0(14):26"/>
					<v:ud v:nameU="msvThemeColors" v:val="VT0(36):26"/>
					<v:ud v:nameU="msvThemeEffects" v:val="VT0(16):26"/>
				</v:userDefs>
				<rect x="0" y="170.309" width="8.50394" height="5.66929" class="st4"/>
			</g>
			<g id="shape675-94" v:mID="675" v:groupContext="shape" transform="translate(55.2756,-2.84217E-014)">
				<title>Rechteck.7</title>
				<v:userDefs>
					<v:ud v:nameU="visVersion" v:val="VT0(14):26"/>
					<v:ud v:nameU="msvThemeColors" v:val="VT0(36):26"/>
					<v:ud v:nameU="msvThemeEffects" v:val="VT0(16):26"/>
				</v:userDefs>
				<rect x="0" y="170.309" width="8.50394" height="5.66929" class="st4"/>
			</g>
			<g id="shape676-97" v:mID="676" v:groupContext="shape" transform="translate(35.9857,-54.9392)">
				<title>Tabelle.676</title>
				<v:userDefs>
					<v:ud v:nameU="msvThemeColors" v:val="VT0(36):26"/>
					<v:ud v:nameU="msvThemeEffects" v:val="VT0(16):26"/>
				</v:userDefs>
				<rect x="0" y="169.025" width="12.0016" height="6.95321" class="st10"/>
			</g>
			<g id="shape677-100" v:mID="677" v:groupContext="shape" transform="translate(21.1008,-59.0577)">
				<title>Tabelle.677</title>
				<v:userDefs>
					<v:ud v:nameU="msvThemeColors" v:val="VT0(36):26"/>
					<v:ud v:nameU="msvThemeEffects" v:val="VT0(16):26"/>
				</v:userDefs>
				<path d="M0 175.98 L41.77 175.98 A26.9291 56.6929 -180 0 0 30.7 158.97 L11.07 158.97 A26.9291 56.6929 -180 0 0 0
							 175.98 Z" class="st10"/>
			</g>
		</g>
	</g>
</svg>
